<?xml version="1.0" encoding="UTF-8" standalone="no"?>
<svg
   version="1.1"
   width="303"
   height="206"
   viewBox="0 0 303 206"
   id="svg175"
   sodipodi:docname="fig-spring-mass-1.svg"
   inkscape:export-filename="fig-spring-mass-1.pdf"
   inkscape:export-xdpi="96"
   inkscape:export-ydpi="96"
   inkscape:version="1.3.2 (091e20e, 2023-11-25)"
   xmlns:inkscape="http://www.inkscape.org/namespaces/inkscape"
   xmlns:sodipodi="http://sodipodi.sourceforge.net/DTD/sodipodi-0.dtd"
   xmlns:xlink="http://www.w3.org/1999/xlink"
   xmlns="http://www.w3.org/2000/svg"
   xmlns:svg="http://www.w3.org/2000/svg">
  <sodipodi:namedview
     id="namedview175"
     pagecolor="#ffffff"
     bordercolor="#000000"
     borderopacity="0.25"
     inkscape:showpageshadow="2"
     inkscape:pageopacity="0.0"
     inkscape:pagecheckerboard="0"
     inkscape:deskcolor="#d1d1d1"
     inkscape:zoom="1.1456311"
     inkscape:cx="151.88136"
     inkscape:cy="102.56356"
     inkscape:window-width="1920"
     inkscape:window-height="1022"
     inkscape:window-x="0"
     inkscape:window-y="30"
     inkscape:window-maximized="1"
     inkscape:current-layer="svg175" />
  <defs
     id="defs1">
    <path
       id="font_1_85"
       d="M.33099366-.2400055C.33099366-.23701477 .33099366-.23500061 .31399537-.21800232 .18899536-.0920105 .15699768 .09700012 .15699768 .25 .15699768 .42399598 .19499207 .59799197 .31799317 .72299197 .33099366 .7350006 .33099366 .7369995 .33099366 .73999026 .33099366 .746994 .32699586 .75 .32099916 .75 .31098939 .75 .22099304 .6819916 .1619873 .5549927 .11099243 .44499208 .09899902 .33399964 .09899902 .25 .09899902 .17199707 .10998535 .050994874 .16499329-.06201172 .22499085-.18501282 .31098939-.25 .32099916-.25 .32699586-.25 .33099366-.24700928 .33099366-.2400055Z" />
    <path
       id="font_1_28"
       d="M.48298646 .08912659V.14511109H.45799256V.08912659C.45799256 .03112793 .43299867 .025131226 .42199708 .025131226 .3889923 .025131226 .3849945 .070129398 .3849945 .07511902V.27508546C.3849945 .31707765 .3849945 .3560791 .34899903 .39312745 .30999757 .43223573 .2599945 .4482422 .21199036 .4482422 .12998963 .4482422 .06098938 .40115357 .06098938 .335083 .06098938 .30508424 .08099365 .28808595 .10699463 .28808595 .1349945 .28808595 .15299988 .30807496 .15299988 .33407594 .15299988 .3460846 .147995 .37908937 .101989749 .38008119 .1289978 .41519166 .17799378 .426239 .20999146 .426239 .25898744 .426239 .31599427 .38710023 .31599427 .29808045V.26107789C.2649994 .25808717 .19499207 .25508119 .13198853 .22509766 .056991579 .19110108 .03199768 .13911438 .03199768 .09512329 .03199768 .014251709 .1289978-.0107421879 .19198609-.0107421879 .2579956-.0107421879 .3039856 .029251099 .32299806 .07624817 .32699586 .036132814 .35398866-.005859375 .40098573-.005859375 .42199708-.005859375 .48298646 .008132935 .48298646 .08912659M.31599427 .14013672C.31599427 .04525757 .24398804 .011245728 .19898987 .011245728 .1499939 .011245728 .10899353 .04624939 .10899353 .09625244 .10899353 .15124512 .15098572 .23425293 .31599427 .24024964V.14013672Z" />
    <path
       id="font_1_86"
       d="M.2889862 .25C.2889862 .32798768 .27799989 .44898988 .22299195 .56199648 .16299439 .68499758 .07699585 .75 .066986087 .75 .06098938 .75 .056991579 .74598696 .056991579 .73999026 .056991579 .7369995 .056991579 .7350006 .07598877 .71699526 .17399597 .6179962 .23098755 .45899964 .23098755 .25 .23098755 .07899475 .19400025-.09700012 .069992069-.2230072 .056991579-.23500061 .056991579-.23701477 .056991579-.2400055 .056991579-.2460022 .06098938-.25 .066986087-.25 .07699585-.25 .16699219-.18200684 .22599793-.055007936 .2769928 .054992677 .2889862 .16600037 .2889862 .25Z" />
    <path
       id="font_2_95"
       d="M.7519989 .088897708C.7519989 .09489441 .7519989 .10687256 .73799136 .10687256 .72499087 .10687256 .72499087 .09788513 .723999 .08988953 .71899417 .026992798 .6879883 .0029907227 .6569977 .0029907227 .625 .0029907227 .6139984 .022994996 .60598757 .039978029 .5970001 .061935426 .58799746 .12983704 .58200076 .17475891 .57398989 .23666382 .5649872 .3035431 .45399476 .33850099 .548996 .36550904 .6269989 .42453004 .6269989 .5025635 .6269989 .601593 .5059967 .6826172 .35899354 .6826172H.039993287V.6516113H.06298828C.13999939 .6516113 .14199829 .64060977 .14199829 .6035919V.07891846C.14199829 .04197693 .13999939 .0309906 .06298828 .0309906H.039993287V0C.08699036 .0029907227 .13699341 .0029907227 .18499756 .0029907227 .23298645 .0029907227 .2829895 .0029907227 .33099366 0V.0309906H.30799867C.23098755 .0309906 .22898865 .04197693 .22898865 .07891846V.32850648H.34899903C.42099 .32850648 .45298768 .29057313 .45700074 .28657533 .4869995 .24963379 .4869995 .23466492 .4869995 .16377259 .4869995 .09687805 .4869995 .052963258 .5349884 .01499939 .58200076-.022003174 .6419983-.022003174 .6529999-.022003174 .7369995-.022003174 .7519989 .064941409 .7519989 .088897708M.5249939 .5025635C.5249939 .41653443 .48098756 .35351563 .34498597 .35351563H.22898865V.6105957C.22898865 .63661196 .23098755 .6456146 .25 .6496124 .25898744 .6516113 .29100038 .6516113 .31199647 .6516113 .397995 .6516113 .5249939 .6516113 .5249939 .5025635Z" />
    <path
       id="font_2_66"
       d="M.25299073 0V.0309906C.18798828 .0309906 .18399048 .035995485 .18399048 .075042728V.4423828L.039993287 .43066407V.3996582C.10398865 .3996582 .11299133 .3936615 .11299133 .3447113V.07695007C.11299133 .0309906 .101989749 .0309906 .035995485 .0309906V0C.08099365 .0019989014 .101989749 .0029907227 .1459961 .0029907227 .1619873 .0029907227 .20399475 .0029907227 .25299073 0M.19699097 .6028137C.19699097 .63282778 .17298889 .6568146 .14299011 .6568146 .11299133 .6568146 .08898926 .63282778 .08898926 .6028137 .08898926 .57281497 .11299133 .5488281 .14299011 .5488281 .17298889 .5488281 .19699097 .57281497 .19699097 .6028137Z" />
    <path
       id="font_2_59"
       d="M.49899293 .40338136C.49899293 .42237855 .4850006 .45336915 .44499208 .45336915 .41600038 .45336915 .37098695 .4423828 .33599855 .40637208 .30899049 .42837525 .269989 .4423828 .22799683 .4423828 .1329956 .4423828 .06098938 .3743744 .06098938 .29537965 .06098938 .2443695 .09098816 .20837403 .10699463 .19337464 .10499573 .19137573 .07699585 .15637207 .07699585 .11038208 .07699585 .07637024 .09298706 .040374757 .11999512 .022369385 .068984989 .005874634 .0289917-.03111267 .0289917-.07809448 .0289917-.14907837 .12799073-.20605469 .2559967-.20605469 .3789978-.20605469 .48399354-.15307617 .48399354-.07609558 .48399354-.035110475 .46499635 .008880615 .42799378 .03288269 .37199403 .067871097 .31399537 .067871097 .21899414 .067871097 .19898987 .067871097 .16699219 .067871097 .15899658 .069885257 .12998963 .075927738 .11099243 .1031189 .11099243 .13534546 .11099243 .15142823 .115997318 .16642761 .125 .1794281 .1499939 .16343689 .18099976 .1484375 .22698975 .1484375 .32199098 .1484375 .3939972 .21643067 .3939972 .29542542 .3939972 .34443666 .3659973 .37843324 .35299684 .39242555 .3929901 .42843629 .43998719 .42843629 .45199586 .42843629 .44699098 .4254303 .43899537 .42042542 .43899537 .4024353 .43899537 .39143373 .44599916 .37243653 .46899415 .37243653 .48298646 .37243653 .49899293 .38243104 .49899293 .40342713V.40338136M.31698609 .29542542C.31698609 .27243043 .31698609 .1754303 .22698975 .1754303 .13798523 .17520142 .13798523 .27326966 .13798523 .2952881 .13798523 .3223114 .13999939 .35632325 .15699768 .38034059 .17199707 .4003601 .19898987 .41537477 .22698975 .41537477 .31698609 .41537477 .31698609 .31829835 .31698609 .2952881V.29542542M.42799378-.07698059C.42799378-.1340332 .35099793-.17906189 .25698854-.17906189 .15899658-.17912293 .084991458-.13212586 .084991458-.07711792 .084991458-.06112671 .09498596 .0048828127 .18099976 .0048828127H.272995C.30499269 .0048828127 .42799378 .0038757325 .42799378-.07711792V-.07698059Z" />
    <path
       id="font_2_47"
       d="M.5399933 0V.0309906C.47200013 .0309906 .46299745 .037994386 .46299745 .087020877V.69433596L.31498719 .6826172V.6516113C.3829956 .6516113 .3919983 .64463809 .3919983 .59580996V.38339234C.3869934 .38938905 .34199525 .4423828 .2639923 .4423828 .14099121 .4423828 .033996583 .3443756 .033996583 .21525574 .033996583 .09013367 .13398743-.0107421879 .25299073-.0107421879 .32598878-.0107421879 .37098695 .03224182 .3889923 .053115846V-.0107421879L.5399933 0M.3889923 .12011719C.3889923 .10211182 .3889923 .099121097 .37399293 .078125 .34298707 .033218385 .29699708 .014251709 .25698854 .014251709 .21398926 .014251709 .17399597 .038208009 .147995 .0801239 .12199402 .12312317 .11999512 .18218994 .11999512 .21421814 .11999512 .26127626 .12599182 .3143463 .1519928 .35438539 .17399597 .38638307 .21499634 .41737367 .2679901 .41737367 .30999757 .41737367 .34999085 .39637757 .3769989 .35839845 .3889923 .3423767 .3889923 .34136964 .3889923 .32235719V.12011719Z" />
    <path
       id="font_2_97"
       d="M.5130005 .18504334C.5130005 .24205017 .49198915 .28604127 .46798707 .31604005 .4249878 .37104798 .37998963 .38204957 .31498719 .39704896L.22698975 .41804505C.14698792 .43804933 .12098694 .5020447 .12098694 .546051 .12098694 .6130676 .1749878 .677063 .25898744 .677063 .3880005 .677063 .43998719 .5810547 .45399476 .4800415 .45700074 .4610443 .45799256 .4560547 .46998597 .4560547 .48399354 .4560547 .48399354 .4630432 .48399354 .48405458V.677063C.48399354 .69706729 .48399354 .7050781 .47200013 .7050781 .46499635 .7050781 .46398927 .70407107 .45700074 .69207766 .44400025 .67407229 .45399476 .68707278 .42099 .6350708 .4039917 .6550751 .35198976 .7050781 .2579956 .7050781 .14099121 .7047119 .056991579 .6137085 .056991579 .51171877 .056991579 .4336853 .10398865 .38565064 .10899353 .38064576 .1539917 .33662416 .17199707 .33161927 .29100038 .30360414 .37199403 .28459168 .3809967 .28259278 .4139862 .24856568 .4139862 .24856568 .44898988 .21055603 .44898988 .1515503 .44898988 .08354187 .3999939 .008529663 .30899049 .008529663 .23199463 .008529663 .09298706 .040542604 .084991458 .20555115 .083999637 .22055054 .083999637 .2265625 .070999149 .2265625 .056991579 .2265625 .056991579 .21855164 .056991579 .19854737V.0055389406C.056991579-.014465332 .056991579-.022460938 .068984989-.022460938 .07598877-.022460938 .07699585-.021469117 .083999637-.009475708 .09700012 .008529663 .08699036-.004470825 .11999512 .047531129 .18199158-.012466431 .26098634-.022460938 .30999757-.022460938 .43199159-.022460938 .5130005 .07752991 .5130005 .18452454V.18504334Z" />
    <path
       id="font_2_109"
       d="M.5469971 .00024414063V.03125C.47898866 .03125 .46998597 .038253786 .46998597 .087265018V.4423828L.31900025 .43138124V.40037538C.3869934 .40037538 .3959961 .39337159 .3959961 .34436036V.16729737C.3959961 .07826233 .34599305 .014251709 .27398683 .014251709 .19099427 .014251709 .18598938 .057266237 .18598938 .11128235V.4423828L.034988405 .43138124V.40037538C.11199951 .40037538 .11199951 .39736939 .11199951 .3083496V.15829468C.11199951 .09327698 .11199951 .051254274 .1579895 .01625061 .18699646-.003753662 .22799683-.0107421879 .2679901-.0107421879 .31999208-.0107421879 .36898805 .012252808 .397995 .072265628H.39898683V-.0107421879L.5469971 .00024414063Z" />
    <path
       id="font_2_84"
       d="M.5359955 .21557617C.5359955 .34158326 .43798829 .4423828 .31999208 .4423828 .2659912 .4423828 .21598816 .42037965 .17799378 .37858583V.4423828L.02999878 .43066407V.3996582C.100997928 .3996582 .10699463 .39363099 .10699463 .35058595V-.116989139C.10699463-.16308594 .09599304-.16308594 .02999878-.16308594V-.1940918C.07699585-.1920929 .09599304-.19110108 .14399719-.19110108 .19198609-.19110108 .20498657-.1920929 .2579956-.1940918V-.16308594C.19198609-.16308594 .18099976-.16308594 .18099976-.116989139V.048187257C.20698548 .022232056 .24099732-.0107421879 .30699159-.0107421879 .42599488-.0107421879 .5359955 .085113529 .5359955 .21585083V.21557617M.44999696 .21585083C.44999696 .1020813 .38198854 .014251709 .30099488 .014251709 .2559967 .014251709 .21798706 .04019165 .19400025 .07513428 .18099976 .09509277 .18099976 .097091678 .18099976 .11604309V.3356018C.21499634 .39437867 .269989 .41436769 .31199647 .41436769 .3899994 .41436769 .44999696 .32437135 .44999696 .21636963V.21585083Z" />
    <path
       id="font_2_81"
       d="M.48399354 .21324158C.48399354 .34423829 .37998963 .4482422 .25698854 .4482422 .12998963 .4482422 .0289917 .3412323 .0289917 .21324158 .0289917 .08824158 .1329956-.0107421879 .2559967-.0107421879 .3829956-.0107421879 .48399354 .09024048 .48399354 .21324158M.397995 .22224427C.397995 .1852417 .397995 .12724304 .37298585 .08325195 .34498597 .037246705 .29899598 .01725769 .25698854 .01725769 .20698548 .01725769 .16499329 .042251588 .14199829 .08125305 .115997318 .12324524 .114990238 .17623902 .114990238 .22224427 .114990238 .25924684 .114990238 .3162384 .13999939 .35723878 .16999817 .40823365 .21998596 .42323304 .2559967 .42323304 .31298829 .42323304 .35398866 .39123536 .37399293 .35723878 .39698792 .31523133 .397995 .26423646 .397995 .22224427Z" />
    <path
       id="font_2_96"
       d="M.37298585 .3798828C.37298585 .41236878 .34298707 .4423828 .2979889 .4423828 .23799134 .4423828 .19599915 .40037538 .17298889 .33787538H.17199707V.4423828L.02999878 .43066407V.3996582C.09799194 .3996582 .10699463 .3927307 .10699463 .34387208V.07698059C.10699463 .0309906 .09599304 .0309906 .02999878 .0309906V0C.08299255 .0019989014 .09599304 .0029907227 .14698792 .0029907227L.27398683 0V.0309906H.2539978C.18099976 .0309906 .17799378 .041992189 .17799378 .07897949V.22891236C.17799378 .26989747 .18899536 .4166565 .30299378 .4166565V.4156494C.30099488 .4146576 .2849884 .40264894 .2849884 .37887574 .2849884 .35186769 .30599977 .33486939 .32899476 .33486939 .34999085 .33486939 .37298585 .34986878 .37298585 .3798828Z" />
    <path
       id="font_2_105"
       d="M.34199525 .12408447V.18099976H.31399537V.1270752C.31399537 .05319214 .2829895 .01725769 .24699402 .01725769 .17999268 .01725769 .17999268 .1051178 .17999268 .12309265V.3996582H.32499696V.43066407H.17999268V.6142578H.1519928C.15098572 .5304413 .115997318 .42765809 .018997193 .4246521V.3996582H.10598755V.12408447C.10598755 .012252808 .18699646-.0107421879 .23999024-.0107421879 .30699159-.011001587 .34199525 .052993776 .34199525 .12399292V.12408447Z" />
    <path
       id="font_3_3"
       d="M.09799194 .13923645C.10998535 .04725647 .14698792-.01171875 .21398926-.01171875 .27598573-.01171875 .33599855 .042266847 .37199403 .07525635 .37399293 .07624817 .3769989 .07925415 .3769989 .085250858 .3769989 .09124756 .36999513 .099243167 .36299134 .099243167 .35899354 .099243167 .35699464 .099243167 .34799195 .09025574 .28399659 .030273438 .24899292 .0132751469 .21598816 .0132751469 .20199585 .0132751469 .17999268 .0132751469 .16499329 .057266237 .1599884 .07325745 .1539917 .10824585 .1539917 .14422608 .1539917 .16023255 .1539917 .18022156 .1579895 .19621277 .1579895 .19721985 .1579895 .19921875 .17799378 .21821594 .22200012 .26319886 .2789917 .32817079 .31900025 .38916017 .397995 .5081177 .40499879 .5970917 .40499879 .6260834 .40499879 .66007998 .394989 .7050781 .34399415 .7050781 .2979889 .7050781 .2639923 .66407778 .25099183 .64707949 .1579895 .5311127 .09399414 .32017518 .09399414 .19221497 .09399414 .18722534 .09399414 .18022156 .09498596 .17422486 .07199097 .15322876 .04899597 .13223267 .026992798 .11024475 .023986817 .10824585 .016998291 .101242069 .01399231 .099243167 .011993408 .09625244 .009994507 .09324646 .009994507 .08924866 .009994507 .085250858 .01399231 .07424927 .022994996 .07424927 .03199768 .07424927 .069992069 .11224365 .08099365 .12423706L.09799194 .13923645M.1639862 .24420166C.17098999 .28419496 .20599365 .43714906 .23899842 .5261078 .25099183 .55810549 .29699708 .68006899 .34498597 .68006899 .37298585 .68006899 .37799073 .654068 .37799073 .62908938 .37799073 .61408999 .37399293 .55010989 .33399964 .46813966 .27598573 .35217286 .16499329 .24420166 .1639862 .24420166Z" />
    <path
       id="font_2_77"
       d="M.5469971 0V.0309906C.49598695 .03125 .47099305 .03125 .46998597 .0622406V.25431825C.46998597 .3373413 .46998597 .36636354 .44198609 .4013672 .4189911 .42938233 .3809967 .4423828 .33099366 .4423828 .23799134 .4423828 .19499207 .37335206 .18099976 .34535218H.17999268V.4423828L.034988405 .43066407V.3996582C.102996829 .3996582 .11199951 .39266969 .11199951 .34370423V.07695007C.11199951 .0309906 .100997928 .0309906 .034988405 .0309906V0C.08198547 .0019989014 .100997928 .0029907227 .14898682 .0029907227 .19699097 .0029907227 .20999146 .0019989014 .2630005 0V.0309906C.19699097 .0309906 .18598938 .0309906 .18598938 .07695007V.25878907C.18598938 .36532594 .26098634 .41737367 .32398988 .41737367 .3829956 .41737367 .3959961 .3683319 .3959961 .30825807V.077041629C.3959961 .0309906 .3849945 .0309906 .31900025 .0309906V0C.3659973 .0019989014 .3849945 .0029907227 .43299867 .0029907227 .48098756 .0029907227 .49398805 .0019989014 .5469971 0Z" />
    <path
       id="font_2_98"
       d="M.36999513 .12831116C.36999513 .17330933 .34999085 .20030213 .32798768 .22329712 .2939911 .25628663 .2579956 .26327516 .18399048 .2772827 .1579895 .28227235 .084991458 .29527284 .084991458 .35224916 .084991458 .38424684 .10798645 .426239 .19898987 .426239 .30699159 .426239 .31399537 .34326173 .31599427 .31826783 .31698609 .3062744 .31698609 .3002777 .32998658 .3002777 .34399415 .3002777 .34399415 .30726625 .34399415 .32626344V.4222412C.34399415 .4392395 .34399415 .4482422 .33198548 .4482422 .32699586 .4482422 .32499696 .4482422 .31199647 .43623353 .30999757 .43423463 .30099488 .42523194 .29499818 .4202423 .2639923 .44223023 .23298645 .4482422 .19898987 .4482422 .066986087 .4482422 .033996583 .37524415 .033996583 .32426454 .033996583 .29226686 .04798889 .26628114 .070999149 .24429322 .10499573 .21330261 .14299011 .20629883 .19400025 .19729615 .24499512 .18730164 .2619934 .18431092 .28399659 .16731262 .2939911 .15931702 .31900025 .14031983 .31900025 .10229492 .31900025 .014251709 .21798706 .014251709 .20399475 .014251709 .101989749 .014251709 .07598877 .0993042 .06399536 .15332031 .06098938 .16331482 .05999756 .16931153 .04798889 .16931153 .033996583 .16931153 .033996583 .16131592 .033996583 .14331055V.01524353C.033996583-.0017547608 .033996583-.0107421879 .04598999-.0107421879 .051986696-.0107421879 .052993776-.009750366 .070999149 .009246826 .07499695 .01524353 .085998538 .028259278 .09098816 .03326416 .1329956-.007751465 .1789856-.0107421879 .20399475-.0107421879 .32699586-.0107421879 .36999513 .061279298 .36999513 .12831116Z" />
    <path
       id="font_2_50"
       d="M.4269867 .11936951C.4269867 .12637329 .42199708 .13237 .41299439 .13237 .40299989 .13237 .3999939 .12536621 .39898683 .12136841 .36499024 .019256592 .27598573 .01725769 .26098634 .01725769 .21299744 .01725769 .17199707 .044281007 .14898682 .078323367 .115997318 .12736511 .114990238 .18743897 .114990238 .22949219H.3999939C.42199708 .22949219 .4269867 .22949219 .4269867 .25048829 .4269867 .35333253 .37098695 .4482422 .24299622 .4482422 .12298584 .4482422 .0289917 .3443451 .0289917 .22047425 .0289917 .08932495 .13398743-.0107421879 .2559967-.0107421879 .37799073-.0107421879 .4269867 .096343997 .4269867 .11936951M.35899354 .253479H.115997318C.125 .40725709 .21499634 .42323304 .24299622 .42323304 .2979889 .42323304 .35798646 .38130189 .35899354 .253479Z" />
    <path
       id="font_2_43"
       d="M.4269867 .11936951C.4269867 .13139344 .41600038 .13139344 .41299439 .13139344 .4019928 .13139344 .4019928 .12937927 .3959961 .11236572 .37298585 .043289186 .31698609 .01725769 .2659912 .01725769 .20199585 .01725769 .11999512 .06932068 .11999512 .21749878 .11999512 .3735962 .19999695 .42022706 .2599945 .42022706 .272995 .42022706 .32699586 .41825868 .3639984 .39356996 .34298707 .3895874 .32299806 .3755951 .32299806 .34658814 .32299806 .32058717 .34298707 .30059815 .36898805 .30059815 .394989 .30059815 .41600038 .31759645 .41600038 .34858705 .41600038 .4103546 .34599305 .4482422 .2579956 .4482422 .12998963 .4482422 .033996583 .3415985 .033996583 .2164917 .033996583 .08734131 .13798523-.0107421879 .2559967-.0107421879 .394989-.0107421879 .4269867 .11036682 .4269867 .11936951Z" />
    <path
       id="font_2_63"
       d="M.5469971 0V.0309906C.49598695 .03125 .47099305 .03125 .46998597 .0622406V.25431825C.46998597 .3373413 .46998597 .36636354 .44198609 .4013672 .4189911 .42938233 .3809967 .4423828 .33099366 .4423828 .2639923 .4423828 .21499634 .40737916 .18399048 .35134889H.18299866V.69433596L.034988405 .6826172V.6516113C.102996829 .6516113 .11199951 .64463809 .11199951 .59580996V.077041629C.11199951 .0309906 .100997928 .0309906 .034988405 .0309906V0C.08198547 .0019989014 .100997928 .0029907227 .14898682 .0029907227 .19699097 .0029907227 .20999146 .0019989014 .2630005 0V.0309906C.19699097 .0309906 .18598938 .0309906 .18598938 .077041629V.2592163C.18598938 .36532594 .26098634 .41737367 .32398988 .41737367 .3829956 .41737367 .3959961 .3683319 .3959961 .30825807V.077041629C.3959961 .0309906 .3849945 .0309906 .31900025 .0309906V0C.3659973 .0019989014 .3849945 .0029907227 .43299867 .0029907227 .48098756 .0029907227 .49398805 .0019989014 .5469971 0Z" />
    <path
       id="font_1_35"
       d="M.5209961 .2163086C.5209961 .34335328 .4229889 .4423828 .30899049 .4423828 .23098755 .4423828 .18798828 .39537049 .17199707 .3773651V.69433596L.027999878 .68333438V.6523285C.09799194 .6523285 .10598755 .6453247 .10598755 .596344V.00024414063H.1309967L.16699219 .06227112C.18199158 .039260866 .22399903-.0107421879 .2979889-.0107421879 .4169922-.0107421879 .5209961 .08728027 .5209961 .2163086M.43798829 .21731568C.43798829 .18029785 .43598939 .120285037 .40699769 .07527161 .38598634 .044265748 .34799195 .011245728 .2939911 .011245728 .24899292 .011260986 .21299744 .03526306 .18899536 .072265628 .1749878 .09326172 .1749878 .09625244 .1749878 .11425781V.32034303C.1749878 .3393402 .1749878 .3403473 .18598938 .35635377 .22499085 .41236878 .27999879 .42037965 .3039856 .42037965 .34899903 .42037965 .3849945 .3943634 .40899659 .35635377 .43499757 .31533814 .43798829 .25831605 .43798829 .21730042V.21731568Z" />
    <path
       id="font_4_2"
       d="M.08799744 .059265138C.084991458 .044265748 .07899475 .021255494 .07899475 .01625061 .07899475-.0017547608 .09298706-.0107421879 .10798645-.0107421879 .11999512-.0107421879 .13798523-.002746582 .14498902 .01725769 .1459961 .019256592 .1579895 .06626892 .1639862 .091278079L.18598938 .18130493C.19198609 .2033081 .19799805 .22531128 .20298767 .24832154 .20698548 .26531983 .21499634 .29434205 .21598816 .29833985 .23098755 .3293457 .28399659 .42037965 .3789978 .42037965 .42399598 .42037965 .43299867 .38336183 .43299867 .35035707 .43299867 .3253479 .42599488 .29733277 .41799928 .26733399L.3899994 .1512909 .36999513 .07527161C.3659973 .055267335 .35699464 .021255494 .35699464 .01625061 .35699464-.0017547608 .37098695-.0107421879 .38598634-.0107421879 .4169922-.0107421879 .4229889 .014251709 .43099977 .04626465 .44499208 .10227966 .48199464 .24832154 .4909973 .28733827 .49398805 .30033876 .5469971 .42037965 .6559906 .42037965 .69898989 .42037965 .70999148 .3863678 .70999148 .35035707 .70999148 .29333497 .66799929 .17930603 .647995 .12628174 .6389923 .10227966 .6349945 .091278079 .6349945 .0712738 .6349945 .024261475 .66999819-.0107421879 .71699526-.0107421879 .8109894-.0107421879 .84799197 .13528443 .84799197 .14329529 .84799197 .1532898 .83898928 .1532898 .83599856 .1532898 .82598879 .1532898 .82598879 .15029907 .82099917 .13528443 .80599978 .08227539 .7739868 .011245728 .71899417 .011245728 .70199587 .011245728 .69499209 .021255494 .69499209 .044265748 .69499209 .0692749 .70399478 .09327698 .71299746 .11528015 .7319946 .16729737 .7739868 .27833558 .7739868 .3353424 .7739868 .4003601 .73399356 .4423828 .6589966 .4423828 .58399966 .4423828 .5329895 .3983612 .49598695 .34535218 .49499513 .35835267 .49198915 .3923645 .46398927 .41636659 .43899537 .43737794 .40699769 .4423828 .38198854 .4423828 .2919922 .4423828 .24299622 .37835694 .22599793 .35534669 .22099304 .41236878 .1789856 .4423828 .13398743 .4423828 .08799744 .4423828 .068984989 .4033661 .05999756 .38536073 .041992189 .35035707 .0289917 .29133607 .0289917 .28833009 .0289917 .27833558 .038986207 .27833558 .040985109 .27833558 .050994874 .27833558 .051986696 .2793274 .057998659 .30133058 .07499695 .37236024 .09498596 .42037965 .1309967 .42037965 .14698792 .42037965 .1619873 .41236878 .1619873 .37435914 .1619873 .35334779 .15899658 .3423462 .1459961 .29032899L.08799744 .059265138Z" />
    <path
       id="font_3_4"
       d="M.39698792 .37402345C.35398866 .37001039 .34999085 .3360138 .34999085 .32901 .34999085 .31201173 .36299134 .29901124 .38198854 .29901124 .4099884 .29901124 .42900086 .32202149 .42900086 .355011 .42900086 .40527345 .37998963 .4423828 .30599977 .4423828 .17199707 .4423828 .13398743 .3420105 .13398743 .2960205 .13398743 .25810243 .15299988 .23814392 .1659851 .22616577 .18598938 .2071991 .21299744 .20121765 .24899292 .19422913 .2939911 .1852417 .3039856 .18325806 .32199098 .17027283 .33799745 .15830994 .34700013 .14231873 .34700013 .12130737 .34700013 .0953064 .32299806 .014251709 .20199585 .014251709 .1789856 .014251709 .10899353 .01725769 .08699036 .063308719 .13699341 .063308719 .14698792 .10331726 .14698792 .11730957 .14698792 .14730835 .11999512 .15332031 .10899353 .15332031 .09098816 .15332031 .052993776 .13931275 .052993776 .08731079 .052993776 .025268555 .115997318-.0107421879 .20098877-.0107421879 .36898805-.0107421879 .4059906 .11231995 .4059906 .15530396 .4059906 .1932373 .3849945 .21717835 .37298585 .2291565 .34700013 .25610353 .31498719 .26208497 .27999879 .2690735 .2679901 .2720642 .24598694 .276062 .24299622 .27705384 .20999146 .28404237 .19198609 .3040161 .19198609 .32901 .19198609 .3400116 .19898987 .37200929 .22698975 .3941803 .25498963 .41636659 .29299928 .41737367 .30599977 .41737367 .34098817 .41737367 .38198854 .40628053 .39698792 .37402345Z" />
    <path
       id="font_2_75"
       d="M.83299258 0V.0309906C.7819977 .03125 .7569885 .03125 .7559967 .0622406V.2539215C.7559967 .34077455 .7559967 .36872865 .72299197 .4056549 .70199587 .43037416 .6619873 .4423828 .6159973 .4423828 .5439911 .4423828 .49499513 .40037538 .46699525 .3473816 .45498658 .40637208 .4149933 .4423828 .33099366 .4423828 .25099183 .4423828 .20199585 .39038087 .18099976 .3443756H.17999268V.4423828L.034988405 .43066407V.3996582C.102996829 .3996582 .11199951 .39266969 .11199951 .34370423V.07695007C.11199951 .0309906 .100997928 .0309906 .034988405 .0309906V0C.08198547 .0019989014 .100997928 .0029907227 .14898682 .0029907227 .19699097 .0029907227 .20999146 .0019989014 .2630005 0V.0309906C.19699097 .0309906 .18598938 .0309906 .18598938 .07695007V.25878907C.18598938 .36732484 .2639923 .41737367 .32398988 .41737367 .3789978 .41737367 .39698792 .37834168 .39698792 .30825807V.077041629C.39698792 .0309906 .38598634 .0309906 .31999208 .0309906V0C.36698915 .0019989014 .38598634 .0029907227 .43399049 .0029907227 .48199464 .0029907227 .49499513 .0019989014 .5479889 0V.0309906C.48199464 .0309906 .47099305 .0309906 .47099305 .077041629V.2592163C.47099305 .36732484 .548996 .41737367 .60899356 .41737367 .6639862 .41737367 .6819916 .37834168 .6819916 .30825807V.077041629C.6819916 .0309906 .67099 .0309906 .6049957 .0309906V0C.6519928 .0019989014 .67099 .0029907227 .71899417 .0029907227 .7669983 .0029907227 .7799988 .0019989014 .83299258 0Z" />
    <path
       id="font_2_28"
       d="M.49699403 .089141849V.14515686H.46899415V.090148929C.46899415 .07914734 .46899415 .029129029 .43299867 .029129029 .39698792 .029129029 .39698792 .07714844 .39698792 .09315491V.26818849C.39698792 .32521058 .39698792 .3592224 .35198976 .40022279 .31498719 .43322755 .2669983 .4482422 .21699524 .4482422 .1329956 .4482422 .06298828 .40623475 .06298828 .34220887 .06298828 .311203 .083999637 .2942047 .10998535 .2942047 .13699341 .2942047 .1559906 .31420899 .1559906 .34020997 .1559906 .3832245 .11099243 .38822938 .11099243 .38822938 .13798523 .41423036 .18598938 .42323304 .21499634 .42323304 .2659912 .42323304 .32299806 .3852234 .32299806 .29719544V.26419068C.2689972 .26219178 .19400025 .2571869 .1269989 .22518921 .054992677 .19017029 .032989503 .13816834 .032989503 .09814453 .032989503 .01625061 .12998963-.0107421879 .19699097-.0107421879 .27999879-.0107421879 .31799317 .04425049 .33198548 .072250369 .33699037 .030136109 .3659973-.005859375 .40899659-.005859375 .43399049-.005859375 .49699403 .009140015 .49699403 .08912659V.089141849M.32299806 .14112854C.32299806 .04425049 .24798584 .014251709 .20399475 .014251709 .15699768 .014251709 .11299133 .04824829 .11299133 .098236087 .11299133 .16423035 .16999817 .23422241 .32299806 .24023438V.14112854Z" />
    <path
       id="font_2_91"
       d="M.5399933-.19343567V-.16242981C.47399903-.16242981 .46299745-.16242981 .46299745-.11653137V.4423828H.43798829L.3999939 .35435487C.35299684 .43338014 .29599 .4423828 .26098634 .4423828 .14299011 .4423828 .033996583 .34635926 .033996583 .21531677 .033996583 .088272098 .13598633-.0107421879 .25299073-.0107421879 .29499818-.0107421879 .34599305 .004257202 .3889923 .059265138V-.11653137C.3889923-.16242981 .37799073-.16242981 .31199647-.16242981V-.1940918C.35899354-.19143677 .37799073-.19042969 .42599488-.19042969 .47399903-.19110108 .4869995-.1920929 .5399933-.1940918V-.19343567M.3919983 .1382904C.3919983 .120285037 .3919983 .11628723 .3769989 .089279178 .35198976 .04626465 .30999757 .014251709 .25698854 .014251709 .18299866 .014251709 .11999512 .10227966 .11999512 .21531677 .11999512 .3313446 .19099427 .41436769 .2679901 .41436769 .34599305 .41436769 .3919983 .3313446 .3919983 .27633668V.1382904Z" />
    <path
       id="font_2_72"
       d="M.26098634 0V.0309906C.19499207 .0309906 .18399048 .0309906 .18399048 .07701111V.69433596L.035995485 .6826172V.6516113C.10398865 .6516113 .11299133 .64460757 .11299133 .5956421V.07696533C.11299133 .0309906 .101989749 .0309906 .035995485 .0309906V0C.08299255 .0019989014 .101989749 .0029907227 .147995 .0029907227 .19499207 .0029907227 .21199036 .0019989014 .26098634 0Z" />
    <path
       id="font_2_35"
       d="M.5359955 .21636963C.5359955 .34144593 .43699647 .4423828 .31698609 .4423828 .24899292 .4423828 .20199585 .4073944 .17799378 .38046266V.69433596L.02999878 .68333438V.6523285C.09799194 .6523285 .10699463 .6453247 .10699463 .596344V.00024414063H.1349945L.17199707 .061279298C.20298767 .01725769 .25299073-.0107421879 .30699159-.0107421879 .42599488-.0107421879 .5359955 .08529663 .5359955 .21636963M.44999696 .21737671C.44999696 .17034912 .44400025 .11730957 .41799928 .07728577 .3959961 .045272829 .35499574 .014251709 .3019867 .014251709 .25698854 .014251709 .21899414 .038269044 .19499207 .075286868 .18099976 .09629822 .18099976 .0973053 .18099976 .11631775V.31944276C.18099976 .3384552 .18099976 .33944703 .19198609 .35546876 .22599793 .40141297 .2749939 .41737367 .31298829 .41737367 .35598756 .41737367 .3959961 .39343263 .42199708 .3514557 .44799806 .3084259 .44999696 .24938965 .44999696 .21737671Z" />
    <path
       id="font_1_43"
       d="M.4149933 .119140628C.4149933 .12911988 .40499879 .12911988 .4019928 .12911988 .3929901 .12911988 .3909912 .12512207 .3889923 .119140628 .3600006 .026229859 .29499818 .014251709 .2579956 .014251709 .20498657 .014251709 .116989139 .0572052 .116989139 .21801758 .116989139 .38093568 .19898987 .42323304 .2519989 .42323304 .26098634 .42323304 .32398988 .42222596 .35899354 .38594056 .31799317 .38293458 .31199647 .3529358 .31199647 .3399353 .31199647 .31393434 .32998658 .2939453 .35798646 .2939453 .38398744 .2939453 .4039917 .3109436 .4039917 .34094239 .4039917 .40911866 .32798768 .4482422 .25099183 .4482422 .12599182 .4482422 .033996583 .3399353 .033996583 .21601868 .033996583 .08816528 .1329956-.0107421879 .24899292-.0107421879 .3829956-.0107421879 .4149933 .10914612 .4149933 .119140628Z" />
    <path
       id="font_5_3"
       d="M.70599368 .22944641C.7200012 .22944641 .7409973 .22944641 .7409973 .25045777 .7409973 .27246095 .7220001 .27246095 .70599368 .27246095H.42099V.5578003C.42099 .573761 .42099 .59277346 .39898683 .59277346 .37799073 .59277346 .37799073 .57177737 .37799073 .5578003V.27246095H.09199524C.07798767 .27246095 .056991579 .27246095 .056991579 .25144959 .056991579 .22944641 .07598877 .22944641 .09199524 .22944641H.37799073V-.056793214C.37799073-.07279968 .37799073-.091796878 .3999939-.091796878 .42099-.091796878 .42099-.07080078 .42099-.056793214V.22944641H.70599368Z" />
    <path
       id="font_3_6"
       d="M.5019989 .38536073C.5029907 .3903656 .5049896 .39637757 .5049896 .40237428 .5049896 .41537477 .49598695 .43138124 .47399903 .43138124 .46099855 .43138124 .44299317 .42337037 .43499757 .40437318 .43399049 .40037538 .42399598 .35935975 .41799928 .33735658L.36799623 .13728333C.3600006 .10827637 .3600006 .106277469 .35798646 .09727478 .35699464 .09327698 .31498719 .014251709 .24299622 .014251709 .18099976 .014251709 .18099976 .07727051 .18099976 .09628296 .18099976 .14129639 .19400025 .19030762 .23699951 .30233766 .24499512 .3253479 .25099183 .33935548 .25099183 .35835267 .25099183 .40737916 .21398926 .4423828 .16499329 .4423828 .068984989 .4423828 .0289917 .30033876 .0289917 .28833009 .0289917 .2793274 .035995485 .27633668 .042999269 .27633668 .053985597 .27633668 .054992677 .28233338 .05899048 .29533387 .07998657 .3693695 .11999512 .41737367 .1619873 .41737367 .18598938 .41737367 .18598938 .39837647 .18598938 .3843689 .18598938 .36735536 .18199158 .34934999 .17298889 .3253479 .12599182 .2013092 .11299133 .15930176 .11299133 .11128235 .11299133 .00024414063 .20298767-.0107421879 .23999024-.0107421879 .2889862-.0107421879 .32398988 .01524353 .34199525 .0332489 .32899476-.017745972 .31799317-.0627594 .2789917-.11276245 .24899292-.15286255 .20899964-.18008423 .16499329-.18008423 .13699341-.18008423 .10398865-.16999817 .08999634-.14176941 .14299011-.14176941 .1499939-.09776306 .1499939-.087768558 .1499939-.06576538 .13398743-.051757814 .11199951-.051757814 .08799744-.051757814 .055999757-.07077026 .055999757-.116760257 .055999757-.16899109 .101989749-.20507813 .16499329-.20507813 .2669983-.20507813 .37599183-.117767337 .40499879-.00074768069L.5019989 .38536073Z" />
    <path
       id="font_5_1"
       d="M.34098817-.23803711C.34098817-.23303223 .33799745-.23002625 .33198548-.22303772 .20298767-.105026248 .1639862 .07498169 .1639862 .24996948 .1639862 .40498353 .19400025 .59298709 .33499146 .72698977 .33898927 .73098757 .34098817 .73399356 .34098817 .7389984 .34098817 .74598696 .33599855 .75 .32899476 .75 .31698609 .75 .22698975 .6779785 .17298889 .568985 .125 .47297669 .100997928 .36997987 .100997928 .25097657 .100997928 .17897034 .10998535 .064971927 .16499329-.053024293 .22399903-.17602539 .31698609-.24902344 .32899476-.24902344 .33599855-.24902344 .34098817-.24502564 .34098817-.23803711Z" />
    <path
       id="font_3_5"
       d="M.21299744 .3996582H.30799867C.32598878 .3996582 .33799745 .3996582 .33799745 .41766358 .33799745 .43066407 .32798768 .43066407 .30999757 .43066407H.22099304L.2619934 .59646609C.2619934 .6124573 .24899292 .62545779 .23098755 .62545779 .19898987 .62545779 .19099427 .59646609 .18899536 .5864868L.14898682 .43066407H.054992677C.035995485 .43066407 .023986817 .43066407 .023986817 .4126587 .023986817 .3996582 .034988405 .3996582 .052993776 .3996582H.14199829L.07398987 .12808228C.06599426 .09811401 .06599426 .09613037 .06599426 .08215332 .06599426 .023239136 .11099243-.0107421879 .16299439-.0107421879 .2669983-.0107421879 .32598878 .1330719 .32598878 .14305115 .32598878 .14804077 .32299806 .1550293 .31298829 .1550293 .30299378 .1550293 .3019867 .15203858 .29499818 .1350708 .2639923 .06317139 .21398926 .014251709 .16499329 .014251709 .14498902 .014251709 .1329956 .027236939 .1329956 .060180665 .1329956 .08215332 .13598633 .09413147 .13999939 .10910034L.21299744 .3996582Z" />
    <path
       id="font_5_2"
       d="M.2979889 .25097657C.2979889 .3329773 .28599549 .4429779 .23399353 .5539856 .1749878 .6769867 .08198547 .75 .069992069 .75 .05999756 .75 .057998659 .74198916 .057998659 .7389984 .057998659 .73399356 .05999756 .73098757 .066986087 .72398379 .125 .6719818 .23498535 .5359802 .23498535 .25097657 .23498535 .10797119 .20899964-.091033939 .06399536-.22602844 .06199646-.22903443 .057998659-.23303223 .057998659-.23803711 .057998659-.24102783 .05999756-.24902344 .069992069-.24902344 .08198547-.24902344 .17199707-.17703247 .22599793-.06802368 .27398683 .02796936 .2979889 .13098145 .2979889 .25097657Z" />
    <path
       id="font_1_114"
       d="M.7029877 .3996582V.43066407C.68099978 .4286499 .6519928 .42765809 .6299896 .42765809L.5369873 .43066407V.3996582C.57299807 .39866639 .59498599 .38075257 .59498599 .35176087 .59498599 .34576417 .59498599 .34376527 .58999636 .33078004L.49899293 .07513428 .3999939 .35375978C.3959961 .36575318 .394989 .36775209 .394989 .37275697 .394989 .3996582 .43399049 .3996582 .45399476 .3996582V.43066407L.34999085 .42765809C.31999208 .42765809 .29100038 .4286499 .26098634 .43066407V.3996582C.2979889 .3996582 .31399537 .39767457 .32398988 .38476563 .32899476 .37875367 .33999635 .34877015 .34700013 .3297882L.26098634 .08811951 .1659851 .3547516C.16099549 .36676026 .16099549 .36875917 .16099549 .37275697 .16099549 .3996582 .19999695 .3996582 .21998596 .3996582V.43066407L.11099243 .42765809 .017990113 .43066407V.3996582C.067993167 .3996582 .07998657 .39668275 .09199524 .36476136L.21798706 .01121521C.22299195-.0027618409 .22599793-.0107421879 .23899842-.0107421879 .2519989-.0107421879 .2539978-.004760742 .25898744 .009216309L.3600006 .2918396 .46199037 .008224487C.46598817-.0027618409 .46899415-.0107421879 .48199464-.0107421879 .49499513-.0107421879 .49798585-.0017547608 .5019989 .008224487L.61898806 .3357849C.6369934 .38575746 .66799929 .39866639 .7029877 .3996582Z" />
    <path
       id="font_1_72"
       d="M.25498963 0V.0309906C.18798828 .0309906 .1769867 .0309906 .1769867 .07601929V.69433596L.032989503 .6826172V.6516113C.102996829 .6516113 .11099243 .64460757 .11099243 .5956421V.07595825C.11099243 .0309906 .099990848 .0309906 .032989503 .0309906V0L.14399719 .0029907227 .25498963 0Z" />
    <path
       id="font_1_102"
       d="M.44299317 .7299957C.44299317 .7409973 .43399049 .75 .4229889 .75 .40899659 .75 .40499879 .73999026 .4019928 .7299957L.06098938-.21200562C.055999757-.2250061 .055999757-.23001099 .055999757-.23001099 .055999757-.24101258 .06498718-.25 .07598877-.25 .08999634-.25 .09399414-.2400055 .09700012-.23001099L.43798829 .71199038C.44299317 .72499087 .44299317 .7299957 .44299317 .7299957Z" />
    <path
       id="font_1_55"
       d="M.35699464 .63479617C.35699464 .6717987 .31999208 .7050781 .2669983 .7050781 .19699097 .7050781 .11199951 .65179446 .11199951 .5457611V.43066407H.032989503V.3996582H.11199951V.07595825C.11199951 .0309906 .100997928 .0309906 .033996583 .0309906V0L.147995 .0029907227C.18798828 .0029907227 .23498535 .0029907227 .2749939 0V.0309906H.2539978C.17999268 .0309906 .17799378 .04197693 .17799378 .07795715V.3996582H.2919922V.43066407H.1749878V.5467529C.1749878 .63479617 .22299195 .68307498 .2669983 .68307498 .269989 .68307498 .2849884 .68307498 .2999878 .675827 .28799439 .6717987 .269989 .6587982 .269989 .6338043 .269989 .61079409 .28599549 .5907898 .31298829 .5907898 .34199525 .5907898 .35699464 .61079409 .35699464 .63479617Z" />
    <path
       id="font_1_96"
       d="M.3639984 .38137818C.3639984 .41337586 .33299256 .4423828 .2899933 .4423828 .21699524 .4423828 .18099976 .37538148 .16699219 .3323822V.4423828L.027999878 .43066407V.3996582C.09799194 .3996582 .10598755 .39266969 .10598755 .34370423V.07595825C.10598755 .0309906 .09498596 .0309906 .027999878 .0309906V0L.14199829 .0029907227C.18199158 .0029907227 .22898865 .0029907227 .2689972 0V.0309906H.24798584C.17399597 .0309906 .17199707 .04197693 .17199707 .07795715V.23181153C.17199707 .33137513 .21398926 .42037965 .2899933 .42037965 .29699708 .42037965 .29899598 .42037965 .30099488 .41937257 .2979889 .41838075 .27799989 .40637208 .27799989 .3803711 .27799989 .35237123 .29899598 .33737184 .32099916 .33737184 .33898927 .33737184 .3639984 .3493805 .3639984 .38137818Z" />
    <path
       id="font_1_66"
       d="M.24699402 0V.0309906C.18099976 .0309906 .1769867 .035995485 .1769867 .075042728V.4423828L.036987306 .43066407V.3996582C.101989749 .3996582 .11099243 .3936615 .11099243 .3447113V.07595825C.11099243 .0309906 .099990848 .0309906 .032989503 .0309906V0L.14299011 .0029907227C.17799378 .0029907227 .21299744 .0009918213 .24699402 0M.19198609 .603775C.19198609 .6307678 .16899109 .6567688 .13899231 .6567688 .10499573 .6567688 .084991458 .6287689 .084991458 .603775 .084991458 .57676699 .10798645 .55078127 .13798523 .55078127 .17199707 .55078127 .19198609 .5787811 .19198609 .603775Z" />
    <path
       id="font_1_105"
       d="M.33198548 .12385559V.18066406H.30699159V.12585449C.30699159 .052108766 .2769928 .014251709 .23999024 .014251709 .17298889 .014251709 .17298889 .10491943 .17298889 .12187195V.3996582H.31599427V.43066407H.17298889V.6142578H.147995C.14698792 .5324249 .116989139 .42565919 .018997193 .42166139V.3996582H.10398865V.12408447C.10398865 .0012512207 .19699097-.0107421879 .23298645-.0107421879 .3039856-.0107421879 .33198548 .060180665 .33198548 .12408447V.12385559Z" />
    <path
       id="font_1_81"
       d="M.47099305 .21424866C.47099305 .34223939 .37098695 .4482422 .25 .4482422 .125 .4482422 .027999878 .3392334 .027999878 .21424866 .027999878 .085250858 .13198853-.0107421879 .24899292-.0107421879 .36999513-.0107421879 .47099305 .087249759 .47099305 .21424866M.3880005 .22224427C.3880005 .18624878 .3880005 .13224793 .3659973 .08824158 .34399415 .04324341 .2999878 .014251709 .25 .014251709 .20698548 .014251709 .16299439 .035247804 .13598633 .08125305 .11099243 .12524414 .11099243 .18624878 .11099243 .22224427 .11099243 .26124574 .11099243 .31523133 .1349945 .35923768 .1619873 .40522767 .20899964 .426239 .24899292 .426239 .29299928 .426239 .33599855 .40423585 .3619995 .36123658 .3880005 .3182373 .3880005 .26023866 .3880005 .22224427Z" />
    <path
       id="font_1_77"
       d="M.5349884 0V.0309906C.48298646 .0309906 .45799256 .0309906 .45700074 .061019899V.25221253C.45700074 .3383026 .45700074 .36932374 .42599488 .405365 .4119873 .42237855 .3789978 .4423828 .32099916 .4423828 .24798584 .4423828 .20098877 .39935304 .17298889 .33729554V.4423828L.03199768 .43066407V.3996582C.101989749 .3996582 .10998535 .39266969 .10998535 .34370423V.07595825C.10998535 .0309906 .09899902 .0309906 .03199768 .0309906V0L.14498902 .0029907227 .25698854 0V.0309906C.18998719 .0309906 .1789856 .0309906 .1789856 .07595825V.25978089C.1789856 .36431886 .25 .42037965 .31399537 .42037965 .3769989 .42037965 .3880005 .36631776 .3880005 .30926515V.076034549C.3880005 .0309906 .3769989 .0309906 .30999757 .0309906V0L.4229889 .0029907227 .5349884 0Z" />
    <path
       id="font_4_1"
       d="M.30299378 .3244629H.3999939C.47499085 .3244629 .48298646 .30848695 .48298646 .27954103 .48298646 .2725525 .48298646 .26057435 .47599793 .2306366 .47399903 .22564698 .47299195 .22164917 .47299195 .21965027 .47299195 .21166992 .47898866 .20767212 .4850006 .20767212 .49499513 .20767212 .49499513 .21066284 .5 .2286377L.5549927 .44551087C.55799868 .45651246 .55799868 .45851136 .55799868 .46151734 .55799868 .46351625 .55599978 .47251893 .54599 .47251893 .5359955 .47251893 .5349884 .46751405 .5309906 .45150758 .5099945 .37347413 .4869995 .35546876 .4019928 .35546876H.31098939L.375 .6095886C.38398744 .64460757 .3849945 .64860537 .42900086 .64860537H.5609894C.6839905 .64860537 .70700076 .6156006 .70700076 .53855898 .70700076 .5155487 .70700076 .51153567 .70399478 .4845276 .70199587 .4715271 .70199587 .46951295 .70199587 .46652223 .70199587 .46151734 .7049866 .45451356 .71398928 .45451356 .72499087 .45451356 .7259979 .46051026 .7279968 .4795227L.7480011 .65260317C.7509918 .6796112 .74598696 .6796112 .72099307 .6796112H.23098755C.21099854 .6796112 .20098877 .6796112 .20098877 .65960696 .20098877 .64860537 .20999146 .64860537 .22898865 .64860537 .2659912 .64860537 .2939911 .64860537 .2939911 .6306 .2939911 .6266022 .2939911 .6246033 .2889862 .60658267L.15699768 .07791138C.14698792 .038970949 .14498902 .0309906 .06599426 .0309906 .04899597 .0309906 .037994386 .0309906 .037994386 .011993408 .037994386 0 .049987794 0 .052993776 0 .08198547 0 .1559906 .0029907227 .18499756 .0029907227 .21798706 .0029907227 .30099488 0 .33399964 0 .34298707 0 .35499574 0 .35499574 .018997193 .35499574 .026992798 .34899903 .0289917 .34899903 .02999878 .34599305 .0309906 .34399415 .0309906 .32099916 .0309906 .29899598 .0309906 .2939911 .0309906 .2689972 .032989503 .23999024 .035980226 .23699951 .039978029 .23699951 .052947999 .23699951 .0549469 .23699951 .060943605 .24099732 .075912479L.30299378 .3244629Z" />
    <path
       id="font_6_1"
       d="M.33099366-.2400055C.33099366-.23701477 .33099366-.23500061 .31399537-.21800232 .18899536-.0920105 .15699768 .09700012 .15699768 .25 .15699768 .42399598 .19499207 .59799197 .31799317 .72299197 .33099366 .73498538 .33099366 .7369995 .33099366 .73999026 .33099366 .746994 .32699586 .75 .32099916 .75 .31098939 .75 .22099304 .6819916 .1619873 .5549927 .11099243 .44499208 .09899902 .33399964 .09899902 .25 .09899902 .17199707 .10998535 .050994874 .16499329-.06201172 .22499085-.18501282 .31098939-.25 .32099916-.25 .32699586-.25 .33099366-.24700928 .33099366-.2400055Z" />
    <path
       id="font_4_3"
       d="M.20599365 .3996582H.2999878C.31999208 .3996582 .32998658 .3996582 .32998658 .41966249 .32998658 .43066407 .31999208 .43066407 .3019867 .43066407H.21398926C.25 .5724945 .25498963 .59246829 .25498963 .59846499 .25498963 .61546328 .24299622 .62545779 .22599793 .62545779 .22299195 .62545779 .19499207 .62446597 .18598938 .58947756L.14698792 .43066407H.052993776C.032989503 .43066407 .022994996 .43066407 .022994996 .4116516 .022994996 .3996582 .0309906 .3996582 .050994874 .3996582H.13899231C.066986087 .11608887 .06298828 .099121097 .06298828 .08114624 .06298828 .02722168 .100997928-.0107421879 .15499878-.0107421879 .25698854-.0107421879 .31399537 .13505554 .31399537 .14305115 .31399537 .1530304 .30599977 .1530304 .3019867 .1530304 .29299928 .1530304 .2919922 .15003968 .2869873 .13905335 .24398804 .035217287 .19099427 .011245728 .15699768 .011245728 .13598633 .011245728 .12599182 .024230957 .12599182 .057174684 .12599182 .08114624 .12799073 .088134769 .13198853 .10510254L.20599365 .3996582Z" />
    <path
       id="font_6_2"
       d="M.2889862 .25C.2889862 .32798768 .27799989 .44898988 .22299195 .56199648 .16299439 .68499758 .07699585 .75 .066986087 .75 .06098938 .75 .056991579 .74598696 .056991579 .73999026 .056991579 .7369995 .056991579 .73498538 .07598877 .71699526 .17399597 .6179962 .23098755 .45899964 .23098755 .25 .23098755 .07899475 .19400025-.09700012 .069992069-.2230072 .056991579-.23500061 .056991579-.23701477 .056991579-.2400055 .056991579-.2460022 .06098938-.25 .066986087-.25 .07699585-.25 .16699219-.18200684 .22599793-.055007936 .2769928 .054992677 .2889862 .16600037 .2889862 .25Z" />
    <path
       id="font_1_47"
       d="M.5269928 0V.0309906C.45700074 .0309906 .44898988 .038009645 .44898988 .0871582V.69433596L.30499269 .6826172V.6516113C.375 .6516113 .3829956 .64463809 .3829956 .59580996V.38035584C.35398866 .41636659 .31098939 .4423828 .25698854 .4423828 .13899231 .4423828 .033996583 .3443451 .033996583 .21531677 .033996583 .088272098 .13198853-.0107421879 .24598694-.0107421879 .30999757-.0107421879 .35499574 .023254395 .37998963 .055267335V-.0107421879L.5269928 0M.37998963 .117996219C.37998963 .099990848 .37998963 .09799194 .36898805 .08099365 .33898927 .033218385 .2939911 .011245728 .25099183 .011245728 .20599365 .011245728 .16999817 .037216188 .1459961 .075164798 .11999512 .1161499 .116989139 .17320252 .116989139 .21421814 .116989139 .25125123 .11898804 .31129457 .147995 .35632325 .16899109 .38734437 .20698548 .42037965 .26098634 .42037965 .29599 .42037965 .33799745 .405365 .36898805 .3603363 .37998963 .34332276 .37998963 .34132386 .37998963 .32330323V.117996219Z" />
    <path
       id="font_3_1"
       d="M.69200137 .5072174C.70098879 .5112152 .71199038 .5172272 .71199038 .53022769 .71199038 .541214 .70399478 .5522156 .6899872 .5522156 .68899539 .5522156 .6839905 .5522156 .6719971 .5462189L.10598755 .2742157C.09700012 .2702179 .085998538 .2642212 .085998538 .2512207 .085998538 .23721314 .09498596 .23220825 .10598755 .22721863L.66999819-.043792726C.6839905-.05078125 .6879883-.05078125 .6899872-.05078125 .70599368-.05078125 .71199038-.03678894 .71199038-.029785157 .71199038-.016784668 .7049866-.012786865 .69400027-.0077819826L.15699768 .2512207 .69200137 .5072174Z" />
    <path
       id="font_5_4"
       d="M.47299195 .31976319C.47299195 .38682557 .46998597 .47288514 .43499757 .5479431 .3909912 .64201357 .31498719 .6660156 .25698854 .6660156 .19699097 .6660156 .12098694 .64201357 .07699585 .5459442 .04499817 .47688294 .039993287 .39582826 .039993287 .31976319 .039993287 .25471498 .041992189 .15765381 .084991458 .07858276 .13198853-.0064697267 .20999146-.022460938 .2559967-.022460938 .32099916-.022460938 .394989 .0055389406 .43699647 .097595218 .46699525 .1646576 .47299195 .23971558 .47299195 .31976319M.25698854 .002532959C.22698975 .002532959 .15499878 .016540528 .13598633 .12962342 .12599182 .18867493 .12599182 .2747345 .12599182 .33177186 .12599182 .39982606 .12599182 .47888185 .13798523 .53393557 .1579895 .6230011 .22200012 .64100649 .2559967 .64100649 .2939911 .64100649 .35699464 .62098696 .37599183 .5279236 .3869934 .47288514 .3869934 .39482118 .3869934 .33177186 .3869934 .2697296 .3869934 .18566895 .3769989 .12661743 .35598756 .012542725 .28199769 .002532959 .25698854 .002532959Z" />
    <path
       id="font_5_5"
       d="M.70799258 .3310089C.7220001 .3310089 .7409973 .3310089 .7409973 .35202027 .7409973 .37402345 .71899417 .37402345 .70399478 .37402345H.09399414C.07899475 .37402345 .056991579 .37402345 .056991579 .35202027 .056991579 .3310089 .07699585 .3310089 .08999634 .3310089H.70799258M.70399478 .12695313C.71899417 .12695313 .7409973 .12695313 .7409973 .14894104 .7409973 .1699524 .7220001 .1699524 .70799258 .1699524H.08999634C.07699585 .1699524 .056991579 .1699524 .056991579 .14894104 .056991579 .12695313 .07899475 .12695313 .09399414 .12695313H.70399478Z" />
    <path
       id="font_2_85"
       d="M.34098817-.23803711C.34098817-.23303223 .33799745-.23002625 .33198548-.22303772 .20298767-.105026248 .1639862 .07498169 .1639862 .24998474 .1639862 .40498353 .19400025 .59298709 .33499146 .72698977 .33898927 .73098757 .34098817 .7339783 .34098817 .73898318 .34098817 .74598696 .33599855 .75 .32899476 .75 .31698609 .75 .22698975 .6779785 .17298889 .568985 .125 .47297669 .100997928 .36997987 .100997928 .25097657 .100997928 .17897034 .10998535 .064971927 .16499329-.053024293 .22399903-.17602539 .31698609-.24902344 .32899476-.24902344 .33599855-.24902344 .34098817-.24502564 .34098817-.23803711Z" />
    <path
       id="font_2_86"
       d="M.2979889 .25097657C.2979889 .3329773 .28599549 .4429779 .23399353 .5539856 .1749878 .6769867 .08198547 .75 .069992069 .75 .05999756 .75 .057998659 .74198916 .057998659 .73898318 .057998659 .7339783 .05999756 .73098757 .066986087 .72398379 .125 .6719818 .23498535 .5359802 .23498535 .25097657 .23498535 .10797119 .20899964-.091033939 .06399536-.22602844 .06199646-.22903443 .057998659-.23303223 .057998659-.23803711 .057998659-.24102783 .05999756-.24902344 .069992069-.24902344 .08198547-.24902344 .17199707-.17703247 .22599793-.06802368 .27398683 .02796936 .2979889 .13098145 .2979889 .25097657Z" />
    <path
       id="font_3_2"
       d="M.69200137 .22721863C.7029877 .23220825 .71199038 .23721314 .71199038 .2512207 .71199038 .2642212 .70098879 .2702179 .69200137 .2742157L.12799073 .5452118C.11399841 .5522156 .10899353 .5522156 .10699463 .5522156 .09399414 .5522156 .085998538 .541214 .085998538 .5312195 .085998538 .5192261 .09199524 .5142212 .10598755 .5072174L.6409912 .2512207 .10598755-.005783081C.09199524-.012786865 .085998538-.017791748 .085998538-.029785157 .085998538-.03678894 .09199524-.05078125 .10798645-.05078125 .10899353-.05078125 .11399841-.05078125 .12599182-.044784547L.69200137 .22721863Z" />
    <path
       id="font_2_116"
       d="M.5279999 0V.0309906C.48799134 .0309906 .45799256 .0309906 .43598939 .05897522L.30499269 .22491455C.2979889 .23390198 .2979889 .23590088 .2979889 .23590088 .2979889 .23590088 .37599183 .33285523 .38398744 .3408661 .4149933 .37483216 .44898988 .39866639 .5099945 .3996582V.43066407C.48098756 .42765809 .45399476 .42765809 .4249878 .42765809 .3869934 .42765809 .36898805 .42765809 .32899476 .43066407V.3996582C.34399415 .39767457 .35699464 .38972474 .35699464 .3698578 .35699464 .35386659 .34799195 .342865 .34298707 .3368683L.2789917 .2578888 .20098877 .3568573C.19400025 .36586 .19198609 .3678589 .19198609 .37483216 .19198609 .38674928 .20298767 .39866639 .22599793 .3996582V.43066407C.18798828 .4286499 .1619873 .42765809 .116989139 .42765809 .116989139 .42765809 .057998659 .42765809 .018997193 .43066407V.3996582C.08799744 .3996582 .08999634 .39767457 .13598633 .3388672L.23899842 .20991516 .14199829 .0929718C.09199524 .032989503 .034988405 .0309906 .01399231 .0309906V0C.042999269 .0029907227 .069992069 .0029907227 .09899902 .0029907227 .1309967 .0029907227 .16299439 .0019989014 .19499207 0V.0309906C.16999817 .033996583 .16699219 .050979616 .16699219 .06097412 .16699219 .0639801 .16699219 .07797241 .18199158 .095962528 .20599365 .12695313 .23199463 .15693665 .25698854 .18692017L.33599855 .08596802C.35499574 .0639801 .35499574 .0619812 .35499574 .055984498 .35499574 .04498291 .34498597 .03199768 .32099916 .0309906V0C.36299134 .0019989014 .3869934 .0029907227 .42999269 .0029907227 .42999269 .0029907227 .4889984 .0029907227 .5279999 0Z" />
  </defs>
  <use
     data-text="("
     xlink:href="#font_1_85"
     transform="matrix(9.9626,0,0,-9.9626,32.174005,111.909008)"
     id="use1" />
  <use
     data-text="a"
     xlink:href="#font_1_28"
     transform="matrix(9.9626,0,0,-9.9626,36.049455,111.909008)"
     id="use2" />
  <use
     data-text=")"
     xlink:href="#font_1_86"
     transform="matrix(9.9626,0,0,-9.9626,41.030748,111.909008)"
     id="use3" />
  <path
     transform="matrix(1,0,0,-1,38.54,19.845)"
     d="M-24.94539 0V6.23622H24.94539V0ZM24.94539 6.23622"
     fill="#cccccc"
     id="path3" />
  <path
     transform="matrix(1,0,0,-1,38.54,19.845)"
     stroke-width=".79701"
     stroke-linecap="butt"
     stroke-miterlimit="10"
     stroke-linejoin="miter"
     fill="none"
     stroke="#000000"
     d="M-24.94539 0V6.23622H24.94539V0ZM24.94539 6.23622"
     id="path4" />
  <use
     data-text="R"
     xlink:href="#font_2_95"
     transform="matrix(8.9664,0,0,-8.9664,9.914001,8.242001)"
     id="use4" />
  <use
     data-text="i"
     xlink:href="#font_2_66"
     transform="matrix(8.9664,0,0,-8.9664,16.692605,8.242001)"
     id="use5" />
  <use
     data-text="g"
     xlink:href="#font_2_59"
     transform="matrix(8.9664,0,0,-8.9664,19.256997,8.242001)"
     id="use6" />
  <use
     data-text="i"
     xlink:href="#font_2_66"
     transform="matrix(8.9664,0,0,-8.9664,23.86573,8.242001)"
     id="use7" />
  <use
     data-text="d"
     xlink:href="#font_2_47"
     transform="matrix(8.9664,0,0,-8.9664,26.430123,8.242001)"
     id="use8" />
  <use
     data-text="S"
     xlink:href="#font_2_97"
     transform="matrix(8.9664,0,0,-8.9664,34.616449,8.242001)"
     id="use9" />
  <use
     data-text="u"
     xlink:href="#font_2_109"
     transform="matrix(8.9664,0,0,-8.9664,39.73626,8.242001)"
     id="use10" />
  <use
     data-text="p"
     xlink:href="#font_2_84"
     transform="matrix(8.9664,0,0,-8.9664,44.85607,8.242001)"
     id="use11" />
  <use
     data-text="p"
     xlink:href="#font_2_84"
     transform="matrix(8.9664,0,0,-8.9664,49.975885,8.242001)"
     id="use12" />
  <use
     data-text="o"
     xlink:href="#font_2_81"
     transform="matrix(8.9664,0,0,-8.9664,55.35572,8.242001)"
     id="use13" />
  <use
     data-text="r"
     xlink:href="#font_2_96"
     transform="matrix(8.9664,0,0,-8.9664,59.964456,8.242001)"
     id="use14" />
  <use
     data-text="t"
     xlink:href="#font_2_105"
     transform="matrix(8.9664,0,0,-8.9664,63.568948,8.242001)"
     id="use15" />
  <path
     transform="matrix(1,0,0,-1,38.54,19.845)"
     stroke-width=".3985"
     stroke-linecap="butt"
     stroke-miterlimit="10"
     stroke-linejoin="miter"
     fill="none"
     stroke="#000000"
     d="M0 0C4.71967-.47241 8.50403-2.45853 8.50403-4.81879 8.50403-7.17905 4.71967-9.16519 0-9.6376-4.71967-10.11002-8.50403-9.06871-8.50403-7.65329-8.50403-6.23787-4.71967-5.19658 0-5.66899 4.71967-6.14175 8.50403-8.12788 8.50403-10.48814 8.50403-12.8484 4.71967-14.83453 0-15.30696-4.71967-15.77937-8.50403-14.73807-8.50403-13.32265-8.50403-11.90721-4.71967-10.86592 0-11.33835 4.71967-11.81111 8.50403-13.79723 8.50403-16.15749 8.50403-18.51775 4.71967-20.50389 0-20.9763-4.71967-21.44872-8.50403-20.40741-8.50403-18.99199-8.50403-17.57657-4.71967-16.53528 0-17.00769 4.71967-17.48045 8.50403-19.46658 8.50403-21.82684 8.50403-24.1871 4.71967-26.17323 0-26.64566-4.71967-27.11807-8.50403-26.07677-8.50403-24.66135-8.50403-23.24591-4.71967-22.20462 0-22.67705 4.71967-23.14981 8.50403-25.13593 8.50403-27.49619 8.50403-29.85645 4.71967-31.84259 0-32.315-4.71967-32.78741-8.50403-31.74611-8.50403-30.33069-8.50403-28.91527-4.71967-27.87398 0-28.34639 4.71967-28.81915 8.50403-30.80528 8.50403-33.16554 8.50403-35.5258 4.71967-37.51193 0-37.98436-4.71967-38.45677-8.50403-37.41547-8.50403-36.00005-8.50403-34.58461-4.71967-33.54332 0-34.01575 4.71967-34.48851 8.50403-36.47462 8.50403-38.83488 8.50403-41.19514 4.71967-43.18129 0-43.6537-4.71967-44.12611-8.50403-43.08482-8.50403-41.66939-8.50403-40.25397-4.71967-39.21268 0-39.68509 4.71967-40.15785 8.50403-42.14398 8.50403-44.50424 8.50403-46.8645 4.71967-48.85063 0-49.32306-4.71967-49.79547-8.50403-48.75417-8.50403-47.33875-8.50403-45.92331-4.71967-44.88202 0-45.35445 4.71967-45.82721 8.50403-47.81332 8.50403-50.17358 8.50403-52.53384 4.71967-54.51999 0-54.9924-4.71967-55.46483-8.50403-54.42352-8.50403-53.00809-8.50403-51.59267-4.71967-50.55138 0-51.02379 4.71967-51.49655 8.50403-53.48268 8.50403-55.84294 8.50403-58.2032 4.71967-60.18933 0-60.66176-4.71967-61.13417-8.50403-60.09286-8.50403-58.67744-8.50403-57.26201-4.71967-56.22072 0-56.69315 4.71967-57.16591 8.50403-59.15202 8.50403-61.51228 8.50403-63.87254 4.71967-65.85869 0-66.3311V-68.59955"
     id="path15" />
  <path
     transform="matrix(1,0,0,-1,38.54,19.845)"
     stroke-width=".3985"
     stroke-linecap="butt"
     stroke-miterlimit="10"
     stroke-linejoin="miter"
     fill="none"
     stroke="#000000"
     d="M12.47246-1.99252V-66.60703"
     id="path16" />
  <path
     transform="matrix(0,-1,-1,-0,51.01246,21.837519)"
     d="M1.99252 0-1.19551 1.59401 0 0-1.19551-1.59401"
     id="path17" />
  <path
     transform="matrix(0,1,1,0,51.01246,86.452037)"
     d="M1.99252 0-1.19551 1.59401 0 0-1.19551-1.59401"
     id="path18" />
  <use
     data-text="ℓ"
     xlink:href="#font_3_3"
     transform="matrix(8.9664,0,0,-8.9664,54.844,54.14)"
     id="use18" />
  <path
     transform="matrix(1,0,0,-1,38.54,19.845)"
     stroke-width=".3985"
     stroke-linecap="butt"
     stroke-dasharray="2.98883,2.98883"
     stroke-miterlimit="10"
     stroke-linejoin="miter"
     fill="none"
     stroke="#7f807f"
     d="M-24.94539-68.59955H24.94539"
     id="path19" />
  <use
     data-text="u"
     xlink:href="#font_2_109"
     transform="matrix(8.9664,0,0,-8.9664,1.2170029,104.423007)"
     id="use19" />
  <use
     data-text="n"
     xlink:href="#font_2_77"
     transform="matrix(8.9664,0,0,-8.9664,6.3368227,104.423007)"
     id="use20" />
  <use
     data-text="s"
     xlink:href="#font_2_98"
     transform="matrix(8.9664,0,0,-8.9664,11.4566349,104.423007)"
     id="use21" />
  <use
     data-text="t"
     xlink:href="#font_2_105"
     transform="matrix(8.9664,0,0,-8.9664,15.088028,104.423007)"
     id="use22" />
  <use
     data-text="r"
     xlink:href="#font_2_96"
     transform="matrix(8.9664,0,0,-8.9664,18.674592,104.423007)"
     id="use23" />
  <use
     data-text="e"
     xlink:href="#font_2_50"
     transform="matrix(8.9664,0,0,-8.9664,22.279084,104.423007)"
     id="use24" />
  <use
     data-text="t"
     xlink:href="#font_2_105"
     transform="matrix(8.9664,0,0,-8.9664,26.376725,104.423007)"
     id="use25" />
  <use
     data-text="c"
     xlink:href="#font_2_43"
     transform="matrix(8.9664,0,0,-8.9664,29.963288,104.423007)"
     id="use26" />
  <use
     data-text="h"
     xlink:href="#font_2_63"
     transform="matrix(8.9664,0,0,-8.9664,33.800905,104.423007)"
     id="use27" />
  <use
     data-text="e"
     xlink:href="#font_2_50"
     transform="matrix(8.9664,0,0,-8.9664,38.920717,104.423007)"
     id="use28" />
  <use
     data-text="d"
     xlink:href="#font_2_47"
     transform="matrix(8.9664,0,0,-8.9664,43.018358,104.423007)"
     id="use29" />
  <use
     data-text="s"
     xlink:href="#font_2_98"
     transform="matrix(8.9664,0,0,-8.9664,51.20468,104.423007)"
     id="use30" />
  <use
     data-text="p"
     xlink:href="#font_2_84"
     transform="matrix(8.9664,0,0,-8.9664,54.836076,104.423007)"
     id="use31" />
  <use
     data-text="r"
     xlink:href="#font_2_96"
     transform="matrix(8.9664,0,0,-8.9664,59.955888,104.423007)"
     id="use32" />
  <use
     data-text="i"
     xlink:href="#font_2_66"
     transform="matrix(8.9664,0,0,-8.9664,63.56038,104.423007)"
     id="use33" />
  <use
     data-text="n"
     xlink:href="#font_2_77"
     transform="matrix(8.9664,0,0,-8.9664,66.12477,104.423007)"
     id="use34" />
  <use
     data-text="g"
     xlink:href="#font_2_59"
     transform="matrix(8.9664,0,0,-8.9664,71.24458,104.423007)"
     id="use35" />
  <use
     data-text="("
     xlink:href="#font_1_85"
     transform="matrix(9.9626,0,0,-9.9626,86.463,158.682)"
     id="use36" />
  <use
     data-text="b"
     xlink:href="#font_1_35"
     transform="matrix(9.9626,0,0,-9.9626,90.338459,158.682)"
     id="use37" />
  <use
     data-text=")"
     xlink:href="#font_1_86"
     transform="matrix(9.9626,0,0,-9.9626,95.877658,158.682)"
     id="use38" />
  <path
     transform="matrix(1,0,0,-1,38.54,19.845)"
     d="M29.62251 0V6.23622H79.5133V0ZM79.5133 6.23622"
     fill="#cccccc"
     id="path38" />
  <path
     transform="matrix(1,0,0,-1,38.54,19.845)"
     stroke-width=".79701"
     stroke-linecap="butt"
     stroke-miterlimit="10"
     stroke-linejoin="miter"
     fill="none"
     stroke="#000000"
     d="M29.62251 0V6.23622H79.5133V0ZM79.5133 6.23622"
     id="path39" />
  <path
     transform="matrix(1,0,0,-1,38.54,19.845)"
     stroke-width=".3985"
     stroke-linecap="butt"
     stroke-miterlimit="10"
     stroke-linejoin="miter"
     fill="none"
     stroke="#000000"
     d="M54.5679 0C59.28757-.70862 63.07193-2.93095 63.07193-5.52742 63.07193-8.12389 59.28757-10.34624 54.5679-11.05486 49.84824-11.76347 46.06387-10.95839 46.06387-9.77916 46.06387-8.59995 49.84824-7.79486 54.5679-8.5035 59.28757-9.21265 63.07193-11.43498 63.07193-14.03145 63.07193-16.62791 59.28757-18.85027 54.5679-19.55888 49.84824-20.26752 46.06387-19.46242 46.06387-18.2832 46.06387-17.10399 49.84824-16.2989 54.5679-17.00752 59.28757-17.71667 63.07193-19.93901 63.07193-22.53548 63.07193-25.13194 59.28757-27.3543 54.5679-28.06293 49.84824-28.77155 46.06387-27.96645 46.06387-26.78723 46.06387-25.60802 49.84824-24.80293 54.5679-25.51155 59.28757-26.22072 63.07193-28.44304 63.07193-31.03952 63.07193-33.63599 59.28757-35.85832 54.5679-36.56696 49.84824-37.27557 46.06387-36.47047 46.06387-35.29126 46.06387-34.11205 49.84824-33.30696 54.5679-34.0156 59.28757-34.72475 63.07193-36.94708 63.07193-39.54355 63.07193-42.14001 59.28757-44.36237 54.5679-45.07098 49.84824-45.77962 46.06387-44.97452 46.06387-43.7953 46.06387-42.61607 49.84824-41.81099 54.5679-42.51962 59.28757-43.22878 63.07193-45.45111 63.07193-48.04758 63.07193-50.64404 59.28757-52.8664 54.5679-53.57501 49.84824-54.28365 46.06387-53.47855 46.06387-52.29933 46.06387-51.12012 49.84824-50.31503 54.5679-51.02365 59.28757-51.73282 63.07193-53.95514 63.07193-56.5516 63.07193-59.14807 59.28757-61.37042 54.5679-62.07906 49.84824-62.78767 46.06387-61.98257 46.06387-60.80336 46.06387-59.62415 49.84824-58.81906 54.5679-59.52768 59.28757-60.23685 63.07193-62.45918 63.07193-65.05565 63.07193-67.65211 59.28757-69.87445 54.5679-70.58308 49.84824-71.2917 46.06387-70.4866 46.06387-69.30739 46.06387-68.12817 49.84824-67.32309 54.5679-68.03172 59.28757-68.74088 63.07193-70.96321 63.07193-73.55968 63.07193-76.15614 59.28757-78.3785 54.5679-79.08711 49.84824-79.79575 46.06387-78.99065 46.06387-77.81143 46.06387-76.6322 49.84824-75.82713 54.5679-76.53575 59.28757-77.2449 63.07193-79.46724 63.07193-82.0637 63.07193-84.66017 59.28757-86.88252 54.5679-87.59114 49.84824-88.29977 46.06387-87.49467 46.06387-86.31546 46.06387-85.13625 49.84824-84.33116 54.5679-85.03978 59.28757-85.74895 63.07193-87.97127 63.07193-90.56773 63.07193-93.1642 59.28757-95.38655 54.5679-96.09518V-96.66333"
     id="path40" />
  <path
     transform="matrix(1,0,0,-1,38.54,19.845)"
     d="M40.3945-115.9388H68.74129V-96.096118H40.3945Z"
     fill="#ffd9d9"
     id="path41" />
  <path
     transform="matrix(1,0,0,-1,38.54,19.845)"
     stroke-width=".3985"
     stroke-linecap="butt"
     stroke-miterlimit="10"
     stroke-linejoin="miter"
     fill="none"
     stroke="#000000"
     d="M40.3945-115.9388H68.74129V-96.096118H40.3945Z"
     id="path42" />
  <use
     data-text="m"
     xlink:href="#font_4_2"
     transform="matrix(9.9626,0,0,-9.9626,88.734,128.007)"
     id="use42" />
  <path
     transform="matrix(1,0,0,-1,38.54,19.845)"
     stroke-width=".3985"
     stroke-linecap="butt"
     stroke-miterlimit="10"
     stroke-linejoin="miter"
     fill="none"
     stroke="#000000"
     d="M68.59955-1.99252V-66.60703"
     id="path43" />
  <path
     transform="matrix(0,-1,-1,-0,107.13955,21.837519)"
     d="M1.99252 0-1.19551 1.59401 0 0-1.19551-1.59401"
     id="path44" />
  <path
     transform="matrix(0,1,1,0,107.13955,86.452037)"
     d="M1.99252 0-1.19551 1.59401 0 0-1.19551-1.59401"
     id="path45" />
  <use
     data-text="ℓ"
     xlink:href="#font_3_3"
     transform="matrix(8.9664,0,0,-8.9664,110.659008,54.14)"
     id="use45" />
  <path
     transform="matrix(1,0,0,-1,38.54,19.845)"
     stroke-width=".3985"
     stroke-linecap="butt"
     stroke-dasharray="2.98883,2.98883"
     stroke-miterlimit="10"
     stroke-linejoin="miter"
     fill="none"
     stroke="#7f807f"
     d="M29.62251-96.66333H210.47621"
     id="path46" />
  <path
     transform="matrix(1,0,0,-1,38.54,19.845)"
     stroke-width=".3985"
     stroke-linecap="butt"
     stroke-dasharray="2.98883,2.98883"
     stroke-miterlimit="10"
     stroke-linejoin="miter"
     fill="none"
     stroke="#7f807f"
     d="M29.62251-68.59955H79.5133"
     id="path47" />
  <path
     transform="matrix(1,0,0,-1,38.54,19.845)"
     stroke-width=".3985"
     stroke-linecap="butt"
     stroke-miterlimit="10"
     stroke-linejoin="miter"
     fill="none"
     stroke="#000000"
     d="M68.59955-70.59207V-94.67079"
     id="path48" />
  <path
     transform="matrix(0,-1,-1,-0,107.13955,90.43707)"
     d="M1.99252 0-1.19551 1.59401 0 0-1.19551-1.59401"
     id="path49" />
  <path
     transform="matrix(0,1,1,0,107.13955,114.51579)"
     d="M1.99252 0-1.19551 1.59401 0 0-1.19551-1.59401"
     id="path50" />
  <use
     data-text="s"
     xlink:href="#font_3_4"
     transform="matrix(8.9664,0,0,-8.9664,110.659008,105.966)"
     id="use50" />
  <use
     data-text="m"
     xlink:href="#font_2_75"
     transform="matrix(8.9664,0,0,-8.9664,53.489,148.078)"
     id="use51" />
  <use
     data-text="a"
     xlink:href="#font_2_28"
     transform="matrix(8.9664,0,0,-8.9664,61.164239,148.078)"
     id="use52" />
  <use
     data-text="s"
     xlink:href="#font_2_98"
     transform="matrix(8.9664,0,0,-8.9664,65.77297,148.078)"
     id="use53" />
  <use
     data-text="s"
     xlink:href="#font_2_98"
     transform="matrix(8.9664,0,0,-8.9664,69.404369,148.078)"
     id="use54" />
  <use
     data-text="i"
     xlink:href="#font_2_66"
     transform="matrix(8.9664,0,0,-8.9664,76.10227,148.078)"
     id="use55" />
  <use
     data-text="n"
     xlink:href="#font_2_77"
     transform="matrix(8.9664,0,0,-8.9664,78.666667,148.078)"
     id="use56" />
  <use
     data-text="e"
     xlink:href="#font_2_50"
     transform="matrix(8.9664,0,0,-8.9664,86.861949,148.078)"
     id="use57" />
  <use
     data-text="q"
     xlink:href="#font_2_91"
     transform="matrix(8.9664,0,0,-8.9664,90.95959,148.078)"
     id="use58" />
  <use
     data-text="u"
     xlink:href="#font_2_109"
     transform="matrix(8.9664,0,0,-8.9664,95.819377,148.078)"
     id="use59" />
  <use
     data-text="i"
     xlink:href="#font_2_66"
     transform="matrix(8.9664,0,0,-8.9664,100.939189,148.078)"
     id="use60" />
  <use
     data-text="l"
     xlink:href="#font_2_72"
     transform="matrix(8.9664,0,0,-8.9664,103.50358,148.078)"
     id="use61" />
  <use
     data-text="i"
     xlink:href="#font_2_66"
     transform="matrix(8.9664,0,0,-8.9664,106.06797,148.078)"
     id="use62" />
  <use
     data-text="b"
     xlink:href="#font_2_35"
     transform="matrix(8.9664,0,0,-8.9664,108.63236,148.078)"
     id="use63" />
  <use
     data-text="r"
     xlink:href="#font_2_96"
     transform="matrix(8.9664,0,0,-8.9664,113.752178,148.078)"
     id="use64" />
  <use
     data-text="i"
     xlink:href="#font_2_66"
     transform="matrix(8.9664,0,0,-8.9664,117.35667,148.078)"
     id="use65" />
  <use
     data-text="u"
     xlink:href="#font_2_109"
     transform="matrix(8.9664,0,0,-8.9664,119.92106,148.078)"
     id="use66" />
  <use
     data-text="m"
     xlink:href="#font_2_75"
     transform="matrix(8.9664,0,0,-8.9664,125.04087,148.078)"
     id="use67" />
  <use
     data-text="("
     xlink:href="#font_1_85"
     transform="matrix(9.9626,0,0,-9.9626,164.975,202.336)"
     id="use68" />
  <use
     data-text="c"
     xlink:href="#font_1_43"
     transform="matrix(9.9626,0,0,-9.9626,168.85045,202.336)"
     id="use69" />
  <use
     data-text=")"
     xlink:href="#font_1_86"
     transform="matrix(9.9626,0,0,-9.9626,173.27385,202.336)"
     id="use70" />
  <path
     transform="matrix(1,0,0,-1,38.54,19.845)"
     d="M107.57672 0V6.23622H157.46752V0ZM157.46752 6.23622"
     fill="#cccccc"
     id="path70" />
  <path
     transform="matrix(1,0,0,-1,38.54,19.845)"
     stroke-width=".79701"
     stroke-linecap="butt"
     stroke-miterlimit="10"
     stroke-linejoin="miter"
     fill="none"
     stroke="#000000"
     d="M107.57672 0V6.23622H157.46752V0ZM157.46752 6.23622"
     id="path71" />
  <path
     transform="matrix(1,0,0,-1,38.54,19.845)"
     stroke-width=".3985"
     stroke-linecap="butt"
     stroke-miterlimit="10"
     stroke-linejoin="miter"
     fill="none"
     stroke="#000000"
     d="M132.52211 0C137.24178-.94482 141.02616-3.40337 141.02616-6.23604 141.02616-9.06871 137.24178-11.52727 132.52211-12.4721 127.80244-13.41695 124.01808-12.84805 124.01808-11.90504 124.01808-10.96204 127.80244-10.39316 132.52211-11.338 137.24178-12.28354 141.02616-14.74208 141.02616-17.57475 141.02616-20.40742 137.24178-22.86598 132.52211-23.81082 127.80244-24.75566 124.01808-24.18677 124.01808-23.24376 124.01808-22.30075 127.80244-21.73187 132.52211-22.67671 137.24178-23.62225 141.02616-26.0808 141.02616-28.91347 141.02616-31.74614 137.24178-34.2047 132.52211-35.14954 127.80244-36.09438 124.01808-35.52548 124.01808-34.58247 124.01808-33.63947 127.80244-33.07059 132.52211-34.01543 137.24178-34.96097 141.02616-37.41951 141.02616-40.25218 141.02616-43.08487 137.24178-45.54341 132.52211-46.48825 127.80244-47.43309 124.01808-46.8642 124.01808-45.92119 124.01808-44.97818 127.80244-44.4093 132.52211-45.35414 137.24178-46.29968 141.02616-48.75822 141.02616-51.5909 141.02616-54.42358 137.24178-56.88213 132.52211-57.82697 127.80244-58.7718 124.01808-58.20291 124.01808-57.2599 124.01808-56.3169 127.80244-55.74802 132.52211-56.69286 137.24178-57.6384 141.02616-60.09694 141.02616-62.92961 141.02616-65.7623 137.24178-68.22084 132.52211-69.16568 127.80244-70.11052 124.01808-69.54163 124.01808-68.59862 124.01808-67.65561 127.80244-67.08673 132.52211-68.03157 137.24178-68.97711 141.02616-71.43565 141.02616-74.26833 141.02616-77.10101 137.24178-79.55956 132.52211-80.5044 127.80244-81.44923 124.01808-80.88034 124.01808-79.93733 124.01808-78.99432 127.80244-78.42545 132.52211-79.37029 137.24178-80.31583 141.02616-82.77437 141.02616-85.60704 141.02616-88.43973 137.24178-90.89827 132.52211-91.84311 127.80244-92.78795 124.01808-92.21906 124.01808-91.27605 124.01808-90.33304 127.80244-89.76416 132.52211-90.709 137.24178-91.65454 141.02616-94.11308 141.02616-96.94576 141.02616-99.77844 137.24178-102.23698 132.52211-103.18182 127.80244-104.12666 124.01808-103.55777 124.01808-102.61476 124.01808-101.67175 127.80244-101.10287 132.52211-102.04771 137.24178-102.99326 141.02616-105.4518 141.02616-108.28447 141.02616-111.11716 137.24178-113.5757 132.52211-114.52054 127.80244-115.46538 124.01808-114.89648 124.01808-113.95348 124.01808-113.01047 127.80244-112.44159 132.52211-113.38643 137.24178-114.33197 141.02616-116.79051 141.02616-119.62318 141.02616-122.45587 137.24178-124.91441 132.52211-125.85925V-127.845"
     id="path72" />
  <path
     transform="matrix(1,0,0,-1,38.54,19.845)"
     d="M118.34871-147.12046H146.6955V-127.27777H118.34871Z"
     fill="#ffd9d9"
     id="path73" />
  <path
     transform="matrix(1,0,0,-1,38.54,19.845)"
     stroke-width=".3985"
     stroke-linecap="butt"
     stroke-miterlimit="10"
     stroke-linejoin="miter"
     fill="none"
     stroke="#000000"
     d="M118.34871-147.12046H146.6955V-127.27777H118.34871Z"
     id="path74" />
  <use
     data-text="m"
     xlink:href="#font_4_2"
     transform="matrix(9.9626,0,0,-9.9626,166.68799,159.189)"
     id="use74" />
  <path
     transform="matrix(1,0,0,-1,38.54,19.845)"
     stroke-width=".3985"
     stroke-linecap="butt"
     stroke-miterlimit="10"
     stroke-linejoin="miter"
     fill="none"
     stroke="#000000"
     d="M154.34917-1.99252V-94.67079"
     id="path75" />
  <path
     transform="matrix(0,-1,-1,-0,192.88916,21.837519)"
     d="M1.99252 0-1.19551 1.59401 0 0-1.19551-1.59401"
     id="path76" />
  <path
     transform="matrix(0,1,1,0,192.88916,114.51579)"
     d="M1.99252 0-1.19551 1.59401 0 0-1.19551-1.59401"
     id="path77" />
  <use
     data-text="ℓ"
     xlink:href="#font_3_3"
     transform="matrix(8.9664,0,0,-8.9664,196.409,69.316)"
     id="use77" />
  <use
     data-text="+"
     xlink:href="#font_5_3"
     transform="matrix(8.9664,0,0,-8.9664,202.26201,69.316)"
     id="use78" />
  <use
     data-text="s"
     xlink:href="#font_3_4"
     transform="matrix(8.9664,0,0,-8.9664,211.477,69.316)"
     id="use79" />
  <path
     transform="matrix(1,0,0,-1,38.54,19.845)"
     stroke-width=".3985"
     stroke-linecap="butt"
     stroke-miterlimit="10"
     stroke-linejoin="miter"
     fill="none"
     stroke="#000000"
     d="M154.34917-125.85248V-98.65585"
     id="path79" />
  <path
     transform="matrix(0,1,1,0,192.88916,145.69748)"
     d="M1.99252 0-1.19551 1.59401 0 0-1.19551-1.59401"
     id="path80" />
  <path
     transform="matrix(0,-1,-1,-0,192.88916,118.500858)"
     d="M1.99252 0-1.19551 1.59401 0 0-1.19551-1.59401"
     id="path81" />
  <use
     data-text="y"
     xlink:href="#font_3_6"
     transform="matrix(8.9664,0,0,-8.9664,196.409,134.341)"
     id="use81" />
  <use
     data-text="("
     xlink:href="#font_5_1"
     transform="matrix(8.9664,0,0,-8.9664,201.269,134.341)"
     id="use82" />
  <use
     data-text="t"
     xlink:href="#font_3_5"
     transform="matrix(8.9664,0,0,-8.9664,204.853,134.341)"
     id="use83" />
  <use
     data-text=")"
     xlink:href="#font_5_2"
     transform="matrix(8.9664,0,0,-8.9664,208.18,134.341)"
     id="use84" />
  <path
     transform="matrix(1,0,0,-1,38.54,19.845)"
     stroke-width=".3985"
     stroke-linecap="butt"
     stroke-dasharray="2.98883,2.98883"
     stroke-miterlimit="10"
     stroke-linejoin="miter"
     fill="none"
     stroke="#7f807f"
     d="M107.57672-127.845H159.0267"
     id="path84" />
  <use
     data-text="m"
     xlink:href="#font_2_75"
     transform="matrix(8.9664,0,0,-8.9664,140.289,191.4)"
     id="use85" />
  <use
     data-text="a"
     xlink:href="#font_2_28"
     transform="matrix(8.9664,0,0,-8.9664,147.96424,191.4)"
     id="use86" />
  <use
     data-text="s"
     xlink:href="#font_2_98"
     transform="matrix(8.9664,0,0,-8.9664,152.57297,191.4)"
     id="use87" />
  <use
     data-text="s"
     xlink:href="#font_2_98"
     transform="matrix(8.9664,0,0,-8.9664,156.20438,191.4)"
     id="use88" />
  <use
     data-text="i"
     xlink:href="#font_2_66"
     transform="matrix(8.9664,0,0,-8.9664,162.90229,191.4)"
     id="use89" />
  <use
     data-text="n"
     xlink:href="#font_2_77"
     transform="matrix(8.9664,0,0,-8.9664,165.46668,191.4)"
     id="use90" />
  <use
     data-text="m"
     xlink:href="#font_2_75"
     transform="matrix(8.9664,0,0,-8.9664,173.66196,191.4)"
     id="use91" />
  <use
     data-text="o"
     xlink:href="#font_2_81"
     transform="matrix(8.9664,0,0,-8.9664,181.33719,191.4)"
     id="use92" />
  <use
     data-text="t"
     xlink:href="#font_2_105"
     transform="matrix(8.9664,0,0,-8.9664,185.94593,191.4)"
     id="use93" />
  <use
     data-text="i"
     xlink:href="#font_2_66"
     transform="matrix(8.9664,0,0,-8.9664,189.53247,191.4)"
     id="use94" />
  <use
     data-text="o"
     xlink:href="#font_2_81"
     transform="matrix(8.9664,0,0,-8.9664,192.09687,191.4)"
     id="use95" />
  <use
     data-text="n"
     xlink:href="#font_2_77"
     transform="matrix(8.9664,0,0,-8.9664,196.7056,191.4)"
     id="use96" />
  <path
     transform="matrix(1,0,0,-1,38.54,19.845)"
     stroke-width=".79701"
     stroke-linecap="butt"
     stroke-miterlimit="10"
     stroke-linejoin="miter"
     fill="none"
     stroke="#000000"
     d="M120.04965-149.67206V0"
     id="path96" />
  <path
     transform="matrix(1,0,0,-1,38.54,19.845)"
     stroke-width=".79701"
     stroke-linecap="butt"
     stroke-miterlimit="10"
     stroke-linejoin="miter"
     fill="none"
     stroke="#000000"
     d="M120.04965-149.67206 116.9313-143.4358"
     id="path97" />
  <path
     transform="matrix(1,0,0,-1,38.54,19.845)"
     stroke-width=".79701"
     stroke-linecap="butt"
     stroke-miterlimit="10"
     stroke-linejoin="miter"
     fill="none"
     stroke="#000000"
     d="M120.04965-143.4358 116.9313-137.19959"
     id="path98" />
  <path
     transform="matrix(1,0,0,-1,38.54,19.845)"
     stroke-width=".79701"
     stroke-linecap="butt"
     stroke-miterlimit="10"
     stroke-linejoin="miter"
     fill="none"
     stroke="#000000"
     d="M120.04965-137.19959 116.9313-130.96335"
     id="path99" />
  <path
     transform="matrix(1,0,0,-1,38.54,19.845)"
     stroke-width=".79701"
     stroke-linecap="butt"
     stroke-miterlimit="10"
     stroke-linejoin="miter"
     fill="none"
     stroke="#000000"
     d="M120.04965-130.96335 116.9313-124.7271"
     id="path100" />
  <path
     transform="matrix(1,0,0,-1,38.54,19.845)"
     stroke-width=".79701"
     stroke-linecap="butt"
     stroke-miterlimit="10"
     stroke-linejoin="miter"
     fill="none"
     stroke="#000000"
     d="M120.04965-124.7271 116.9313-118.49088"
     id="path101" />
  <path
     transform="matrix(1,0,0,-1,38.54,19.845)"
     stroke-width=".79701"
     stroke-linecap="butt"
     stroke-miterlimit="10"
     stroke-linejoin="miter"
     fill="none"
     stroke="#000000"
     d="M120.04965-118.49088 116.9313-112.25464"
     id="path102" />
  <path
     transform="matrix(1,0,0,-1,38.54,19.845)"
     stroke-width=".79701"
     stroke-linecap="butt"
     stroke-miterlimit="10"
     stroke-linejoin="miter"
     fill="none"
     stroke="#000000"
     d="M120.04965-112.25464 116.9313-106.0184"
     id="path103" />
  <path
     transform="matrix(1,0,0,-1,38.54,19.845)"
     stroke-width=".79701"
     stroke-linecap="butt"
     stroke-miterlimit="10"
     stroke-linejoin="miter"
     fill="none"
     stroke="#000000"
     d="M120.04965-106.0184 116.9313-99.78217"
     id="path104" />
  <path
     transform="matrix(1,0,0,-1,38.54,19.845)"
     stroke-width=".79701"
     stroke-linecap="butt"
     stroke-miterlimit="10"
     stroke-linejoin="miter"
     fill="none"
     stroke="#000000"
     d="M120.04965-99.78217 116.9313-93.54591"
     id="path105" />
  <path
     transform="matrix(1,0,0,-1,38.54,19.845)"
     stroke-width=".79701"
     stroke-linecap="butt"
     stroke-miterlimit="10"
     stroke-linejoin="miter"
     fill="none"
     stroke="#000000"
     d="M120.04965-93.54591 116.9313-87.30968"
     id="path106" />
  <path
     transform="matrix(1,0,0,-1,38.54,19.845)"
     stroke-width=".79701"
     stroke-linecap="butt"
     stroke-miterlimit="10"
     stroke-linejoin="miter"
     fill="none"
     stroke="#000000"
     d="M120.04965-87.30968 116.9313-81.07344"
     id="path107" />
  <path
     transform="matrix(1,0,0,-1,38.54,19.845)"
     stroke-width=".79701"
     stroke-linecap="butt"
     stroke-miterlimit="10"
     stroke-linejoin="miter"
     fill="none"
     stroke="#000000"
     d="M120.04965-81.07344 116.9313-74.8372"
     id="path108" />
  <path
     transform="matrix(1,0,0,-1,38.54,19.845)"
     stroke-width=".79701"
     stroke-linecap="butt"
     stroke-miterlimit="10"
     stroke-linejoin="miter"
     fill="none"
     stroke="#000000"
     d="M120.04965-74.8372 116.9313-68.60097"
     id="path109" />
  <path
     transform="matrix(1,0,0,-1,38.54,19.845)"
     stroke-width=".79701"
     stroke-linecap="butt"
     stroke-miterlimit="10"
     stroke-linejoin="miter"
     fill="none"
     stroke="#000000"
     d="M120.04965-68.60097 116.9313-62.36475"
     id="path110" />
  <path
     transform="matrix(1,0,0,-1,38.54,19.845)"
     stroke-width=".79701"
     stroke-linecap="butt"
     stroke-miterlimit="10"
     stroke-linejoin="miter"
     fill="none"
     stroke="#000000"
     d="M120.04965-62.36475 116.9313-56.1285"
     id="path111" />
  <path
     transform="matrix(1,0,0,-1,38.54,19.845)"
     stroke-width=".79701"
     stroke-linecap="butt"
     stroke-miterlimit="10"
     stroke-linejoin="miter"
     fill="none"
     stroke="#000000"
     d="M120.04965-56.1285 116.9313-49.89226"
     id="path112" />
  <path
     transform="matrix(1,0,0,-1,38.54,19.845)"
     stroke-width=".79701"
     stroke-linecap="butt"
     stroke-miterlimit="10"
     stroke-linejoin="miter"
     fill="none"
     stroke="#000000"
     d="M120.04965-49.89226 116.9313-43.65604"
     id="path113" />
  <path
     transform="matrix(1,0,0,-1,38.54,19.845)"
     stroke-width=".79701"
     stroke-linecap="butt"
     stroke-miterlimit="10"
     stroke-linejoin="miter"
     fill="none"
     stroke="#000000"
     d="M120.04965-43.65604 116.9313-37.41977"
     id="path114" />
  <path
     transform="matrix(1,0,0,-1,38.54,19.845)"
     stroke-width=".79701"
     stroke-linecap="butt"
     stroke-miterlimit="10"
     stroke-linejoin="miter"
     fill="none"
     stroke="#000000"
     d="M120.04965-37.41977 116.9313-31.18353"
     id="path115" />
  <path
     transform="matrix(1,0,0,-1,38.54,19.845)"
     stroke-width=".79701"
     stroke-linecap="butt"
     stroke-miterlimit="10"
     stroke-linejoin="miter"
     fill="none"
     stroke="#000000"
     d="M120.04965-31.18353 116.9313-24.94731"
     id="path116" />
  <path
     transform="matrix(1,0,0,-1,38.54,19.845)"
     stroke-width=".79701"
     stroke-linecap="butt"
     stroke-miterlimit="10"
     stroke-linejoin="miter"
     fill="none"
     stroke="#000000"
     d="M120.04965-24.94731 116.9313-18.71107"
     id="path117" />
  <path
     transform="matrix(1,0,0,-1,38.54,19.845)"
     stroke-width=".79701"
     stroke-linecap="butt"
     stroke-miterlimit="10"
     stroke-linejoin="miter"
     fill="none"
     stroke="#000000"
     d="M120.04965-18.71107 116.9313-12.47482"
     id="path118" />
  <path
     transform="matrix(1,0,0,-1,38.54,19.845)"
     stroke-width=".79701"
     stroke-linecap="butt"
     stroke-miterlimit="10"
     stroke-linejoin="miter"
     fill="none"
     stroke="#000000"
     d="M120.04965-12.47482 116.9313-6.2386"
     id="path119" />
  <path
     transform="matrix(1,0,0,-1,38.54,19.845)"
     stroke-width=".79701"
     stroke-linecap="butt"
     stroke-miterlimit="10"
     stroke-linejoin="miter"
     fill="none"
     stroke="#000000"
     d="M120.04965-6.2386 116.9313-.00237"
     id="path120" />
  <use
     data-text="w"
     xlink:href="#font_1_114"
     transform="matrix(0,-9.9626,-9.9626,-0,148.607,108.275)"
     id="use120" />
  <use
     data-text="a"
     xlink:href="#font_1_28"
     transform="matrix(0,-9.9626,-9.9626,-0,148.607,101.36095)"
     id="use121" />
  <use
     data-text="l"
     xlink:href="#font_1_72"
     transform="matrix(0,-9.9626,-9.9626,-0,148.607,96.379657)"
     id="use122" />
  <use
     data-text="l"
     xlink:href="#font_1_72"
     transform="matrix(0,-9.9626,-9.9626,-0,148.607,93.61005)"
     id="use123" />
  <use
     data-text="/"
     xlink:href="#font_1_102"
     transform="matrix(0,-9.9626,-9.9626,-0,148.607,90.84044)"
     id="use124" />
  <use
     data-text="f"
     xlink:href="#font_1_55"
     transform="matrix(0,-9.9626,-9.9626,-0,148.607,85.859149)"
     id="use125" />
  <use
     data-text="r"
     xlink:href="#font_1_96"
     transform="matrix(0,-9.9626,-9.9626,-0,148.607,82.81059)"
     id="use126" />
  <use
     data-text="i"
     xlink:href="#font_1_66"
     transform="matrix(0,-9.9626,-9.9626,-0,148.607,78.90526)"
     id="use127" />
  <use
     data-text="c"
     xlink:href="#font_1_43"
     transform="matrix(0,-9.9626,-9.9626,-0,148.607,76.13565)"
     id="use128" />
  <use
     data-text="t"
     xlink:href="#font_1_105"
     transform="matrix(0,-9.9626,-9.9626,-0,148.607,71.71225)"
     id="use129" />
  <use
     data-text="i"
     xlink:href="#font_1_66"
     transform="matrix(0,-9.9626,-9.9626,-0,148.607,67.83679)"
     id="use130" />
  <use
     data-text="o"
     xlink:href="#font_1_81"
     transform="matrix(0,-9.9626,-9.9626,-0,148.607,65.067188)"
     id="use131" />
  <use
     data-text="n"
     xlink:href="#font_1_77"
     transform="matrix(0,-9.9626,-9.9626,-0,148.607,60.08589)"
     id="use132" />
  <path
     transform="matrix(1,0,0,-1,38.54,19.845)"
     stroke-width="1.19553"
     stroke-linecap="butt"
     stroke-miterlimit="10"
     stroke-linejoin="miter"
     fill="none"
     stroke="#0000ff"
     d="M143.43587-127.845V-118.56012"
     id="path132" />
  <path
     transform="matrix(0,-1,-1,-0,181.97586,138.40512)"
     d="M3.18808 0-1.91284 2.55046 0 0-1.91284-2.55046"
     fill="#0000ff"
     id="path133" />
  <path
     transform="matrix(1,0,0,-1,38.54,19.845)"
     stroke-width="1.19553"
     stroke-linecap="butt"
     stroke-miterlimit="10"
     stroke-linejoin="miter"
     fill="none"
     stroke="#0000ff"
     d="M143.43587-146.5537V-155.83858"
     id="path134" />
  <path
     transform="matrix(0,1,1,0,181.97586,175.68358)"
     d="M3.18808 0-1.91284 2.55046 0 0-1.91284-2.55046"
     fill="#0000ff"
     id="path135" />
  <use
     data-text="F"
     xlink:href="#font_4_1"
     transform="matrix(9.9626,0,0,-9.9626,185.89402,181.362)"
     fill="#0000ff"
     id="use135" />
  <use
     data-text="("
     xlink:href="#font_6_1"
     transform="matrix(9.9626,0,0,-9.9626,193.684,181.362)"
     fill="#0000ff"
     id="use136" />
  <use
     data-text="t"
     xlink:href="#font_4_3"
     transform="matrix(9.9626,0,0,-9.9626,197.558,181.362)"
     fill="#0000ff"
     id="use137" />
  <use
     data-text=")"
     xlink:href="#font_6_2"
     transform="matrix(9.9626,0,0,-9.9626,201.156,181.362)"
     fill="#0000ff"
     id="use138" />
  <use
     data-text="("
     xlink:href="#font_1_85"
     transform="matrix(9.9626,0,0,-9.9626,237.694,202.336)"
     id="use139" />
  <use
     data-text="d"
     xlink:href="#font_1_47"
     transform="matrix(9.9626,0,0,-9.9626,241.56946,202.336)"
     id="use140" />
  <use
     data-text=")"
     xlink:href="#font_1_86"
     transform="matrix(9.9626,0,0,-9.9626,247.10866,202.336)"
     id="use141" />
  <path
     transform="matrix(1,0,0,-1,38.54,19.845)"
     stroke-width="1.19553"
     stroke-linecap="butt"
     stroke-miterlimit="10"
     stroke-linejoin="miter"
     fill="none"
     stroke="#000000"
     d="M202.68083 7.79538V-152.72023"
     id="path141" />
  <path
     transform="matrix(0,1,1,0,241.22083,172.56523)"
     d="M3.18808 0-1.91284 2.55046 0 0-1.91284-2.55046"
     id="path142" />
  <use
     data-text="y"
     xlink:href="#font_3_6"
     transform="matrix(8.9664,0,0,-8.9664,247.85901,81.107)"
     id="use142" />
  <use
     data-text="&lt;"
     xlink:href="#font_3_1"
     transform="matrix(8.9664,0,0,-8.9664,255.27422,81.107)"
     id="use143" />
  <use
     data-text="0"
     xlink:href="#font_5_4"
     transform="matrix(8.9664,0,0,-8.9664,265.00599,81.107)"
     id="use144" />
  <path
     transform="matrix(1,0,0,-1,38.54,19.845)"
     d="M204.87265-96.66333C204.87265-95.4528 203.89134-94.4715 202.68083-94.4715 201.4703-94.4715 200.489-95.4528 200.489-96.66333 200.489-97.87384 201.4703-98.85515 202.68083-98.85515 203.89134-98.85515 204.87265-97.87384 204.87265-96.66333ZM202.68083-96.66333"
     id="path144" />
  <path
     transform="matrix(1,0,0,-1,38.54,19.845)"
     stroke-width=".3985"
     stroke-linecap="butt"
     stroke-miterlimit="10"
     stroke-linejoin="miter"
     fill="none"
     stroke="#000000"
     d="M204.87265-96.66333C204.87265-95.4528 203.89134-94.4715 202.68083-94.4715 201.4703-94.4715 200.489-95.4528 200.489-96.66333 200.489-97.87384 201.4703-98.85515 202.68083-98.85515 203.89134-98.85515 204.87265-97.87384 204.87265-96.66333ZM202.68083-96.66333"
     id="path145" />
  <use
     data-text="y"
     xlink:href="#font_3_6"
     transform="matrix(8.9664,0,0,-8.9664,247.85901,118.754)"
     id="use145" />
  <use
     data-text="="
     xlink:href="#font_5_5"
     transform="matrix(8.9664,0,0,-8.9664,255.279,118.754)"
     id="use146" />
  <use
     data-text="0"
     xlink:href="#font_5_4"
     transform="matrix(8.9664,0,0,-8.9664,264.9986,118.754)"
     id="use147" />
  <use
     data-text="("
     xlink:href="#font_2_85"
     transform="matrix(8.9664,0,0,-8.9664,272.104,118.754)"
     id="use148" />
  <use
     data-text="o"
     xlink:href="#font_2_81"
     transform="matrix(8.9664,0,0,-8.9664,275.69056,118.754)"
     id="use149" />
  <use
     data-text="r"
     xlink:href="#font_2_96"
     transform="matrix(8.9664,0,0,-8.9664,280.29933,118.754)"
     id="use150" />
  <use
     data-text="i"
     xlink:href="#font_2_66"
     transform="matrix(8.9664,0,0,-8.9664,283.9038,118.754)"
     id="use151" />
  <use
     data-text="g"
     xlink:href="#font_2_59"
     transform="matrix(8.9664,0,0,-8.9664,286.4682,118.754)"
     id="use152" />
  <use
     data-text="i"
     xlink:href="#font_2_66"
     transform="matrix(8.9664,0,0,-8.9664,291.0769,118.754)"
     id="use153" />
  <use
     data-text="n"
     xlink:href="#font_2_77"
     transform="matrix(8.9664,0,0,-8.9664,293.6413,118.754)"
     id="use154" />
  <use
     data-text=")"
     xlink:href="#font_2_86"
     transform="matrix(8.9664,0,0,-8.9664,298.7611,118.754)"
     id="use155" />
  <use
     data-text="y"
     xlink:href="#font_3_6"
     transform="matrix(8.9664,0,0,-8.9664,247.85901,162.18001)"
     id="use156" />
  <use
     data-text="&gt;"
     xlink:href="#font_3_2"
     transform="matrix(8.9664,0,0,-8.9664,255.27422,162.18001)"
     id="use157" />
  <use
     data-text="0"
     xlink:href="#font_5_4"
     transform="matrix(8.9664,0,0,-8.9664,265.00599,162.18001)"
     id="use158" />
  <use
     data-text="t"
     xlink:href="#font_2_105"
     transform="matrix(8.9664,0,0,-8.9664,205.89099,191.732)"
     id="use159" />
  <use
     data-text="h"
     xlink:href="#font_2_63"
     transform="matrix(8.9664,0,0,-8.9664,209.47757,191.732)"
     id="use160" />
  <use
     data-text="e"
     xlink:href="#font_2_50"
     transform="matrix(8.9664,0,0,-8.9664,214.59738,191.732)"
     id="use161" />
  <use
     data-text="c"
     xlink:href="#font_2_43"
     transform="matrix(8.9664,0,0,-8.9664,221.76154,191.732)"
     id="use162" />
  <use
     data-text="o"
     xlink:href="#font_2_81"
     transform="matrix(8.9664,0,0,-8.9664,225.85918,191.732)"
     id="use163" />
  <use
     data-text="o"
     xlink:href="#font_2_81"
     transform="matrix(8.9664,0,0,-8.9664,230.72794,191.732)"
     id="use164" />
  <use
     data-text="r"
     xlink:href="#font_2_96"
     transform="matrix(8.9664,0,0,-8.9664,235.33667,191.732)"
     id="use165" />
  <use
     data-text="d"
     xlink:href="#font_2_47"
     transform="matrix(8.9664,0,0,-8.9664,238.94116,191.732)"
     id="use166" />
  <use
     data-text="i"
     xlink:href="#font_2_66"
     transform="matrix(8.9664,0,0,-8.9664,244.06098,191.732)"
     id="use167" />
  <use
     data-text="n"
     xlink:href="#font_2_77"
     transform="matrix(8.9664,0,0,-8.9664,246.62537,191.732)"
     id="use168" />
  <use
     data-text="a"
     xlink:href="#font_2_28"
     transform="matrix(8.9664,0,0,-8.9664,251.74518,191.732)"
     id="use169" />
  <use
     data-text="t"
     xlink:href="#font_2_105"
     transform="matrix(8.9664,0,0,-8.9664,256.3539,191.732)"
     id="use170" />
  <use
     data-text="e"
     xlink:href="#font_2_50"
     transform="matrix(8.9664,0,0,-8.9664,259.9405,191.732)"
     id="use171" />
  <use
     data-text="a"
     xlink:href="#font_2_28"
     transform="matrix(8.9664,0,0,-8.9664,267.1136,191.732)"
     id="use172" />
  <use
     data-text="x"
     xlink:href="#font_2_116"
     transform="matrix(8.9664,0,0,-8.9664,271.72233,191.732)"
     id="use173" />
  <use
     data-text="i"
     xlink:href="#font_2_66"
     transform="matrix(8.9664,0,0,-8.9664,276.5821,191.732)"
     id="use174" />
  <use
     data-text="s"
     xlink:href="#font_2_98"
     transform="matrix(8.9664,0,0,-8.9664,279.14649,191.732)"
     id="use175" />
</svg>
