<svg xmlns="http://www.w3.org/2000/svg" xmlns:xlink="http://www.w3.org/1999/xlink" xmlns:inkscape="http://www.inkscape.org/namespaces/inkscape" version="1.1" width="336" height="101" viewBox="0 0 336 101">
<defs>
<path id="font_1_3" d="M.2939911 .64004519C.2939911 .66400149 .2939911 .6660156 .2709961 .6660156 .20899964 .60227969 .12098694 .60227969 .08898926 .60227969V.57128909C.10899353 .57128909 .16799927 .57128909 .21998596 .5972748V.07902527C.21998596 .042999269 .21699524 .0309906 .1269989 .0309906H.09498596V0C.12998963 .0029907227 .21699524 .0029907227 .25698854 .0029907227 .29699708 .0029907227 .38398744 .0029907227 .4189911 0V.0309906H.3869934C.29699708 .0309906 .2939911 .041992189 .2939911 .07902527V.64004519Z"/>
<path id="font_1_4" d="M.1269989 .07699585 .23298645 .18003845C.3889923 .31811524 .44898988 .3721466 .44898988 .47216798 .44898988 .5860901 .35899354 .6660156 .23699951 .6660156 .12399292 .6660156 .049987794 .57411196 .049987794 .48516847 .049987794 .4291687 .099990848 .4291687 .102996829 .4291687 .11999512 .4291687 .15499878 .44117738 .15499878 .48217774 .15499878 .5081787 .13699341 .5341797 .101989749 .5341797 .09399414 .5341797 .09199524 .5341797 .08898926 .5331726 .11199951 .59806826 .1659851 .63500979 .22399903 .63500979 .31498719 .63500979 .35798646 .5541382 .35798646 .47216798 .35798646 .39215089 .30799867 .31311036 .25299073 .25108338L.06098938 .036987306C.049987794 .025985718 .049987794 .023986817 .049987794 0H.42099L.44898988 .17404175H.42399598C.4189911 .14402771 .4119873 .1000061 .4019928 .084991458 .394989 .07699585 .32899476 .07699585 .30699159 .07699585H.1269989Z"/>
<path id="font_1_5" d="M.2899933 .35191346C.37199403 .37893678 .42999269 .4490509 .42999269 .52809146 .42999269 .6100464 .34199525 .6660156 .24598694 .6660156 .14498902 .6660156 .068984989 .60606387 .068984989 .53009036 .068984989 .49710084 .09098816 .47808839 .11999512 .47808839 .15098572 .47808839 .17098999 .50009158 .17098999 .5290985 .17098999 .57910159 .12399292 .57910159 .10899353 .57910159 .13999939 .62802127 .20599365 .64100649 .24198914 .64100649 .2829895 .64100649 .33799745 .6190338 .33799745 .5290985 .33799745 .51708987 .33599855 .45906068 .30999757 .4149933 .27999879 .36691285 .24598694 .36390687 .22099304 .36291505 .21299744 .36190797 .18899536 .35990907 .18199158 .35990907 .17399597 .35890199 .16699219 .35791017 .16699219 .3479004 .16699219 .33691407 .17399597 .33691407 .19099427 .33691407H.23498535C.31698609 .33691407 .35398866 .2686615 .35398866 .17037964 .35398866 .034469606 .2849884 .0055389406 .24099732 .0055389406 .19799805 .0055389406 .12298584 .022491456 .08799744 .08137512 .12298584 .07637024 .1539917 .09837341 .1539917 .1363678 .1539917 .17237854 .1269989 .19238281 .09799194 .19238281 .07398987 .19238281 .041992189 .17837525 .041992189 .1343689 .041992189 .043441774 .1349945-.022460938 .24398804-.022460938 .3659973-.022460938 .45700074 .06838989 .45700074 .17037964 .45700074 .252594 .3939972 .33088685 .2899933 .35191346Z"/>
<path id="font_1_6" d="M.2939911 .16503906V.07800293C.2939911 .041992189 .2919922 .0309906 .21798706 .0309906H.19699097V0C.23799134 .0029907227 .2899933 .0029907227 .33198548 .0029907227 .37399293 .0029907227 .4269867 .0029907227 .46798707 0V.0309906H.44699098C.37298585 .0309906 .37098695 .041992189 .37098695 .07800293V.16503906H.47099305V.19602967H.37098695V.65075686C.37098695 .67074587 .37098695 .6767578 .35499574 .6767578 .34599305 .6767578 .34298707 .6767578 .33499146 .66474917L.027999878 .19602967V.16503906H.2939911M.2999878 .19602967H.055999757L.2999878 .5688019V.19602967Z"/>
<path id="font_1_7" d="M.44898988 .20022583C.44898988 .3193512 .36698915 .41944886 .25898744 .41944886 .21099854 .41944886 .16799927 .40345765 .13198853 .36842347V.5637665C.1519928 .5577698 .18499756 .55078127 .21699524 .55078127 .33999635 .55078127 .4099884 .6417694 .4099884 .6547699 .4099884 .6607666 .40699769 .6657715 .3999939 .6657715 .39898683 .6657715 .39698792 .6657715 .3919983 .66278079 .37199403 .6537781 .32299806 .6337738 .2559967 .6337738 .21598816 .6337738 .16999817 .6407776 .12298584 .6617737 .114990238 .66477969 .11299133 .66477969 .11099243 .66477969 .100997928 .66477969 .100997928 .6567688 .100997928 .6407776V.34439088C.100997928 .32637025 .100997928 .31835938 .114990238 .31835938 .12199402 .31835938 .12399292 .32136537 .12799073 .32736207 .13899231 .3433838 .17599488 .39746095 .25698854 .39746095 .30899049 .39746095 .33399964 .35139466 .34199525 .33337403 .35798646 .29632569 .3600006 .25727845 .3600006 .20722962 .3600006 .17222595 .3600006 .11222839 .33599855 .07035828 .31199647 .031463624 .2749939 .0055389406 .22898865 .0055389406 .1559906 .0055389406 .09899902 .058380128 .08198547 .11723328 .084991458 .1162262 .08799744 .115234378 .09899902 .115234378 .13198853 .115234378 .14898682 .14022827 .14898682 .16423035 .14898682 .18823242 .13198853 .21322632 .09899902 .21322632 .084991458 .21322632 .049987794 .20622254 .049987794 .16023255 .049987794 .07434082 .11898804-.022460938 .23098755-.022460938 .34700013-.022460938 .44898988 .073349 .44898988 .20022583Z"/>
<path id="font_1_8" d="M.13198853 .327713V.35173036C.13198853 .6047821 .2559967 .64100649 .30699159 .64100649 .33099366 .64100649 .37298585 .634964 .394989 .6007538 .37998963 .6007538 .33999635 .6007538 .33999635 .5557556 .33999635 .524765 .3639984 .5097656 .38598634 .5097656 .4019928 .5097656 .43199159 .51875308 .43199159 .5577545 .43199159 .6178589 .3880005 .6660156 .30499269 .6660156 .1769867 .6660156 .041992189 .5367584 .041992189 .31570436 .041992189 .048553468 .1579895-.022460938 .25099183-.022460938 .3619995-.022460938 .45700074 .07156372 .45700074 .2036438 .45700074 .33070375 .36799623 .4267578 .25698854 .4267578 .18899536 .4267578 .1519928 .37573243 .13198853 .327713M.25099183 .0055389406C.18798828 .0055389406 .1579895 .06556702 .1519928 .080566409 .13398743 .127594 .13398743 .2076416 .13398743 .22564698 .13398743 .30369569 .1659851 .40374757 .2559967 .40374757 .27198792 .40374757 .31799317 .40374757 .34899903 .34172059 .36698915 .30470277 .36698915 .2536621 .36698915 .20463562 .36698915 .15661621 .36698915 .10658264 .34999085 .0705719 .31999208 .010528564 .27398683 .0055389406 .25099183 .0055389406Z"/>
<clipPath id="clip_2">
<path transform="matrix(1,0,0,-1.00002,10.844002,98.698657)" d="M0 0H323.6717V96.89969H0Z"/>
</clipPath>
<path id="font_3_2" d="M.20599365 .3996582H.2999878C.31999208 .3996582 .32998658 .3996582 .32998658 .41966249 .32998658 .43066407 .31999208 .43066407 .3019867 .43066407H.21398926C.25 .5724945 .25498963 .59246829 .25498963 .59846499 .25498963 .61546328 .24299622 .62545779 .22599793 .62545779 .22299195 .62545779 .19499207 .62446597 .18598938 .58947756L.14698792 .43066407H.052993776C.032989503 .43066407 .022994996 .43066407 .022994996 .4116516 .022994996 .3996582 .0309906 .3996582 .050994874 .3996582H.13899231C.066986087 .11608887 .06298828 .099121097 .06298828 .08114624 .06298828 .02722168 .100997928-.0107421879 .15499878-.0107421879 .25698854-.0107421879 .31399537 .13505554 .31399537 .14305115 .31399537 .1530304 .30599977 .1530304 .3019867 .1530304 .29299928 .1530304 .2919922 .15003968 .2869873 .13905335 .24398804 .035217287 .19099427 .011245728 .15699768 .011245728 .13598633 .011245728 .12599182 .024230957 .12599182 .057174684 .12599182 .08114624 .12799073 .088134769 .13198853 .10510254L.20599365 .3996582Z"/>
<path id="font_3_1" d="M.36698915 .3996582H.45298768C.47299195 .3996582 .48298646 .3996582 .48298646 .41966249 .48298646 .43066407 .47299195 .43066407 .45599366 .43066407H.37298585L.3939972 .5449524C.397995 .5660095 .4119873 .6370239 .41799928 .6490326 .4269867 .66804507 .44400025 .68307498 .46499635 .68307498 .46899415 .68307498 .49499513 .68307498 .5139923 .66503909 .46998597 .661026 .45999146 .6260376 .45999146 .6110382 .45999146 .58802798 .47799684 .57603457 .49699403 .57603457 .522995 .57603457 .5519867 .5980377 .5519867 .6360321 .5519867 .6820679 .5059967 .7050781 .46499635 .7050781 .43099977 .7050781 .36799623 .68707278 .33799745 .58802798 .33198548 .56700137 .32899476 .5569763 .30499269 .43066407H.23599243C.21699524 .43066407 .20599365 .43066407 .20599365 .4116516 .20599365 .3996582 .21499634 .3996582 .23399353 .3996582H.2999878L.22499085 .0048828127C.20698548-.09207153 .18998719-.18309021 .13798523-.18309021 .13398743-.18309021 .10899353-.18309021 .08999634-.16506958 .13598633-.1620636 .14498902-.12606812 .14498902-.111068729 .14498902-.08807373 .1269989-.07606506 .10798645-.07606506 .08198547-.07606506 .052993776-.09806824 .052993776-.13606262 .052993776-.18109131 .09700012-.20507813 .13798523-.20507813 .19299317-.20507813 .23298645-.14607239 .25099183-.108062747 .2829895-.04508972 .30599977 .07583618 .30699159 .082839969L.36698915 .3996582Z"/>
<path id="font_1_1" d="M.33099366-.2400055C.33099366-.23701477 .33099366-.23500061 .31399537-.21800232 .18899536-.0920105 .15699768 .09700012 .15699768 .25 .15699768 .42399598 .19499207 .59799197 .31799317 .72299197 .33099366 .73498538 .33099366 .7369995 .33099366 .73999026 .33099366 .746994 .32699586 .75 .32099916 .75 .31098939 .75 .22099304 .6819916 .1619873 .5549927 .11099243 .44499208 .09899902 .33399964 .09899902 .25 .09899902 .17199707 .10998535 .050994874 .16499329-.06201172 .22499085-.18501282 .31098939-.25 .32099916-.25 .32699586-.25 .33099366-.24700928 .33099366-.2400055Z"/>
<path id="font_1_2" d="M.2889862 .25C.2889862 .32798768 .27799989 .44898988 .22299195 .56199648 .16299439 .68499758 .07699585 .75 .066986087 .75 .06098938 .75 .056991579 .74598696 .056991579 .73999026 .056991579 .7369995 .056991579 .73498538 .07598877 .71699526 .17399597 .6179962 .23098755 .45899964 .23098755 .25 .23098755 .07899475 .19400025-.09700012 .069992069-.2230072 .056991579-.23500061 .056991579-.23701477 .056991579-.2400055 .056991579-.2460022 .06098938-.25 .066986087-.25 .07699585-.25 .16699219-.18200684 .22599793-.055007936 .2769928 .054992677 .2889862 .16600037 .2889862 .25Z"/>
</defs>
<path transform="matrix(1,0,0,-1.00002,10.844002,98.698657)" stroke-width=".3985" stroke-linecap="butt" stroke-miterlimit="10" stroke-linejoin="miter" fill="none" stroke="#bfbfbf" d="M52.20511 0V96.89969M104.41022 0V96.89969M156.61534 0V96.89969M208.82045 0V96.89969M261.02558 0V96.89969M313.23069 0V96.89969"/>
<path transform="matrix(1,0,0,-1.00002,10.844002,98.698657)" stroke-width=".3985" stroke-linecap="butt" stroke-miterlimit="10" stroke-linejoin="miter" fill="none" stroke="#bfbfbf" d="M0 68.39978H323.6717"/>
<path transform="matrix(1,0,0,-1.00002,10.844002,98.698657)" stroke-width=".19925" stroke-linecap="butt" stroke-miterlimit="10" stroke-linejoin="miter" fill="none" stroke="#7f807f" d="M52.20511 9.2739V13.526M104.41022 9.2739V13.526M156.61534 9.2739V13.526M208.82045 9.2739V13.526M261.02558 9.2739V13.526M313.23069 9.2739V13.526"/>
<path transform="matrix(1,0,0,-1.00002,10.844002,98.698657)" stroke-width=".19925" stroke-linecap="butt" stroke-miterlimit="10" stroke-linejoin="miter" fill="none" stroke="#7f807f" d="M-2.12604 68.39978H2.12604"/>
<path transform="matrix(1,0,0,-1.00002,10.844002,98.698657)" stroke-width=".3985" stroke-linecap="butt" stroke-miterlimit="10" stroke-linejoin="miter" fill="none" stroke="#000000" d="M0 11.39996H321.67918"/>
<path transform="matrix(1,0,0,-1.00002,332.52317,87.29847)" d="M1.99252 0-1.19551 1.59401 0 0-1.19551-1.59401"/>
<path transform="matrix(1,0,0,-1.00002,10.844002,98.698657)" stroke-width=".3985" stroke-linecap="butt" stroke-miterlimit="10" stroke-linejoin="miter" fill="none" stroke="#000000" d="M0 0V94.90717"/>
<path transform="matrix(0,-1.00002,-1,-0,10.844002,3.7895814)" d="M1.99252 0-1.19551 1.59401 0 0-1.19551-1.59401"/>
<use data-text="1" xlink:href="#font_1_3" transform="matrix(9.9626,0,0,-9.962799,60.558004,99.36467)"/>
<use data-text="2" xlink:href="#font_1_4" transform="matrix(9.9626,0,0,-9.962799,112.764,99.36467)"/>
<use data-text="3" xlink:href="#font_1_5" transform="matrix(9.9626,0,0,-9.962799,164.969,99.36467)"/>
<use data-text="4" xlink:href="#font_1_6" transform="matrix(9.9626,0,0,-9.962799,217.17401,99.36467)"/>
<use data-text="5" xlink:href="#font_1_7" transform="matrix(9.9626,0,0,-9.962799,269.379,99.36467)"/>
<use data-text="6" xlink:href="#font_1_8" transform="matrix(9.9626,0,0,-9.962799,321.58399,99.36467)"/>
<use data-text="1" xlink:href="#font_1_3" transform="matrix(9.9626,0,0,-9.962799,.21700287,33.507349)"/>
<g clip-path="url(#clip_2)">
<path transform="matrix(1,0,0,-1.00002,10.844002,98.698657)" stroke-width=".79701" stroke-linecap="butt" stroke-miterlimit="10" stroke-linejoin="miter" fill="none" stroke="#0000ff" d="M0 68.39978H.52725 1.05452 1.5818 2.10907 2.63635 3.16362 3.6909 4.21815 4.74542 5.2727 5.79997 6.32724 6.8545 7.38179 7.90904 8.43633 8.9636 9.49088 10.01814 10.54543 11.0727 11.59996 12.12721 12.6545 13.18176 13.70903 14.23631 14.76358 15.29086 15.81812 16.3454 16.87267 17.39995 17.92722 18.45448 18.98175 19.50903 20.03629 20.56355 21.09084 21.6181 22.14539 22.67265 23.19994 23.72719 24.25446 24.78174 25.309 25.83627 26.36356 26.89082 27.41808 27.94536 28.47263 28.99991 29.52718 30.05446 30.58173 31.109 31.63626 32.16353 32.6908 33.21806 33.74535 34.27261 34.7999 35.32715 35.85443 36.3817 36.90898 37.43625 37.96352 38.49078 39.01807 39.54532 40.07259 40.59987 41.12714 41.65442 42.18169 42.70897 43.23622 43.76349 44.29077 44.81804 45.3453 45.87259 46.39986 46.92711 47.45439 47.98166 48.50894 49.03621 49.56349 50.09076 50.61803 51.1453 51.67256 52.19983"/>
<path transform="matrix(1,0,0,-1.00002,10.844002,98.698657)" stroke-width=".79701" stroke-linecap="butt" stroke-miterlimit="10" stroke-linejoin="miter" fill="none" stroke="#0000ff" d="M52.20511 11.39996H52.73238 53.25964 53.7869 54.31416 54.84145 55.36871 55.89598 56.42325 56.95052 57.4778 58.00505 58.53232 59.05959 59.58687 60.11414 60.6414 61.16867 61.69592 62.2232 62.75047 63.27774 63.80501 64.33229 64.85956 65.38681 65.91408 66.44135 66.96863 67.4959 68.02316 68.55043 69.07771 69.60497 70.13223 70.6595 71.18677 71.71405 72.24132 72.76859 73.29584 73.82312 74.35039 74.87766 75.40492 75.93219 76.45947 76.98674 77.51399 78.04126 78.56854 79.09581 79.62308 80.15034 80.67761 81.20488 81.73215 82.25941 82.78668 83.31396 83.84123 84.3685 84.89577 85.42302 85.9503 86.47757 87.00484 87.5321 88.05939 88.58665 89.1139 89.64117 90.16844 90.69572 91.22299 91.75026 92.27753 92.80481 93.33206 93.85933 94.3866 94.91386 95.44115 95.96841 96.49568 97.02293 97.55022 98.07748 98.60475 99.13202 99.65929 100.18657 100.71382 101.24109 101.76836 102.29564 102.8229 103.35017 103.87744 104.40471"/>
<path transform="matrix(1,0,0,-1.00002,10.844002,98.698657)" stroke-width=".79701" stroke-linecap="butt" stroke-miterlimit="10" stroke-linejoin="miter" fill="none" stroke="#0000ff" d="M104.41022 68.39978H104.93748 105.46475 105.99202 106.51929 107.04657 107.57382 108.10109 108.62836 109.15562 109.6829 110.21017 110.73744 111.2647 111.79198 112.31924 112.84651 113.37378 113.90105 114.42833 114.9556 115.48285 116.01012 116.5374 117.06467 117.59193 118.1192 118.64647 119.17374 119.701 120.22827 120.75554 121.28282 121.81009 122.33736 122.86461 123.39188 123.91916 124.44643 124.9737 125.50096 126.02824 126.55551 127.08276 127.61003 128.1373 128.66458 129.19185 129.71912 130.24639 130.77365 131.30092 131.82819 132.35546 132.88272 133.41 133.93727 134.46454 134.99179 135.51908 136.04634 136.57361 137.10088 137.62815 138.15543 138.68268 139.20995 139.73722 140.2645 140.79177 141.31903 141.8463 142.37357 142.90084 143.4281 143.95537 144.48264 145.00992 145.53719 146.06446 146.5917 147.11898 147.64626 148.17353 148.70079 149.22806 149.75534 150.28261 150.80986 151.33713 151.8644 152.39168 152.91895 153.44622 153.97348 154.50075 155.02802 155.55529 156.08255 156.60982"/>
<path transform="matrix(1,0,0,-1.00002,10.844002,98.698657)" stroke-width=".79701" stroke-linecap="butt" stroke-miterlimit="10" stroke-linejoin="miter" fill="none" stroke="#0000ff" d="M156.61534 11.39996H157.1426 157.66986 158.19713 158.7244 159.25168 159.77895 160.30622 160.83347 161.36074 161.88802 162.41529 162.94255 163.46982 163.9971 164.52437 165.05162 165.57889 166.10616 166.63344 167.1607 167.68798 168.21524 168.74251 169.26978 169.79705 170.32431 170.85158 171.37886 171.90613 172.4334 172.96065 173.48793 174.0152 174.54247 175.06974 175.597 176.12429 176.65154 177.1788 177.70607 178.23336 178.76062 179.28789 179.81516 180.34243 180.86969 181.39696 181.92423 182.45149 182.97878 183.50605 184.03331 184.56056 185.08783 185.61511 186.14238 186.66965 187.19692 187.7242 188.25145 188.77872 189.30599 189.83325 190.36054 190.8878 191.41507 191.94234 192.4696 192.99687 193.52414 194.0514 194.57868 195.10596 195.63323 196.16048 196.68775 197.21503 197.7423 198.26956 198.79683 199.3241 199.85138 200.37863 200.9059 201.43317 201.96045 202.48772 203.01499 203.54225 204.0695 204.59679 205.12406 205.65132 206.17859 206.70587 207.23314 207.7604 208.28766 208.81493"/>
<path transform="matrix(1,0,0,-1.00002,10.844002,98.698657)" stroke-width=".79701" stroke-linecap="butt" stroke-miterlimit="10" stroke-linejoin="miter" fill="none" stroke="#0000ff" d="M208.82045 68.39978H209.34772 209.87499 210.40224 210.9295 211.45679 211.98406 212.51132 213.03859 213.56586 214.09314 214.62039 215.14766 215.67493 216.20221 216.72948 217.25675 217.78401 218.31127 218.83855 219.36582 219.89308 220.42035 220.94763 221.4749 222.00217 222.52942 223.05669 223.58397 224.11124 224.6385 225.16577 225.69306 226.2203 226.74758 227.27484 227.80211 228.32939 228.85666 229.38393 229.9112 230.43846 230.96573 231.493 232.02027 232.54753 233.07482 233.60208 234.12934 234.6566 235.18389 235.71115 236.23842 236.76569 237.29296 237.82024 238.34749 238.87476 239.40203 239.9293 240.45658 240.98384 241.51111 242.03836 242.56565 243.09291 243.62018 244.14745 244.67473 245.202 245.72925 246.25652 246.78379 247.31107 247.83834 248.3656 248.89287 249.42015 249.9474 250.47467 251.00194 251.5292 252.05649 252.58376 253.11103 253.63828 254.16556 254.69283 255.2201 255.74736 256.27464 256.8019 257.3292 257.8564 258.3837 258.91099 259.43827 259.9655 260.49278 261.02006"/>
<path transform="matrix(1,0,0,-1.00002,10.844002,98.698657)" stroke-width=".79701" stroke-linecap="butt" stroke-miterlimit="10" stroke-linejoin="miter" fill="none" stroke="#0000ff" d="M261.02558 11.39996H261.55284 262.0801 262.60737 263.13465 263.6619 264.18916 264.71644 265.2437 265.77098 266.29826 266.82554 267.35279 267.88005 268.40733 268.9346 269.46186 269.9891 270.5164 271.04368 271.57096 272.09819 272.62547 273.15275 273.68003 274.20729 274.73454 275.2618 275.7891 276.31636 276.8436 277.37089 277.89817 278.4254 278.9527 279.47999 280.00724 280.5345 281.06178 281.58906 282.1163 282.6436 283.17085 283.6981 284.22538 284.75267 285.2799 285.8072 286.33448 286.86174 287.389 287.91627 288.44355 288.9708 289.49806 290.02534 290.5526 291.0799 291.60713 292.1344 292.66169 293.18898 293.71623 294.24348 294.77079 295.29804 295.8253 296.35255 296.87986 297.4071 297.93437 298.46165 298.9889 299.51618 300.04344 300.5707 301.098 301.62528 302.15254 302.6798 303.20707 303.7343 304.2616 304.78886 305.31614 305.8434 306.37068 306.89796 307.4252 307.95249 308.47975 309.00703 309.5343 310.06156 310.5888 311.1161 311.64338 312.17063 312.69789 313.22517"/>
<path transform="matrix(1,0,0,-1.00002,10.844002,98.698657)" stroke-width=".79701" stroke-linecap="butt" stroke-miterlimit="10" stroke-linejoin="miter" fill="none" stroke="#0000ff" d="M313.23069 68.39978H313.2834 313.33613 313.38887 313.44157 313.4943 313.54704 313.59977 313.65248 313.7052 313.75794 313.81068 313.8634 313.9161 313.96885 314.02156 314.07429 314.127 314.17973 314.23249 314.2852 314.3379 314.39067 314.44337 314.4961 314.54884 314.60157 314.65428 314.707 314.75975 314.81245 314.86518 314.9179 314.97065 315.02336 315.07609 315.1288 315.18153 315.23429 315.287 315.3397 315.39244 315.44517 315.4979 315.5506 315.60337 315.65608 315.7088 315.7615 315.81425 315.86698 315.9197 315.97245 316.02516 316.07789 316.1306 316.18333 316.23609 316.2888 316.3415 316.39424 316.44697 316.4997 316.5524 316.60514 316.65788 316.7106 316.7633 316.81605 316.86878 316.9215 316.97425 317.02696 317.07969 317.1324 317.18513 317.23786 317.29057 317.3433 317.39604 317.44877 317.50148 317.5542 317.60694 317.65968 317.7124 317.7651 317.81785 317.87059 317.92329 317.976 318.02873 318.08149 318.1342 318.18693 318.23966 318.29237 318.3451 318.39784 318.45057"/>
</g>
<path transform="matrix(1,0,0,-1.00002,10.844002,98.698657)" d="M1.99255 68.39978C1.99255 69.50024 1.10046 70.39233 0 70.39233-1.10046 70.39233-1.99255 69.50024-1.99255 68.39978-1.99255 67.2993-1.10046 66.40723 0 66.40723 1.10046 66.40723 1.99255 67.2993 1.99255 68.39978ZM0 68.39978" fill="#0000ff"/>
<path transform="matrix(1,0,0,-1.00002,10.844002,98.698657)" stroke-width=".3985" stroke-linecap="butt" stroke-miterlimit="10" stroke-linejoin="miter" fill="none" stroke="#0000ff" d="M1.99255 68.39978C1.99255 69.50024 1.10046 70.39233 0 70.39233-1.10046 70.39233-1.99255 69.50024-1.99255 68.39978-1.99255 67.2993-1.10046 66.40723 0 66.40723 1.10046 66.40723 1.99255 67.2993 1.99255 68.39978ZM0 68.39978"/>
<path transform="matrix(1,0,0,-1.00002,10.844002,98.698657)" stroke-width=".3985" stroke-linecap="butt" stroke-miterlimit="10" stroke-linejoin="miter" fill="none" stroke="#0000ff" d=""/>
<path transform="matrix(1,0,0,-1.00002,10.844002,98.698657)" d="M54.19766 68.39978C54.19766 69.50024 53.30557 70.39233 52.20511 70.39233 51.10463 70.39233 50.21255 69.50024 50.21255 68.39978 50.21255 67.2993 51.10463 66.40723 52.20511 66.40723 53.30557 66.40723 54.19766 67.2993 54.19766 68.39978ZM52.20511 68.39978" fill="#0000ff"/>
<path transform="matrix(1,0,0,-1.00002,10.844002,98.698657)" stroke-width=".3985" stroke-linecap="butt" stroke-miterlimit="10" stroke-linejoin="miter" fill="none" stroke="#0000ff" d="M54.19766 68.39978C54.19766 69.50024 53.30557 70.39233 52.20511 70.39233 51.10463 70.39233 50.21255 69.50024 50.21255 68.39978 50.21255 67.2993 51.10463 66.40723 52.20511 66.40723 53.30557 66.40723 54.19766 67.2993 54.19766 68.39978ZM52.20511 68.39978"/>
<path transform="matrix(1,0,0,-1.00002,10.844002,98.698657)" stroke-width=".3985" stroke-linecap="butt" stroke-miterlimit="10" stroke-linejoin="miter" fill="none" stroke="#0000ff" d=""/>
<path transform="matrix(1,0,0,-1.00002,10.844002,98.698657)" d="M106.40277 68.39978C106.40277 69.50024 105.5107 70.39233 104.41022 70.39233 103.30975 70.39233 102.41766 69.50024 102.41766 68.39978 102.41766 67.2993 103.30975 66.40723 104.41022 66.40723 105.5107 66.40723 106.40277 67.2993 106.40277 68.39978ZM104.41022 68.39978" fill="#0000ff"/>
<path transform="matrix(1,0,0,-1.00002,10.844002,98.698657)" stroke-width=".3985" stroke-linecap="butt" stroke-miterlimit="10" stroke-linejoin="miter" fill="none" stroke="#0000ff" d="M106.40277 68.39978C106.40277 69.50024 105.5107 70.39233 104.41022 70.39233 103.30975 70.39233 102.41766 69.50024 102.41766 68.39978 102.41766 67.2993 103.30975 66.40723 104.41022 66.40723 105.5107 66.40723 106.40277 67.2993 106.40277 68.39978ZM104.41022 68.39978"/>
<path transform="matrix(1,0,0,-1.00002,10.844002,98.698657)" stroke-width=".3985" stroke-linecap="butt" stroke-miterlimit="10" stroke-linejoin="miter" fill="none" stroke="#0000ff" d=""/>
<path transform="matrix(1,0,0,-1.00002,10.844002,98.698657)" d="M158.6079 68.39978C158.6079 69.50024 157.7158 70.39233 156.61534 70.39233 155.51486 70.39233 154.62279 69.50024 154.62279 68.39978 154.62279 67.2993 155.51486 66.40723 156.61534 66.40723 157.7158 66.40723 158.6079 67.2993 158.6079 68.39978ZM156.61534 68.39978" fill="#0000ff"/>
<path transform="matrix(1,0,0,-1.00002,10.844002,98.698657)" stroke-width=".3985" stroke-linecap="butt" stroke-miterlimit="10" stroke-linejoin="miter" fill="none" stroke="#0000ff" d="M158.6079 68.39978C158.6079 69.50024 157.7158 70.39233 156.61534 70.39233 155.51486 70.39233 154.62279 69.50024 154.62279 68.39978 154.62279 67.2993 155.51486 66.40723 156.61534 66.40723 157.7158 66.40723 158.6079 67.2993 158.6079 68.39978ZM156.61534 68.39978"/>
<path transform="matrix(1,0,0,-1.00002,10.844002,98.698657)" stroke-width=".3985" stroke-linecap="butt" stroke-miterlimit="10" stroke-linejoin="miter" fill="none" stroke="#0000ff" d=""/>
<path transform="matrix(1,0,0,-1.00002,10.844002,98.698657)" d="M210.813 68.39978C210.813 69.50024 209.92092 70.39233 208.82045 70.39233 207.71997 70.39233 206.8279 69.50024 206.8279 68.39978 206.8279 67.2993 207.71997 66.40723 208.82045 66.40723 209.92092 66.40723 210.813 67.2993 210.813 68.39978ZM208.82045 68.39978" fill="#0000ff"/>
<path transform="matrix(1,0,0,-1.00002,10.844002,98.698657)" stroke-width=".3985" stroke-linecap="butt" stroke-miterlimit="10" stroke-linejoin="miter" fill="none" stroke="#0000ff" d="M210.813 68.39978C210.813 69.50024 209.92092 70.39233 208.82045 70.39233 207.71997 70.39233 206.8279 69.50024 206.8279 68.39978 206.8279 67.2993 207.71997 66.40723 208.82045 66.40723 209.92092 66.40723 210.813 67.2993 210.813 68.39978ZM208.82045 68.39978"/>
<path transform="matrix(1,0,0,-1.00002,10.844002,98.698657)" stroke-width=".3985" stroke-linecap="butt" stroke-miterlimit="10" stroke-linejoin="miter" fill="none" stroke="#0000ff" d=""/>
<path transform="matrix(1,0,0,-1.00002,10.844002,98.698657)" d="M263.0181 68.39978C263.0181 69.50024 262.12605 70.39233 261.02558 70.39233 259.9251 70.39233 259.033 69.50024 259.033 68.39978 259.033 67.2993 259.9251 66.40723 261.02558 66.40723 262.12605 66.40723 263.0181 67.2993 263.0181 68.39978ZM261.02558 68.39978" fill="#0000ff"/>
<path transform="matrix(1,0,0,-1.00002,10.844002,98.698657)" stroke-width=".3985" stroke-linecap="butt" stroke-miterlimit="10" stroke-linejoin="miter" fill="none" stroke="#0000ff" d="M263.0181 68.39978C263.0181 69.50024 262.12605 70.39233 261.02558 70.39233 259.9251 70.39233 259.033 69.50024 259.033 68.39978 259.033 67.2993 259.9251 66.40723 261.02558 66.40723 262.12605 66.40723 263.0181 67.2993 263.0181 68.39978ZM261.02558 68.39978"/>
<path transform="matrix(1,0,0,-1.00002,10.844002,98.698657)" stroke-width=".3985" stroke-linecap="butt" stroke-miterlimit="10" stroke-linejoin="miter" fill="none" stroke="#0000ff" d=""/>
<path transform="matrix(1,0,0,-1.00002,10.844002,98.698657)" d="M315.22325 68.39978C315.22325 69.50024 314.33116 70.39233 313.23069 70.39233 312.1302 70.39233 311.23814 69.50024 311.23814 68.39978 311.23814 67.2993 312.1302 66.40723 313.23069 66.40723 314.33116 66.40723 315.22325 67.2993 315.22325 68.39978ZM313.23069 68.39978" fill="#0000ff"/>
<path transform="matrix(1,0,0,-1.00002,10.844002,98.698657)" stroke-width=".3985" stroke-linecap="butt" stroke-miterlimit="10" stroke-linejoin="miter" fill="none" stroke="#0000ff" d="M315.22325 68.39978C315.22325 69.50024 314.33116 70.39233 313.23069 70.39233 312.1302 70.39233 311.23814 69.50024 311.23814 68.39978 311.23814 67.2993 312.1302 66.40723 313.23069 66.40723 314.33116 66.40723 315.22325 67.2993 315.22325 68.39978ZM313.23069 68.39978"/>
<path transform="matrix(1,0,0,-1.00002,10.844002,98.698657)" stroke-width=".3985" stroke-linecap="butt" stroke-miterlimit="10" stroke-linejoin="miter" fill="none" stroke="#0000ff" d=""/>
<path transform="matrix(1,0,0,-1.00002,10.844002,98.698657)" d="M54.19766 11.39996C54.19766 12.50043 53.30557 13.39252 52.20511 13.39252 51.10463 13.39252 50.21255 12.50043 50.21255 11.39996 50.21255 10.29948 51.10463 9.40741 52.20511 9.40741 53.30557 9.40741 54.19766 10.29948 54.19766 11.39996ZM52.20511 11.39996" fill="#ffffff"/>
<path transform="matrix(1,0,0,-1.00002,10.844002,98.698657)" stroke-width=".3985" stroke-linecap="butt" stroke-miterlimit="10" stroke-linejoin="miter" fill="none" stroke="#0000ff" d="M54.19766 11.39996C54.19766 12.50043 53.30557 13.39252 52.20511 13.39252 51.10463 13.39252 50.21255 12.50043 50.21255 11.39996 50.21255 10.29948 51.10463 9.40741 52.20511 9.40741 53.30557 9.40741 54.19766 10.29948 54.19766 11.39996ZM52.20511 11.39996"/>
<path transform="matrix(1,0,0,-1.00002,10.844002,98.698657)" d="" fill="#ffffff"/>
<path transform="matrix(1,0,0,-1.00002,10.844002,98.698657)" stroke-width=".3985" stroke-linecap="butt" stroke-miterlimit="10" stroke-linejoin="miter" fill="none" stroke="#0000ff" d=""/>
<path transform="matrix(1,0,0,-1.00002,10.844002,98.698657)" d="M106.40277 11.39996C106.40277 12.50043 105.5107 13.39252 104.41022 13.39252 103.30975 13.39252 102.41766 12.50043 102.41766 11.39996 102.41766 10.29948 103.30975 9.40741 104.41022 9.40741 105.5107 9.40741 106.40277 10.29948 106.40277 11.39996ZM104.41022 11.39996" fill="#ffffff"/>
<path transform="matrix(1,0,0,-1.00002,10.844002,98.698657)" stroke-width=".3985" stroke-linecap="butt" stroke-miterlimit="10" stroke-linejoin="miter" fill="none" stroke="#0000ff" d="M106.40277 11.39996C106.40277 12.50043 105.5107 13.39252 104.41022 13.39252 103.30975 13.39252 102.41766 12.50043 102.41766 11.39996 102.41766 10.29948 103.30975 9.40741 104.41022 9.40741 105.5107 9.40741 106.40277 10.29948 106.40277 11.39996ZM104.41022 11.39996"/>
<path transform="matrix(1,0,0,-1.00002,10.844002,98.698657)" d="" fill="#ffffff"/>
<path transform="matrix(1,0,0,-1.00002,10.844002,98.698657)" stroke-width=".3985" stroke-linecap="butt" stroke-miterlimit="10" stroke-linejoin="miter" fill="none" stroke="#0000ff" d=""/>
<path transform="matrix(1,0,0,-1.00002,10.844002,98.698657)" d="M158.6079 11.39996C158.6079 12.50043 157.7158 13.39252 156.61534 13.39252 155.51486 13.39252 154.62279 12.50043 154.62279 11.39996 154.62279 10.29948 155.51486 9.40741 156.61534 9.40741 157.7158 9.40741 158.6079 10.29948 158.6079 11.39996ZM156.61534 11.39996" fill="#ffffff"/>
<path transform="matrix(1,0,0,-1.00002,10.844002,98.698657)" stroke-width=".3985" stroke-linecap="butt" stroke-miterlimit="10" stroke-linejoin="miter" fill="none" stroke="#0000ff" d="M158.6079 11.39996C158.6079 12.50043 157.7158 13.39252 156.61534 13.39252 155.51486 13.39252 154.62279 12.50043 154.62279 11.39996 154.62279 10.29948 155.51486 9.40741 156.61534 9.40741 157.7158 9.40741 158.6079 10.29948 158.6079 11.39996ZM156.61534 11.39996"/>
<path transform="matrix(1,0,0,-1.00002,10.844002,98.698657)" d="" fill="#ffffff"/>
<path transform="matrix(1,0,0,-1.00002,10.844002,98.698657)" stroke-width=".3985" stroke-linecap="butt" stroke-miterlimit="10" stroke-linejoin="miter" fill="none" stroke="#0000ff" d=""/>
<path transform="matrix(1,0,0,-1.00002,10.844002,98.698657)" d="M210.813 11.39996C210.813 12.50043 209.92092 13.39252 208.82045 13.39252 207.71997 13.39252 206.8279 12.50043 206.8279 11.39996 206.8279 10.29948 207.71997 9.40741 208.82045 9.40741 209.92092 9.40741 210.813 10.29948 210.813 11.39996ZM208.82045 11.39996" fill="#ffffff"/>
<path transform="matrix(1,0,0,-1.00002,10.844002,98.698657)" stroke-width=".3985" stroke-linecap="butt" stroke-miterlimit="10" stroke-linejoin="miter" fill="none" stroke="#0000ff" d="M210.813 11.39996C210.813 12.50043 209.92092 13.39252 208.82045 13.39252 207.71997 13.39252 206.8279 12.50043 206.8279 11.39996 206.8279 10.29948 207.71997 9.40741 208.82045 9.40741 209.92092 9.40741 210.813 10.29948 210.813 11.39996ZM208.82045 11.39996"/>
<path transform="matrix(1,0,0,-1.00002,10.844002,98.698657)" d="" fill="#ffffff"/>
<path transform="matrix(1,0,0,-1.00002,10.844002,98.698657)" stroke-width=".3985" stroke-linecap="butt" stroke-miterlimit="10" stroke-linejoin="miter" fill="none" stroke="#0000ff" d=""/>
<path transform="matrix(1,0,0,-1.00002,10.844002,98.698657)" d="M263.0181 11.39996C263.0181 12.50043 262.12605 13.39252 261.02558 13.39252 259.9251 13.39252 259.033 12.50043 259.033 11.39996 259.033 10.29948 259.9251 9.40741 261.02558 9.40741 262.12605 9.40741 263.0181 10.29948 263.0181 11.39996ZM261.02558 11.39996" fill="#ffffff"/>
<path transform="matrix(1,0,0,-1.00002,10.844002,98.698657)" stroke-width=".3985" stroke-linecap="butt" stroke-miterlimit="10" stroke-linejoin="miter" fill="none" stroke="#0000ff" d="M263.0181 11.39996C263.0181 12.50043 262.12605 13.39252 261.02558 13.39252 259.9251 13.39252 259.033 12.50043 259.033 11.39996 259.033 10.29948 259.9251 9.40741 261.02558 9.40741 262.12605 9.40741 263.0181 10.29948 263.0181 11.39996ZM261.02558 11.39996"/>
<path transform="matrix(1,0,0,-1.00002,10.844002,98.698657)" d="" fill="#ffffff"/>
<path transform="matrix(1,0,0,-1.00002,10.844002,98.698657)" stroke-width=".3985" stroke-linecap="butt" stroke-miterlimit="10" stroke-linejoin="miter" fill="none" stroke="#0000ff" d=""/>
<path transform="matrix(1,0,0,-1.00002,10.844002,98.698657)" d="M315.22325 11.39996C315.22325 12.50043 314.33116 13.39252 313.23069 13.39252 312.1302 13.39252 311.23814 12.50043 311.23814 11.39996 311.23814 10.29948 312.1302 9.40741 313.23069 9.40741 314.33116 9.40741 315.22325 10.29948 315.22325 11.39996ZM313.23069 11.39996" fill="#ffffff"/>
<path transform="matrix(1,0,0,-1.00002,10.844002,98.698657)" stroke-width=".3985" stroke-linecap="butt" stroke-miterlimit="10" stroke-linejoin="miter" fill="none" stroke="#0000ff" d="M315.22325 11.39996C315.22325 12.50043 314.33116 13.39252 313.23069 13.39252 312.1302 13.39252 311.23814 12.50043 311.23814 11.39996 311.23814 10.29948 312.1302 9.40741 313.23069 9.40741 314.33116 9.40741 315.22325 10.29948 315.22325 11.39996ZM313.23069 11.39996"/>
<path transform="matrix(1,0,0,-1.00002,10.844002,98.698657)" d="" fill="#ffffff"/>
<path transform="matrix(1,0,0,-1.00002,10.844002,98.698657)" stroke-width=".3985" stroke-linecap="butt" stroke-miterlimit="10" stroke-linejoin="miter" fill="none" stroke="#0000ff" d=""/>
<use data-text="t" xlink:href="#font_3_2" transform="matrix(9.9626,0,0,-9.962799,327.465,83.77635)"/>
<use data-text="f" xlink:href="#font_3_1" transform="matrix(9.9626,0,0,-9.962799,14.363998,12.774933)"/>
<use data-text="(" xlink:href="#font_1_1" transform="matrix(9.9626,0,0,-9.962799,20.313996,12.774933)"/>
<use data-text="t" xlink:href="#font_3_2" transform="matrix(9.9626,0,0,-9.962799,24.187996,12.774933)"/>
<use data-text=")" xlink:href="#font_1_2" transform="matrix(9.9626,0,0,-9.962799,27.785996,12.774933)"/>
</svg>
