<svg xmlns="http://www.w3.org/2000/svg" xmlns:xlink="http://www.w3.org/1999/xlink" xmlns:inkscape="http://www.inkscape.org/namespaces/inkscape" version="1.1" width="197" height="219" viewBox="0 0 197 219">
<defs>
<clipPath id="clip_1">
<path transform="matrix(1.00005,0,0,-1,1.0961456,163.189)" d="M0 0H194.27399V161.39104H0Z"/>
</clipPath>
<path id="font_2_1" d="M.37298585 .37835694C.35499574 .41537477 .32598878 .4423828 .2809906 .4423828 .1639862 .4423828 .039993287 .29533387 .039993287 .14929199 .039993287 .055267335 .09498596-.0107421879 .17298889-.0107421879 .19299317-.0107421879 .24299622-.0067443849 .30299378 .06427002 .31098939 .022247315 .34599305-.0107421879 .3939972-.0107421879 .42900086-.0107421879 .45199586 .012252808 .46798707 .044265748 .4850006 .08027649 .49798585 .14129639 .49798585 .14329529 .49798585 .1532898 .4889984 .1532898 .48599244 .1532898 .47599793 .1532898 .47499085 .14929199 .47200013 .13528443 .45498658 .07026672 .43699647 .011245728 .3959961 .011245728 .36898805 .011245728 .3659973 .037261964 .3659973 .057266237 .3659973 .07926941 .36799623 .08728027 .3789978 .13128662 .3899994 .17329407 .3919983 .18330384 .40098573 .22131348L.43699647 .36135865C.44400025 .38935853 .44400025 .39135743 .44400025 .39537049 .44400025 .41236878 .43199159 .42237855 .4149933 .42237855 .3909912 .42237855 .37599183 .4003601 .37298585 .37835694M.30799867 .119277957C.30299378 .10127258 .30299378 .09927368 .28799439 .08227539 .24398804 .027252198 .20298767 .011245728 .1749878 .011245728 .125 .011245728 .11099243 .06626892 .11099243 .105285648 .11099243 .1552887 .14299011 .27833558 .1659851 .32434083 .19699097 .38336183 .24198914 .42037965 .28199769 .42037965 .34700013 .42037965 .36099244 .3383484 .36099244 .33235169 .36099244 .32633973 .35899354 .32034303 .35798646 .31533814L.30799867 .119277957Z"/>
<path id="font_2_4" d="M.20599365 .3996582H.2999878C.31999208 .3996582 .32998658 .3996582 .32998658 .41966249 .32998658 .43066407 .31999208 .43066407 .3019867 .43066407H.21398926C.25 .5724945 .25498963 .59246829 .25498963 .59846499 .25498963 .61546328 .24299622 .62545779 .22599793 .62545779 .22299195 .62545779 .19499207 .62446597 .18598938 .58947756L.14698792 .43066407H.052993776C.032989503 .43066407 .022994996 .43066407 .022994996 .4116516 .022994996 .3996582 .0309906 .3996582 .050994874 .3996582H.13899231C.066986087 .11608887 .06298828 .099121097 .06298828 .08114624 .06298828 .02722168 .100997928-.0107421879 .15499878-.0107421879 .25698854-.0107421879 .31399537 .13505554 .31399537 .14305115 .31399537 .1530304 .30599977 .1530304 .3019867 .1530304 .29299928 .1530304 .2919922 .15003968 .2869873 .13905335 .24398804 .035217287 .19099427 .011245728 .15699768 .011245728 .13598633 .011245728 .12599182 .024230957 .12599182 .057174684 .12599182 .08114624 .12799073 .088134769 .13198853 .10510254L.20599365 .3996582Z"/>
<path id="font_2_5" d="M.48599244 .38136292C.48999024 .39537049 .48999024 .39736939 .48999024 .40437318 .48999024 .42237855 .47599793 .43138124 .46099855 .43138124 .45098878 .43138124 .43499757 .42536927 .42599488 .41036988 .42399598 .405365 .41600038 .37435914 .4119873 .35635377 .40499879 .33035279 .397995 .30334474 .3919983 .27633668L.34700013 .09628296C.34298707 .08126831 .2999878 .011245728 .23399353 .011245728 .18299866 .011245728 .17199707 .055267335 .17199707 .0922699 .17199707 .1382904 .18899536 .20030213 .22299195 .28833009 .23899842 .3293457 .24299622 .3403473 .24299622 .36035157 .24299622 .405365 .21099854 .4423828 .16099549 .4423828 .06599426 .4423828 .0289917 .29733277 .0289917 .28833009 .0289917 .27833558 .038986207 .27833558 .040985109 .27833558 .050994874 .27833558 .051986696 .28033448 .056991579 .29634095 .083999637 .3903656 .12399292 .42037965 .1579895 .42037965 .1659851 .42037965 .18299866 .42037965 .18299866 .3883667 .18299866 .36335755 .17298889 .3373413 .1659851 .31834413 .12599182 .21231079 .10798645 .1552887 .10798645 .10827637 .10798645 .019256592 .17098999-.0107421879 .22999573-.0107421879 .2689972-.0107421879 .30299378 .0062561037 .33099366 .03425598 .31799317-.017745972 .30599977-.06674194 .2659912-.11973572 .23999024-.15385437 .20199585-.18309021 .1559906-.18309021 .14199829-.18309021 .09700012-.18005371 .07998657-.14074707 .09599304-.14074707 .10899353-.14074707 .12298584-.1287384 .1329956-.11973572 .14299011-.10673523 .14299011-.08773804 .14299011-.056747438 .115997318-.052734376 .10598755-.052734376 .08299255-.052734376 .049987794-.068740848 .049987794-.11773682 .049987794-.16796875 .09399414-.20507813 .1559906-.20507813 .25898744-.20507813 .3619995-.11373901 .3899994-.00074768069L.48599244 .38136292Z"/>
<path id="font_2_2" d="M.36698915 .3996582H.45298768C.47299195 .3996582 .48298646 .3996582 .48298646 .41966249 .48298646 .43066407 .47299195 .43066407 .45599366 .43066407H.37298585L.3939972 .5449524C.397995 .5660095 .4119873 .6370239 .41799928 .6490326 .4269867 .66804507 .44400025 .68307498 .46499635 .68307498 .46899415 .68307498 .49499513 .68307498 .5139923 .66503909 .46998597 .661026 .45999146 .6260376 .45999146 .6110382 .45999146 .58802798 .47799684 .57603457 .49699403 .57603457 .522995 .57603457 .5519867 .5980377 .5519867 .6360321 .5519867 .6820679 .5059967 .7050781 .46499635 .7050781 .43099977 .7050781 .36799623 .68707278 .33799745 .58802798 .33198548 .56700137 .32899476 .5569763 .30499269 .43066407H.23599243C.21699524 .43066407 .20599365 .43066407 .20599365 .4116516 .20599365 .3996582 .21499634 .3996582 .23399353 .3996582H.2999878L.22499085 .0048828127C.20698548-.09207153 .18998719-.18309021 .13798523-.18309021 .13398743-.18309021 .10899353-.18309021 .08999634-.16506958 .13598633-.1620636 .14498902-.12606812 .14498902-.111068729 .14498902-.08807373 .1269989-.07606506 .10798645-.07606506 .08198547-.07606506 .052993776-.09806824 .052993776-.13606262 .052993776-.18109131 .09700012-.20507813 .13798523-.20507813 .19299317-.20507813 .23298645-.14607239 .25099183-.108062747 .2829895-.04508972 .30599977 .07583618 .30699159 .082839969L.36698915 .3996582Z"/>
<path id="font_3_1" d="M.33099366-.2400055C.33099366-.23701477 .33099366-.23500061 .31399537-.21800232 .18899536-.0920105 .15699768 .09700012 .15699768 .25 .15699768 .42399598 .19499207 .59799197 .31799317 .72299197 .33099366 .73498538 .33099366 .7369995 .33099366 .73999026 .33099366 .746994 .32699586 .75 .32099916 .75 .31098939 .75 .22099304 .6819916 .1619873 .5549927 .11099243 .44499208 .09899902 .33399964 .09899902 .25 .09899902 .17199707 .10998535 .050994874 .16499329-.06201172 .22499085-.18501282 .31098939-.25 .32099916-.25 .32699586-.25 .33099366-.24700928 .33099366-.2400055Z"/>
<path id="font_3_2" d="M.2889862 .25C.2889862 .32798768 .27799989 .44898988 .22299195 .56199648 .16299439 .68499758 .07699585 .75 .066986087 .75 .06098938 .75 .056991579 .74598696 .056991579 .73999026 .056991579 .7369995 .056991579 .73498538 .07598877 .71699526 .17399597 .6179962 .23098755 .45899964 .23098755 .25 .23098755 .07899475 .19400025-.09700012 .069992069-.2230072 .056991579-.23500061 .056991579-.23701477 .056991579-.2400055 .056991579-.2460022 .06098938-.25 .066986087-.25 .07699585-.25 .16699219-.18200684 .22599793-.055007936 .2769928 .054992677 .2889862 .16600037 .2889862 .25Z"/>
<path id="font_2_3" d="M.47099305 .3773346C.47200013 .3833313 .47399903 .38833619 .47399903 .39535523 .47399903 .41236878 .46199037 .42237855 .44499208 .42237855 .43499757 .42237855 .4079895 .41537477 .4039917 .3793335 .38598634 .41636659 .35099793 .4423828 .31098939 .4423828 .19699097 .4423828 .07299805 .30226136 .07299805 .15812683 .07299805 .059020997 .13398743 0 .20599365 0 .2649994 0 .31199647 .04701233 .32199098 .058029176L.32299806 .057022096C.3019867-.031982423 .2899933-.07295227 .2899933-.07495117 .28599549-.08395386 .2519989-.18309021 .1459961-.18309021 .1269989-.18309021 .09399414-.18206787 .06599426-.17297364 .09599304-.16394043 .10699463-.13793946 .10699463-.12094116 .10699463-.10494995 .09599304-.0859375 .068984989-.0859375 .04699707-.0859375 .01499939-.10394287 .01499939-.14395142 .01499939-.18508911 .051986696-.20507813 .147995-.20507813 .272995-.20507813 .34498597-.12693787 .3600006-.06695557L.47099305 .3773346M.34098817 .12809754C.33499146 .10206604 .31199647 .077041629 .2899933 .058029176 .2689972 .040008546 .23799134 .021987915 .20899964 .021987915 .15899658 .021987915 .14399719 .074035648 .14399719 .11407471 .14399719 .16212464 .17298889 .28024293 .19999695 .33128358 .22698975 .38034059 .269989 .42037965 .31199647 .42037965 .37799073 .42037965 .3919983 .33929444 .3919983 .33428956 .3919983 .32928468 .3899994 .3232727 .3889923 .3192749L.34098817 .12809754Z"/>
<path id="font_3_3" d="M.68699648 .32714845C.70199587 .32714845 .72099307 .32714845 .72099307 .34713746 .72099307 .36714173 .70199587 .36714173 .6879883 .36714173H.08898926C.07499695 .36714173 .055999757 .36714173 .055999757 .34713746 .055999757 .32714845 .07499695 .32714845 .08999634 .32714845H.68699648M.6879883 .13284302C.70199587 .13284302 .72099307 .13284302 .72099307 .15284729 .72099307 .17285156 .70199587 .17285156 .68699648 .17285156H.08999634C.07499695 .17285156 .055999757 .17285156 .055999757 .15284729 .055999757 .13284302 .07499695 .13284302 .08898926 .13284302H.6879883Z"/>
<path id="font_4_2" d="M.49299623 .29556275C.46998597 .21156311 .43499757 .08753967 .43499757 .010528564 .43499757-.016464234 .45199586-.0284729 .47599793-.0284729 .5159912-.0284729 .59098818 .014526367 .59098818 .03453064 .59098818 .039535524 .58599856 .041534425 .58099368 .041534425 .56900027 .041534425 .5509949 .03253174 .5399933 .026535035 .5269928 .028533936 .519989 .038528444 .519989 .05253601 .519989 .17454529 .6339874 .52459719 .6629944 .5986023 .6749878 .62661746 .6879883 .66760256 .6879883 .6756134 .6879883 .6826172 .6819916 .6826172 .6779938 .6826172 .6569977 .6826172 .6119995 .65560916 .60398867 .63661196 .59098818 .6016083 .58898928 .5966034 .57699587 .55960085 .5439911 .46458436 .44499208 .29956056 .34599305 .18354798 .31498719 .14854431 .21699524 .03253174 .1459961 .03253174 .09799194 .03253174 .067993167 .073532108 .067993167 .13954163 .067993167 .20954895 .10699463 .29956056 .16699219 .43658448 .20298767 .51860049 .23298645 .58961489 .23298645 .63461306 .23298645 .6816101 .20098877 .6826172 .18299866 .6826172 .10598755 .6826172 .009994507 .62060549 .009994507 .5996094 .009994507 .5936127 .016998291 .5936127 .020996094 .5936127 .032989503 .5936127 .050994874 .6016083 .066986087 .61260989 .07398987 .61761477 .08999634 .62760928 .116989139 .62760928 .13899231 .62760928 .147995 .61361697 .147995 .59161379 .147995 .5476074 .11199951 .46559144 .069992069 .36958314 .0039978029 .21955872-.01701355 .1555481-.01701355 .09753418-.01701355 .03152466 .008987427-.022460938 .07998657-.022460938 .14199829-.022460938 .23298645 .01852417 .33499146 .11354065 .4039917 .17855835 .44898988 .23855591 .49198915 .29656983L.49299623 .29556275Z"/>
<path id="font_4_1" d="M.6589966 .23046875C.6759949 .23046875 .69400027 .23046875 .69400027 .25045777 .69400027 .27046205 .6759949 .27046205 .6589966 .27046205H.117996219C.100997928 .27046205 .08299255 .27046205 .08299255 .25045777 .08299255 .23046875 .100997928 .23046875 .117996219 .23046875H.6589966Z"/>
</defs>
<path transform="matrix(1.00005,0,0,-1,1.0961456,163.189)" stroke-width=".3985" stroke-linecap="butt" stroke-miterlimit="10" stroke-linejoin="miter" fill="none" stroke="#bfbfbf" d=""/>
<path transform="matrix(1.00005,0,0,-1,1.0961456,163.189)" stroke-width=".3985" stroke-linecap="butt" stroke-miterlimit="10" stroke-linejoin="miter" fill="none" stroke="#bfbfbf" d=""/>
<path transform="matrix(1.00005,0,0,-1,1.0961456,163.189)" stroke-width=".19925" stroke-linecap="butt" stroke-miterlimit="10" stroke-linejoin="miter" fill="none" stroke="#7f807f" d=""/>
<path transform="matrix(1.00005,0,0,-1,1.0961456,163.189)" stroke-width=".19925" stroke-linecap="butt" stroke-miterlimit="10" stroke-linejoin="miter" fill="none" stroke="#7f807f" d=""/>
<path transform="matrix(1.00005,0,0,-1,1.0961456,163.189)" stroke-width=".3985" stroke-linecap="butt" stroke-miterlimit="10" stroke-linejoin="miter" fill="none" stroke="#000000" d="M0 12.41469H193.8157"/>
<path transform="matrix(1.00005,0,0,-1,194.92153,150.7743)" stroke-width=".31879" stroke-linecap="round" stroke-linejoin="round" fill="none" stroke="#000000" d="M-1.19551 1.59401C-1.09587 .99626 0 .09961 .29886 0 0-.09961-1.09587-.99626-1.19551-1.59401"/>
<path transform="matrix(1.00005,0,0,-1,1.0961456,163.189)" stroke-width=".3985" stroke-linecap="butt" stroke-miterlimit="10" stroke-linejoin="miter" fill="none" stroke="#000000" d="M12.14212 0V160.93276"/>
<path transform="matrix(0,-1,-1.00005,-0,13.238873,2.2562409)" stroke-width=".31879" stroke-linecap="round" stroke-linejoin="round" fill="none" stroke="#000000" d="M-1.19551 1.59401C-1.09587 .99626 0 .09961 .29886 0 0-.09961-1.09587-.99626-1.19551-1.59401"/>
<g clip-path="url(#clip_1)">
<path transform="matrix(1.00005,0,0,-1,1.0961456,163.189)" stroke-width=".79701" stroke-linecap="butt" stroke-miterlimit="10" stroke-linejoin="miter" fill="none" stroke="#0000ff" d="M12.14212 37.24408 12.75224 38.80292 13.3624 40.35854 13.97253 41.90796 14.58267 43.44843 15.19283 44.97575 15.80296 46.48793 16.4131 47.98148 17.02324 49.45367 17.63339 50.90103 18.24352 52.32109 18.85367 53.7106 19.46382 55.06735 20.07394 56.38858 20.6841 57.67183 21.29424 58.91508 21.90437 60.11493 22.51451 61.26955 23.12466 62.37625 23.7348 63.43456 24.34494 64.44144 24.9551 65.39545 25.56522 66.29457 26.17537 67.13884 26.7855 67.92476 27.39566 68.65308 28.0058 69.32028 28.61592 69.92766 29.22607 70.47374 29.83621 70.95822 30.44637 71.37988 31.0565 71.73997 31.66663 72.03699 32.27678 72.2712 32.88692 72.44307 33.49707 72.55263 34.10721 72.60013 34.71733 72.58727 35.32747 72.51483 35.93762 72.38255 36.54778 72.19293 37.15791 71.94643 37.76805 71.64406 38.37817 71.28807 38.98833 70.88019 39.59846 70.4214 40.20862 69.91519 40.81876 69.36255 41.4289 68.76572 42.03903 68.12717 42.64917 67.44963 43.25932 66.73436 43.86945 65.98532 44.4796 65.20424 45.08974 64.39438 45.69987 63.55869 46.31003 62.70038 46.92015 61.82149 47.5303 60.9252 48.14044 60.01477 48.7506 59.09367 49.36072 58.16437 49.97086 57.23059 50.58101 56.2956 51.19115 55.36131 51.8013 54.43227 52.41144 53.5104 53.02156 52.59972 53.6317 51.7032 54.24185 50.82356 54.852 49.96404 55.46214 49.1271 56.07227 48.31647 56.6824 47.53441 57.29256 46.78339 57.9027 46.06761 58.51285 45.38834 59.12299 44.74829 59.73311 44.14998 60.34326 43.59558 60.9534 43.08714 61.56355 42.62613 62.17368 42.21649 62.78383 41.85854 63.39398 41.55443 64.0041 41.30594 64.61426 41.11359 65.22438 40.97931 65.83453 40.90463 66.44467 40.88881 67.05482 40.93431 67.66496 41.0414 68.27509 41.21127 68.88524 41.44325 69.49538 41.73753 70.10553 42.09515 70.71567 42.51457 71.32579 42.99657 71.93594 43.54015 72.54608 44.14456 73.15623 44.8103 73.76637 45.53638 74.3765 46.3203 74.98663 47.16182 75.59679 48.05872 76.20694 49.011 76.81708 50.01566 77.42722 51.07121 78.03734 52.17668 78.64749 53.33006 79.25763 54.52815 79.86778 55.76894 80.47792 57.05093 81.08806 58.37093 81.6982 59.72668 82.30833 61.1147 82.91849 62.53401 83.52861 63.98013 84.13876 65.4511 84.7489 66.9439 85.35904 68.45532 85.9692 69.98264 86.57932 71.52213 87.18947 73.07129 87.7996 74.62715 88.40976 76.18578 89.0199 77.74413 89.63002 79.30023 90.24017 80.85039 90.85031 82.39088 91.46046 83.91895 92.0706 85.43185 92.68073 86.92664 93.29086 88.39958 93.90102 89.8472 94.51117 91.26851 95.1213 92.6595 95.73143 94.01749 96.34157 95.34044 96.95172 96.62544 97.56186 97.8697 98.17201 99.07126 98.78215 100.22763 99.39229 101.33632 100.00243 102.39635 100.61256 103.40547 101.22272 104.36147 101.83284 105.26332 102.443 106.10933 103.05315 106.89798 103.66327 107.62778 104.27342 108.29773 104.88354 108.9071 105.4937 109.45566 106.10384 109.94237 106.71399 110.36676 107.32413 110.72934 107.93425 111.02882 108.5444 111.26477 109.15454 111.4389 109.7647 111.55118 110.37483 111.60141 110.98495 111.59079 111.59511 111.52058 112.20525 111.39104 112.8154 111.20363 113.42554 110.95863 114.03566 110.65875 114.6458 110.3045 115.25595 109.89885 115.8661 109.44205 116.47624 108.93758 117.08638 108.38716 117.6965 107.79156 118.30666 107.15501 118.9168 106.47798 119.52695 105.76468 120.13708 105.01665 120.74722 104.23682 121.35736 103.42818 121.9675 102.59372 122.57765 101.73619 123.18777 100.85751 123.79793 99.962 124.40807 99.05205 125.01822 98.13145 125.62836 97.2024 126.23848 96.26886 126.84863 95.3336 127.45877 94.39934 128.06893 93.46979 128.67906 92.54819 129.28919 91.63701 129.89934 90.73923 130.50948 89.85886 131.11963 88.99908 131.72977 88.1609 132.33989 87.34929 132.95003 86.56573 133.56018 85.81372"/>
<path transform="matrix(1.00005,0,0,-1,1.0961456,163.189)" stroke-width=".79701" stroke-linecap="butt" stroke-miterlimit="10" stroke-linejoin="miter" fill="none" stroke="#ff0000" d="M12.14212 12.41469H12.25194 12.36177 12.4716 12.58144 12.69125 12.80109 12.9109 13.02074 13.13057 13.2404 13.35023 13.46005 13.56989 13.67972 13.78955 13.89937 14.0092 14.11905 14.22888 14.33868 14.44852 14.55835 14.66817 14.778 14.88783 14.99767 15.10748 15.21733 15.32716 15.437 15.54681 15.65665 15.76646 15.87628 15.98611 16.09595 16.2058 16.31561 16.42545 16.53528 16.64511 16.75493 16.86476 16.9746 17.0844 17.19423 17.30408 17.41391 17.52373 17.63356 17.7434 17.85323 17.96304 18.07288 18.18271 18.29254 18.40237 18.51219 18.62202 18.73184 18.84167 18.9515 19.06134 19.17116 19.28099 19.39082 19.50067 19.61049 19.72032 19.83014 19.93996 20.04979 20.15962 20.26945 20.37927 20.4891 20.59895 20.70879 20.8186 20.92844 21.03827 21.1481 21.2579 21.36774 21.47757 21.58739 21.69724 21.80707 21.9169 22.02672 22.13655 22.24638 22.35622 22.46603 22.57585 22.6857 22.79553 22.90535 23.01518 23.12502 23.23485 23.34467 23.4545 23.56433 23.67416 23.784 23.89383 24.00365 24.11346 24.2233 24.33313 24.44296 24.55278 24.66261 24.77245 24.8823 24.99211 25.10193 25.21176 25.32158 25.43141 25.54124 25.65108 25.7609 25.87073 25.98058 26.09041 26.20023 26.31004 26.41988 26.5297 26.63953 26.74936 26.85919 26.96901 27.07886 27.18869 27.2985 27.40833 27.51816 27.62799 27.73781 27.84764 27.95747 28.0673 28.17714 28.28697 28.39679 28.5066 28.61644 28.72627 28.8361 28.94592 29.05576 29.16559 29.27544 29.38525 29.49507 29.6049 29.71472 29.82455 29.93439 30.04422 30.15404 30.26389 30.37372 30.48355 30.59337 30.70319 30.81302 30.92284 31.03267 31.1425 31.25233 31.36217 31.472 31.58183 31.69167 31.80147 31.9113 32.02113 32.13097 32.24078 32.35062 32.46046 32.5703 32.68011 32.78995 32.89977 33.00958 33.11942 33.22925 33.33908 33.4489 33.55875 33.66858 33.77841 33.88821 33.99805"/>
<path transform="matrix(1.00005,0,0,-1,1.0961456,163.189)" stroke-width=".79701" stroke-linecap="butt" stroke-miterlimit="10" stroke-linejoin="miter" fill="none" stroke="#ff0000" d="M36.42636 37.24408 37.0365 38.80292 37.64664 40.35854 38.25677 41.90796 38.86693 43.4482 39.47707 44.97574 40.08722 46.48842 40.69734 47.98196 41.30748 49.45393 41.91762 50.90103 42.52777 52.32109 43.13792 53.71085 43.74806 55.06735 44.35818 56.38858 44.96832 57.67233 45.57848 58.91508 46.18861 60.11491 46.79877 61.26955 47.40889 62.37625 48.01903 63.43454 48.62918 64.44144 49.23932 65.39543 49.84947 66.29457 50.4596 67.13834 51.06973 67.92499 51.67987 68.65306 52.29002 69.32028 52.90018 69.92766 53.5103 70.47348 54.12045 70.9582 54.73058 71.37988 55.34073 71.73997 55.95087 72.03699 56.561 72.27118 57.17116 72.44307 57.7813 72.55238 58.39143 72.60062 59.00157 72.58727 59.61171 72.51483 60.22185 72.38254 60.832 72.19292 61.44215 71.94643 62.05229 71.64406 62.66241 71.28856 63.27255 70.88017 63.8827 70.42139 64.49284 69.91518 65.103 69.36255 65.71312 68.7662 66.32326 68.12766 66.93341 67.44962 67.54355 66.7346 68.1537 65.98532 68.76381 65.20424 69.37396 64.39485 69.98412 63.55867 70.59425 62.70038 71.2044 61.82149 71.81453 60.9252 72.42468 60.01477 73.0348 59.09367 73.64496 58.16461 74.25511 57.23059 74.86523 56.29607 75.47539 55.36131 76.08553 54.43176 76.69566 53.5104 77.3058 52.59972 77.91594 51.7032 78.5261 50.82355 79.13623 49.96402 79.74638 49.12709 80.3565 48.31647 80.96664 47.53465 81.57678 46.78337 82.18694 46.06761 82.79709 45.38832 83.40723 44.74829 84.01735 44.14996 84.62749 43.59558 85.23764 43.08714 85.84778 42.62613 86.45793 42.21649 87.06805 41.85876 87.67819 41.55466 88.28835 41.30594 88.89848 41.11407 89.50864 40.97931 90.11876 40.90463 90.7289 40.8888 91.33904 40.9343 91.94919 41.04138 92.55934 41.21127 93.16946 41.44325 93.77962 41.73753 94.38974 42.09514 94.9999 42.51457 95.61003 42.99657 96.22017 43.54015 96.83032 44.14455 97.44046 44.81079 98.05061 45.53636 98.66074 46.3203 99.27087 47.16132 99.88101 48.05896 100.49117 49.01099 101.10132 50.0154 101.71146 51.07121 102.32158 52.17693 102.93172 53.33005 103.54187 54.52814 104.15201 55.76894 104.76216 57.05093 105.37228 58.37093 105.98242 59.72617 106.59258 61.1147 107.20271 62.53351 107.81287 63.98013 108.42299 65.45108 109.03313 66.9439 109.64328 68.45557 110.25342 69.98264 110.86357 71.52213 111.4737 73.07178 112.08385 74.62714 112.69397 76.18578 113.30412 77.74461 113.91428 79.30023 114.5244 80.85039 115.13455 82.39087 115.74469 83.91893 116.35483 85.43184 116.96497 86.92664 117.5751 88.3991 118.18526 89.8472 118.7954 91.2685 119.40555 92.6595 120.01567 94.01749 120.62581 95.34044 121.23595 96.62543 121.8461 97.86995 122.45625 99.0715 123.06639 100.22763 123.67651 101.33656 124.28665 102.39609 124.8968 103.40547 125.50694 104.36147 126.1171 105.26332 126.72722 106.10907 127.33736 106.89796 127.94751 107.62776 128.55765 108.29723 129.1678 108.9071 129.77793 109.45564 130.38806 109.94235 130.9982 110.36674 131.60836 110.72934 132.2185 111.02882 132.82863 111.26476 133.43878 111.43889 134.04892 111.55118 134.65904 111.6014 135.26917 111.59077 135.87929 111.52055 136.48943 111.391 137.09955 111.20358 137.70967 110.95882 138.3198 110.65869 138.92993 110.30493 139.54004 109.89877 140.15018 109.44246 140.76032 108.93773 141.37042 108.38707 141.98056 107.79196 142.59069 107.15515 143.2008 106.4786 143.81093 105.76457 144.42107 105.01675 145.03119 104.23717 145.64131 103.42877 146.25145 102.59381 146.86156 101.73627 147.4717 100.8581 148.08184 99.96233 148.69194 99.05261 149.30208 98.132 149.9122 97.20319 150.52233 96.26915 151.13245 95.33438 151.74259 94.40036 152.3527 93.4703 152.96283 92.54869 153.57297 91.6375 154.18308 90.74022 154.79322 89.85983 155.40332 88.99953 156.01346 88.16187 156.6236 87.34975 157.2337 86.56616 157.84384 85.81464"/>
<use data-text="a" xlink:href="#font_2_1" transform="matrix(9.963098,0,0,-9.9626,34.89083,158.58399)"/>
</g>
<path transform="matrix(1.00005,0,0,-1,1.0961456,163.189)" d="M38.41891 37.24408C38.41891 38.34454 37.52684 39.23663 36.42636 39.23663 35.3259 39.23663 34.4338 38.34454 34.4338 37.24408 34.4338 36.14362 35.3259 35.25153 36.42636 35.25153 37.52684 35.25153 38.41891 36.14362 38.41891 37.24408ZM36.42636 37.24408" fill="#ff0000"/>
<path transform="matrix(1.00005,0,0,-1,1.0961456,163.189)" stroke-width=".3985" stroke-linecap="butt" stroke-miterlimit="10" stroke-linejoin="miter" fill="none" stroke="#ff0000" d="M38.41891 37.24408C38.41891 38.34454 37.52684 39.23663 36.42636 39.23663 35.3259 39.23663 34.4338 38.34454 34.4338 37.24408 34.4338 36.14362 35.3259 35.25153 36.42636 35.25153 37.52684 35.25153 38.41891 36.14362 38.41891 37.24408ZM36.42636 37.24408"/>
<path transform="matrix(1.00005,0,0,-1,1.0961456,163.189)" stroke-width=".3985" stroke-linecap="butt" stroke-miterlimit="10" stroke-linejoin="miter" fill="none" stroke="#ff0000" d=""/>
<path transform="matrix(1.00005,0,0,-1,1.0961456,163.189)" d="M14.25609 37.24408C14.25609 38.34454 13.364 39.23663 12.26353 39.23663 11.16307 39.23663 10.27098 38.34454 10.27098 37.24408 10.27098 36.14362 11.16307 35.25153 12.26353 35.25153 13.364 35.25153 14.25609 36.14362 14.25609 37.24408ZM12.26353 37.24408" fill="#0000ff"/>
<path transform="matrix(1.00005,0,0,-1,1.0961456,163.189)" stroke-width=".3985" stroke-linecap="butt" stroke-miterlimit="10" stroke-linejoin="miter" fill="none" stroke="#0000ff" d="M14.25609 37.24408C14.25609 38.34454 13.364 39.23663 12.26353 39.23663 11.16307 39.23663 10.27098 38.34454 10.27098 37.24408 10.27098 36.14362 11.16307 35.25153 12.26353 35.25153 13.364 35.25153 14.25609 36.14362 14.25609 37.24408ZM12.26353 37.24408"/>
<path transform="matrix(1.00005,0,0,-1,1.0961456,163.189)" stroke-width=".3985" stroke-linecap="butt" stroke-miterlimit="10" stroke-linejoin="miter" fill="none" stroke="#0000ff" d=""/>
<path transform="matrix(1.00005,0,0,-1,1.0961456,163.189)" stroke-width=".3985" stroke-linecap="butt" stroke-miterlimit="10" stroke-linejoin="miter" fill="none" stroke="#ff0000" d="M38.41891 12.41469C38.41891 13.51515 37.52684 14.40724 36.42636 14.40724 35.3259 14.40724 34.4338 13.51515 34.4338 12.41469 34.4338 11.31422 35.3259 10.42213 36.42636 10.42213 37.52684 10.42213 38.41891 11.31422 38.41891 12.41469ZM36.42636 12.41469"/>
<path transform="matrix(1.00005,0,0,-1,1.0961456,163.189)" d="" fill="#ff0000"/>
<path transform="matrix(1.00005,0,0,-1,1.0961456,163.189)" stroke-width=".3985" stroke-linecap="butt" stroke-miterlimit="10" stroke-linejoin="miter" fill="none" stroke="#ff0000" d=""/>
<use data-text="t" xlink:href="#font_2_4" transform="matrix(9.963098,0,0,-9.9626,188.2935,147.25299)"/>
<use data-text="y" xlink:href="#font_2_5" transform="matrix(9.963098,0,0,-9.9626,16.760926,9.606995)"/>
<path transform="matrix(1.00005,0,0,-1,1.0961456,163.189)" d="M32.17648-54.29509H162.09748V-24.40691H32.17648Z" fill="#ffffff"/>
<path transform="matrix(1.00005,0,0,-1,1.0961456,163.189)" stroke-width=".3985" stroke-linecap="butt" stroke-miterlimit="10" stroke-linejoin="miter" fill="none" stroke="#000000" d="M32.17648-54.29509H162.09748V-24.40691H32.17648Z"/>
<path transform="matrix(1.00005,0,0,-1,36.661928,196.064)" stroke-width=".79701" stroke-linecap="butt" stroke-miterlimit="10" stroke-linejoin="miter" fill="none" stroke="#0000ff" d="M0 0H8.50412 17.00826"/>
<use data-text="f" xlink:href="#font_2_2" transform="matrix(9.963098,0,0,-9.9626,98.49203,199.053)"/>
<use data-text="(" xlink:href="#font_3_1" transform="matrix(9.963098,0,0,-9.9626,104.44132,199.053)"/>
<use data-text="t" xlink:href="#font_2_4" transform="matrix(9.963098,0,0,-9.9626,108.31652,199.053)"/>
<use data-text=")" xlink:href="#font_3_2" transform="matrix(9.963098,0,0,-9.9626,111.91471,199.053)"/>
<path transform="matrix(1.00005,0,0,-1,36.661928,209.01599)" stroke-width=".79701" stroke-linecap="butt" stroke-miterlimit="10" stroke-linejoin="miter" fill="none" stroke="#ff0000" d="M0 0H8.50412 17.00826"/>
<use data-text="g" xlink:href="#font_2_3" transform="matrix(9.963098,0,0,-9.9626,56.061906,212.00499)"/>
<use data-text="(" xlink:href="#font_3_1" transform="matrix(9.963098,0,0,-9.9626,61.171144,212.00499)"/>
<use data-text="t" xlink:href="#font_2_4" transform="matrix(9.963098,0,0,-9.9626,65.045337,212.00499)"/>
<use data-text=")" xlink:href="#font_3_2" transform="matrix(9.963098,0,0,-9.9626,68.643527,212.00499)"/>
<use data-text="=" xlink:href="#font_3_3" transform="matrix(9.963098,0,0,-9.9626,75.269,212.00499)"/>
<use data-text="U" xlink:href="#font_4_2" transform="matrix(9.963098,0,0,-9.9626,85.80238,212.00499)"/>
<use data-text="(" xlink:href="#font_3_1" transform="matrix(9.963098,0,0,-9.9626,93.02675,212.00499)"/>
<use data-text="t" xlink:href="#font_2_4" transform="matrix(9.963098,0,0,-9.9626,96.900928,212.00499)"/>
<use data-text="&#x2212;" xlink:href="#font_4_1" transform="matrix(9.963098,0,0,-9.9626,102.71321,212.00499)"/>
<use data-text="a" xlink:href="#font_2_1" transform="matrix(9.963098,0,0,-9.9626,112.67572,212.00499)"/>
<use data-text=")" xlink:href="#font_3_2" transform="matrix(9.963098,0,0,-9.9626,117.94298,212.00499)"/>
<use data-text="f" xlink:href="#font_2_2" transform="matrix(9.963098,0,0,-9.9626,123.47725,212.00499)"/>
<use data-text="(" xlink:href="#font_3_1" transform="matrix(9.963098,0,0,-9.9626,129.42755,212.00499)"/>
<use data-text="t" xlink:href="#font_2_4" transform="matrix(9.963098,0,0,-9.9626,133.30274,212.00499)"/>
<use data-text="&#x2212;" xlink:href="#font_4_1" transform="matrix(9.963098,0,0,-9.9626,139.11405,212.00499)"/>
<use data-text="a" xlink:href="#font_2_1" transform="matrix(9.963098,0,0,-9.9626,149.07753,212.00499)"/>
<use data-text=")" xlink:href="#font_3_2" transform="matrix(9.963098,0,0,-9.9626,154.3438,212.00499)"/>
</svg>
