<svg xmlns="http://www.w3.org/2000/svg" xmlns:xlink="http://www.w3.org/1999/xlink" xmlns:inkscape="http://www.inkscape.org/namespaces/inkscape" version="1.1" width="326" height="100" viewBox="0 0 326 100">
<defs>
<path id="font_1_1" d="M.6589966 .23046875C.6759949 .23046875 .69400027 .23046875 .69400027 .25045777 .69400027 .27046205 .6759949 .27046205 .6589966 .27046205H.117996219C.100997928 .27046205 .08299255 .27046205 .08299255 .25045777 .08299255 .23046875 .100997928 .23046875 .117996219 .23046875H.6589966Z"/>
<path id="font_2_5" d="M.2899933 .35191346C.37199403 .37893678 .42999269 .4490509 .42999269 .52809146 .42999269 .6100464 .34199525 .6660156 .24598694 .6660156 .14498902 .6660156 .068984989 .60606387 .068984989 .53009036 .068984989 .49710084 .09098816 .47808839 .11999512 .47808839 .15098572 .47808839 .17098999 .50009158 .17098999 .5290985 .17098999 .57910159 .12399292 .57910159 .10899353 .57910159 .13999939 .62802127 .20599365 .64100649 .24198914 .64100649 .2829895 .64100649 .33799745 .6190338 .33799745 .5290985 .33799745 .51708987 .33599855 .45906068 .30999757 .4149933 .27999879 .36691285 .24598694 .36390687 .22099304 .36291505 .21299744 .36190797 .18899536 .35990907 .18199158 .35990907 .17399597 .35890199 .16699219 .35791017 .16699219 .3479004 .16699219 .33691407 .17399597 .33691407 .19099427 .33691407H.23498535C.31698609 .33691407 .35398866 .2686615 .35398866 .17037964 .35398866 .034469606 .2849884 .0055389406 .24099732 .0055389406 .19799805 .0055389406 .12298584 .022491456 .08799744 .08137512 .12298584 .07637024 .1539917 .09837341 .1539917 .1363678 .1539917 .17237854 .1269989 .19238281 .09799194 .19238281 .07398987 .19238281 .041992189 .17837525 .041992189 .1343689 .041992189 .043441774 .1349945-.022460938 .24398804-.022460938 .3659973-.022460938 .45700074 .06838989 .45700074 .17037964 .45700074 .252594 .3939972 .33088685 .2899933 .35191346Z"/>
<path id="font_2_4" d="M.1269989 .07699585 .23298645 .18003845C.3889923 .31811524 .44898988 .3721466 .44898988 .47216798 .44898988 .5860901 .35899354 .6660156 .23699951 .6660156 .12399292 .6660156 .049987794 .57411196 .049987794 .48516847 .049987794 .4291687 .099990848 .4291687 .102996829 .4291687 .11999512 .4291687 .15499878 .44117738 .15499878 .48217774 .15499878 .5081787 .13699341 .5341797 .101989749 .5341797 .09399414 .5341797 .09199524 .5341797 .08898926 .5331726 .11199951 .59806826 .1659851 .63500979 .22399903 .63500979 .31498719 .63500979 .35798646 .5541382 .35798646 .47216798 .35798646 .39215089 .30799867 .31311036 .25299073 .25108338L.06098938 .036987306C.049987794 .025985718 .049987794 .023986817 .049987794 0H.42099L.44898988 .17404175H.42399598C.4189911 .14402771 .4119873 .1000061 .4019928 .084991458 .394989 .07699585 .32899476 .07699585 .30699159 .07699585H.1269989Z"/>
<path id="font_2_3" d="M.2939911 .64004519C.2939911 .66400149 .2939911 .6660156 .2709961 .6660156 .20899964 .60227969 .12098694 .60227969 .08898926 .60227969V.57128909C.10899353 .57128909 .16799927 .57128909 .21998596 .5972748V.07902527C.21998596 .042999269 .21699524 .0309906 .1269989 .0309906H.09498596V0C.12998963 .0029907227 .21699524 .0029907227 .25698854 .0029907227 .29699708 .0029907227 .38398744 .0029907227 .4189911 0V.0309906H.3869934C.29699708 .0309906 .2939911 .041992189 .2939911 .07902527V.64004519Z"/>
<clipPath id="clip_3">
<path transform="matrix(1.00005,0,0,-1.00005,1.0961456,98.70213)" d="M0 0H323.67323V96.89984H0Z"/>
</clipPath>
<path id="font_4_2" d="M.20599365 .3996582H.2999878C.31999208 .3996582 .32998658 .3996582 .32998658 .41966249 .32998658 .43066407 .31999208 .43066407 .3019867 .43066407H.21398926C.25 .5724945 .25498963 .59246829 .25498963 .59846499 .25498963 .61546328 .24299622 .62545779 .22599793 .62545779 .22299195 .62545779 .19499207 .62446597 .18598938 .58947756L.14698792 .43066407H.052993776C.032989503 .43066407 .022994996 .43066407 .022994996 .4116516 .022994996 .3996582 .0309906 .3996582 .050994874 .3996582H.13899231C.066986087 .11608887 .06298828 .099121097 .06298828 .08114624 .06298828 .02722168 .100997928-.0107421879 .15499878-.0107421879 .25698854-.0107421879 .31399537 .13505554 .31399537 .14305115 .31399537 .1530304 .30599977 .1530304 .3019867 .1530304 .29299928 .1530304 .2919922 .15003968 .2869873 .13905335 .24398804 .035217287 .19099427 .011245728 .15699768 .011245728 .13598633 .011245728 .12599182 .024230957 .12599182 .057174684 .12599182 .08114624 .12799073 .088134769 .13198853 .10510254L.20599365 .3996582Z"/>
<path id="font_4_1" d="M.36698915 .3996582H.45298768C.47299195 .3996582 .48298646 .3996582 .48298646 .41966249 .48298646 .43066407 .47299195 .43066407 .45599366 .43066407H.37298585L.3939972 .5449524C.397995 .5660095 .4119873 .6370239 .41799928 .6490326 .4269867 .66804507 .44400025 .68307498 .46499635 .68307498 .46899415 .68307498 .49499513 .68307498 .5139923 .66503909 .46998597 .661026 .45999146 .6260376 .45999146 .6110382 .45999146 .58802798 .47799684 .57603457 .49699403 .57603457 .522995 .57603457 .5519867 .5980377 .5519867 .6360321 .5519867 .6820679 .5059967 .7050781 .46499635 .7050781 .43099977 .7050781 .36799623 .68707278 .33799745 .58802798 .33198548 .56700137 .32899476 .5569763 .30499269 .43066407H.23599243C.21699524 .43066407 .20599365 .43066407 .20599365 .4116516 .20599365 .3996582 .21499634 .3996582 .23399353 .3996582H.2999878L.22499085 .0048828127C.20698548-.09207153 .18998719-.18309021 .13798523-.18309021 .13398743-.18309021 .10899353-.18309021 .08999634-.16506958 .13598633-.1620636 .14498902-.12606812 .14498902-.111068729 .14498902-.08807373 .1269989-.07606506 .10798645-.07606506 .08198547-.07606506 .052993776-.09806824 .052993776-.13606262 .052993776-.18109131 .09700012-.20507813 .13798523-.20507813 .19299317-.20507813 .23298645-.14607239 .25099183-.108062747 .2829895-.04508972 .30599977 .07583618 .30699159 .082839969L.36698915 .3996582Z"/>
<path id="font_2_1" d="M.33099366-.2400055C.33099366-.23701477 .33099366-.23500061 .31399537-.21800232 .18899536-.0920105 .15699768 .09700012 .15699768 .25 .15699768 .42399598 .19499207 .59799197 .31799317 .72299197 .33099366 .73498538 .33099366 .7369995 .33099366 .73999026 .33099366 .746994 .32699586 .75 .32099916 .75 .31098939 .75 .22099304 .6819916 .1619873 .5549927 .11099243 .44499208 .09899902 .33399964 .09899902 .25 .09899902 .17199707 .10998535 .050994874 .16499329-.06201172 .22499085-.18501282 .31098939-.25 .32099916-.25 .32699586-.25 .33099366-.24700928 .33099366-.2400055Z"/>
<path id="font_2_2" d="M.2889862 .25C.2889862 .32798768 .27799989 .44898988 .22299195 .56199648 .16299439 .68499758 .07699585 .75 .066986087 .75 .06098938 .75 .056991579 .74598696 .056991579 .73999026 .056991579 .7369995 .056991579 .73498538 .07598877 .71699526 .17399597 .6179962 .23098755 .45899964 .23098755 .25 .23098755 .07899475 .19400025-.09700012 .069992069-.2230072 .056991579-.23500061 .056991579-.23701477 .056991579-.2400055 .056991579-.2460022 .06098938-.25 .066986087-.25 .07699585-.25 .16699219-.18200684 .22599793-.055007936 .2769928 .054992677 .2889862 .16600037 .2889862 .25Z"/>
</defs>
<path transform="matrix(1.00005,0,0,-1.00005,1.0961456,98.70213)" stroke-width=".3985" stroke-linecap="butt" stroke-miterlimit="10" stroke-linejoin="miter" fill="none" stroke="#bfbfbf" d="M10.11478 0V96.89984M60.68872 0V96.89984M111.26266 0V96.89984M212.41056 0V96.89984M262.98448 0V96.89984M313.55845 0V96.89984"/>
<path transform="matrix(1.00005,0,0,-1.00005,1.0961456,98.70213)" stroke-width=".3985" stroke-linecap="butt" stroke-miterlimit="10" stroke-linejoin="miter" fill="none" stroke="#bfbfbf" d="M0 3.72691H323.67323M0 78.26524H323.67323"/>
<path transform="matrix(1.00005,0,0,-1.00005,1.0961456,98.70213)" stroke-width=".19925" stroke-linecap="butt" stroke-miterlimit="10" stroke-linejoin="miter" fill="none" stroke="#7f807f" d="M10.11478 38.87003V43.12212M60.68872 38.87003V43.12212M111.26266 38.87003V43.12212M212.41056 38.87003V43.12212M262.98448 38.87003V43.12212M313.55845 38.87003V43.12212"/>
<path transform="matrix(1.00005,0,0,-1.00005,1.0961456,98.70213)" stroke-width=".19925" stroke-linecap="butt" stroke-miterlimit="10" stroke-linejoin="miter" fill="none" stroke="#7f807f" d="M159.7105 3.72691H163.9627M159.7105 78.26524H163.9627"/>
<path transform="matrix(1.00005,0,0,-1.00005,1.0961456,98.70213)" stroke-width=".3985" stroke-linecap="butt" stroke-miterlimit="10" stroke-linejoin="miter" fill="none" stroke="#000000" d="M0 40.99608H321.6807"/>
<path transform="matrix(1.00005,0,0,-1.00005,322.7929,57.704008)" d="M1.99252 0-1.19551 1.59401 0 0-1.19551-1.59401"/>
<path transform="matrix(1.00005,0,0,-1.00005,1.0961456,98.70213)" stroke-width=".3985" stroke-linecap="butt" stroke-miterlimit="10" stroke-linejoin="miter" fill="none" stroke="#000000" d="M161.83661 0V94.90732"/>
<path transform="matrix(0,-1.00005,-1.00005,-0,162.94084,3.7900773)" d="M1.99252 0-1.19551 1.59401 0 0-1.19551-1.59401"/>
<use data-text="&#x2212;" xlink:href="#font_1_1" transform="matrix(9.963098,0,0,-9.963098,4.8463366,69.77069)"/>
<use data-text="3" xlink:href="#font_2_5" transform="matrix(9.963098,0,0,-9.963098,12.595726,69.77069)"/>
<use data-text="&#x2212;" xlink:href="#font_1_1" transform="matrix(9.963098,0,0,-9.963098,55.42286,69.77069)"/>
<use data-text="2" xlink:href="#font_2_4" transform="matrix(9.963098,0,0,-9.963098,63.17225,69.77069)"/>
<use data-text="&#x2212;" xlink:href="#font_1_1" transform="matrix(9.963098,0,0,-9.963098,105.99939,69.77069)"/>
<use data-text="1" xlink:href="#font_2_3" transform="matrix(9.963098,0,0,-9.963098,113.74878,69.77069)"/>
<use data-text="1" xlink:href="#font_2_3" transform="matrix(9.963098,0,0,-9.963098,211.02663,69.77069)"/>
<use data-text="2" xlink:href="#font_2_4" transform="matrix(9.963098,0,0,-9.963098,261.60316,69.77069)"/>
<use data-text="3" xlink:href="#font_2_5" transform="matrix(9.963098,0,0,-9.963098,312.1797,69.77069)"/>
<use data-text="&#x2212;" xlink:href="#font_1_1" transform="matrix(9.963098,0,0,-9.963098,144.56333,97.77009)"/>
<use data-text="1" xlink:href="#font_2_3" transform="matrix(9.963098,0,0,-9.963098,152.31272,97.77009)"/>
<use data-text="1" xlink:href="#font_2_3" transform="matrix(9.963098,0,0,-9.963098,152.3127,23.643387)"/>
<g clip-path="url(#clip_3)">
<path transform="matrix(1.00005,0,0,-1.00005,1.0961456,98.70213)" stroke-width=".79701" stroke-linecap="butt" stroke-miterlimit="10" stroke-linejoin="miter" fill="none" stroke="#0000ff" d="M10.11478 22.3615H10.3689 10.62303 10.87717 11.13127 11.3854 11.63954 11.89368 12.1478 12.40193 12.65605 12.91019 13.1643 13.41844 13.67258 13.92671 14.18082 14.43497 14.68909 14.94322 15.19734 15.45148 15.70561 15.95975 16.21387 16.46799 16.72212 16.97626 17.2304 17.48451 17.73863 17.99277 18.2469 18.50102 18.75516 19.0093 19.26341 19.51753 19.77167 20.0258 20.27994 20.53406 20.78818 21.04231 21.29645 21.55058 21.8047 22.05884 22.31296 22.5671 22.82121 23.07535 23.32948 23.5836 23.83772 24.09186 24.346 24.60013 24.85425 25.10837 25.3625 25.61664 25.87076 26.1249 26.37903 26.63315 26.88727 27.1414 27.39554 27.64967 27.90381 28.15791 28.41206 28.66618 28.92032 29.17444 29.42857 29.6827 29.93684 30.19095 30.44508 30.69922 30.95335 31.20746 31.46161 31.71573 31.96986 32.22398 32.47812 32.73225 32.98639 33.24051 33.49463 33.74876 34.0029 34.25703 34.51115 34.76527 35.01941 35.27354 35.52766 35.78181 36.03592 36.29007 36.54416 36.79831 37.05246 37.30656 37.5607 37.8148 38.06895 38.3231 38.5772 38.83134 39.08545 39.3396 39.59375 39.84785 40.10199 40.35611 40.61024 40.86438 41.11848 41.37265 41.62675 41.88089 42.13503 42.38914 42.6433 42.89738 43.15154 43.40569 43.65979 43.91393 44.16803 44.42218 44.67633 44.93044 45.18457 45.43869 45.69283 45.94698 46.20107 46.45522 46.70932 46.96349 47.2176 47.47171 47.72586 47.97997 48.23412 48.48827 48.74237 48.9965 49.25061 49.50475 49.75891 50.01302 50.26715 50.52126 50.7754 51.02954 51.28366 51.5378 51.7919 52.04605 52.3002 52.55429 52.80844 53.06255 53.3167 53.57083 53.82494 54.07909 54.3332 54.58733 54.84148 55.09558 55.34975 55.60384 55.85799 56.11212 56.36624 56.62036 56.87448 57.12863 57.38278 57.63689 57.89102 58.14513 58.39928 58.65343 58.90752 59.16167 59.41577 59.66992 59.92406 60.17816 60.43231 60.68642"/>
<path transform="matrix(1.00005,0,0,-1.00005,1.0961456,98.70213)" stroke-width=".79701" stroke-linecap="butt" stroke-miterlimit="10" stroke-linejoin="miter" fill="none" stroke="#0000ff" d="M60.68872 40.99608 60.94284 44.72751 61.19698 46.26645 61.4511 47.44278 61.70522 48.43066 61.95935 49.29765 62.21349 50.07845 62.4676 50.79364 62.72174 51.4567 62.97588 52.07701 63.23 52.66138 63.48412 53.21515 63.73825 53.74199 63.99239 54.24525 64.24652 54.72752 64.50066 55.19096 64.75476 55.63733 65.00891 56.06819 65.26303 56.48479 65.51717 56.88826 65.77129 57.27959 66.02542 57.65962 66.27956 58.02913 66.53369 58.38876 66.7878 58.73915 67.04193 59.0808 67.29607 59.4142 67.5502 59.73982 67.80432 60.05803 68.05846 60.36919 68.31258 60.67368 68.56671 60.97174 68.82083 61.2637 69.07497 61.54982 69.3291 61.83034 69.58324 62.10542 69.83736 62.37535 70.09148 62.6403 70.34561 62.90044 70.59975 63.15596 70.85388 63.40698 71.108 63.65367 71.36212 63.89618 71.61626 64.13463 71.87039 64.36916 72.12451 64.59985 72.37865 64.82686 72.63278 65.05025 72.8869 65.27014 73.14102 65.48663 73.39516 65.69981 73.64929 65.90976 73.90343 66.11656 74.15753 66.32028 74.41167 66.521 74.6658 66.71878 74.91994 66.91373 75.17406 67.10583 75.42819 67.29523 75.68231 67.48195 75.93645 67.66603 76.19058 67.84756 76.4447 68.02658 76.69884 68.20311 76.95297 68.37724 77.20709 68.54898 77.46121 68.71841 77.71535 68.88554 77.96948 69.05043 78.22362 69.2131 78.47774 69.37361 78.73186 69.532 78.98601 69.68828 79.24013 69.8425 79.49425 69.99469 79.74838 70.1449 80.00252 70.29312 80.25664 70.4394 80.51077 70.5838 80.7649 70.7263 81.01903 70.86693 81.27316 71.00575 81.52728 71.14278 81.7814 71.27802 82.03555 71.4115 82.28967 71.54326 82.54381 71.6733 82.79793 71.80164 83.05206 71.92833 83.3062 72.05339 83.56033 72.1768 83.81444 72.29861 84.06857 72.41882 84.32271 72.53749 84.57684 72.6546 84.83096 72.77016 85.0851 72.8842 85.33922 72.99675 85.59335 73.1078 85.84747 73.21739 86.10161 73.32552 86.35576 73.4322 86.60986 73.53746 86.864 73.64131 87.1181 73.74376 87.37225 73.84482 87.6264 73.94452 87.88051 74.04283 88.13464 74.1398 88.38875 74.23543 88.6429 74.32973 88.89705 74.42273 89.15114 74.51442 89.40529 74.60483 89.6594 74.69394 89.91354 74.78178 90.16768 74.86835 90.4218 74.95367 90.67593 75.03775 90.93005 75.12059 91.18417 75.20221 91.43832 75.28262 91.69243 75.3618 91.9466 75.43979 92.20068 75.5166 92.45483 75.59221 92.70897 75.66666 92.96309 75.73991 93.21722 75.81203 93.47133 75.88298 93.72548 75.95279 93.97963 76.02145 94.23373 76.08897 94.48787 76.1554 94.74197 76.22067 94.99612 76.28485 95.25027 76.34792 95.50436 76.40987 95.75851 76.47073 96.01263 76.5305 96.26677 76.58919 96.5209 76.6468 96.77501 76.70332 97.02916 76.75877 97.28326 76.81317 97.53741 76.86652 97.79155 76.9188 98.04565 76.97002 98.2998 77.0202 98.5539 77.06934 98.80806 77.11746 99.06221 77.16452 99.31631 77.21056 99.57045 77.25557 99.82455 77.29955 100.07869 77.34251 100.33286 77.38449 100.58696 77.42543 100.8411 77.46536 101.0952 77.5043 101.34935 77.54224 101.60349 77.57918 101.85759 77.61513 102.11174 77.65007 102.36584 77.68404 102.62 77.71701 102.87413 77.749 103.12823 77.78 103.38239 77.81004 103.63649 77.83908 103.89063 77.86717 104.14478 77.89427 104.39888 77.92041 104.65303 77.94559 104.90714 77.96979 105.16127 77.99303 105.41542 78.0153 105.66953 78.03662 105.92369 78.05698 106.17778 78.07639 106.43193 78.09483 106.68607 78.11234 106.94019 78.12888 107.1943 78.14445 107.44843 78.15909 107.70258 78.17279 107.95673 78.18553 108.21082 78.19733 108.46497 78.20816 108.71907 78.21808 108.97322 78.22704 109.22736 78.23505 109.48146 78.24211 109.73561 78.24826 109.98972 78.25343 110.24385 78.25768 110.498 78.26097 110.7521 78.26335 111.00626 78.26477 111.26036 78.2647"/>
<path transform="matrix(1.00005,0,0,-1.00005,1.0961456,98.70213)" stroke-width=".79701" stroke-linecap="butt" stroke-miterlimit="10" stroke-linejoin="miter" fill="none" stroke="#0000ff" d="M111.26266 22.3615H111.51678 111.7709 112.02505 112.27919 112.53333 112.78746 113.04158 113.29572 113.54987 113.804 114.05812 114.31226 114.56639 114.82053 115.07466 115.3288 115.58293 115.83707 116.09119 116.34532 116.59947 116.8536 117.10773 117.36186 117.61601 117.87013 118.12427 118.3784 118.63254 118.88667 119.14082 119.39493 119.64908 119.90321 120.15735 120.41147 120.66562 120.91974 121.17389 121.42801 121.68214 121.93628 122.19043 122.44455 122.69868 122.95282 123.20695 123.46107 123.71523 123.96936 124.2235 124.47762 124.73175 124.98589 125.24004 125.49416 125.74829 126.00243 126.25656 126.5107 126.76483 127.01897 127.2731 127.52724 127.78136 128.03549 128.28964 128.54378 128.7979 129.05204 129.30617 129.5603 129.81444 130.06858 130.32271 130.57685 130.83097 131.0851 131.33925 131.59339 131.8475 132.10164 132.35578 132.60991 132.86406 133.11818 133.37232 133.62645 133.88059 134.1347 134.38886 134.64299 134.89713 135.15126 135.40538 135.65952 135.91367 136.16779 136.42192 136.67607 136.9302 137.18431 137.43846 137.69258 137.94673 138.20088 138.45499 138.70914 138.96326 139.2174 139.47154 139.72566 139.97982 140.23392 140.48807 140.74222 140.99634 141.25049 141.50458 141.75873 142.0129 142.267 142.52115 142.77526 143.02942 143.28357 143.53766 143.79183 144.04593 144.30008 144.55423 144.80834 145.06249 145.3166 145.57074 145.8249 146.07901 146.33316 146.58728 146.84142 147.09557 147.34969 147.60384 147.85793 148.11209 148.36624 148.62036 148.8745 149.12862 149.38277 149.63692 149.891 150.14517 150.39928 150.65345 150.90758 151.16168 151.41585 151.66996 151.92409 152.17826 152.43236 152.68651 152.94063 153.19477 153.44893 153.70304 153.9572 154.21129 154.46544 154.71959 154.97371 155.22785 155.48197 155.73612 155.99027 156.24437 156.49852 156.75264 157.00679 157.26093 157.51503 157.7692 158.0233 158.27745 158.5316 158.78572 159.03987 159.29398 159.54811 159.80228 160.05638 160.31055 160.56464 160.81879 161.07295 161.32706 161.5812 161.83531"/>
<path transform="matrix(1.00005,0,0,-1.00005,1.0961456,98.70213)" stroke-width=".79701" stroke-linecap="butt" stroke-miterlimit="10" stroke-linejoin="miter" fill="none" stroke="#0000ff" d="M161.83661 40.99608 162.09075 44.72751 162.34487 46.26648 162.599 47.44284 162.85314 48.43074 163.10727 49.29774 163.36139 50.07854 163.61554 50.79372 163.86968 51.45679 164.12381 52.0771 164.37793 52.6615 164.63207 53.21527 164.8862 53.74213 165.14035 54.24536 165.39447 54.72766 165.6486 55.1911 165.90274 55.63748 166.15688 56.06834 166.411 56.48494 166.66515 56.8884 166.91928 57.27974 167.17342 57.65977 167.42755 58.02928 167.68167 58.38893 167.9358 58.73932 168.18996 59.08096 168.44409 59.41437 168.69821 59.73997 168.95236 60.05821 169.20648 60.36937 169.46062 60.67386 169.71475 60.97194 169.96889 61.26389 170.22303 61.55 170.47718 61.83049 170.73128 62.10562 170.98542 62.37555 171.23957 62.6405 171.4937 62.90063 171.74782 63.15614 172.00197 63.40717 172.25609 63.65387 172.51023 63.8964 172.76436 64.13484 173.0185 64.36937 173.27263 64.60005 173.52678 64.82707 173.78089 65.05046 174.03502 65.27036 174.28917 65.48686 174.5433 65.70004 174.79744 65.90997 175.05158 66.11678 175.30571 66.3205 175.55983 66.52121 175.81398 66.719 176.0681 66.91393 176.32224 67.10605 176.57639 67.29546 176.83052 67.48216 177.08463 67.66626 177.33878 67.8478 177.59291 68.0268 177.84705 68.20334 178.10118 68.37746 178.35532 68.54921 178.60944 68.71863 178.86359 68.88577 179.1177 69.05064 179.37184 69.21333 179.62599 69.37384 179.88013 69.53221 180.13423 69.6885 180.38838 69.84273 180.64252 69.99492 180.89665 70.14511 181.1508 70.29335 181.40493 70.43964 181.65906 70.58401 181.9132 70.72652 182.16733 70.86716 182.42145 71.00598 182.6756 71.143 182.92974 71.27824 183.18387 71.41173 183.43799 71.54347 183.69213 71.67352 183.94626 71.80186 184.20041 71.92856 184.45453 72.0536 184.70867 72.17702 184.9628 72.29884 185.21694 72.41905 185.47106 72.5377 185.7252 72.6548 185.97934 72.77037 186.23348 72.88441 186.4876 72.99696 186.74173 73.108 186.99587 73.2176 187.25002 73.32573 187.50417 73.43242 187.75826 73.53767 188.01242 73.64154 188.26653 73.74397 188.52068 73.84503 188.77483 73.94473 189.02893 74.04303 189.2831 74.14001 189.5372 74.23563 189.79134 74.32994 190.04549 74.42294 190.2996 74.51463 190.55376 74.60503 190.80786 74.69414 191.06201 74.78198 191.31616 74.86855 191.57028 74.95386 191.82442 75.03795 192.07854 75.12079 192.33269 75.20241 192.58684 75.2828 192.84093 75.36198 193.0951 75.43999 193.3492 75.51678 193.60337 75.5924 193.8575 75.66684 194.11162 75.74011 194.36577 75.81221 194.61988 75.88316 194.87403 75.95297 195.12818 76.02164 195.38228 76.08916 195.63645 76.15558 195.89055 76.22086 196.14469 76.28502 196.39885 76.34808 196.65296 76.41005 196.90712 76.4709 197.16121 76.53065 197.41538 76.58936 197.66951 76.64696 197.92363 76.70348 198.17777 76.75894 198.43189 76.81334 198.68604 76.86667 198.9402 76.91895 199.19429 76.97017 199.44844 77.02034 199.70256 77.06949 199.95671 77.11758 200.21085 77.16466 200.46497 77.2107 200.71912 77.2557 200.97322 77.29968 201.22739 77.34265 201.48152 77.38461 201.73564 77.42555 201.98979 77.4655 202.24391 77.50444 202.49803 77.54236 202.7522 77.57928 203.0063 77.61525 203.26047 77.65018 203.51456 77.68414 203.76873 77.71712 204.02288 77.7491 204.27698 77.7801 204.53113 77.81013 204.78524 77.83919 205.0394 77.86726 205.29355 77.89436 205.54764 77.9205 205.80179 77.94568 206.05591 77.96986 206.31006 77.9931 206.56421 78.0154 206.81832 78.03668 207.07248 78.05705 207.32659 78.07646 207.58074 78.0949 207.83487 78.1124 208.08899 78.12894 208.34314 78.14452 208.59726 78.15915 208.8514 78.17284 209.10555 78.18558 209.35967 78.19737 209.61382 78.2082 209.86792 78.21811 210.12207 78.22707 210.37622 78.23508 210.63033 78.24214 210.88448 78.24828 211.13858 78.25345 211.39275 78.25769 211.6469 78.26099 211.90099 78.26335 212.15515 78.26477 212.40926 78.2647"/>
<path transform="matrix(1.00005,0,0,-1.00005,1.0961456,98.70213)" stroke-width=".79701" stroke-linecap="butt" stroke-miterlimit="10" stroke-linejoin="miter" fill="none" stroke="#0000ff" d="M212.41056 22.3615H212.66466 212.9188 213.17293 213.42705 213.68117 213.9353 214.18944 214.44358 214.6977 214.95182 215.20595 215.46009 215.71422 215.96834 216.22248 216.4766 216.73075 216.98485 217.23899 217.49312 217.74726 218.00138 218.25551 218.50963 218.76377 219.01789 219.27202 219.52616 219.78029 220.0344 220.28853 220.54267 220.7968 221.05094 221.30506 221.55918 221.81331 222.06745 222.32157 222.5757 222.82984 223.08396 223.33808 223.59221 223.84635 224.10048 224.3546 224.60872 224.86286 225.11699 225.37111 225.62525 225.87937 226.1335 226.38762 226.64176 226.89589 227.15003 227.40415 227.65827 227.9124 228.16654 228.42067 228.67479 228.92891 229.18305 229.43718 229.6913 229.94544 230.19957 230.45369 230.70783 230.96195 231.21608 231.47022 231.72434 231.97846 232.2326 232.48673 232.74086 232.99498 233.24912 233.50324 233.75739 234.01149 234.26563 234.51976 234.7739 235.02802 235.28215 235.53627 235.7904 236.04453 236.29866 236.5528 236.80693 237.06104 237.31517 237.5693 237.82344 238.07758 238.33168 238.58583 238.83994 239.09409 239.34822 239.60233 239.85648 240.11058 240.36472 240.61887 240.87297 241.12712 241.38121 241.63536 241.88951 242.14363 242.39775 242.65187 242.906 243.16016 243.41425 243.66841 243.92252 244.17667 244.4308 244.6849 244.93906 245.19316 245.44731 245.70145 245.95555 246.2097 246.4638 246.71794 246.97209 247.2262 247.48035 247.73445 247.98859 248.24274 248.49684 248.75098 249.00508 249.25925 249.51338 249.76747 250.02162 250.27573 250.52989 250.78404 251.03813 251.29227 251.54639 251.80052 252.05467 252.30878 252.56293 252.81703 253.07117 253.3253 253.57942 253.83358 254.08766 254.34181 254.59597 254.85007 255.1042 255.3583 255.61246 255.86661 256.1207 256.37486 256.62898 256.8831 257.13725 257.39134 257.6455 257.8996 258.15376 258.40788 258.662 258.91615 259.17027 259.4244 259.67854 259.93266 260.1868 260.4409 260.69505 260.9492 261.2033 261.45744 261.71153 261.96568 262.21983 262.47395 262.72807 262.98219"/>
<path transform="matrix(1.00005,0,0,-1.00005,1.0961456,98.70213)" stroke-width=".79701" stroke-linecap="butt" stroke-miterlimit="10" stroke-linejoin="miter" fill="none" stroke="#0000ff" d="M262.98448 40.99608 263.2386 44.72751 263.49275 46.26645 263.74687 47.44278 264.00099 48.43066 264.2551 49.29765 264.50926 50.07845 264.76338 50.79364 265.01753 51.4567 265.27165 52.07701 265.52577 52.66138 265.77989 53.21515 266.03404 53.74199 266.28816 54.24525 266.54228 54.72752 266.79643 55.19096 267.05055 55.63733 267.30467 56.06819 267.55879 56.48479 267.81294 56.88826 268.06706 57.27959 268.32118 57.65962 268.57533 58.02913 268.82945 58.38876 269.08357 58.73915 269.3377 59.0808 269.59184 59.4142 269.84596 59.73982 270.1001 60.05803 270.35423 60.36919 270.60835 60.67368 270.86247 60.97174 271.1166 61.2637 271.37074 61.54982 271.62486 61.83034 271.879 62.10542 272.13313 62.37535 272.38725 62.6403 272.64137 62.90044 272.8955 63.15596 273.14964 63.40698 273.40379 63.65367 273.65788 63.89618 273.91203 64.13463 274.16615 64.36916 274.4203 64.59985 274.6744 64.82686 274.92854 65.05025 275.18266 65.27014 275.4368 65.48663 275.69093 65.69981 275.94505 65.90976 276.1992 66.11656 276.4533 66.32028 276.70744 66.521 276.96156 66.71878 277.2157 66.91373 277.46983 67.10583 277.72398 67.29523 277.97807 67.48195 278.2322 67.66603 278.48634 67.84756 278.74049 68.02658 278.9946 68.20311 279.24873 68.37724 279.50285 68.54898 279.757 68.71841 280.0111 68.88554 280.26524 69.05043 280.51939 69.2131 280.7735 69.37361 281.02763 69.532 281.28178 69.68828 281.5359 69.8425 281.79 69.99469 282.04417 70.1449 282.29829 70.29312 282.5524 70.4394 282.80656 70.5838 283.06068 70.7263 283.3148 70.86693 283.5689 71.00575 283.82307 71.14278 284.07719 71.27802 284.3313 71.4115 284.58543 71.54326 284.83958 71.6733 285.0937 71.80164 285.3478 71.92833 285.60197 72.05339 285.8561 72.1768 286.1102 72.29861 286.36433 72.41882 286.61848 72.53749 286.8726 72.6546 287.12675 72.77016 287.38087 72.8842 287.63499 72.99675 287.8891 73.1078 288.14326 73.21739 288.39738 73.32552 288.65153 73.4322 288.9056 73.53746 289.15977 73.64131 289.41389 73.74376 289.668 73.84482 289.92216 73.94452 290.17628 74.04283 290.43043 74.1398 290.6845 74.23543 290.93867 74.32973 291.1928 74.42273 291.4469 74.51442 291.70106 74.60483 291.95515 74.69394 292.2093 74.78178 292.46348 74.86835 292.71757 74.95367 292.9717 75.03775 293.2258 75.12059 293.47996 75.20221 293.7341 75.28262 293.9882 75.3618 294.24238 75.43979 294.49647 75.5166 294.7506 75.59221 295.00474 75.66666 295.25886 75.73991 295.513 75.81203 295.7671 75.88298 296.02125 75.95279 296.2754 76.02145 296.5295 76.08897 296.78367 76.1554 297.03773 76.22067 297.2919 76.28485 297.54606 76.34792 297.80015 76.40987 298.0543 76.47073 298.3084 76.5305 298.56254 76.58919 298.81669 76.6468 299.0708 76.70332 299.32493 76.75877 299.57905 76.81317 299.8332 76.86652 300.08735 76.9188 300.34144 76.97002 300.59559 77.0202 300.84968 77.06934 301.10386 77.11746 301.35798 77.16452 301.6121 77.21056 301.8662 77.25557 302.12034 77.29955 302.37446 77.34251 302.62864 77.38449 302.88273 77.42543 303.13688 77.46536 303.39097 77.5043 303.6451 77.54224 303.89927 77.57918 304.15339 77.61513 304.4075 77.65007 304.6616 77.68404 304.91578 77.71701 305.1699 77.749 305.424 77.78 305.67817 77.81004 305.93226 77.83908 306.1864 77.86717 306.44056 77.89427 306.69465 77.92041 306.9488 77.94559 307.2029 77.96979 307.45707 77.99303 307.71119 78.0153 307.9653 78.03662 308.21946 78.05698 308.47358 78.07639 308.7277 78.09483 308.98185 78.11234 309.23597 78.12888 309.49009 78.14445 309.7442 78.15909 309.99836 78.17279 310.2525 78.18553 310.5066 78.19733 310.76075 78.20816 311.01484 78.21808 311.26899 78.22704 311.52314 78.23505 311.77726 78.24211 312.03138 78.24826 312.2855 78.25343 312.53965 78.25768 312.7938 78.26097 313.04789 78.26335 313.30204 78.26477 313.55613 78.2647"/>
</g>
<path transform="matrix(1.00005,0,0,-1.00005,1.0961456,98.70213)" d="M62.68127 40.99608C62.68127 42.09656 61.7892 42.98863 60.68872 42.98863 59.58826 42.98863 58.69617 42.09656 58.69617 40.99608 58.69617 39.89561 59.58826 39.00352 60.68872 39.00352 61.7892 39.00352 62.68127 39.89561 62.68127 40.99608ZM60.68872 40.99608" fill="#0000ff"/>
<path transform="matrix(1.00005,0,0,-1.00005,1.0961456,98.70213)" stroke-width=".3985" stroke-linecap="butt" stroke-miterlimit="10" stroke-linejoin="miter" fill="none" stroke="#0000ff" d="M62.68127 40.99608C62.68127 42.09656 61.7892 42.98863 60.68872 42.98863 59.58826 42.98863 58.69617 42.09656 58.69617 40.99608 58.69617 39.89561 59.58826 39.00352 60.68872 39.00352 61.7892 39.00352 62.68127 39.89561 62.68127 40.99608ZM60.68872 40.99608"/>
<path transform="matrix(1.00005,0,0,-1.00005,1.0961456,98.70213)" stroke-width=".3985" stroke-linecap="butt" stroke-miterlimit="10" stroke-linejoin="miter" fill="none" stroke="#0000ff" d=""/>
<path transform="matrix(1.00005,0,0,-1.00005,1.0961456,98.70213)" d="M163.82917 40.99608C163.82917 42.09656 162.93708 42.98863 161.83661 42.98863 160.73613 42.98863 159.84406 42.09656 159.84406 40.99608 159.84406 39.89561 160.73613 39.00352 161.83661 39.00352 162.93708 39.00352 163.82917 39.89561 163.82917 40.99608ZM161.83661 40.99608" fill="#0000ff"/>
<path transform="matrix(1.00005,0,0,-1.00005,1.0961456,98.70213)" stroke-width=".3985" stroke-linecap="butt" stroke-miterlimit="10" stroke-linejoin="miter" fill="none" stroke="#0000ff" d="M163.82917 40.99608C163.82917 42.09656 162.93708 42.98863 161.83661 42.98863 160.73613 42.98863 159.84406 42.09656 159.84406 40.99608 159.84406 39.89561 160.73613 39.00352 161.83661 39.00352 162.93708 39.00352 163.82917 39.89561 163.82917 40.99608ZM161.83661 40.99608"/>
<path transform="matrix(1.00005,0,0,-1.00005,1.0961456,98.70213)" stroke-width=".3985" stroke-linecap="butt" stroke-miterlimit="10" stroke-linejoin="miter" fill="none" stroke="#0000ff" d=""/>
<path transform="matrix(1.00005,0,0,-1.00005,1.0961456,98.70213)" d="M264.97706 40.99608C264.97706 42.09656 264.08497 42.98863 262.98448 42.98863 261.88404 42.98863 260.99195 42.09656 260.99195 40.99608 260.99195 39.89561 261.88404 39.00352 262.98448 39.00352 264.08497 39.00352 264.97706 39.89561 264.97706 40.99608ZM262.98448 40.99608" fill="#0000ff"/>
<path transform="matrix(1.00005,0,0,-1.00005,1.0961456,98.70213)" stroke-width=".3985" stroke-linecap="butt" stroke-miterlimit="10" stroke-linejoin="miter" fill="none" stroke="#0000ff" d="M264.97706 40.99608C264.97706 42.09656 264.08497 42.98863 262.98448 42.98863 261.88404 42.98863 260.99195 42.09656 260.99195 40.99608 260.99195 39.89561 261.88404 39.00352 262.98448 39.00352 264.08497 39.00352 264.97706 39.89561 264.97706 40.99608ZM262.98448 40.99608"/>
<path transform="matrix(1.00005,0,0,-1.00005,1.0961456,98.70213)" stroke-width=".3985" stroke-linecap="butt" stroke-miterlimit="10" stroke-linejoin="miter" fill="none" stroke="#0000ff" d=""/>
<path transform="matrix(1.00005,0,0,-1.00005,1.0961456,98.70213)" stroke-width=".3985" stroke-linecap="butt" stroke-miterlimit="10" stroke-linejoin="miter" fill="none" stroke="#0000ff" d=""/>
<path transform="matrix(1.00005,0,0,-1.00005,1.0961456,98.70213)" d="M62.68127 22.3615C62.68127 23.46196 61.7892 24.35405 60.68872 24.35405 59.58826 24.35405 58.69617 23.46196 58.69617 22.3615 58.69617 21.26102 59.58826 20.36894 60.68872 20.36894 61.7892 20.36894 62.68127 21.26102 62.68127 22.3615ZM60.68872 22.3615" fill="#ffffff"/>
<path transform="matrix(1.00005,0,0,-1.00005,1.0961456,98.70213)" stroke-width=".3985" stroke-linecap="butt" stroke-miterlimit="10" stroke-linejoin="miter" fill="none" stroke="#0000ff" d="M62.68127 22.3615C62.68127 23.46196 61.7892 24.35405 60.68872 24.35405 59.58826 24.35405 58.69617 23.46196 58.69617 22.3615 58.69617 21.26102 59.58826 20.36894 60.68872 20.36894 61.7892 20.36894 62.68127 21.26102 62.68127 22.3615ZM60.68872 22.3615"/>
<path transform="matrix(1.00005,0,0,-1.00005,1.0961456,98.70213)" d="" fill="#ffffff"/>
<path transform="matrix(1.00005,0,0,-1.00005,1.0961456,98.70213)" stroke-width=".3985" stroke-linecap="butt" stroke-miterlimit="10" stroke-linejoin="miter" fill="none" stroke="#0000ff" d=""/>
<path transform="matrix(1.00005,0,0,-1.00005,1.0961456,98.70213)" d="M163.82917 22.3615C163.82917 23.46196 162.93708 24.35405 161.83661 24.35405 160.73613 24.35405 159.84406 23.46196 159.84406 22.3615 159.84406 21.26102 160.73613 20.36894 161.83661 20.36894 162.93708 20.36894 163.82917 21.26102 163.82917 22.3615ZM161.83661 22.3615" fill="#ffffff"/>
<path transform="matrix(1.00005,0,0,-1.00005,1.0961456,98.70213)" stroke-width=".3985" stroke-linecap="butt" stroke-miterlimit="10" stroke-linejoin="miter" fill="none" stroke="#0000ff" d="M163.82917 22.3615C163.82917 23.46196 162.93708 24.35405 161.83661 24.35405 160.73613 24.35405 159.84406 23.46196 159.84406 22.3615 159.84406 21.26102 160.73613 20.36894 161.83661 20.36894 162.93708 20.36894 163.82917 21.26102 163.82917 22.3615ZM161.83661 22.3615"/>
<path transform="matrix(1.00005,0,0,-1.00005,1.0961456,98.70213)" d="" fill="#ffffff"/>
<path transform="matrix(1.00005,0,0,-1.00005,1.0961456,98.70213)" stroke-width=".3985" stroke-linecap="butt" stroke-miterlimit="10" stroke-linejoin="miter" fill="none" stroke="#0000ff" d=""/>
<path transform="matrix(1.00005,0,0,-1.00005,1.0961456,98.70213)" d="M264.97706 22.3615C264.97706 23.46196 264.08497 24.35405 262.98448 24.35405 261.88404 24.35405 260.99195 23.46196 260.99195 22.3615 260.99195 21.26102 261.88404 20.36894 262.98448 20.36894 264.08497 20.36894 264.97706 21.26102 264.97706 22.3615ZM262.98448 22.3615" fill="#ffffff"/>
<path transform="matrix(1.00005,0,0,-1.00005,1.0961456,98.70213)" stroke-width=".3985" stroke-linecap="butt" stroke-miterlimit="10" stroke-linejoin="miter" fill="none" stroke="#0000ff" d="M264.97706 22.3615C264.97706 23.46196 264.08497 24.35405 262.98448 24.35405 261.88404 24.35405 260.99195 23.46196 260.99195 22.3615 260.99195 21.26102 261.88404 20.36894 262.98448 20.36894 264.08497 20.36894 264.97706 21.26102 264.97706 22.3615ZM262.98448 22.3615"/>
<path transform="matrix(1.00005,0,0,-1.00005,1.0961456,98.70213)" d="" fill="#ffffff"/>
<path transform="matrix(1.00005,0,0,-1.00005,1.0961456,98.70213)" stroke-width=".3985" stroke-linecap="butt" stroke-miterlimit="10" stroke-linejoin="miter" fill="none" stroke="#0000ff" d=""/>
<path transform="matrix(1.00005,0,0,-1.00005,1.0961456,98.70213)" d="" fill="#ffffff"/>
<path transform="matrix(1.00005,0,0,-1.00005,1.0961456,98.70213)" stroke-width=".3985" stroke-linecap="butt" stroke-miterlimit="10" stroke-linejoin="miter" fill="none" stroke="#0000ff" d=""/>
<path transform="matrix(1.00005,0,0,-1.00005,1.0961456,98.70213)" d="M12.10733 22.3615C12.10733 23.46196 11.21526 24.35405 10.11478 24.35405 9.01431 24.35405 8.12222 23.46196 8.12222 22.3615 8.12222 21.26102 9.01431 20.36894 10.11478 20.36894 11.21526 20.36894 12.10733 21.26102 12.10733 22.3615ZM10.11478 22.3615" fill="#0000ff"/>
<path transform="matrix(1.00005,0,0,-1.00005,1.0961456,98.70213)" stroke-width=".3985" stroke-linecap="butt" stroke-miterlimit="10" stroke-linejoin="miter" fill="none" stroke="#0000ff" d="M12.10733 22.3615C12.10733 23.46196 11.21526 24.35405 10.11478 24.35405 9.01431 24.35405 8.12222 23.46196 8.12222 22.3615 8.12222 21.26102 9.01431 20.36894 10.11478 20.36894 11.21526 20.36894 12.10733 21.26102 12.10733 22.3615ZM10.11478 22.3615"/>
<path transform="matrix(1.00005,0,0,-1.00005,1.0961456,98.70213)" stroke-width=".3985" stroke-linecap="butt" stroke-miterlimit="10" stroke-linejoin="miter" fill="none" stroke="#0000ff" d=""/>
<path transform="matrix(1.00005,0,0,-1.00005,1.0961456,98.70213)" d="M113.25522 22.3615C113.25522 23.46196 112.36313 24.35405 111.26266 24.35405 110.16219 24.35405 109.27011 23.46196 109.27011 22.3615 109.27011 21.26102 110.16219 20.36894 111.26266 20.36894 112.36313 20.36894 113.25522 21.26102 113.25522 22.3615ZM111.26266 22.3615" fill="#0000ff"/>
<path transform="matrix(1.00005,0,0,-1.00005,1.0961456,98.70213)" stroke-width=".3985" stroke-linecap="butt" stroke-miterlimit="10" stroke-linejoin="miter" fill="none" stroke="#0000ff" d="M113.25522 22.3615C113.25522 23.46196 112.36313 24.35405 111.26266 24.35405 110.16219 24.35405 109.27011 23.46196 109.27011 22.3615 109.27011 21.26102 110.16219 20.36894 111.26266 20.36894 112.36313 20.36894 113.25522 21.26102 113.25522 22.3615ZM111.26266 22.3615"/>
<path transform="matrix(1.00005,0,0,-1.00005,1.0961456,98.70213)" stroke-width=".3985" stroke-linecap="butt" stroke-miterlimit="10" stroke-linejoin="miter" fill="none" stroke="#0000ff" d=""/>
<path transform="matrix(1.00005,0,0,-1.00005,1.0961456,98.70213)" d="M214.4031 22.3615C214.4031 23.46196 213.51102 24.35405 212.41056 24.35405 211.31008 24.35405 210.418 23.46196 210.418 22.3615 210.418 21.26102 211.31008 20.36894 212.41056 20.36894 213.51102 20.36894 214.4031 21.26102 214.4031 22.3615ZM212.41056 22.3615" fill="#0000ff"/>
<path transform="matrix(1.00005,0,0,-1.00005,1.0961456,98.70213)" stroke-width=".3985" stroke-linecap="butt" stroke-miterlimit="10" stroke-linejoin="miter" fill="none" stroke="#0000ff" d="M214.4031 22.3615C214.4031 23.46196 213.51102 24.35405 212.41056 24.35405 211.31008 24.35405 210.418 23.46196 210.418 22.3615 210.418 21.26102 211.31008 20.36894 212.41056 20.36894 213.51102 20.36894 214.4031 21.26102 214.4031 22.3615ZM212.41056 22.3615"/>
<path transform="matrix(1.00005,0,0,-1.00005,1.0961456,98.70213)" stroke-width=".3985" stroke-linecap="butt" stroke-miterlimit="10" stroke-linejoin="miter" fill="none" stroke="#0000ff" d=""/>
<path transform="matrix(1.00005,0,0,-1.00005,1.0961456,98.70213)" d="M315.551 22.3615C315.551 23.46196 314.6589 24.35405 313.55845 24.35405 312.45796 24.35405 311.56587 23.46196 311.56587 22.3615 311.56587 21.26102 312.45796 20.36894 313.55845 20.36894 314.6589 20.36894 315.551 21.26102 315.551 22.3615ZM313.55845 22.3615" fill="#0000ff"/>
<path transform="matrix(1.00005,0,0,-1.00005,1.0961456,98.70213)" stroke-width=".3985" stroke-linecap="butt" stroke-miterlimit="10" stroke-linejoin="miter" fill="none" stroke="#0000ff" d="M315.551 22.3615C315.551 23.46196 314.6589 24.35405 313.55845 24.35405 312.45796 24.35405 311.56587 23.46196 311.56587 22.3615 311.56587 21.26102 312.45796 20.36894 313.55845 20.36894 314.6589 20.36894 315.551 21.26102 315.551 22.3615ZM313.55845 22.3615"/>
<path transform="matrix(1.00005,0,0,-1.00005,1.0961456,98.70213)" stroke-width=".3985" stroke-linecap="butt" stroke-miterlimit="10" stroke-linejoin="miter" fill="none" stroke="#0000ff" d=""/>
<path transform="matrix(1.00005,0,0,-1.00005,1.0961456,98.70213)" d="M113.25522 78.26524C113.25522 79.36572 112.36313 80.2578 111.26266 80.2578 110.16219 80.2578 109.27011 79.36572 109.27011 78.26524 109.27011 77.16478 110.16219 76.27269 111.26266 76.27269 112.36313 76.27269 113.25522 77.16478 113.25522 78.26524ZM111.26266 78.26524" fill="#ffffff"/>
<path transform="matrix(1.00005,0,0,-1.00005,1.0961456,98.70213)" stroke-width=".3985" stroke-linecap="butt" stroke-miterlimit="10" stroke-linejoin="miter" fill="none" stroke="#0000ff" d="M113.25522 78.26524C113.25522 79.36572 112.36313 80.2578 111.26266 80.2578 110.16219 80.2578 109.27011 79.36572 109.27011 78.26524 109.27011 77.16478 110.16219 76.27269 111.26266 76.27269 112.36313 76.27269 113.25522 77.16478 113.25522 78.26524ZM111.26266 78.26524"/>
<path transform="matrix(1.00005,0,0,-1.00005,1.0961456,98.70213)" d="" fill="#ffffff"/>
<path transform="matrix(1.00005,0,0,-1.00005,1.0961456,98.70213)" stroke-width=".3985" stroke-linecap="butt" stroke-miterlimit="10" stroke-linejoin="miter" fill="none" stroke="#0000ff" d=""/>
<path transform="matrix(1.00005,0,0,-1.00005,1.0961456,98.70213)" d="M214.4031 78.26524C214.4031 79.36572 213.51102 80.2578 212.41056 80.2578 211.31008 80.2578 210.418 79.36572 210.418 78.26524 210.418 77.16478 211.31008 76.27269 212.41056 76.27269 213.51102 76.27269 214.4031 77.16478 214.4031 78.26524ZM212.41056 78.26524" fill="#ffffff"/>
<path transform="matrix(1.00005,0,0,-1.00005,1.0961456,98.70213)" stroke-width=".3985" stroke-linecap="butt" stroke-miterlimit="10" stroke-linejoin="miter" fill="none" stroke="#0000ff" d="M214.4031 78.26524C214.4031 79.36572 213.51102 80.2578 212.41056 80.2578 211.31008 80.2578 210.418 79.36572 210.418 78.26524 210.418 77.16478 211.31008 76.27269 212.41056 76.27269 213.51102 76.27269 214.4031 77.16478 214.4031 78.26524ZM212.41056 78.26524"/>
<path transform="matrix(1.00005,0,0,-1.00005,1.0961456,98.70213)" d="" fill="#ffffff"/>
<path transform="matrix(1.00005,0,0,-1.00005,1.0961456,98.70213)" stroke-width=".3985" stroke-linecap="butt" stroke-miterlimit="10" stroke-linejoin="miter" fill="none" stroke="#0000ff" d=""/>
<path transform="matrix(1.00005,0,0,-1.00005,1.0961456,98.70213)" d="M315.551 78.26524C315.551 79.36572 314.6589 80.2578 313.55845 80.2578 312.45796 80.2578 311.56587 79.36572 311.56587 78.26524 311.56587 77.16478 312.45796 76.27269 313.55845 76.27269 314.6589 76.27269 315.551 77.16478 315.551 78.26524ZM313.55845 78.26524" fill="#ffffff"/>
<path transform="matrix(1.00005,0,0,-1.00005,1.0961456,98.70213)" stroke-width=".3985" stroke-linecap="butt" stroke-miterlimit="10" stroke-linejoin="miter" fill="none" stroke="#0000ff" d="M315.551 78.26524C315.551 79.36572 314.6589 80.2578 313.55845 80.2578 312.45796 80.2578 311.56587 79.36572 311.56587 78.26524 311.56587 77.16478 312.45796 76.27269 313.55845 76.27269 314.6589 76.27269 315.551 77.16478 315.551 78.26524ZM313.55845 78.26524"/>
<path transform="matrix(1.00005,0,0,-1.00005,1.0961456,98.70213)" d="" fill="#ffffff"/>
<path transform="matrix(1.00005,0,0,-1.00005,1.0961456,98.70213)" stroke-width=".3985" stroke-linecap="butt" stroke-miterlimit="10" stroke-linejoin="miter" fill="none" stroke="#0000ff" d=""/>
<use data-text="t" xlink:href="#font_4_2" transform="matrix(9.963098,0,0,-9.963098,317.66798,54.18391)"/>
<use data-text="f" xlink:href="#font_4_1" transform="matrix(9.963098,0,0,-9.963098,166.4604,12.789848)"/>
<use data-text="(" xlink:href="#font_2_1" transform="matrix(9.963098,0,0,-9.963098,172.4107,12.789848)"/>
<use data-text="t" xlink:href="#font_4_2" transform="matrix(9.963098,0,0,-9.963098,176.2849,12.789848)"/>
<use data-text=")" xlink:href="#font_2_2" transform="matrix(9.963098,0,0,-9.963098,179.88307,12.789848)"/>
</svg>
