<svg xmlns="http://www.w3.org/2000/svg" xmlns:xlink="http://www.w3.org/1999/xlink" xmlns:inkscape="http://www.inkscape.org/namespaces/inkscape" version="1.1" width="326" height="100" viewBox="0 0 326 100">
<defs>
<path id="font_1_1" d="M.6589966 .23046875C.6759949 .23046875 .69400027 .23046875 .69400027 .25045777 .69400027 .27046205 .6759949 .27046205 .6589966 .27046205H.117996219C.100997928 .27046205 .08299255 .27046205 .08299255 .25045777 .08299255 .23046875 .100997928 .23046875 .117996219 .23046875H.6589966Z"/>
<path id="font_2_5" d="M.2899933 .35191346C.37199403 .37893678 .42999269 .4490509 .42999269 .52809146 .42999269 .6100464 .34199525 .6660156 .24598694 .6660156 .14498902 .6660156 .068984989 .60606387 .068984989 .53009036 .068984989 .49710084 .09098816 .47808839 .11999512 .47808839 .15098572 .47808839 .17098999 .50009158 .17098999 .5290985 .17098999 .57910159 .12399292 .57910159 .10899353 .57910159 .13999939 .62802127 .20599365 .64100649 .24198914 .64100649 .2829895 .64100649 .33799745 .6190338 .33799745 .5290985 .33799745 .51708987 .33599855 .45906068 .30999757 .4149933 .27999879 .36691285 .24598694 .36390687 .22099304 .36291505 .21299744 .36190797 .18899536 .35990907 .18199158 .35990907 .17399597 .35890199 .16699219 .35791017 .16699219 .3479004 .16699219 .33691407 .17399597 .33691407 .19099427 .33691407H.23498535C.31698609 .33691407 .35398866 .2686615 .35398866 .17037964 .35398866 .034469606 .2849884 .0055389406 .24099732 .0055389406 .19799805 .0055389406 .12298584 .022491456 .08799744 .08137512 .12298584 .07637024 .1539917 .09837341 .1539917 .1363678 .1539917 .17237854 .1269989 .19238281 .09799194 .19238281 .07398987 .19238281 .041992189 .17837525 .041992189 .1343689 .041992189 .043441774 .1349945-.022460938 .24398804-.022460938 .3659973-.022460938 .45700074 .06838989 .45700074 .17037964 .45700074 .252594 .3939972 .33088685 .2899933 .35191346Z"/>
<path id="font_2_4" d="M.1269989 .07699585 .23298645 .18003845C.3889923 .31811524 .44898988 .3721466 .44898988 .47216798 .44898988 .5860901 .35899354 .6660156 .23699951 .6660156 .12399292 .6660156 .049987794 .57411196 .049987794 .48516847 .049987794 .4291687 .099990848 .4291687 .102996829 .4291687 .11999512 .4291687 .15499878 .44117738 .15499878 .48217774 .15499878 .5081787 .13699341 .5341797 .101989749 .5341797 .09399414 .5341797 .09199524 .5341797 .08898926 .5331726 .11199951 .59806826 .1659851 .63500979 .22399903 .63500979 .31498719 .63500979 .35798646 .5541382 .35798646 .47216798 .35798646 .39215089 .30799867 .31311036 .25299073 .25108338L.06098938 .036987306C.049987794 .025985718 .049987794 .023986817 .049987794 0H.42099L.44898988 .17404175H.42399598C.4189911 .14402771 .4119873 .1000061 .4019928 .084991458 .394989 .07699585 .32899476 .07699585 .30699159 .07699585H.1269989Z"/>
<path id="font_2_3" d="M.2939911 .64004519C.2939911 .66400149 .2939911 .6660156 .2709961 .6660156 .20899964 .60227969 .12098694 .60227969 .08898926 .60227969V.57128909C.10899353 .57128909 .16799927 .57128909 .21998596 .5972748V.07902527C.21998596 .042999269 .21699524 .0309906 .1269989 .0309906H.09498596V0C.12998963 .0029907227 .21699524 .0029907227 .25698854 .0029907227 .29699708 .0029907227 .38398744 .0029907227 .4189911 0V.0309906H.3869934C.29699708 .0309906 .2939911 .041992189 .2939911 .07902527V.64004519Z"/>
<clipPath id="clip_3">
<path transform="matrix(1.00005,0,0,-1.00005,1.0961456,98.70213)" d="M0 0H323.67323V96.89984H0Z"/>
</clipPath>
<path id="font_4_2" d="M.20599365 .3996582H.2999878C.31999208 .3996582 .32998658 .3996582 .32998658 .41966249 .32998658 .43066407 .31999208 .43066407 .3019867 .43066407H.21398926C.25 .5724945 .25498963 .59246829 .25498963 .59846499 .25498963 .61546328 .24299622 .62545779 .22599793 .62545779 .22299195 .62545779 .19499207 .62446597 .18598938 .58947756L.14698792 .43066407H.052993776C.032989503 .43066407 .022994996 .43066407 .022994996 .4116516 .022994996 .3996582 .0309906 .3996582 .050994874 .3996582H.13899231C.066986087 .11608887 .06298828 .099121097 .06298828 .08114624 .06298828 .02722168 .100997928-.0107421879 .15499878-.0107421879 .25698854-.0107421879 .31399537 .13505554 .31399537 .14305115 .31399537 .1530304 .30599977 .1530304 .3019867 .1530304 .29299928 .1530304 .2919922 .15003968 .2869873 .13905335 .24398804 .035217287 .19099427 .011245728 .15699768 .011245728 .13598633 .011245728 .12599182 .024230957 .12599182 .057174684 .12599182 .08114624 .12799073 .088134769 .13198853 .10510254L.20599365 .3996582Z"/>
<path id="font_4_1" d="M.36698915 .3996582H.45298768C.47299195 .3996582 .48298646 .3996582 .48298646 .41966249 .48298646 .43066407 .47299195 .43066407 .45599366 .43066407H.37298585L.3939972 .5449524C.397995 .5660095 .4119873 .6370239 .41799928 .6490326 .4269867 .66804507 .44400025 .68307498 .46499635 .68307498 .46899415 .68307498 .49499513 .68307498 .5139923 .66503909 .46998597 .661026 .45999146 .6260376 .45999146 .6110382 .45999146 .58802798 .47799684 .57603457 .49699403 .57603457 .522995 .57603457 .5519867 .5980377 .5519867 .6360321 .5519867 .6820679 .5059967 .7050781 .46499635 .7050781 .43099977 .7050781 .36799623 .68707278 .33799745 .58802798 .33198548 .56700137 .32899476 .5569763 .30499269 .43066407H.23599243C.21699524 .43066407 .20599365 .43066407 .20599365 .4116516 .20599365 .3996582 .21499634 .3996582 .23399353 .3996582H.2999878L.22499085 .0048828127C.20698548-.09207153 .18998719-.18309021 .13798523-.18309021 .13398743-.18309021 .10899353-.18309021 .08999634-.16506958 .13598633-.1620636 .14498902-.12606812 .14498902-.111068729 .14498902-.08807373 .1269989-.07606506 .10798645-.07606506 .08198547-.07606506 .052993776-.09806824 .052993776-.13606262 .052993776-.18109131 .09700012-.20507813 .13798523-.20507813 .19299317-.20507813 .23298645-.14607239 .25099183-.108062747 .2829895-.04508972 .30599977 .07583618 .30699159 .082839969L.36698915 .3996582Z"/>
<path id="font_2_1" d="M.33099366-.2400055C.33099366-.23701477 .33099366-.23500061 .31399537-.21800232 .18899536-.0920105 .15699768 .09700012 .15699768 .25 .15699768 .42399598 .19499207 .59799197 .31799317 .72299197 .33099366 .73498538 .33099366 .7369995 .33099366 .73999026 .33099366 .746994 .32699586 .75 .32099916 .75 .31098939 .75 .22099304 .6819916 .1619873 .5549927 .11099243 .44499208 .09899902 .33399964 .09899902 .25 .09899902 .17199707 .10998535 .050994874 .16499329-.06201172 .22499085-.18501282 .31098939-.25 .32099916-.25 .32699586-.25 .33099366-.24700928 .33099366-.2400055Z"/>
<path id="font_2_2" d="M.2889862 .25C.2889862 .32798768 .27799989 .44898988 .22299195 .56199648 .16299439 .68499758 .07699585 .75 .066986087 .75 .06098938 .75 .056991579 .74598696 .056991579 .73999026 .056991579 .7369995 .056991579 .73498538 .07598877 .71699526 .17399597 .6179962 .23098755 .45899964 .23098755 .25 .23098755 .07899475 .19400025-.09700012 .069992069-.2230072 .056991579-.23500061 .056991579-.23701477 .056991579-.2400055 .056991579-.2460022 .06098938-.25 .066986087-.25 .07699585-.25 .16699219-.18200684 .22599793-.055007936 .2769928 .054992677 .2889862 .16600037 .2889862 .25Z"/>
</defs>
<path transform="matrix(1.00005,0,0,-1.00005,1.0961456,98.70213)" stroke-width=".3985" stroke-linecap="butt" stroke-miterlimit="10" stroke-linejoin="miter" fill="none" stroke="#bfbfbf" d="M10.11478 0V96.89984M60.68872 0V96.89984M111.26266 0V96.89984M212.41056 0V96.89984M262.98448 0V96.89984M313.55845 0V96.89984"/>
<path transform="matrix(1.00005,0,0,-1.00005,1.0961456,98.70213)" stroke-width=".3985" stroke-linecap="butt" stroke-miterlimit="10" stroke-linejoin="miter" fill="none" stroke="#bfbfbf" d="M0 3.72691H323.67323M0 78.26524H323.67323"/>
<path transform="matrix(1.00005,0,0,-1.00005,1.0961456,98.70213)" stroke-width=".19925" stroke-linecap="butt" stroke-miterlimit="10" stroke-linejoin="miter" fill="none" stroke="#7f807f" d="M10.11478 38.87003V43.12212M60.68872 38.87003V43.12212M111.26266 38.87003V43.12212M212.41056 38.87003V43.12212M262.98448 38.87003V43.12212M313.55845 38.87003V43.12212"/>
<path transform="matrix(1.00005,0,0,-1.00005,1.0961456,98.70213)" stroke-width=".19925" stroke-linecap="butt" stroke-miterlimit="10" stroke-linejoin="miter" fill="none" stroke="#7f807f" d="M159.7105 3.72691H163.9627M159.7105 78.26524H163.9627"/>
<path transform="matrix(1.00005,0,0,-1.00005,1.0961456,98.70213)" stroke-width=".3985" stroke-linecap="butt" stroke-miterlimit="10" stroke-linejoin="miter" fill="none" stroke="#000000" d="M0 40.99608H321.6807"/>
<path transform="matrix(1.00005,0,0,-1.00005,322.7929,57.704008)" d="M1.99252 0-1.19551 1.59401 0 0-1.19551-1.59401"/>
<path transform="matrix(1.00005,0,0,-1.00005,1.0961456,98.70213)" stroke-width=".3985" stroke-linecap="butt" stroke-miterlimit="10" stroke-linejoin="miter" fill="none" stroke="#000000" d="M161.83661 0V94.90732"/>
<path transform="matrix(0,-1.00005,-1.00005,-0,162.94084,3.7900773)" d="M1.99252 0-1.19551 1.59401 0 0-1.19551-1.59401"/>
<use data-text="&#x2212;" xlink:href="#font_1_1" transform="matrix(9.963098,0,0,-9.963098,4.8463366,69.77069)"/>
<use data-text="3" xlink:href="#font_2_5" transform="matrix(9.963098,0,0,-9.963098,12.595726,69.77069)"/>
<use data-text="&#x2212;" xlink:href="#font_1_1" transform="matrix(9.963098,0,0,-9.963098,55.42286,69.77069)"/>
<use data-text="2" xlink:href="#font_2_4" transform="matrix(9.963098,0,0,-9.963098,63.17225,69.77069)"/>
<use data-text="&#x2212;" xlink:href="#font_1_1" transform="matrix(9.963098,0,0,-9.963098,105.99939,69.77069)"/>
<use data-text="1" xlink:href="#font_2_3" transform="matrix(9.963098,0,0,-9.963098,113.74878,69.77069)"/>
<use data-text="1" xlink:href="#font_2_3" transform="matrix(9.963098,0,0,-9.963098,211.02663,69.77069)"/>
<use data-text="2" xlink:href="#font_2_4" transform="matrix(9.963098,0,0,-9.963098,261.60316,69.77069)"/>
<use data-text="3" xlink:href="#font_2_5" transform="matrix(9.963098,0,0,-9.963098,312.1797,69.77069)"/>
<use data-text="&#x2212;" xlink:href="#font_1_1" transform="matrix(9.963098,0,0,-9.963098,144.56333,97.77009)"/>
<use data-text="1" xlink:href="#font_2_3" transform="matrix(9.963098,0,0,-9.963098,152.31272,97.77009)"/>
<use data-text="1" xlink:href="#font_2_3" transform="matrix(9.963098,0,0,-9.963098,152.3127,23.643387)"/>
<g clip-path="url(#clip_3)">
<path transform="matrix(1.00005,0,0,-1.00005,1.0961456,98.70213)" stroke-width=".79701" stroke-linecap="butt" stroke-miterlimit="10" stroke-linejoin="miter" fill="none" stroke="#0000ff" d="M10.11478 22.3615H10.3689 10.62303 10.87717 11.13127 11.3854 11.63954 11.89368 12.14778 12.40192 12.65605 12.91019 13.16429 13.41843 13.67256 13.9267 14.1808 14.43494 14.68907 14.9432 15.19731 15.45145 15.70558 15.95972 16.21384 16.46796 16.72209 16.97623 17.23035 17.48447 17.7386 17.99274 18.24686 18.50098 18.75511 19.00925 19.26337 19.51749 19.77162 20.02576 20.27988 20.534 20.78813 21.04225 21.29639 21.55052 21.80464 22.05876 22.3129 22.56703 22.82115 23.07527 23.3294 23.58354 23.83766 24.09178 24.34592 24.60005 24.85417 25.10829 25.36243 25.61656 25.87068 26.1248 26.37894 26.63307 26.8872 27.14131 27.39545 27.64958 27.90372 28.15782 28.41196 28.66609 28.92023 29.17433 29.42847 29.6826 29.93674 30.19084 30.44498 30.69911 30.95323 31.20735 31.46149 31.71562 31.96974 32.22386 32.478 32.73213 32.98625 33.24039 33.4945 33.74864 34.00276 34.2569 34.51102 34.76515 35.01927 35.2734 35.52753 35.78166 36.03578 36.28992 36.54404 36.79817 37.05229 37.30643 37.56055 37.81468 38.0688 38.32294 38.57707 38.83119 39.08531 39.33945 39.59358 39.8477 40.10182 40.35596 40.61009 40.8642 41.11833 41.37247 41.6266 41.8807 42.13484 42.38898 42.64311 42.89722 43.15135 43.40549 43.65962 43.91374 44.16786 44.422 44.67613 44.93025 45.18437 45.4385 45.69264 45.94676 46.20088 46.45502 46.70915 46.96327 47.21739 47.47153 47.72566 47.97978 48.2339 48.48804 48.74217 48.99629 49.25041 49.50455 49.75868 50.0128 50.26694 50.52106 50.77518 51.02931 51.28345 51.53757 51.79169 52.04582 52.29996 52.55408 52.8082 53.06233 53.31647 53.57059 53.8247 54.07884 54.33298 54.5871 54.84122 55.09535 55.34949 55.60362 55.85773 56.11186 56.366 56.62013 56.87424 57.12837 57.3825 57.63664 57.89075 58.14488 58.39902 58.65315 58.90726 59.16139 59.41553 59.66966 59.92377 60.1779 60.43204 60.68616"/>
<path transform="matrix(1.00005,0,0,-1.00005,1.0961456,98.70213)" stroke-width=".79701" stroke-linecap="butt" stroke-miterlimit="10" stroke-linejoin="miter" fill="none" stroke="#0000ff" d="M60.68872 40.99608 60.94284 44.72751 61.19698 46.26645 61.4511 47.44278 61.70522 48.43066 61.95935 49.29765 62.21349 50.07843 62.4676 50.79361 62.72173 51.45667 62.97586 52.07698 63.23 52.66136 63.48412 53.21512 63.73824 53.74196 63.99237 54.24522 64.2465 54.7275 64.50064 55.19093 64.75475 55.63731 65.00888 56.06816 65.26302 56.48474 65.51715 56.88823 65.77126 57.27954 66.02539 57.65959 66.27953 58.02908 66.53366 58.38872 66.78777 58.7391 67.0419 59.08075 67.29604 59.41415 67.55017 59.73978 67.80428 60.05798 68.05841 60.36914 68.31255 60.67363 68.56668 60.97171 68.82079 61.26366 69.07492 61.54977 69.32906 61.83028 69.58319 62.10538 69.83731 62.37532 70.09143 62.64026 70.34557 62.90039 70.5997 63.1559 70.85382 63.40692 71.10794 63.65363 71.36208 63.89613 71.6162 64.13458 71.87033 64.36911 72.12445 64.59981 72.37859 64.8268 72.6327 65.0502 72.88684 65.2701 73.14096 65.48659 73.3951 65.69977 73.64922 65.9097 73.90335 66.1165 74.15747 66.32022 74.4116 66.52094 74.66573 66.71872 74.91986 66.91367 75.17398 67.10577 75.42812 67.29518 75.68224 67.48189 75.93637 67.66599 76.1905 67.84752 76.44463 68.02652 76.69875 68.20306 76.95288 68.37717 77.20702 68.54892 77.46114 68.71835 77.71526 68.88548 77.96939 69.05035 78.22353 69.21304 78.47765 69.37355 78.73177 69.53194 78.9859 69.68823 79.24004 69.84244 79.49416 69.99464 79.74828 70.14484 80.00241 70.29306 80.25655 70.43935 80.51067 70.58374 80.76479 70.72623 81.01892 70.86687 81.27306 71.00569 81.52718 71.14272 81.7813 71.27795 82.03543 71.41144 82.28957 71.5432 82.54369 71.67323 82.7978 71.80159 83.05194 71.92828 83.30608 72.05333 83.5602 72.17676 83.81432 72.29857 84.06845 72.41878 84.32259 72.53743 84.5767 72.65454 84.83083 72.7701 85.08496 72.88414 85.3391 72.99669 85.59322 73.10774 85.84734 73.21733 86.10147 73.32545 86.3556 73.43214 86.60973 73.5374 86.86386 73.64127 87.11798 73.7437 87.37212 73.84476 87.62624 73.94446 87.88037 74.04277 88.13449 74.13976 88.38863 74.23537 88.64275 74.32968 88.89688 74.42268 89.151 74.51436 89.40514 74.60477 89.65926 74.69388 89.91339 74.78172 90.16751 74.86829 90.42165 74.95361 90.67577 75.0377 90.9299 75.12054 91.18402 75.20216 91.43814 75.28256 91.69228 75.36176 91.94641 75.43974 92.20053 75.51656 92.45465 75.59216 92.70879 75.66661 92.96292 75.73987 93.21706 75.81198 93.47116 75.88293 93.7253 75.95274 93.97943 76.02141 94.23357 76.08893 94.48767 76.15535 94.7418 76.22063 94.99594 76.2848 95.25008 76.34787 95.50418 76.40982 95.75832 76.47069 96.01245 76.53046 96.26659 76.58914 96.52069 76.64676 96.77483 76.70328 97.02896 76.75874 97.2831 76.81314 97.5372 76.86647 97.79134 76.91875 98.04547 76.96999 98.2996 77.02016 98.55373 77.0693 98.80785 77.11742 99.06198 77.16447 99.31612 77.21051 99.57024 77.25552 99.82436 77.29951 100.07849 77.34248 100.33263 77.38445 100.58675 77.4254 100.84087 77.46533 101.095 77.50429 101.34912 77.5422 101.60326 77.57915 101.85738 77.6151 102.11151 77.65004 102.36563 77.684 102.61977 77.71698 102.87389 77.74898 103.12802 77.77997 103.38214 77.81001 103.63628 77.83907 103.89041 77.86714 104.14453 77.89424 104.39865 77.9204 104.65279 77.94556 104.90692 77.96977 105.16104 77.99301 105.41516 78.01529 105.6693 78.03659 105.92343 78.05696 106.17755 78.07637 106.43167 78.09482 106.6858 78.11232 106.93994 78.12886 107.19406 78.14444 107.44818 78.15907 107.70232 78.17278 107.95645 78.18552 108.21057 78.19731 108.46469 78.20816 108.71883 78.21806 108.97296 78.22704 109.22708 78.23505 109.4812 78.24211 109.73534 78.24825 109.98947 78.25343 110.2436 78.25768 110.49771 78.26097 110.75185 78.26334 111.00598 78.26477 111.2601 78.2647"/>
<path transform="matrix(1.00005,0,0,-1.00005,1.0961456,98.70213)" stroke-width=".79701" stroke-linecap="butt" stroke-miterlimit="10" stroke-linejoin="miter" fill="none" stroke="#0000ff" d="M111.26266 22.3615H111.51678 111.7709 112.02505 112.27919 112.53333 112.78746 113.04158 113.29572 113.54987 113.80399 114.05812 114.31226 114.56639 114.82053 115.07465 115.32878 115.58293 115.83707 116.09119 116.34532 116.59946 116.85359 117.10773 117.36186 117.616 117.87013 118.12425 118.37839 118.63254 118.88666 119.14081 119.39493 119.64906 119.9032 120.15733 120.41145 120.6656 120.91974 121.17387 121.428 121.68213 121.93626 122.19041 122.44453 122.69867 122.9528 123.20694 123.46106 123.71521 123.96933 124.22348 124.4776 124.73174 124.98587 125.24 125.49413 125.74828 126.00241 126.25655 126.51068 126.7648 127.01894 127.27309 127.52722 127.78134 128.03548 128.28961 128.54375 128.79788 129.052 129.30615 129.56029 129.8144 130.06855 130.32268 130.57682 130.83095 131.08509 131.33922 131.59336 131.84748 132.10161 132.35576 132.6099 132.86403 133.11815 133.37229 133.62642 133.88057 134.13468 134.38883 134.64296 134.8971 135.15122 135.40535 135.65949 135.91364 136.16776 136.42189 136.67603 136.93016 137.18428 137.43843 137.69257 137.9467 138.20082 138.45496 138.70909 138.96324 139.21736 139.4715 139.72563 139.97977 140.2339 140.48802 140.74216 140.9963 141.25045 141.50457 141.7587 142.01284 142.26697 142.5211 142.77524 143.02938 143.28351 143.53763 143.79177 144.04592 144.30004 144.55417 144.8083 145.06244 145.31658 145.57071 145.82483 146.07898 146.33312 146.58725 146.84137 147.0955 147.34964 147.60379 147.85791 148.11205 148.36618 148.62032 148.87444 149.12859 149.3827 149.63686 149.89098 150.14511 150.39925 150.65338 150.9075 151.16165 151.41579 151.66992 151.92404 152.17818 152.43231 152.68647 152.9406 153.19472 153.44886 153.70299 153.95713 154.21126 154.46538 154.71953 154.97367 155.22779 155.48192 155.73606 155.99019 156.24433 156.49846 156.7526 157.00673 157.26085 157.51499 157.76914 158.02327 158.27739 158.53153 158.78566 159.0398 159.29395 159.54807 159.8022 160.05634 160.31047 160.56459 160.81874 161.07288 161.32701 161.58113 161.83527"/>
<path transform="matrix(1.00005,0,0,-1.00005,1.0961456,98.70213)" stroke-width=".79701" stroke-linecap="butt" stroke-miterlimit="10" stroke-linejoin="miter" fill="none" stroke="#0000ff" d="M161.83661 40.99608 162.09075 44.72751 162.34487 46.26648 162.599 47.44284 162.85314 48.43074 163.10727 49.29774 163.36139 50.07854 163.61554 50.79372 163.86968 51.45679 164.12381 52.0771 164.37793 52.6615 164.63207 53.21527 164.8862 53.74213 165.14035 54.24536 165.39447 54.72766 165.6486 55.1911 165.90274 55.63748 166.15688 56.06834 166.411 56.48494 166.66515 56.8884 166.91928 57.27974 167.17342 57.65977 167.42755 58.02928 167.68167 58.38893 167.9358 58.73932 168.18996 59.08096 168.44409 59.41437 168.69821 59.73997 168.95235 60.05821 169.20648 60.36937 169.46062 60.67384 169.71475 60.97194 169.96887 61.26389 170.22303 61.55 170.47716 61.83049 170.73128 62.1056 170.98542 62.37555 171.23955 62.64049 171.49369 62.90063 171.74782 63.15614 172.00196 63.40717 172.25609 63.65387 172.51023 63.89638 172.76435 64.13483 173.01848 64.36935 173.27263 64.60005 173.52677 64.82706 173.78089 65.05046 174.03502 65.27036 174.28916 65.48685 174.54329 65.70003 174.79744 65.90996 175.05155 66.11676 175.3057 66.32048 175.55983 66.52121 175.81397 66.719 176.06809 66.91391 176.32222 67.10605 176.57636 67.29544 176.8305 67.48215 177.08463 67.66624 177.33876 67.84778 177.5929 68.0268 177.84703 68.20334 178.10115 68.37746 178.3553 68.5492 178.60944 68.71861 178.86357 68.88576 179.11769 69.05063 179.37183 69.21332 179.62596 69.37383 179.88011 69.53221 180.13422 69.6885 180.38837 69.84271 180.6425 69.99492 180.89664 70.1451 181.15077 70.29333 181.40489 70.43962 181.65903 70.58401 181.91318 70.72652 182.16732 70.86714 182.42144 71.00597 182.67557 71.14299 182.9297 71.27823 183.18384 71.41171 183.43798 71.54347 183.69211 71.67351 183.94625 71.80186 184.20038 71.92854 184.4545 72.0536 184.70864 72.177 184.96279 72.29883 185.2169 72.41904 185.47104 72.5377 185.72518 72.65479 185.97931 72.77036 186.23345 72.8844 186.48757 72.99696 186.7417 73.108 186.99585 73.21759 187.24999 73.32571 187.50412 73.4324 187.75824 73.53767 188.01238 73.64151 188.26651 73.74397 188.52066 73.84502 188.77478 73.9447 189.02892 74.04301 189.28305 74.14 189.53719 74.23563 189.7913 74.32994 190.04546 74.42293 190.29958 74.51462 190.55373 74.60501 190.80785 74.69412 191.06198 74.78197 191.31612 74.86853 191.57025 74.95386 191.82437 75.03795 192.07852 75.12079 192.33266 75.2024 192.58679 75.28279 192.84091 75.36198 193.09505 75.43997 193.34918 75.51678 193.60334 75.59239 193.85747 75.66682 194.11159 75.7401 194.36573 75.8122 194.61986 75.88315 194.874 75.95297 195.12813 76.02162 195.38225 76.08916 195.6364 76.15555 195.89054 76.22084 196.14466 76.285 196.39879 76.34808 196.65293 76.41003 196.90706 76.4709 197.1612 76.53065 197.41533 76.58934 197.66947 76.64696 197.9236 76.70348 198.17772 76.75893 198.43186 76.81332 198.686 76.86665 198.94014 76.91893 199.19426 76.97017 199.4484 77.02034 199.70253 77.06947 199.95667 77.11757 200.21082 77.16464 200.46492 77.2107 200.71907 77.2557 200.9732 77.29968 201.22734 77.34265 201.48146 77.38461 201.7356 77.42555 201.98973 77.46548 202.24388 77.50443 202.498 77.54234 202.75214 77.57928 203.00627 77.61523 203.2604 77.65018 203.51453 77.68414 203.76868 77.71712 204.02281 77.7491 204.27695 77.78009 204.53107 77.81013 204.7852 77.83919 205.03934 77.86726 205.29349 77.89435 205.54759 77.9205 205.80175 77.94566 206.05588 77.96986 206.31002 77.9931 206.56414 78.01538 206.81827 78.03668 207.0724 78.05705 207.32656 78.07646 207.58069 78.0949 207.83481 78.11238 208.08895 78.12894 208.34308 78.14452 208.59722 78.15913 208.85135 78.17284 209.10549 78.18558 209.35962 78.19736 209.61376 78.2082 209.86788 78.21811 210.12201 78.22707 210.37616 78.23508 210.63028 78.24214 210.88442 78.24828 211.13855 78.25345 211.39269 78.25769 211.64682 78.26099 211.90094 78.26335 212.15508 78.26477 212.40923 78.2647"/>
<path transform="matrix(1.00005,0,0,-1.00005,1.0961456,98.70213)" stroke-width=".79701" stroke-linecap="butt" stroke-miterlimit="10" stroke-linejoin="miter" fill="none" stroke="#0000ff" d="M212.41056 22.3615H212.66466 212.9188 213.17293 213.42705 213.68117 213.9353 214.18944 214.44356 214.69768 214.95182 215.20595 215.46007 215.7142 215.96833 216.22246 216.47658 216.73072 216.98484 217.23897 217.49309 217.74723 218.00135 218.25548 218.5096 218.76374 219.01786 219.27199 219.52611 219.78025 220.03437 220.2885 220.54262 220.79676 221.05089 221.30501 221.55913 221.81327 222.0674 222.32152 222.57564 222.82978 223.08391 223.33802 223.59215 223.84629 224.10042 224.35453 224.60866 224.8628 225.11693 225.37104 225.62517 225.8793 226.13344 226.38756 226.64168 226.89582 227.14995 227.40407 227.65819 227.91233 228.16646 228.42058 228.6747 228.92884 229.18297 229.43709 229.69121 229.94535 230.19948 230.4536 230.70772 230.96186 231.21599 231.47011 231.72423 231.97837 232.2325 232.48662 232.74076 232.99488 233.249 233.50313 233.75727 234.01139 234.2655 234.51964 234.77378 235.0279 235.28202 235.53615 235.79029 236.0444 236.29853 236.55266 236.8068 237.06092 237.31504 237.56917 237.8233 238.07744 238.33155 238.58568 238.83982 239.09395 239.34806 239.60219 239.85633 240.11046 240.36457 240.6187 240.87284 241.12697 241.38108 241.63521 241.88935 242.14348 242.39759 242.65172 242.90586 243.15998 243.41411 243.66823 243.92237 244.17649 244.43062 244.68474 244.93888 245.193 245.44713 245.70125 245.95539 246.2095 246.46364 246.71776 246.9719 247.22602 247.48015 247.73427 247.9884 248.24253 248.49666 248.75078 249.00492 249.25904 249.51317 249.7673 250.02143 250.27555 250.52968 250.78382 251.03794 251.29206 251.54619 251.80033 252.05445 252.30857 252.5627 252.81684 253.07094 253.32508 253.57921 253.83335 254.08745 254.34159 254.59572 254.84986 255.10398 255.3581 255.61223 255.86637 256.12049 256.3746 256.62876 256.88288 257.137 257.3911 257.64527 257.89939 258.1535 258.40763 258.66178 258.9159 259.17 259.42414 259.67829 259.9324 260.18653 260.44065 260.6948 260.9489 261.20304 261.45719 261.7113 261.96543 262.21955 262.4737 262.7278 262.98194"/>
<path transform="matrix(1.00005,0,0,-1.00005,1.0961456,98.70213)" stroke-width=".79701" stroke-linecap="butt" stroke-miterlimit="10" stroke-linejoin="miter" fill="none" stroke="#0000ff" d="M262.98448 40.99608 263.2386 44.72751 263.49275 46.26645 263.74687 47.44278 264.00099 48.43066 264.2551 49.29765 264.50926 50.07843 264.76338 50.79361 265.0175 51.45667 265.2716 52.07698 265.52577 52.66136 265.77989 53.21512 266.034 53.74196 266.28813 54.24522 266.54228 54.7275 266.7964 55.19093 267.0505 55.63731 267.30464 56.06816 267.55879 56.48474 267.8129 56.88823 268.06703 57.27954 268.32115 57.65959 268.5753 58.02908 268.8294 58.38872 269.08354 58.7391 269.33769 59.08075 269.5918 59.41415 269.84593 59.73978 270.10005 60.05798 270.3542 60.36914 270.6083 60.67363 270.86244 60.97171 271.11656 61.26366 271.3707 61.54977 271.62483 61.83028 271.87895 62.10538 272.13307 62.37532 272.3872 62.64026 272.64134 62.90039 272.89546 63.1559 273.14958 63.40692 273.40373 63.65363 273.65785 63.89613 273.91197 64.13458 274.16609 64.36911 274.42024 64.59981 274.67436 64.8268 274.92848 65.0502 275.1826 65.2701 275.43675 65.48659 275.69087 65.69977 275.94499 65.9097 276.1991 66.1165 276.45326 66.32022 276.70738 66.52094 276.9615 66.71872 277.2156 66.91367 277.46977 67.10577 277.72389 67.29518 277.978 67.48189 278.23213 67.66599 278.48628 67.84752 278.7404 68.02652 278.9945 68.20306 279.24864 68.37717 279.50279 68.54892 279.7569 68.71835 280.01103 68.88548 280.26515 69.05035 280.5193 69.21304 280.7734 69.37355 281.02754 69.53194 281.28166 69.68823 281.5358 69.84244 281.78993 69.99464 282.04405 70.14484 282.29817 70.29306 282.5523 70.43935 282.80644 70.58374 283.06056 70.72623 283.31468 70.86687 283.56883 71.00569 283.82295 71.14272 284.07707 71.27795 284.33119 71.41144 284.58534 71.5432 284.83946 71.67323 285.09358 71.80159 285.3477 71.92828 285.60185 72.05333 285.85597 72.17676 286.11009 72.29857 286.36424 72.41878 286.61836 72.53743 286.87248 72.65454 287.1266 72.7701 287.38075 72.88414 287.63487 72.99669 287.88899 73.10774 288.1431 73.21733 288.39726 73.32545 288.65138 73.43214 288.9055 73.5374 289.1596 73.64127 289.41377 73.7437 289.66789 73.84476 289.922 73.94446 290.17613 74.04277 290.43028 74.13976 290.6844 74.23537 290.9385 74.32968 291.19264 74.42268 291.44679 74.51436 291.7009 74.60477 291.95503 74.69388 292.20915 74.78172 292.4633 74.86829 292.7174 74.95361 292.97154 75.0377 293.22566 75.12054 293.4798 75.20216 293.73393 75.28256 293.98805 75.36176 294.24217 75.43974 294.4963 75.51656 294.75044 75.59216 295.00456 75.66661 295.25868 75.73987 295.51283 75.81198 295.76695 75.88293 296.02107 75.95274 296.27519 76.02141 296.52934 76.08893 296.78346 76.15535 297.03758 76.22063 297.2917 76.2848 297.54585 76.34787 297.79997 76.40982 298.0541 76.47069 298.3082 76.53046 298.56236 76.58914 298.81648 76.64676 299.0706 76.70328 299.3247 76.75874 299.57887 76.81314 299.83299 76.86647 300.0871 76.91875 300.34123 76.96999 300.59538 77.02016 300.8495 77.0693 301.1036 77.11742 301.35774 77.16447 301.61189 77.21051 301.866 77.25552 302.12013 77.29951 302.37425 77.34248 302.6284 77.38445 302.8825 77.4254 303.13664 77.46533 303.39079 77.50429 303.64488 77.5422 303.89903 77.57915 304.15315 77.6151 304.4073 77.65004 304.66139 77.684 304.91554 77.71698 305.16966 77.74898 305.4238 77.77997 305.6779 77.81001 305.93205 77.83907 306.18617 77.86714 306.4403 77.89424 306.6944 77.9204 306.94856 77.94556 307.20268 77.96977 307.45683 77.99301 307.7109 78.01529 307.96507 78.03659 308.2192 78.05696 308.47334 78.07637 308.72743 78.09482 308.98158 78.11232 309.2357 78.12886 309.48985 78.14444 309.74397 78.15907 309.99809 78.17278 310.2522 78.18552 310.50636 78.19731 310.76048 78.20816 311.0146 78.21806 311.2687 78.22704 311.52287 78.23505 311.77699 78.24211 312.0311 78.24825 312.28523 78.25343 312.53938 78.25768 312.7935 78.26097 313.0476 78.26334 313.30174 78.26477 313.55586 78.2647"/>
</g>
<path transform="matrix(1.00005,0,0,-1.00005,1.0961456,98.70213)" d="M62.68127 40.99608C62.68127 42.09656 61.7892 42.98863 60.68872 42.98863 59.58826 42.98863 58.69617 42.09656 58.69617 40.99608 58.69617 39.89561 59.58826 39.00352 60.68872 39.00352 61.7892 39.00352 62.68127 39.89561 62.68127 40.99608ZM60.68872 40.99608" fill="#0000ff"/>
<path transform="matrix(1.00005,0,0,-1.00005,1.0961456,98.70213)" stroke-width=".3985" stroke-linecap="butt" stroke-miterlimit="10" stroke-linejoin="miter" fill="none" stroke="#0000ff" d="M62.68127 40.99608C62.68127 42.09656 61.7892 42.98863 60.68872 42.98863 59.58826 42.98863 58.69617 42.09656 58.69617 40.99608 58.69617 39.89561 59.58826 39.00352 60.68872 39.00352 61.7892 39.00352 62.68127 39.89561 62.68127 40.99608ZM60.68872 40.99608"/>
<path transform="matrix(1.00005,0,0,-1.00005,1.0961456,98.70213)" stroke-width=".3985" stroke-linecap="butt" stroke-miterlimit="10" stroke-linejoin="miter" fill="none" stroke="#0000ff" d=""/>
<path transform="matrix(1.00005,0,0,-1.00005,1.0961456,98.70213)" d="M163.82917 40.99608C163.82917 42.09656 162.93708 42.98863 161.83661 42.98863 160.73613 42.98863 159.84406 42.09656 159.84406 40.99608 159.84406 39.89561 160.73613 39.00352 161.83661 39.00352 162.93708 39.00352 163.82917 39.89561 163.82917 40.99608ZM161.83661 40.99608" fill="#0000ff"/>
<path transform="matrix(1.00005,0,0,-1.00005,1.0961456,98.70213)" stroke-width=".3985" stroke-linecap="butt" stroke-miterlimit="10" stroke-linejoin="miter" fill="none" stroke="#0000ff" d="M163.82917 40.99608C163.82917 42.09656 162.93708 42.98863 161.83661 42.98863 160.73613 42.98863 159.84406 42.09656 159.84406 40.99608 159.84406 39.89561 160.73613 39.00352 161.83661 39.00352 162.93708 39.00352 163.82917 39.89561 163.82917 40.99608ZM161.83661 40.99608"/>
<path transform="matrix(1.00005,0,0,-1.00005,1.0961456,98.70213)" stroke-width=".3985" stroke-linecap="butt" stroke-miterlimit="10" stroke-linejoin="miter" fill="none" stroke="#0000ff" d=""/>
<path transform="matrix(1.00005,0,0,-1.00005,1.0961456,98.70213)" d="M264.97706 40.99608C264.97706 42.09656 264.08497 42.98863 262.98448 42.98863 261.88404 42.98863 260.99195 42.09656 260.99195 40.99608 260.99195 39.89561 261.88404 39.00352 262.98448 39.00352 264.08497 39.00352 264.97706 39.89561 264.97706 40.99608ZM262.98448 40.99608" fill="#0000ff"/>
<path transform="matrix(1.00005,0,0,-1.00005,1.0961456,98.70213)" stroke-width=".3985" stroke-linecap="butt" stroke-miterlimit="10" stroke-linejoin="miter" fill="none" stroke="#0000ff" d="M264.97706 40.99608C264.97706 42.09656 264.08497 42.98863 262.98448 42.98863 261.88404 42.98863 260.99195 42.09656 260.99195 40.99608 260.99195 39.89561 261.88404 39.00352 262.98448 39.00352 264.08497 39.00352 264.97706 39.89561 264.97706 40.99608ZM262.98448 40.99608"/>
<path transform="matrix(1.00005,0,0,-1.00005,1.0961456,98.70213)" stroke-width=".3985" stroke-linecap="butt" stroke-miterlimit="10" stroke-linejoin="miter" fill="none" stroke="#0000ff" d=""/>
<path transform="matrix(1.00005,0,0,-1.00005,1.0961456,98.70213)" stroke-width=".3985" stroke-linecap="butt" stroke-miterlimit="10" stroke-linejoin="miter" fill="none" stroke="#0000ff" d=""/>
<path transform="matrix(1.00005,0,0,-1.00005,1.0961456,98.70213)" d="M62.68127 22.3615C62.68127 23.46196 61.7892 24.35405 60.68872 24.35405 59.58826 24.35405 58.69617 23.46196 58.69617 22.3615 58.69617 21.26102 59.58826 20.36894 60.68872 20.36894 61.7892 20.36894 62.68127 21.26102 62.68127 22.3615ZM60.68872 22.3615" fill="#ffffff"/>
<path transform="matrix(1.00005,0,0,-1.00005,1.0961456,98.70213)" stroke-width=".3985" stroke-linecap="butt" stroke-miterlimit="10" stroke-linejoin="miter" fill="none" stroke="#0000ff" d="M62.68127 22.3615C62.68127 23.46196 61.7892 24.35405 60.68872 24.35405 59.58826 24.35405 58.69617 23.46196 58.69617 22.3615 58.69617 21.26102 59.58826 20.36894 60.68872 20.36894 61.7892 20.36894 62.68127 21.26102 62.68127 22.3615ZM60.68872 22.3615"/>
<path transform="matrix(1.00005,0,0,-1.00005,1.0961456,98.70213)" d="" fill="#ffffff"/>
<path transform="matrix(1.00005,0,0,-1.00005,1.0961456,98.70213)" stroke-width=".3985" stroke-linecap="butt" stroke-miterlimit="10" stroke-linejoin="miter" fill="none" stroke="#0000ff" d=""/>
<path transform="matrix(1.00005,0,0,-1.00005,1.0961456,98.70213)" d="M163.82917 22.3615C163.82917 23.46196 162.93708 24.35405 161.83661 24.35405 160.73613 24.35405 159.84406 23.46196 159.84406 22.3615 159.84406 21.26102 160.73613 20.36894 161.83661 20.36894 162.93708 20.36894 163.82917 21.26102 163.82917 22.3615ZM161.83661 22.3615" fill="#ffffff"/>
<path transform="matrix(1.00005,0,0,-1.00005,1.0961456,98.70213)" stroke-width=".3985" stroke-linecap="butt" stroke-miterlimit="10" stroke-linejoin="miter" fill="none" stroke="#0000ff" d="M163.82917 22.3615C163.82917 23.46196 162.93708 24.35405 161.83661 24.35405 160.73613 24.35405 159.84406 23.46196 159.84406 22.3615 159.84406 21.26102 160.73613 20.36894 161.83661 20.36894 162.93708 20.36894 163.82917 21.26102 163.82917 22.3615ZM161.83661 22.3615"/>
<path transform="matrix(1.00005,0,0,-1.00005,1.0961456,98.70213)" d="" fill="#ffffff"/>
<path transform="matrix(1.00005,0,0,-1.00005,1.0961456,98.70213)" stroke-width=".3985" stroke-linecap="butt" stroke-miterlimit="10" stroke-linejoin="miter" fill="none" stroke="#0000ff" d=""/>
<path transform="matrix(1.00005,0,0,-1.00005,1.0961456,98.70213)" d="M264.97706 22.3615C264.97706 23.46196 264.08497 24.35405 262.98448 24.35405 261.88404 24.35405 260.99195 23.46196 260.99195 22.3615 260.99195 21.26102 261.88404 20.36894 262.98448 20.36894 264.08497 20.36894 264.97706 21.26102 264.97706 22.3615ZM262.98448 22.3615" fill="#ffffff"/>
<path transform="matrix(1.00005,0,0,-1.00005,1.0961456,98.70213)" stroke-width=".3985" stroke-linecap="butt" stroke-miterlimit="10" stroke-linejoin="miter" fill="none" stroke="#0000ff" d="M264.97706 22.3615C264.97706 23.46196 264.08497 24.35405 262.98448 24.35405 261.88404 24.35405 260.99195 23.46196 260.99195 22.3615 260.99195 21.26102 261.88404 20.36894 262.98448 20.36894 264.08497 20.36894 264.97706 21.26102 264.97706 22.3615ZM262.98448 22.3615"/>
<path transform="matrix(1.00005,0,0,-1.00005,1.0961456,98.70213)" d="" fill="#ffffff"/>
<path transform="matrix(1.00005,0,0,-1.00005,1.0961456,98.70213)" stroke-width=".3985" stroke-linecap="butt" stroke-miterlimit="10" stroke-linejoin="miter" fill="none" stroke="#0000ff" d=""/>
<path transform="matrix(1.00005,0,0,-1.00005,1.0961456,98.70213)" d="" fill="#ffffff"/>
<path transform="matrix(1.00005,0,0,-1.00005,1.0961456,98.70213)" stroke-width=".3985" stroke-linecap="butt" stroke-miterlimit="10" stroke-linejoin="miter" fill="none" stroke="#0000ff" d=""/>
<path transform="matrix(1.00005,0,0,-1.00005,1.0961456,98.70213)" d="M12.10733 22.3615C12.10733 23.46196 11.21526 24.35405 10.11478 24.35405 9.01431 24.35405 8.12222 23.46196 8.12222 22.3615 8.12222 21.26102 9.01431 20.36894 10.11478 20.36894 11.21526 20.36894 12.10733 21.26102 12.10733 22.3615ZM10.11478 22.3615" fill="#0000ff"/>
<path transform="matrix(1.00005,0,0,-1.00005,1.0961456,98.70213)" stroke-width=".3985" stroke-linecap="butt" stroke-miterlimit="10" stroke-linejoin="miter" fill="none" stroke="#0000ff" d="M12.10733 22.3615C12.10733 23.46196 11.21526 24.35405 10.11478 24.35405 9.01431 24.35405 8.12222 23.46196 8.12222 22.3615 8.12222 21.26102 9.01431 20.36894 10.11478 20.36894 11.21526 20.36894 12.10733 21.26102 12.10733 22.3615ZM10.11478 22.3615"/>
<path transform="matrix(1.00005,0,0,-1.00005,1.0961456,98.70213)" stroke-width=".3985" stroke-linecap="butt" stroke-miterlimit="10" stroke-linejoin="miter" fill="none" stroke="#0000ff" d=""/>
<path transform="matrix(1.00005,0,0,-1.00005,1.0961456,98.70213)" d="M113.25522 22.3615C113.25522 23.46196 112.36313 24.35405 111.26266 24.35405 110.16219 24.35405 109.27011 23.46196 109.27011 22.3615 109.27011 21.26102 110.16219 20.36894 111.26266 20.36894 112.36313 20.36894 113.25522 21.26102 113.25522 22.3615ZM111.26266 22.3615" fill="#0000ff"/>
<path transform="matrix(1.00005,0,0,-1.00005,1.0961456,98.70213)" stroke-width=".3985" stroke-linecap="butt" stroke-miterlimit="10" stroke-linejoin="miter" fill="none" stroke="#0000ff" d="M113.25522 22.3615C113.25522 23.46196 112.36313 24.35405 111.26266 24.35405 110.16219 24.35405 109.27011 23.46196 109.27011 22.3615 109.27011 21.26102 110.16219 20.36894 111.26266 20.36894 112.36313 20.36894 113.25522 21.26102 113.25522 22.3615ZM111.26266 22.3615"/>
<path transform="matrix(1.00005,0,0,-1.00005,1.0961456,98.70213)" stroke-width=".3985" stroke-linecap="butt" stroke-miterlimit="10" stroke-linejoin="miter" fill="none" stroke="#0000ff" d=""/>
<path transform="matrix(1.00005,0,0,-1.00005,1.0961456,98.70213)" d="M214.4031 22.3615C214.4031 23.46196 213.51102 24.35405 212.41056 24.35405 211.31008 24.35405 210.418 23.46196 210.418 22.3615 210.418 21.26102 211.31008 20.36894 212.41056 20.36894 213.51102 20.36894 214.4031 21.26102 214.4031 22.3615ZM212.41056 22.3615" fill="#0000ff"/>
<path transform="matrix(1.00005,0,0,-1.00005,1.0961456,98.70213)" stroke-width=".3985" stroke-linecap="butt" stroke-miterlimit="10" stroke-linejoin="miter" fill="none" stroke="#0000ff" d="M214.4031 22.3615C214.4031 23.46196 213.51102 24.35405 212.41056 24.35405 211.31008 24.35405 210.418 23.46196 210.418 22.3615 210.418 21.26102 211.31008 20.36894 212.41056 20.36894 213.51102 20.36894 214.4031 21.26102 214.4031 22.3615ZM212.41056 22.3615"/>
<path transform="matrix(1.00005,0,0,-1.00005,1.0961456,98.70213)" stroke-width=".3985" stroke-linecap="butt" stroke-miterlimit="10" stroke-linejoin="miter" fill="none" stroke="#0000ff" d=""/>
<path transform="matrix(1.00005,0,0,-1.00005,1.0961456,98.70213)" d="M315.551 22.3615C315.551 23.46196 314.6589 24.35405 313.55845 24.35405 312.45796 24.35405 311.56587 23.46196 311.56587 22.3615 311.56587 21.26102 312.45796 20.36894 313.55845 20.36894 314.6589 20.36894 315.551 21.26102 315.551 22.3615ZM313.55845 22.3615" fill="#0000ff"/>
<path transform="matrix(1.00005,0,0,-1.00005,1.0961456,98.70213)" stroke-width=".3985" stroke-linecap="butt" stroke-miterlimit="10" stroke-linejoin="miter" fill="none" stroke="#0000ff" d="M315.551 22.3615C315.551 23.46196 314.6589 24.35405 313.55845 24.35405 312.45796 24.35405 311.56587 23.46196 311.56587 22.3615 311.56587 21.26102 312.45796 20.36894 313.55845 20.36894 314.6589 20.36894 315.551 21.26102 315.551 22.3615ZM313.55845 22.3615"/>
<path transform="matrix(1.00005,0,0,-1.00005,1.0961456,98.70213)" stroke-width=".3985" stroke-linecap="butt" stroke-miterlimit="10" stroke-linejoin="miter" fill="none" stroke="#0000ff" d=""/>
<path transform="matrix(1.00005,0,0,-1.00005,1.0961456,98.70213)" d="M113.25522 78.26524C113.25522 79.36572 112.36313 80.2578 111.26266 80.2578 110.16219 80.2578 109.27011 79.36572 109.27011 78.26524 109.27011 77.16478 110.16219 76.27269 111.26266 76.27269 112.36313 76.27269 113.25522 77.16478 113.25522 78.26524ZM111.26266 78.26524" fill="#ffffff"/>
<path transform="matrix(1.00005,0,0,-1.00005,1.0961456,98.70213)" stroke-width=".3985" stroke-linecap="butt" stroke-miterlimit="10" stroke-linejoin="miter" fill="none" stroke="#0000ff" d="M113.25522 78.26524C113.25522 79.36572 112.36313 80.2578 111.26266 80.2578 110.16219 80.2578 109.27011 79.36572 109.27011 78.26524 109.27011 77.16478 110.16219 76.27269 111.26266 76.27269 112.36313 76.27269 113.25522 77.16478 113.25522 78.26524ZM111.26266 78.26524"/>
<path transform="matrix(1.00005,0,0,-1.00005,1.0961456,98.70213)" d="" fill="#ffffff"/>
<path transform="matrix(1.00005,0,0,-1.00005,1.0961456,98.70213)" stroke-width=".3985" stroke-linecap="butt" stroke-miterlimit="10" stroke-linejoin="miter" fill="none" stroke="#0000ff" d=""/>
<path transform="matrix(1.00005,0,0,-1.00005,1.0961456,98.70213)" d="M214.4031 78.26524C214.4031 79.36572 213.51102 80.2578 212.41056 80.2578 211.31008 80.2578 210.418 79.36572 210.418 78.26524 210.418 77.16478 211.31008 76.27269 212.41056 76.27269 213.51102 76.27269 214.4031 77.16478 214.4031 78.26524ZM212.41056 78.26524" fill="#ffffff"/>
<path transform="matrix(1.00005,0,0,-1.00005,1.0961456,98.70213)" stroke-width=".3985" stroke-linecap="butt" stroke-miterlimit="10" stroke-linejoin="miter" fill="none" stroke="#0000ff" d="M214.4031 78.26524C214.4031 79.36572 213.51102 80.2578 212.41056 80.2578 211.31008 80.2578 210.418 79.36572 210.418 78.26524 210.418 77.16478 211.31008 76.27269 212.41056 76.27269 213.51102 76.27269 214.4031 77.16478 214.4031 78.26524ZM212.41056 78.26524"/>
<path transform="matrix(1.00005,0,0,-1.00005,1.0961456,98.70213)" d="" fill="#ffffff"/>
<path transform="matrix(1.00005,0,0,-1.00005,1.0961456,98.70213)" stroke-width=".3985" stroke-linecap="butt" stroke-miterlimit="10" stroke-linejoin="miter" fill="none" stroke="#0000ff" d=""/>
<path transform="matrix(1.00005,0,0,-1.00005,1.0961456,98.70213)" d="M315.551 78.26524C315.551 79.36572 314.6589 80.2578 313.55845 80.2578 312.45796 80.2578 311.56587 79.36572 311.56587 78.26524 311.56587 77.16478 312.45796 76.27269 313.55845 76.27269 314.6589 76.27269 315.551 77.16478 315.551 78.26524ZM313.55845 78.26524" fill="#ffffff"/>
<path transform="matrix(1.00005,0,0,-1.00005,1.0961456,98.70213)" stroke-width=".3985" stroke-linecap="butt" stroke-miterlimit="10" stroke-linejoin="miter" fill="none" stroke="#0000ff" d="M315.551 78.26524C315.551 79.36572 314.6589 80.2578 313.55845 80.2578 312.45796 80.2578 311.56587 79.36572 311.56587 78.26524 311.56587 77.16478 312.45796 76.27269 313.55845 76.27269 314.6589 76.27269 315.551 77.16478 315.551 78.26524ZM313.55845 78.26524"/>
<path transform="matrix(1.00005,0,0,-1.00005,1.0961456,98.70213)" d="" fill="#ffffff"/>
<path transform="matrix(1.00005,0,0,-1.00005,1.0961456,98.70213)" stroke-width=".3985" stroke-linecap="butt" stroke-miterlimit="10" stroke-linejoin="miter" fill="none" stroke="#0000ff" d=""/>
<use data-text="t" xlink:href="#font_4_2" transform="matrix(9.963098,0,0,-9.963098,317.73497,54.17591)"/>
<use data-text="f" xlink:href="#font_4_1" transform="matrix(9.963098,0,0,-9.963098,166.4944,12.775841)"/>
<use data-text="(" xlink:href="#font_2_1" transform="matrix(9.963098,0,0,-9.963098,172.4447,12.775841)"/>
<use data-text="t" xlink:href="#font_4_2" transform="matrix(9.963098,0,0,-9.963098,176.3189,12.775841)"/>
<use data-text=")" xlink:href="#font_2_2" transform="matrix(9.963098,0,0,-9.963098,179.91707,12.775841)"/>
</svg>
