<svg xmlns="http://www.w3.org/2000/svg" xmlns:xlink="http://www.w3.org/1999/xlink" xmlns:inkscape="http://www.inkscape.org/namespaces/inkscape" version="1.1" width="158" height="112" viewBox="0 0 158 112">
<defs>
<path id="font_1_4" d="M.20599365 .3996582H.2999878C.31999208 .3996582 .32998658 .3996582 .32998658 .41966249 .32998658 .43066407 .31999208 .43066407 .3019867 .43066407H.21398926C.25 .5724945 .25498963 .59246829 .25498963 .59846499 .25498963 .61546328 .24299622 .62545779 .22599793 .62545779 .22299195 .62545779 .19499207 .62446597 .18598938 .58947756L.14698792 .43066407H.052993776C.032989503 .43066407 .022994996 .43066407 .022994996 .4116516 .022994996 .3996582 .0309906 .3996582 .050994874 .3996582H.13899231C.066986087 .11608887 .06298828 .099121097 .06298828 .08114624 .06298828 .02722168 .100997928-.0107421879 .15499878-.0107421879 .25698854-.0107421879 .31399537 .13505554 .31399537 .14305115 .31399537 .1530304 .30599977 .1530304 .3019867 .1530304 .29299928 .1530304 .2919922 .15003968 .2869873 .13905335 .24398804 .035217287 .19099427 .011245728 .15699768 .011245728 .13598633 .011245728 .12599182 .024230957 .12599182 .057174684 .12599182 .08114624 .12799073 .088134769 .13198853 .10510254L.20599365 .3996582Z"/>
<path id="font_1_3" d="M.5159912 .68333438C.5159912 .6843262 .5159912 .69433596 .5029907 .69433596 .48799134 .69433596 .3929901 .68533328 .37599183 .68333438 .36799623 .6823273 .3619995 .6773224 .3619995 .6643219 .3619995 .6523285 .37098695 .6523285 .38598634 .6523285 .43399049 .6523285 .43598939 .6453247 .43598939 .6353302L.43299867 .6153412 .37298585 .37835694C.35499574 .41537477 .32598878 .4423828 .2809906 .4423828 .1639862 .4423828 .039993287 .29533387 .039993287 .14929199 .039993287 .055267335 .09498596-.0107421879 .17298889-.0107421879 .19299317-.0107421879 .24299622-.0067443849 .30299378 .06427002 .31098939 .022247315 .34599305-.0107421879 .3939972-.0107421879 .42900086-.0107421879 .45199586 .012252808 .46798707 .044265748 .4850006 .08027649 .49798585 .14129639 .49798585 .14329529 .49798585 .1532898 .4889984 .1532898 .48599244 .1532898 .47599793 .1532898 .47499085 .14929199 .47200013 .13528443 .45498658 .07026672 .43699647 .011245728 .3959961 .011245728 .36898805 .011245728 .3659973 .037261964 .3659973 .057266237 .3659973 .08126831 .36799623 .088272098 .37199403 .105285648L.5159912 .68333438M.30799867 .119277957C.30299378 .10127258 .30299378 .09927368 .28799439 .08227539 .24398804 .027252198 .20298767 .011245728 .1749878 .011245728 .125 .011245728 .11099243 .06626892 .11099243 .105285648 .11099243 .1552887 .14299011 .27833558 .1659851 .32434083 .19699097 .38336183 .24198914 .42037965 .28199769 .42037965 .34700013 .42037965 .36099244 .3383484 .36099244 .33235169 .36099244 .32633973 .35899354 .32034303 .35798646 .31533814L.30799867 .119277957Z"/>
<path id="font_2_3" d="M.42199708 .38238526C.40098573 .41540528 .36698915 .44140626 .31900025 .44140626 .19099427 .44140626 .06098938 .300354 .06098938 .15628052 .06098938 .059249879 .12599182-.009765625 .21199036-.009765625 .2659912-.009765625 .31399537 .021224976 .35398866 .0602417 .37298585 .00022888184 .43099977-.009765625 .45700074-.009765625 .49299623-.009765625 .5179901 .01222229 .5359955 .04324341 .55799868 .08226013 .57099917 .13928223 .57099917 .14328003 .57099917 .15628052 .55799868 .15628052 .5549927 .15628052 .54100039 .15628052 .5399933 .15228272 .5329895 .12527466 .5209961 .07725525 .5019989 .018234253 .45999146 .018234253 .43399049 .018234253 .4269867 .040237428 .4269867 .06724548 .4269867 .08425903 .43499757 .120269779 .44198609 .14628601 .44898988 .17329407 .45899964 .21430969 .46398927 .23632813L.48399354 .3123474C.48999024 .33836366 .5019989 .38539125 .5019989 .39038087 .5019989 .4123993 .48399354 .4223938 .46798707 .4223938 .45098878 .4223938 .42799378 .4104004 .42199708 .38238526M.35798646 .12527466C.35099793 .09725952 .32899476 .07725525 .30699159 .058242799 .2979889 .050247194 .2579956 .018234253 .21499634 .018234253 .17799378 .018234253 .14199829 .04423523 .14199829 .11526489 .14199829 .16828919 .17098999 .27833558 .19400025 .31835938 .23999024 .39839173 .29100038 .4133911 .31900025 .4133911 .3889923 .4133911 .4079895 .33737184 .4079895 .32635499 .4079895 .32235719 .4059906 .3153534 .40499879 .3123474L.35798646 .12527466Z"/>
<path id="font_2_2" d="M.21099854 .015991211C.21099854-.03907776 .20098877-.10321045 .1329956-.16732788 .1289978-.17134094 .12599182-.17434693 .12599182-.17933655 .12599182-.18634033 .13398743-.19334412 .13999939-.19334412 .1539917-.19334412 .23899842-.113220218 .23899842 .005996704 .23899842 .067993167 .21499634 .114990238 .16899109 .114990238 .13598633 .114990238 .11199951 .08898926 .11199951 .057998659 .11199951 .025985718 .1349945 0 .16999817 0 .19400025 0 .20999146 .015991211 .21099854 .015991211Z"/>
<path id="font_2_1" d="M.1659851 .22332764C.20399475 .20831299 .23399353 .20831299 .2630005 .20831299 .29499818 .20831299 .35398866 .20831299 .35398866 .24537659 .35398866 .27238465 .31599427 .27638246 .272995 .27638246 .25898744 .27638246 .21598816 .27638246 .16699219 .25637818 .14399719 .26737977 .1289978 .2863617 .1289978 .3083191 .1289978 .3622284 .22599793 .39616395 .32699586 .39616395 .34298707 .39616395 .38598634 .39616395 .43099977 .36820985 .43699647 .3642273 .44299317 .35923768 .45098878 .35923768 .46499635 .35923768 .48298646 .37420655 .48298646 .39117433 .48298646 .41116334 .44999696 .4251709 .43099977 .4331665 .3880005 .45117188 .35299684 .45117188 .33799745 .45117188 .21598816 .45117188 .09498596 .3871765 .09498596 .30732728 .09498596 .26638795 .1329956 .24034119 .13398743 .2393341 .09700012 .21731568 .04699707 .1733551 .04699707 .11039734 .04699707 .037460329 .11898804-.01953125 .22999573-.01953125 .38198854-.01953125 .43598939 .07043457 .43598939 .08642578 .43598939 .09341431 .42999269 .09941101 .42199708 .09941101 .41600038 .09941101 .41299439 .09541321 .4099884 .091415408 .3849945 .052444459 .35198976 .035461427 .24598694 .035461427 .22099304 .035461427 .17399597 .035461427 .13798523 .049453737 .09799194 .064437869 .08099365 .091415408 .08099365 .11639404 .08099365 .13937378 .09799194 .18833924 .1659851 .22332764M.20999146 .24034119C.22099304 .24336243 .24099732 .24838257 .2709961 .24838257 .29299928 .24838257 .2979889 .24737549 .31799317 .24336243 .30299378 .23731995 .2999878 .23632813 .2630005 .23632813 .24798584 .23632813 .22799683 .23632813 .20999146 .24034119Z"/>
<path id="font_3_1" d="M.33099366-.2400055C.33099366-.23701477 .33099366-.23500061 .31399537-.21800232 .18899536-.0920105 .15699768 .09700012 .15699768 .25 .15699768 .42399598 .19499207 .59799197 .31799317 .72299197 .33099366 .73498538 .33099366 .7369995 .33099366 .73999026 .33099366 .746994 .32699586 .75 .32099916 .75 .31098939 .75 .22099304 .6819916 .1619873 .5549927 .11099243 .44499208 .09899902 .33399964 .09899902 .25 .09899902 .17199707 .10998535 .050994874 .16499329-.06201172 .22499085-.18501282 .31098939-.25 .32099916-.25 .32699586-.25 .33099366-.24700928 .33099366-.2400055Z"/>
<path id="font_3_2" d="M.2889862 .25C.2889862 .32798768 .27799989 .44898988 .22299195 .56199648 .16299439 .68499758 .07699585 .75 .066986087 .75 .06098938 .75 .056991579 .74598696 .056991579 .73999026 .056991579 .7369995 .056991579 .73498538 .07598877 .71699526 .17399597 .6179962 .23098755 .45899964 .23098755 .25 .23098755 .07899475 .19400025-.09700012 .069992069-.2230072 .056991579-.23500061 .056991579-.23701477 .056991579-.2400055 .056991579-.2460022 .06098938-.25 .066986087-.25 .07699585-.25 .16699219-.18200684 .22599793-.055007936 .2769928 .054992677 .2889862 .16600037 .2889862 .25Z"/>
<path id="font_1_2" d="M.37298585 .37835694C.35499574 .41537477 .32598878 .4423828 .2809906 .4423828 .1639862 .4423828 .039993287 .29533387 .039993287 .14929199 .039993287 .055267335 .09498596-.0107421879 .17298889-.0107421879 .19299317-.0107421879 .24299622-.0067443849 .30299378 .06427002 .31098939 .022247315 .34599305-.0107421879 .3939972-.0107421879 .42900086-.0107421879 .45199586 .012252808 .46798707 .044265748 .4850006 .08027649 .49798585 .14129639 .49798585 .14329529 .49798585 .1532898 .4889984 .1532898 .48599244 .1532898 .47599793 .1532898 .47499085 .14929199 .47200013 .13528443 .45498658 .07026672 .43699647 .011245728 .3959961 .011245728 .36898805 .011245728 .3659973 .037261964 .3659973 .057266237 .3659973 .07926941 .36799623 .08728027 .3789978 .13128662 .3899994 .17329407 .3919983 .18330384 .40098573 .22131348L.43699647 .36135865C.44400025 .38935853 .44400025 .39135743 .44400025 .39537049 .44400025 .41236878 .43199159 .42237855 .4149933 .42237855 .3909912 .42237855 .37599183 .4003601 .37298585 .37835694M.30799867 .119277957C.30299378 .10127258 .30299378 .09927368 .28799439 .08227539 .24398804 .027252198 .20298767 .011245728 .1749878 .011245728 .125 .011245728 .11099243 .06626892 .11099243 .105285648 .11099243 .1552887 .14299011 .27833558 .1659851 .32434083 .19699097 .38336183 .24198914 .42037965 .28199769 .42037965 .34700013 .42037965 .36099244 .3383484 .36099244 .33235169 .36099244 .32633973 .35899354 .32034303 .35798646 .31533814L.30799867 .119277957Z"/>
<path id="font_3_3" d="M.40899659 .23046875H.6879883C.70199587 .23046875 .72099307 .23046875 .72099307 .25045777 .72099307 .27046205 .70199587 .27046205 .6879883 .27046205H.40899659V.5500183C.40899659 .56399539 .40899659 .5830078 .3889923 .5830078 .36898805 .5830078 .36898805 .56399539 .36898805 .5500183V.27046205H.08898926C.07499695 .27046205 .055999757 .27046205 .055999757 .25045777 .055999757 .23046875 .07499695 .23046875 .08898926 .23046875H.36898805V-.05000305C.36898805-.06401062 .36898805-.08300781 .3889923-.08300781 .40899659-.08300781 .40899659-.06401062 .40899659-.05000305V.23046875Z"/>
<path id="font_1_1" d="M.14099121 .22688294C.17399597 .21289063 .20298767 .21289063 .22698975 .21289063 .25299073 .21289063 .30799867 .21289063 .30799867 .24397278 .30799867 .26802064 .272995 .27101136 .23498535 .27101136 .21398926 .27101136 .1789856 .26901246 .14199829 .25201417 .11898804 .26402284 .101989749 .28302003 .101989749 .31004334 .101989749 .37109376 .19999695 .40711976 .2899933 .40711976 .30599977 .40711976 .34199525 .40711976 .38198854 .37908937 .3929901 .37109376 .394989 .36909486 .4019928 .36909486 .4149933 .36909486 .42900086 .38209535 .42900086 .3961029 .42900086 .41511537 .36799623 .453125 .2999878 .453125 .18499756 .453125 .07699585 .3861084 .07699585 .31004334 .07699585 .26701356 .11299133 .24194336 .116989139 .23892212 .057998659 .20587158 .025985718 .14976502 .025985718 .10368347 .025985718 .03855896 .08299255-.022460938 .18899536-.022460938 .32099916-.022460938 .3769989 .06561279 .3769989 .0806427 .3769989 .08665466 .37199403 .090652469 .3659973 .090652469 .36099244 .090652469 .35798646 .08665466 .35598756 .08364868 .34199525 .06060791 .31799317 .023529053 .19799805 .023529053 .13699341 .023529053 .051986696 .03855896 .051986696 .109695438 .051986696 .14375305 .07998657 .19685364 .14099121 .22688294M.17399597 .2399292C.19699097 .2480011 .21798706 .24902344 .23498535 .24902344 .2599945 .24902344 .2639923 .2480011 .28199769 .2429657 .2669983 .23588562 .2649994 .23487854 .22698975 .23487854 .20498657 .23487854 .19299317 .23487854 .17399597 .2399292Z"/>
<path id="font_4_1" d="M.33499146 .63612368C.33499146 .6630554 .33299256 .6640625 .30499269 .6640625 .24099732 .6014404 .1499939 .6004486 .10899353 .6004486V.5644531C.1329956 .5644531 .19898987 .5644531 .2539978 .592453V.08203125C.2539978 .04899597 .2539978 .035995485 .1539917 .035995485H.115997318V0C.13398743 .0009918213 .25698854 .0039978029 .2939911 .0039978029 .32499696 .0039978029 .45098878 .0009918213 .47299195 0V.035995485H.43499757C.33499146 .035995485 .33499146 .04899597 .33499146 .08203125V.63612368Z"/>
</defs>
<path transform="matrix(1.00005,0,0,-1,22.357216,100.802)" stroke-width=".3985" stroke-linecap="butt" stroke-miterlimit="10" stroke-linejoin="miter" fill="none" stroke="#000000" d="M-21.26009 0H127.10236"/>
<path transform="matrix(1.00005,0,0,-1,149.46593,100.802)" stroke-width=".31879" stroke-linecap="round" stroke-linejoin="round" fill="none" stroke="#000000" d="M-1.19551 1.59401C-1.09587 .99626 0 .09961 .29886 0 0-.09961-1.09587-.99626-1.19551-1.59401"/>
<use data-text="t" xlink:href="#font_1_4" transform="matrix(9.963098,0,0,-9.9626,153.44376,103.866)"/>
<path transform="matrix(1.00005,0,0,-1,22.357216,100.802)" stroke-width=".3985" stroke-linecap="butt" stroke-miterlimit="10" stroke-linejoin="miter" fill="none" stroke="#000000" d="M0-8.5039V84.58214"/>
<path transform="matrix(0,-1,-1.00005,-0,22.357216,16.219864)" stroke-width=".31879" stroke-linecap="round" stroke-linejoin="round" fill="none" stroke="#000000" d="M-1.19551 1.59401C-1.09587 .99626 0 .09961 .29886 0 0-.09961-1.09587-.99626-1.19551-1.59401"/>
<use data-text="d" xlink:href="#font_1_3" transform="matrix(9.963098,0,0,-9.9626,8.615532,9.390999)"/>
<use data-text="a" xlink:href="#font_2_3" transform="matrix(6.9741489,0,0,-6.9738,13.800789,10.885002)"/>
<use data-text="," xlink:href="#font_2_2" transform="matrix(6.9741489,0,0,-6.9738,18.117783,10.885002)"/>
<use data-text="&#x03b5;" xlink:href="#font_2_1" transform="matrix(6.9741489,0,0,-6.9738,20.482026,10.885002)"/>
<use data-text="(" xlink:href="#font_3_1" transform="matrix(9.963098,0,0,-9.9626,24.751336,9.390999)"/>
<use data-text="t" xlink:href="#font_1_4" transform="matrix(9.963098,0,0,-9.9626,28.625527,9.390999)"/>
<use data-text=")" xlink:href="#font_3_2" transform="matrix(9.963098,0,0,-9.9626,32.22371,9.390999)"/>
<path transform="matrix(1.00005,0,0,-1,22.357216,100.802)" stroke-width=".79701" stroke-linecap="butt" stroke-miterlimit="10" stroke-linejoin="miter" fill="none" stroke="#0000ff" d="M42.5202 0H-9.92265"/>
<path transform="matrix(-1.00005,-0,0,1,12.43407,100.802)" stroke-width=".6376" stroke-linecap="round" stroke-linejoin="round" fill="none" stroke="#0000ff" d="M-1.55415 2.0722C-1.42464 1.29512 0 .1295 .38852 0 0-.1295-1.42464-1.29512-1.55415-2.0722"/>
<path transform="matrix(1.00005,0,0,-1,22.357216,100.802)" stroke-width=".79701" stroke-linecap="butt" stroke-miterlimit="10" stroke-linejoin="miter" fill="none" stroke="#0000ff" d="M42.5202 63.7803H63.7803"/>
<path transform="matrix(1.00005,0,0,-1,22.357216,100.802)" stroke-width=".79701" stroke-linecap="butt" stroke-miterlimit="10" stroke-linejoin="miter" fill="none" stroke="#0000ff" d="M63.7803 0H127.56062"/>
<path transform="matrix(1.00005,0,0,-1,22.357216,100.802)" stroke-width=".3985" stroke-linecap="butt" stroke-dasharray="2.98883,2.98883" stroke-miterlimit="10" stroke-linejoin="miter" fill="none" stroke="#0000ff" d="M42.5202 0V63.7803"/>
<path transform="matrix(1.00005,0,0,-1,22.357216,100.802)" stroke-width=".3985" stroke-linecap="butt" stroke-dasharray="2.98883,2.98883" stroke-miterlimit="10" stroke-linejoin="miter" fill="none" stroke="#0000ff" d="M63.7803 0V63.7803"/>
<use data-text="a" xlink:href="#font_1_2" transform="matrix(9.963098,0,0,-9.9626,62.24621,108.611)"/>
<use data-text="a" xlink:href="#font_1_2" transform="matrix(9.963098,0,0,-9.9626,75.095859,110.133)"/>
<use data-text="+" xlink:href="#font_3_3" transform="matrix(9.963098,0,0,-9.9626,82.57623,110.133)"/>
<use data-text="&#x03b5;" xlink:href="#font_1_1" transform="matrix(9.963098,0,0,-9.9626,92.53873,110.133)"/>
<use data-text="1" xlink:href="#font_4_1" transform="matrix(6.9741489,0,0,-6.9738,13.669785,35.588998)"/>
<path transform="matrix(1.00005,0,0,-1,-91.88649,-48.29)" stroke-width=".3985" stroke-linecap="butt" stroke-miterlimit="10" stroke-linejoin="miter" fill="none" stroke="#000000" d="M105.551-85.311H109.522"/>
<use data-text="&#x03b5;" xlink:href="#font_2_1" transform="matrix(6.9741489,0,0,-6.9738,13.773788,42.947999)"/>
<path transform="matrix(1.00005,0,0,-1,22.357216,100.802)" d="M44.01462 63.7803C44.01462 64.60565 43.34555 65.27472 42.5202 65.27472 41.69485 65.27472 41.02579 64.60565 41.02579 63.7803 41.02579 62.95496 41.69485 62.28589 42.5202 62.28589 43.34555 62.28589 44.01462 62.95496 44.01462 63.7803ZM42.5202 63.7803" fill="#0000ff"/>
<path transform="matrix(1.00005,0,0,-1,22.357216,100.802)" d="M65.27472 63.7803C65.27472 64.60565 64.60565 65.27472 63.7803 65.27472 62.95496 65.27472 62.28589 64.60565 62.28589 63.7803 62.28589 62.95496 62.95496 62.28589 63.7803 62.28589 64.60565 62.28589 65.27472 62.95496 65.27472 63.7803ZM63.7803 63.7803" fill="#0000ff"/>
<path transform="matrix(1.00005,0,0,-1,22.357216,100.802)" stroke-width=".79701" stroke-linecap="butt" stroke-miterlimit="10" stroke-linejoin="miter" fill="none" stroke="#0000ff" d="M44.01462 0C44.01462 .82533 43.34555 1.49442 42.5202 1.49442 41.69485 1.49442 41.02579 .82533 41.02579 0 41.02579-.82533 41.69485-1.49442 42.5202-1.49442 43.34555-1.49442 44.01462-.82533 44.01462 0ZM42.5202 0"/>
<path transform="matrix(1.00005,0,0,-1,22.357216,100.802)" d="M44.01462 0C44.01462 .82533 43.34555 1.49442 42.5202 1.49442 41.69485 1.49442 41.02579 .82533 41.02579 0 41.02579-.82533 41.69485-1.49442 42.5202-1.49442 43.34555-1.49442 44.01462-.82533 44.01462 0ZM42.5202 0" fill="#ffffff"/>
<path transform="matrix(1.00005,0,0,-1,22.357216,100.802)" stroke-width=".79701" stroke-linecap="butt" stroke-miterlimit="10" stroke-linejoin="miter" fill="none" stroke="#0000ff" d="M65.27472 0C65.27472 .82533 64.60565 1.49442 63.7803 1.49442 62.95496 1.49442 62.28589 .82533 62.28589 0 62.28589-.82533 62.95496-1.49442 63.7803-1.49442 64.60565-1.49442 65.27472-.82533 65.27472 0ZM63.7803 0"/>
<path transform="matrix(1.00005,0,0,-1,22.357216,100.802)" d="M65.27472 0C65.27472 .82533 64.60565 1.49442 63.7803 1.49442 62.95496 1.49442 62.28589 .82533 62.28589 0 62.28589-.82533 62.95496-1.49442 63.7803-1.49442 64.60565-1.49442 65.27472-.82533 65.27472 0ZM63.7803 0" fill="#ffffff"/>
</svg>
