<svg xmlns="http://www.w3.org/2000/svg" xmlns:xlink="http://www.w3.org/1999/xlink" xmlns:inkscape="http://www.inkscape.org/namespaces/inkscape" version="1.1" width="336" height="101" viewBox="0 0 336 101">
<defs>
<path id="font_1_3" d="M.2939911 .64004519C.2939911 .66400149 .2939911 .6660156 .2709961 .6660156 .20899964 .60227969 .12098694 .60227969 .08898926 .60227969V.57128909C.10899353 .57128909 .16799927 .57128909 .21998596 .5972748V.07902527C.21998596 .042999269 .21699524 .0309906 .1269989 .0309906H.09498596V0C.12998963 .0029907227 .21699524 .0029907227 .25698854 .0029907227 .29699708 .0029907227 .38398744 .0029907227 .4189911 0V.0309906H.3869934C.29699708 .0309906 .2939911 .041992189 .2939911 .07902527V.64004519Z"/>
<path id="font_1_4" d="M.1269989 .07699585 .23298645 .18003845C.3889923 .31811524 .44898988 .3721466 .44898988 .47216798 .44898988 .5860901 .35899354 .6660156 .23699951 .6660156 .12399292 .6660156 .049987794 .57411196 .049987794 .48516847 .049987794 .4291687 .099990848 .4291687 .102996829 .4291687 .11999512 .4291687 .15499878 .44117738 .15499878 .48217774 .15499878 .5081787 .13699341 .5341797 .101989749 .5341797 .09399414 .5341797 .09199524 .5341797 .08898926 .5331726 .11199951 .59806826 .1659851 .63500979 .22399903 .63500979 .31498719 .63500979 .35798646 .5541382 .35798646 .47216798 .35798646 .39215089 .30799867 .31311036 .25299073 .25108338L.06098938 .036987306C.049987794 .025985718 .049987794 .023986817 .049987794 0H.42099L.44898988 .17404175H.42399598C.4189911 .14402771 .4119873 .1000061 .4019928 .084991458 .394989 .07699585 .32899476 .07699585 .30699159 .07699585H.1269989Z"/>
<path id="font_1_5" d="M.2899933 .35191346C.37199403 .37893678 .42999269 .4490509 .42999269 .52809146 .42999269 .6100464 .34199525 .6660156 .24598694 .6660156 .14498902 .6660156 .068984989 .60606387 .068984989 .53009036 .068984989 .49710084 .09098816 .47808839 .11999512 .47808839 .15098572 .47808839 .17098999 .50009158 .17098999 .5290985 .17098999 .57910159 .12399292 .57910159 .10899353 .57910159 .13999939 .62802127 .20599365 .64100649 .24198914 .64100649 .2829895 .64100649 .33799745 .6190338 .33799745 .5290985 .33799745 .51708987 .33599855 .45906068 .30999757 .4149933 .27999879 .36691285 .24598694 .36390687 .22099304 .36291505 .21299744 .36190797 .18899536 .35990907 .18199158 .35990907 .17399597 .35890199 .16699219 .35791017 .16699219 .3479004 .16699219 .33691407 .17399597 .33691407 .19099427 .33691407H.23498535C.31698609 .33691407 .35398866 .2686615 .35398866 .17037964 .35398866 .034469606 .2849884 .0055389406 .24099732 .0055389406 .19799805 .0055389406 .12298584 .022491456 .08799744 .08137512 .12298584 .07637024 .1539917 .09837341 .1539917 .1363678 .1539917 .17237854 .1269989 .19238281 .09799194 .19238281 .07398987 .19238281 .041992189 .17837525 .041992189 .1343689 .041992189 .043441774 .1349945-.022460938 .24398804-.022460938 .3659973-.022460938 .45700074 .06838989 .45700074 .17037964 .45700074 .252594 .3939972 .33088685 .2899933 .35191346Z"/>
<path id="font_1_6" d="M.2939911 .16503906V.07800293C.2939911 .041992189 .2919922 .0309906 .21798706 .0309906H.19699097V0C.23799134 .0029907227 .2899933 .0029907227 .33198548 .0029907227 .37399293 .0029907227 .4269867 .0029907227 .46798707 0V.0309906H.44699098C.37298585 .0309906 .37098695 .041992189 .37098695 .07800293V.16503906H.47099305V.19602967H.37098695V.65075686C.37098695 .67074587 .37098695 .6767578 .35499574 .6767578 .34599305 .6767578 .34298707 .6767578 .33499146 .66474917L.027999878 .19602967V.16503906H.2939911M.2999878 .19602967H.055999757L.2999878 .5688019V.19602967Z"/>
<path id="font_1_7" d="M.44898988 .20022583C.44898988 .3193512 .36698915 .41944886 .25898744 .41944886 .21099854 .41944886 .16799927 .40345765 .13198853 .36842347V.5637665C.1519928 .5577698 .18499756 .55078127 .21699524 .55078127 .33999635 .55078127 .4099884 .6417694 .4099884 .6547699 .4099884 .6607666 .40699769 .6657715 .3999939 .6657715 .39898683 .6657715 .39698792 .6657715 .3919983 .66278079 .37199403 .6537781 .32299806 .6337738 .2559967 .6337738 .21598816 .6337738 .16999817 .6407776 .12298584 .6617737 .114990238 .66477969 .11299133 .66477969 .11099243 .66477969 .100997928 .66477969 .100997928 .6567688 .100997928 .6407776V.34439088C.100997928 .32637025 .100997928 .31835938 .114990238 .31835938 .12199402 .31835938 .12399292 .32136537 .12799073 .32736207 .13899231 .3433838 .17599488 .39746095 .25698854 .39746095 .30899049 .39746095 .33399964 .35139466 .34199525 .33337403 .35798646 .29632569 .3600006 .25727845 .3600006 .20722962 .3600006 .17222595 .3600006 .11222839 .33599855 .07035828 .31199647 .031463624 .2749939 .0055389406 .22898865 .0055389406 .1559906 .0055389406 .09899902 .058380128 .08198547 .11723328 .084991458 .1162262 .08799744 .115234378 .09899902 .115234378 .13198853 .115234378 .14898682 .14022827 .14898682 .16423035 .14898682 .18823242 .13198853 .21322632 .09899902 .21322632 .084991458 .21322632 .049987794 .20622254 .049987794 .16023255 .049987794 .07434082 .11898804-.022460938 .23098755-.022460938 .34700013-.022460938 .44898988 .073349 .44898988 .20022583Z"/>
<path id="font_1_8" d="M.13198853 .327713V.35173036C.13198853 .6047821 .2559967 .64100649 .30699159 .64100649 .33099366 .64100649 .37298585 .634964 .394989 .6007538 .37998963 .6007538 .33999635 .6007538 .33999635 .5557556 .33999635 .524765 .3639984 .5097656 .38598634 .5097656 .4019928 .5097656 .43199159 .51875308 .43199159 .5577545 .43199159 .6178589 .3880005 .6660156 .30499269 .6660156 .1769867 .6660156 .041992189 .5367584 .041992189 .31570436 .041992189 .048553468 .1579895-.022460938 .25099183-.022460938 .3619995-.022460938 .45700074 .07156372 .45700074 .2036438 .45700074 .33070375 .36799623 .4267578 .25698854 .4267578 .18899536 .4267578 .1519928 .37573243 .13198853 .327713M.25099183 .0055389406C.18798828 .0055389406 .1579895 .06556702 .1519928 .080566409 .13398743 .127594 .13398743 .2076416 .13398743 .22564698 .13398743 .30369569 .1659851 .40374757 .2559967 .40374757 .27198792 .40374757 .31799317 .40374757 .34899903 .34172059 .36698915 .30470277 .36698915 .2536621 .36698915 .20463562 .36698915 .15661621 .36698915 .10658264 .34999085 .0705719 .31999208 .010528564 .27398683 .0055389406 .25099183 .0055389406Z"/>
<clipPath id="clip_2">
<path transform="matrix(1,0,0,-1.00005,10.844002,98.70513)" d="M0 0H323.6717V96.90227H0Z"/>
</clipPath>
<path id="font_3_2" d="M.20599365 .3996582H.2999878C.31999208 .3996582 .32998658 .3996582 .32998658 .41966249 .32998658 .43066407 .31999208 .43066407 .3019867 .43066407H.21398926C.25 .5724945 .25498963 .59246829 .25498963 .59846499 .25498963 .61546328 .24299622 .62545779 .22599793 .62545779 .22299195 .62545779 .19499207 .62446597 .18598938 .58947756L.14698792 .43066407H.052993776C.032989503 .43066407 .022994996 .43066407 .022994996 .4116516 .022994996 .3996582 .0309906 .3996582 .050994874 .3996582H.13899231C.066986087 .11608887 .06298828 .099121097 .06298828 .08114624 .06298828 .02722168 .100997928-.0107421879 .15499878-.0107421879 .25698854-.0107421879 .31399537 .13505554 .31399537 .14305115 .31399537 .1530304 .30599977 .1530304 .3019867 .1530304 .29299928 .1530304 .2919922 .15003968 .2869873 .13905335 .24398804 .035217287 .19099427 .011245728 .15699768 .011245728 .13598633 .011245728 .12599182 .024230957 .12599182 .057174684 .12599182 .08114624 .12799073 .088134769 .13198853 .10510254L.20599365 .3996582Z"/>
<path id="font_3_1" d="M.36698915 .3996582H.45298768C.47299195 .3996582 .48298646 .3996582 .48298646 .41966249 .48298646 .43066407 .47299195 .43066407 .45599366 .43066407H.37298585L.3939972 .5449524C.397995 .5660095 .4119873 .6370239 .41799928 .6490326 .4269867 .66804507 .44400025 .68307498 .46499635 .68307498 .46899415 .68307498 .49499513 .68307498 .5139923 .66503909 .46998597 .661026 .45999146 .6260376 .45999146 .6110382 .45999146 .58802798 .47799684 .57603457 .49699403 .57603457 .522995 .57603457 .5519867 .5980377 .5519867 .6360321 .5519867 .6820679 .5059967 .7050781 .46499635 .7050781 .43099977 .7050781 .36799623 .68707278 .33799745 .58802798 .33198548 .56700137 .32899476 .5569763 .30499269 .43066407H.23599243C.21699524 .43066407 .20599365 .43066407 .20599365 .4116516 .20599365 .3996582 .21499634 .3996582 .23399353 .3996582H.2999878L.22499085 .0048828127C.20698548-.09207153 .18998719-.18309021 .13798523-.18309021 .13398743-.18309021 .10899353-.18309021 .08999634-.16506958 .13598633-.1620636 .14498902-.12606812 .14498902-.111068729 .14498902-.08807373 .1269989-.07606506 .10798645-.07606506 .08198547-.07606506 .052993776-.09806824 .052993776-.13606262 .052993776-.18109131 .09700012-.20507813 .13798523-.20507813 .19299317-.20507813 .23298645-.14607239 .25099183-.108062747 .2829895-.04508972 .30599977 .07583618 .30699159 .082839969L.36698915 .3996582Z"/>
<path id="font_1_1" d="M.33099366-.2400055C.33099366-.23701477 .33099366-.23500061 .31399537-.21800232 .18899536-.0920105 .15699768 .09700012 .15699768 .25 .15699768 .42399598 .19499207 .59799197 .31799317 .72299197 .33099366 .73498538 .33099366 .7369995 .33099366 .73999026 .33099366 .746994 .32699586 .75 .32099916 .75 .31098939 .75 .22099304 .6819916 .1619873 .5549927 .11099243 .44499208 .09899902 .33399964 .09899902 .25 .09899902 .17199707 .10998535 .050994874 .16499329-.06201172 .22499085-.18501282 .31098939-.25 .32099916-.25 .32699586-.25 .33099366-.24700928 .33099366-.2400055Z"/>
<path id="font_1_2" d="M.2889862 .25C.2889862 .32798768 .27799989 .44898988 .22299195 .56199648 .16299439 .68499758 .07699585 .75 .066986087 .75 .06098938 .75 .056991579 .74598696 .056991579 .73999026 .056991579 .7369995 .056991579 .73498538 .07598877 .71699526 .17399597 .6179962 .23098755 .45899964 .23098755 .25 .23098755 .07899475 .19400025-.09700012 .069992069-.2230072 .056991579-.23500061 .056991579-.23701477 .056991579-.2400055 .056991579-.2460022 .06098938-.25 .066986087-.25 .07699585-.25 .16699219-.18200684 .22599793-.055007936 .2769928 .054992677 .2889862 .16600037 .2889862 .25Z"/>
</defs>
<path transform="matrix(1,0,0,-1.00005,10.844002,98.70513)" stroke-width=".3985" stroke-linecap="butt" stroke-miterlimit="10" stroke-linejoin="miter" fill="none" stroke="#bfbfbf" d="M52.20511 0V96.90227M104.41022 0V96.90227M156.61534 0V96.90227M208.82045 0V96.90227M261.02558 0V96.90227M313.23069 0V96.90227"/>
<path transform="matrix(1,0,0,-1.00005,10.844002,98.70513)" stroke-width=".3985" stroke-linecap="butt" stroke-miterlimit="10" stroke-linejoin="miter" fill="none" stroke="#bfbfbf" d="M0 68.4016H323.6717"/>
<path transform="matrix(1,0,0,-1.00005,10.844002,98.70513)" stroke-width=".19925" stroke-linecap="butt" stroke-miterlimit="10" stroke-linejoin="miter" fill="none" stroke="#7f807f" d="M52.20511 9.27414V13.52637M104.41022 9.27414V13.52637M156.61534 9.27414V13.52637M208.82045 9.27414V13.52637M261.02558 9.27414V13.52637M313.23069 9.27414V13.52637"/>
<path transform="matrix(1,0,0,-1.00005,10.844002,98.70513)" stroke-width=".19925" stroke-linecap="butt" stroke-miterlimit="10" stroke-linejoin="miter" fill="none" stroke="#7f807f" d="M-2.12604 68.4016H2.12604"/>
<path transform="matrix(1,0,0,-1.00005,10.844002,98.70513)" stroke-width=".3985" stroke-linecap="butt" stroke-miterlimit="10" stroke-linejoin="miter" fill="none" stroke="#000000" d="M0 11.40025H321.67918"/>
<path transform="matrix(1,0,0,-1.00005,332.52317,87.30431)" d="M1.99252 0-1.19551 1.59401 0 0-1.19551-1.59401"/>
<path transform="matrix(1,0,0,-1.00005,10.844002,98.70513)" stroke-width=".3985" stroke-linecap="butt" stroke-miterlimit="10" stroke-linejoin="miter" fill="none" stroke="#000000" d="M0 0V94.90974"/>
<path transform="matrix(0,-1.00005,-1,-0,10.844002,3.790657)" d="M1.99252 0-1.19551 1.59401 0 0-1.19551-1.59401"/>
<use data-text="1" xlink:href="#font_1_3" transform="matrix(9.9626,0,0,-9.963098,60.558004,99.37116)"/>
<use data-text="2" xlink:href="#font_1_4" transform="matrix(9.9626,0,0,-9.963098,112.764,99.37116)"/>
<use data-text="3" xlink:href="#font_1_5" transform="matrix(9.9626,0,0,-9.963098,164.969,99.37116)"/>
<use data-text="4" xlink:href="#font_1_6" transform="matrix(9.9626,0,0,-9.963098,217.17401,99.37116)"/>
<use data-text="5" xlink:href="#font_1_7" transform="matrix(9.9626,0,0,-9.963098,269.379,99.37116)"/>
<use data-text="6" xlink:href="#font_1_8" transform="matrix(9.9626,0,0,-9.963098,321.58399,99.37116)"/>
<use data-text="1" xlink:href="#font_1_3" transform="matrix(9.9626,0,0,-9.963098,.21700287,33.51087)"/>
<g clip-path="url(#clip_2)">
<path transform="matrix(1,0,0,-1.00005,10.844002,98.70513)" stroke-width=".79701" stroke-linecap="butt" stroke-miterlimit="10" stroke-linejoin="miter" fill="none" stroke="#0000ff" d="M0 68.4016H.52725 1.05452 1.5818 2.10907 2.63635 3.16362 3.6909 4.21815 4.74544 5.2727 5.79997 6.32726 6.85452 7.3818 7.90906 8.43633 8.96361 9.49088 10.01816 10.54543 11.0727 11.59998 12.12723 12.65451 13.18178 13.70905 14.23633 14.7636 15.29088 15.81813 16.34541 16.87268 17.39996 17.92723 18.45451 18.98178 19.50905 20.03632 20.5636 21.09087 21.61813 22.14542 22.67268 23.19997 23.72722 24.25449 24.78177 25.30904 25.83632 26.36359 26.89085 27.41812 27.94539 28.47267 28.99994 29.5272 30.05449 30.58176 31.10904 31.63629 32.16357 32.69084 33.21812 33.74539 34.27267 34.79994 35.3272 35.85448 36.38174 36.90903 37.4363 37.96358 38.49084 39.01811 39.54538 40.07265 40.59993 41.1272 41.65448 42.18175 42.70901 43.23628 43.76355 44.29083 44.8181 45.34537 45.87265 46.39992 46.92719 47.45445 47.98174 48.509 49.03627 49.56355 50.09082 50.6181 51.14536 51.67264 52.1999"/>
<path transform="matrix(1,0,0,-1.00005,10.844002,98.70513)" stroke-width=".79701" stroke-linecap="butt" stroke-miterlimit="10" stroke-linejoin="miter" fill="none" stroke="#0000ff" d="M52.20511 11.40025H52.73238 53.25964 53.78691 54.31418 54.84146 55.36873 55.896 56.42328 56.95055 57.47781 58.00508 58.53235 59.05963 59.5869 60.11418 60.64145 61.16872 61.69598 62.22325 62.75053 63.2778 63.80508 64.33235 64.85963 65.38689 65.91415 66.44144 66.9687 67.49599 68.02325 68.55054 69.0778 69.60507 70.13234 70.65962 71.18689 71.71416 72.24144 72.7687 73.29597 73.82324 74.35051 74.87779 75.40506 75.93234 76.45961 76.98688 77.51414 78.04141 78.5687 79.09596 79.62323 80.15051 80.67778 81.20505 81.73232 82.2596 82.78687 83.31415 83.84142 84.3687 84.89595 85.42323 85.9505 86.47778 87.00505 87.53232 88.0596 88.58687 89.11414 89.6414 90.16867 90.69595 91.22322 91.7505 92.27777 92.80502 93.3323 93.85957 94.38686 94.91412 95.44139 95.96867 96.49594 97.02321 97.55048 98.07776 98.60503 99.13231 99.65958 100.18686 100.71411 101.24138 101.76866 102.29593 102.82321 103.35048 103.87776 104.40501"/>
<path transform="matrix(1,0,0,-1.00005,10.844002,98.70513)" stroke-width=".79701" stroke-linecap="butt" stroke-miterlimit="10" stroke-linejoin="miter" fill="none" stroke="#0000ff" d="M104.41022 68.4016H104.93748 105.46475 105.99203 106.5193 107.04659 107.57384 108.1011 108.62839 109.15565 109.68294 110.2102 110.73747 111.26474 111.792 112.31929 112.84656 113.37383 113.90111 114.42838 114.95564 115.48291 116.0102 116.53746 117.06474 117.59201 118.11928 118.64656 119.17381 119.7011 120.22836 120.75565 121.28291 121.8102 122.33746 122.86473 123.392 123.91927 124.44655 124.97382 125.5011 126.02837 126.55563 127.0829 127.61017 128.13745 128.66472 129.19199 129.71927 130.24654 130.7738 131.30107 131.82834 132.35562 132.88289 133.41017 133.93744 134.4647 134.99198 135.51926 136.04653 136.5738 137.10108 137.62836 138.15563 138.68289 139.21016 139.73743 140.26471 140.79198 141.31926 141.84653 142.37378 142.90106 143.42833 143.95561 144.48288 145.01015 145.53743 146.0647 146.59197 147.11923 147.6465 148.17378 148.70105 149.22834 149.7556 150.28287 150.81014 151.33742 151.86469 152.39197 152.91924 153.4465 153.97377 154.50104 155.02832 155.55559 156.08287 156.61014"/>
<path transform="matrix(1,0,0,-1.00005,10.844002,98.70513)" stroke-width=".79701" stroke-linecap="butt" stroke-miterlimit="10" stroke-linejoin="miter" fill="none" stroke="#0000ff" d="M156.61534 11.40025H157.1426 157.66986 158.19715 158.72441 159.2517 159.77896 160.30623 160.8335 161.36077 161.88805 162.41532 162.94258 163.46987 163.99713 164.52442 165.05167 165.57894 166.10622 166.63349 167.16077 167.68804 168.21532 168.74257 169.26985 169.79712 170.32439 170.85167 171.37894 171.90622 172.43347 172.96076 173.48802 174.0153 174.54257 175.06986 175.59712 176.12439 176.65166 177.17893 177.7062 178.23348 178.76074 179.28803 179.81529 180.34256 180.86983 181.3971 181.92438 182.45165 182.97893 183.5062 184.03347 184.56073 185.088 185.61528 186.14255 186.66983 187.1971 187.72438 188.25164 188.77892 189.30619 189.83347 190.36074 190.88802 191.41529 191.94254 192.46982 192.99709 193.52437 194.05164 194.5789 195.10619 195.63346 196.16072 196.68799 197.21526 197.74254 198.2698 198.79709 199.32436 199.85161 200.37889 200.90616 201.43344 201.96071 202.48799 203.01526 203.54254 204.0698 204.59708 205.12435 205.65161 206.1789 206.70616 207.23345 207.7607 208.28798 208.81525"/>
<path transform="matrix(1,0,0,-1.00005,10.844002,98.70513)" stroke-width=".79701" stroke-linecap="butt" stroke-miterlimit="10" stroke-linejoin="miter" fill="none" stroke="#0000ff" d="M208.82045 68.4016H209.34772 209.87499 210.40225 210.92952 211.4568 211.98407 212.51134 213.03862 213.56589 214.09317 214.62042 215.14769 215.67498 216.20224 216.72953 217.25679 217.78406 218.31133 218.8386 219.36588 219.89315 220.42043 220.9477 221.47498 222.00225 222.5295 223.05678 223.58405 224.11133 224.6386 225.16588 225.69315 226.22042 226.74768 227.27497 227.80223 228.3295 228.85678 229.38405 229.91132 230.43859 230.96585 231.49314 232.0204 232.54769 233.07495 233.60222 234.12949 234.65676 235.18404 235.7113 236.23857 236.76586 237.29312 237.82039 238.34766 238.87494 239.4022 239.92949 240.45676 240.98404 241.5113 242.03858 242.56584 243.09313 243.62039 244.14766 244.67494 245.20221 245.72948 246.25675 246.78401 247.3113 247.83856 248.36585 248.89311 249.42037 249.94765 250.47492 251.0022 251.52947 252.05673 252.58402 253.11128 253.63855 254.16582 254.6931 255.22037 255.74765 256.27494 256.8022 257.32945 257.85673 258.384 258.91127 259.43855 259.96583 260.4931 261.02037"/>
<path transform="matrix(1,0,0,-1.00005,10.844002,98.70513)" stroke-width=".79701" stroke-linecap="butt" stroke-miterlimit="10" stroke-linejoin="miter" fill="none" stroke="#0000ff" d="M261.02558 11.40025H261.55284 262.0801 262.6074 263.13465 263.66194 264.18919 264.71647 265.24375 265.771 266.29829 266.82557 267.3528 267.88008 268.40736 268.93464 269.4619 269.98918 270.51646 271.04374 271.571 272.09825 272.62553 273.1528 273.68009 274.20735 274.73463 275.2619 275.78916 276.31645 276.8437 277.371 277.89826 278.42555 278.9528 279.4801 280.00736 280.5346 281.0619 281.58918 282.11647 282.6437 283.17097 283.69825 284.22554 284.75279 285.28007 285.80735 286.33464 286.86189 287.38914 287.9164 288.4437 288.97096 289.49824 290.0255 290.55278 291.08006 291.60734 292.1346 292.66188 293.18916 293.71644 294.2437 294.77098 295.29823 295.8255 296.35279 296.88005 297.40733 297.9346 298.46189 298.98915 299.5164 300.04368 300.57096 301.0982 301.6255 302.15278 302.68006 303.2073 303.73457 304.26185 304.78913 305.31639 305.84367 306.37095 306.89823 307.42549 307.95277 308.48005 309.00733 309.53459 310.06184 310.58915 311.1164 311.64366 312.17094 312.6982 313.2255"/>
<path transform="matrix(1,0,0,-1.00005,10.844002,98.70513)" stroke-width=".79701" stroke-linecap="butt" stroke-miterlimit="10" stroke-linejoin="miter" fill="none" stroke="#0000ff" d="M313.23069 68.4016H313.2834 313.33613 313.38887 313.44157 313.4943 313.54704 313.59977 313.65248 313.7052 313.75794 313.81068 313.8634 313.9161 313.96885 314.02159 314.0743 314.12705 314.17976 314.23249 314.2852 314.33793 314.39067 314.4434 314.49613 314.54884 314.6016 314.6543 314.70704 314.75975 314.81248 314.8652 314.9179 314.97068 315.02339 315.07615 315.12886 315.18159 315.2343 315.28703 315.33976 315.39247 315.4452 315.49794 315.55067 315.6034 315.65614 315.70887 315.76158 315.8143 315.86705 315.91975 315.97248 316.0252 316.07795 316.13066 316.18339 316.2361 316.28886 316.34159 316.3943 316.44703 316.49977 316.55247 316.6052 316.65794 316.71067 316.76338 316.8161 316.86885 316.92158 316.9743 317.027 317.07978 317.13249 317.1852 317.2379 317.29066 317.34339 317.3961 317.44886 317.50157 317.5543 317.60704 317.65974 317.7125 317.7652 317.81794 317.87065 317.9234 317.9761 318.0288 318.08158 318.1343 318.18705 318.23976 318.29249 318.3452 318.39793 318.45066"/>
</g>
<path transform="matrix(1,0,0,-1.00005,10.844002,98.70513)" d="M1.99255 68.4016C1.99255 69.50208 1.10046 70.39415 0 70.39415-1.10046 70.39415-1.99255 69.50208-1.99255 68.4016-1.99255 67.30113-1.10046 66.40904 0 66.40904 1.10046 66.40904 1.99255 67.30113 1.99255 68.4016ZM0 68.4016" fill="#0000ff"/>
<path transform="matrix(1,0,0,-1.00005,10.844002,98.70513)" stroke-width=".3985" stroke-linecap="butt" stroke-miterlimit="10" stroke-linejoin="miter" fill="none" stroke="#0000ff" d="M1.99255 68.4016C1.99255 69.50208 1.10046 70.39415 0 70.39415-1.10046 70.39415-1.99255 69.50208-1.99255 68.4016-1.99255 67.30113-1.10046 66.40904 0 66.40904 1.10046 66.40904 1.99255 67.30113 1.99255 68.4016ZM0 68.4016"/>
<path transform="matrix(1,0,0,-1.00005,10.844002,98.70513)" stroke-width=".3985" stroke-linecap="butt" stroke-miterlimit="10" stroke-linejoin="miter" fill="none" stroke="#0000ff" d=""/>
<path transform="matrix(1,0,0,-1.00005,10.844002,98.70513)" d="M54.19766 68.4016C54.19766 69.50208 53.30557 70.39415 52.20511 70.39415 51.10463 70.39415 50.21255 69.50208 50.21255 68.4016 50.21255 67.30113 51.10463 66.40904 52.20511 66.40904 53.30557 66.40904 54.19766 67.30113 54.19766 68.4016ZM52.20511 68.4016" fill="#0000ff"/>
<path transform="matrix(1,0,0,-1.00005,10.844002,98.70513)" stroke-width=".3985" stroke-linecap="butt" stroke-miterlimit="10" stroke-linejoin="miter" fill="none" stroke="#0000ff" d="M54.19766 68.4016C54.19766 69.50208 53.30557 70.39415 52.20511 70.39415 51.10463 70.39415 50.21255 69.50208 50.21255 68.4016 50.21255 67.30113 51.10463 66.40904 52.20511 66.40904 53.30557 66.40904 54.19766 67.30113 54.19766 68.4016ZM52.20511 68.4016"/>
<path transform="matrix(1,0,0,-1.00005,10.844002,98.70513)" stroke-width=".3985" stroke-linecap="butt" stroke-miterlimit="10" stroke-linejoin="miter" fill="none" stroke="#0000ff" d=""/>
<path transform="matrix(1,0,0,-1.00005,10.844002,98.70513)" d="M106.40277 68.4016C106.40277 69.50208 105.5107 70.39415 104.41022 70.39415 103.30975 70.39415 102.41766 69.50208 102.41766 68.4016 102.41766 67.30113 103.30975 66.40904 104.41022 66.40904 105.5107 66.40904 106.40277 67.30113 106.40277 68.4016ZM104.41022 68.4016" fill="#0000ff"/>
<path transform="matrix(1,0,0,-1.00005,10.844002,98.70513)" stroke-width=".3985" stroke-linecap="butt" stroke-miterlimit="10" stroke-linejoin="miter" fill="none" stroke="#0000ff" d="M106.40277 68.4016C106.40277 69.50208 105.5107 70.39415 104.41022 70.39415 103.30975 70.39415 102.41766 69.50208 102.41766 68.4016 102.41766 67.30113 103.30975 66.40904 104.41022 66.40904 105.5107 66.40904 106.40277 67.30113 106.40277 68.4016ZM104.41022 68.4016"/>
<path transform="matrix(1,0,0,-1.00005,10.844002,98.70513)" stroke-width=".3985" stroke-linecap="butt" stroke-miterlimit="10" stroke-linejoin="miter" fill="none" stroke="#0000ff" d=""/>
<path transform="matrix(1,0,0,-1.00005,10.844002,98.70513)" d="M158.6079 68.4016C158.6079 69.50208 157.7158 70.39415 156.61534 70.39415 155.51486 70.39415 154.62279 69.50208 154.62279 68.4016 154.62279 67.30113 155.51486 66.40904 156.61534 66.40904 157.7158 66.40904 158.6079 67.30113 158.6079 68.4016ZM156.61534 68.4016" fill="#0000ff"/>
<path transform="matrix(1,0,0,-1.00005,10.844002,98.70513)" stroke-width=".3985" stroke-linecap="butt" stroke-miterlimit="10" stroke-linejoin="miter" fill="none" stroke="#0000ff" d="M158.6079 68.4016C158.6079 69.50208 157.7158 70.39415 156.61534 70.39415 155.51486 70.39415 154.62279 69.50208 154.62279 68.4016 154.62279 67.30113 155.51486 66.40904 156.61534 66.40904 157.7158 66.40904 158.6079 67.30113 158.6079 68.4016ZM156.61534 68.4016"/>
<path transform="matrix(1,0,0,-1.00005,10.844002,98.70513)" stroke-width=".3985" stroke-linecap="butt" stroke-miterlimit="10" stroke-linejoin="miter" fill="none" stroke="#0000ff" d=""/>
<path transform="matrix(1,0,0,-1.00005,10.844002,98.70513)" d="M210.813 68.4016C210.813 69.50208 209.92092 70.39415 208.82045 70.39415 207.71997 70.39415 206.8279 69.50208 206.8279 68.4016 206.8279 67.30113 207.71997 66.40904 208.82045 66.40904 209.92092 66.40904 210.813 67.30113 210.813 68.4016ZM208.82045 68.4016" fill="#0000ff"/>
<path transform="matrix(1,0,0,-1.00005,10.844002,98.70513)" stroke-width=".3985" stroke-linecap="butt" stroke-miterlimit="10" stroke-linejoin="miter" fill="none" stroke="#0000ff" d="M210.813 68.4016C210.813 69.50208 209.92092 70.39415 208.82045 70.39415 207.71997 70.39415 206.8279 69.50208 206.8279 68.4016 206.8279 67.30113 207.71997 66.40904 208.82045 66.40904 209.92092 66.40904 210.813 67.30113 210.813 68.4016ZM208.82045 68.4016"/>
<path transform="matrix(1,0,0,-1.00005,10.844002,98.70513)" stroke-width=".3985" stroke-linecap="butt" stroke-miterlimit="10" stroke-linejoin="miter" fill="none" stroke="#0000ff" d=""/>
<path transform="matrix(1,0,0,-1.00005,10.844002,98.70513)" d="M263.0181 68.4016C263.0181 69.50208 262.12605 70.39415 261.02558 70.39415 259.9251 70.39415 259.033 69.50208 259.033 68.4016 259.033 67.30113 259.9251 66.40904 261.02558 66.40904 262.12605 66.40904 263.0181 67.30113 263.0181 68.4016ZM261.02558 68.4016" fill="#0000ff"/>
<path transform="matrix(1,0,0,-1.00005,10.844002,98.70513)" stroke-width=".3985" stroke-linecap="butt" stroke-miterlimit="10" stroke-linejoin="miter" fill="none" stroke="#0000ff" d="M263.0181 68.4016C263.0181 69.50208 262.12605 70.39415 261.02558 70.39415 259.9251 70.39415 259.033 69.50208 259.033 68.4016 259.033 67.30113 259.9251 66.40904 261.02558 66.40904 262.12605 66.40904 263.0181 67.30113 263.0181 68.4016ZM261.02558 68.4016"/>
<path transform="matrix(1,0,0,-1.00005,10.844002,98.70513)" stroke-width=".3985" stroke-linecap="butt" stroke-miterlimit="10" stroke-linejoin="miter" fill="none" stroke="#0000ff" d=""/>
<path transform="matrix(1,0,0,-1.00005,10.844002,98.70513)" d="M315.22325 68.4016C315.22325 69.50208 314.33116 70.39415 313.23069 70.39415 312.1302 70.39415 311.23814 69.50208 311.23814 68.4016 311.23814 67.30113 312.1302 66.40904 313.23069 66.40904 314.33116 66.40904 315.22325 67.30113 315.22325 68.4016ZM313.23069 68.4016" fill="#0000ff"/>
<path transform="matrix(1,0,0,-1.00005,10.844002,98.70513)" stroke-width=".3985" stroke-linecap="butt" stroke-miterlimit="10" stroke-linejoin="miter" fill="none" stroke="#0000ff" d="M315.22325 68.4016C315.22325 69.50208 314.33116 70.39415 313.23069 70.39415 312.1302 70.39415 311.23814 69.50208 311.23814 68.4016 311.23814 67.30113 312.1302 66.40904 313.23069 66.40904 314.33116 66.40904 315.22325 67.30113 315.22325 68.4016ZM313.23069 68.4016"/>
<path transform="matrix(1,0,0,-1.00005,10.844002,98.70513)" stroke-width=".3985" stroke-linecap="butt" stroke-miterlimit="10" stroke-linejoin="miter" fill="none" stroke="#0000ff" d=""/>
<path transform="matrix(1,0,0,-1.00005,10.844002,98.70513)" d="M54.19766 11.40025C54.19766 12.50073 53.30557 13.3928 52.20511 13.3928 51.10463 13.3928 50.21255 12.50073 50.21255 11.40025 50.21255 10.29979 51.10463 9.4077 52.20511 9.4077 53.30557 9.4077 54.19766 10.29979 54.19766 11.40025ZM52.20511 11.40025" fill="#ffffff"/>
<path transform="matrix(1,0,0,-1.00005,10.844002,98.70513)" stroke-width=".3985" stroke-linecap="butt" stroke-miterlimit="10" stroke-linejoin="miter" fill="none" stroke="#0000ff" d="M54.19766 11.40025C54.19766 12.50073 53.30557 13.3928 52.20511 13.3928 51.10463 13.3928 50.21255 12.50073 50.21255 11.40025 50.21255 10.29979 51.10463 9.4077 52.20511 9.4077 53.30557 9.4077 54.19766 10.29979 54.19766 11.40025ZM52.20511 11.40025"/>
<path transform="matrix(1,0,0,-1.00005,10.844002,98.70513)" d="" fill="#ffffff"/>
<path transform="matrix(1,0,0,-1.00005,10.844002,98.70513)" stroke-width=".3985" stroke-linecap="butt" stroke-miterlimit="10" stroke-linejoin="miter" fill="none" stroke="#0000ff" d=""/>
<path transform="matrix(1,0,0,-1.00005,10.844002,98.70513)" d="M106.40277 11.40025C106.40277 12.50073 105.5107 13.3928 104.41022 13.3928 103.30975 13.3928 102.41766 12.50073 102.41766 11.40025 102.41766 10.29979 103.30975 9.4077 104.41022 9.4077 105.5107 9.4077 106.40277 10.29979 106.40277 11.40025ZM104.41022 11.40025" fill="#ffffff"/>
<path transform="matrix(1,0,0,-1.00005,10.844002,98.70513)" stroke-width=".3985" stroke-linecap="butt" stroke-miterlimit="10" stroke-linejoin="miter" fill="none" stroke="#0000ff" d="M106.40277 11.40025C106.40277 12.50073 105.5107 13.3928 104.41022 13.3928 103.30975 13.3928 102.41766 12.50073 102.41766 11.40025 102.41766 10.29979 103.30975 9.4077 104.41022 9.4077 105.5107 9.4077 106.40277 10.29979 106.40277 11.40025ZM104.41022 11.40025"/>
<path transform="matrix(1,0,0,-1.00005,10.844002,98.70513)" d="" fill="#ffffff"/>
<path transform="matrix(1,0,0,-1.00005,10.844002,98.70513)" stroke-width=".3985" stroke-linecap="butt" stroke-miterlimit="10" stroke-linejoin="miter" fill="none" stroke="#0000ff" d=""/>
<path transform="matrix(1,0,0,-1.00005,10.844002,98.70513)" d="M158.6079 11.40025C158.6079 12.50073 157.7158 13.3928 156.61534 13.3928 155.51486 13.3928 154.62279 12.50073 154.62279 11.40025 154.62279 10.29979 155.51486 9.4077 156.61534 9.4077 157.7158 9.4077 158.6079 10.29979 158.6079 11.40025ZM156.61534 11.40025" fill="#ffffff"/>
<path transform="matrix(1,0,0,-1.00005,10.844002,98.70513)" stroke-width=".3985" stroke-linecap="butt" stroke-miterlimit="10" stroke-linejoin="miter" fill="none" stroke="#0000ff" d="M158.6079 11.40025C158.6079 12.50073 157.7158 13.3928 156.61534 13.3928 155.51486 13.3928 154.62279 12.50073 154.62279 11.40025 154.62279 10.29979 155.51486 9.4077 156.61534 9.4077 157.7158 9.4077 158.6079 10.29979 158.6079 11.40025ZM156.61534 11.40025"/>
<path transform="matrix(1,0,0,-1.00005,10.844002,98.70513)" d="" fill="#ffffff"/>
<path transform="matrix(1,0,0,-1.00005,10.844002,98.70513)" stroke-width=".3985" stroke-linecap="butt" stroke-miterlimit="10" stroke-linejoin="miter" fill="none" stroke="#0000ff" d=""/>
<path transform="matrix(1,0,0,-1.00005,10.844002,98.70513)" d="M210.813 11.40025C210.813 12.50073 209.92092 13.3928 208.82045 13.3928 207.71997 13.3928 206.8279 12.50073 206.8279 11.40025 206.8279 10.29979 207.71997 9.4077 208.82045 9.4077 209.92092 9.4077 210.813 10.29979 210.813 11.40025ZM208.82045 11.40025" fill="#ffffff"/>
<path transform="matrix(1,0,0,-1.00005,10.844002,98.70513)" stroke-width=".3985" stroke-linecap="butt" stroke-miterlimit="10" stroke-linejoin="miter" fill="none" stroke="#0000ff" d="M210.813 11.40025C210.813 12.50073 209.92092 13.3928 208.82045 13.3928 207.71997 13.3928 206.8279 12.50073 206.8279 11.40025 206.8279 10.29979 207.71997 9.4077 208.82045 9.4077 209.92092 9.4077 210.813 10.29979 210.813 11.40025ZM208.82045 11.40025"/>
<path transform="matrix(1,0,0,-1.00005,10.844002,98.70513)" d="" fill="#ffffff"/>
<path transform="matrix(1,0,0,-1.00005,10.844002,98.70513)" stroke-width=".3985" stroke-linecap="butt" stroke-miterlimit="10" stroke-linejoin="miter" fill="none" stroke="#0000ff" d=""/>
<path transform="matrix(1,0,0,-1.00005,10.844002,98.70513)" d="M263.0181 11.40025C263.0181 12.50073 262.12605 13.3928 261.02558 13.3928 259.9251 13.3928 259.033 12.50073 259.033 11.40025 259.033 10.29979 259.9251 9.4077 261.02558 9.4077 262.12605 9.4077 263.0181 10.29979 263.0181 11.40025ZM261.02558 11.40025" fill="#ffffff"/>
<path transform="matrix(1,0,0,-1.00005,10.844002,98.70513)" stroke-width=".3985" stroke-linecap="butt" stroke-miterlimit="10" stroke-linejoin="miter" fill="none" stroke="#0000ff" d="M263.0181 11.40025C263.0181 12.50073 262.12605 13.3928 261.02558 13.3928 259.9251 13.3928 259.033 12.50073 259.033 11.40025 259.033 10.29979 259.9251 9.4077 261.02558 9.4077 262.12605 9.4077 263.0181 10.29979 263.0181 11.40025ZM261.02558 11.40025"/>
<path transform="matrix(1,0,0,-1.00005,10.844002,98.70513)" d="" fill="#ffffff"/>
<path transform="matrix(1,0,0,-1.00005,10.844002,98.70513)" stroke-width=".3985" stroke-linecap="butt" stroke-miterlimit="10" stroke-linejoin="miter" fill="none" stroke="#0000ff" d=""/>
<path transform="matrix(1,0,0,-1.00005,10.844002,98.70513)" d="M315.22325 11.40025C315.22325 12.50073 314.33116 13.3928 313.23069 13.3928 312.1302 13.3928 311.23814 12.50073 311.23814 11.40025 311.23814 10.29979 312.1302 9.4077 313.23069 9.4077 314.33116 9.4077 315.22325 10.29979 315.22325 11.40025ZM313.23069 11.40025" fill="#ffffff"/>
<path transform="matrix(1,0,0,-1.00005,10.844002,98.70513)" stroke-width=".3985" stroke-linecap="butt" stroke-miterlimit="10" stroke-linejoin="miter" fill="none" stroke="#0000ff" d="M315.22325 11.40025C315.22325 12.50073 314.33116 13.3928 313.23069 13.3928 312.1302 13.3928 311.23814 12.50073 311.23814 11.40025 311.23814 10.29979 312.1302 9.4077 313.23069 9.4077 314.33116 9.4077 315.22325 10.29979 315.22325 11.40025ZM313.23069 11.40025"/>
<path transform="matrix(1,0,0,-1.00005,10.844002,98.70513)" d="" fill="#ffffff"/>
<path transform="matrix(1,0,0,-1.00005,10.844002,98.70513)" stroke-width=".3985" stroke-linecap="butt" stroke-miterlimit="10" stroke-linejoin="miter" fill="none" stroke="#0000ff" d=""/>
<use data-text="t" xlink:href="#font_3_2" transform="matrix(9.9626,0,0,-9.963098,327.39799,83.784389)"/>
<use data-text="f" xlink:href="#font_3_1" transform="matrix(9.9626,0,0,-9.963098,14.363998,12.79084)"/>
<use data-text="(" xlink:href="#font_1_1" transform="matrix(9.9626,0,0,-9.963098,20.313996,12.79084)"/>
<use data-text="t" xlink:href="#font_3_2" transform="matrix(9.9626,0,0,-9.963098,24.187996,12.79084)"/>
<use data-text=")" xlink:href="#font_1_2" transform="matrix(9.9626,0,0,-9.963098,27.785996,12.79084)"/>
</svg>
