<svg xmlns="http://www.w3.org/2000/svg" xmlns:xlink="http://www.w3.org/1999/xlink" xmlns:inkscape="http://www.inkscape.org/namespaces/inkscape" version="1.1" width="239" height="123" viewBox="0 0 239 123">
<defs>
<path id="font_1_1" d="M.6589966 .23046875C.6759949 .23046875 .69400027 .23046875 .69400027 .25045777 .69400027 .27046205 .6759949 .27046205 .6589966 .27046205H.117996219C.100997928 .27046205 .08299255 .27046205 .08299255 .25045777 .08299255 .23046875 .100997928 .23046875 .117996219 .23046875H.6589966Z"/>
<path id="font_2_9" d="M.13198853 .327713V.35173036C.13198853 .6047821 .2559967 .64100649 .30699159 .64100649 .33099366 .64100649 .37298585 .634964 .394989 .6007538 .37998963 .6007538 .33999635 .6007538 .33999635 .5557556 .33999635 .524765 .3639984 .5097656 .38598634 .5097656 .4019928 .5097656 .43199159 .51875308 .43199159 .5577545 .43199159 .6178589 .3880005 .6660156 .30499269 .6660156 .1769867 .6660156 .041992189 .5367584 .041992189 .31570436 .041992189 .048553468 .1579895-.022460938 .25099183-.022460938 .3619995-.022460938 .45700074 .07156372 .45700074 .2036438 .45700074 .33070375 .36799623 .4267578 .25698854 .4267578 .18899536 .4267578 .1519928 .37573243 .13198853 .327713M.25099183 .0055389406C.18798828 .0055389406 .1579895 .06556702 .1519928 .080566409 .13398743 .127594 .13398743 .2076416 .13398743 .22564698 .13398743 .30369569 .1659851 .40374757 .2559967 .40374757 .27198792 .40374757 .31799317 .40374757 .34899903 .34172059 .36698915 .30470277 .36698915 .2536621 .36698915 .20463562 .36698915 .15661621 .36698915 .10658264 .34999085 .0705719 .31999208 .010528564 .27398683 .0055389406 .25099183 .0055389406Z"/>
<path id="font_2_7" d="M.2939911 .16503906V.07800293C.2939911 .041992189 .2919922 .0309906 .21798706 .0309906H.19699097V0C.23799134 .0029907227 .2899933 .0029907227 .33198548 .0029907227 .37399293 .0029907227 .4269867 .0029907227 .46798707 0V.0309906H.44699098C.37298585 .0309906 .37098695 .041992189 .37098695 .07800293V.16503906H.47099305V.19602967H.37098695V.65075686C.37098695 .67074587 .37098695 .6767578 .35499574 .6767578 .34599305 .6767578 .34298707 .6767578 .33499146 .66474917L.027999878 .19602967V.16503906H.2939911M.2999878 .19602967H.055999757L.2999878 .5688019V.19602967Z"/>
<path id="font_2_5" d="M.1269989 .07699585 .23298645 .18003845C.3889923 .31811524 .44898988 .3721466 .44898988 .47216798 .44898988 .5860901 .35899354 .6660156 .23699951 .6660156 .12399292 .6660156 .049987794 .57411196 .049987794 .48516847 .049987794 .4291687 .099990848 .4291687 .102996829 .4291687 .11999512 .4291687 .15499878 .44117738 .15499878 .48217774 .15499878 .5081787 .13699341 .5341797 .101989749 .5341797 .09399414 .5341797 .09199524 .5341797 .08898926 .5331726 .11199951 .59806826 .1659851 .63500979 .22399903 .63500979 .31498719 .63500979 .35798646 .5541382 .35798646 .47216798 .35798646 .39215089 .30799867 .31311036 .25299073 .25108338L.06098938 .036987306C.049987794 .025985718 .049987794 .023986817 .049987794 0H.42099L.44898988 .17404175H.42399598C.4189911 .14402771 .4119873 .1000061 .4019928 .084991458 .394989 .07699585 .32899476 .07699585 .30699159 .07699585H.1269989Z"/>
<path id="font_2_4" d="M.2939911 .64004519C.2939911 .66400149 .2939911 .6660156 .2709961 .6660156 .20899964 .60227969 .12098694 .60227969 .08898926 .60227969V.57128909C.10899353 .57128909 .16799927 .57128909 .21998596 .5972748V.07902527C.21998596 .042999269 .21699524 .0309906 .1269989 .0309906H.09498596V0C.12998963 .0029907227 .21699524 .0029907227 .25698854 .0029907227 .29699708 .0029907227 .38398744 .0029907227 .4189911 0V.0309906H.3869934C.29699708 .0309906 .2939911 .041992189 .2939911 .07902527V.64004519Z"/>
<path id="font_2_3" d="M.45999146 .31976319C.45999146 .39982606 .45498658 .47988893 .41999818 .5539398 .37399293 .65000918 .2919922 .6660156 .25 .6660156 .18998719 .6660156 .116989139 .64001467 .07598877 .54693606 .04399109 .47789 .038986207 .39982606 .038986207 .31976319 .038986207 .24472046 .042999269 .15464783 .083999637 .07859802 .1269989-.0024719239 .19999695-.022460938 .24899292-.022460938 .30299378-.022460938 .3789978-.0014648438 .4229889 .09359741 .45498658 .16265869 .45999146 .2407074 .45999146 .31976319M.24899292-.00047302247C.20999146-.00047302247 .15098572 .024551392 .1329956 .12062073 .12199402 .18066406 .12199402 .2727356 .12199402 .3317871 .12199402 .39582826 .12199402 .46188355 .12998963 .5159149 .14898682 .63500979 .22399903 .64401248 .24899292 .64401248 .28199769 .64401248 .34799195 .6259918 .36698915 .52693179 .3769989 .47088624 .3769989 .39482118 .3769989 .3317871 .3769989 .25672914 .3769989 .18867493 .3659973 .12461853 .35099793 .029556275 .2939911-.00047302247 .24899292-.00047302247Z"/>
<path id="font_3_1" d="M.19198609 .052993776C.19198609 .08198547 .16799927 .10598755 .13899231 .10598755 .10998535 .10598755 .085998538 .08198547 .085998538 .052993776 .085998538 .023986817 .10998535 0 .13899231 0 .16799927 0 .19198609 .023986817 .19198609 .052993776Z"/>
<path id="font_2_8" d="M.44898988 .20022583C.44898988 .3193512 .36698915 .41944886 .25898744 .41944886 .21099854 .41944886 .16799927 .40345765 .13198853 .36842347V.5637665C.1519928 .5577698 .18499756 .55078127 .21699524 .55078127 .33999635 .55078127 .4099884 .6417694 .4099884 .6547699 .4099884 .6607666 .40699769 .6657715 .3999939 .6657715 .39898683 .6657715 .39698792 .6657715 .3919983 .66278079 .37199403 .6537781 .32299806 .6337738 .2559967 .6337738 .21598816 .6337738 .16999817 .6407776 .12298584 .6617737 .114990238 .66477969 .11299133 .66477969 .11099243 .66477969 .100997928 .66477969 .100997928 .6567688 .100997928 .6407776V.34439088C.100997928 .32637025 .100997928 .31835938 .114990238 .31835938 .12199402 .31835938 .12399292 .32136537 .12799073 .32736207 .13899231 .3433838 .17599488 .39746095 .25698854 .39746095 .30899049 .39746095 .33399964 .35139466 .34199525 .33337403 .35798646 .29632569 .3600006 .25727845 .3600006 .20722962 .3600006 .17222595 .3600006 .11222839 .33599855 .07035828 .31199647 .031463624 .2749939 .0055389406 .22898865 .0055389406 .1559906 .0055389406 .09899902 .058380128 .08198547 .11723328 .084991458 .1162262 .08799744 .115234378 .09899902 .115234378 .13198853 .115234378 .14898682 .14022827 .14898682 .16423035 .14898682 .18823242 .13198853 .21322632 .09899902 .21322632 .084991458 .21322632 .049987794 .20622254 .049987794 .16023255 .049987794 .07434082 .11898804-.022460938 .23098755-.022460938 .34700013-.022460938 .44898988 .073349 .44898988 .20022583Z"/>
<clipPath id="clip_4">
<path transform="matrix(.80002406,0,0,-.80003997,1.2157059,1.9190979)" d="M0 0H295.3121V-149.92768H0Z"/>
</clipPath>
<path id="font_2_1" d="M.33099366-.2400055C.33099366-.23701477 .33099366-.23500061 .31399537-.21800232 .18899536-.0920105 .15699768 .09700012 .15699768 .25 .15699768 .42399598 .19499207 .59799197 .31799317 .72299197 .33099366 .73498538 .33099366 .7369995 .33099366 .73999026 .33099366 .746994 .32699586 .75 .32099916 .75 .31098939 .75 .22099304 .6819916 .1619873 .5549927 .11099243 .44499208 .09899902 .33399964 .09899902 .25 .09899902 .17199707 .10998535 .050994874 .16499329-.06201172 .22499085-.18501282 .31098939-.25 .32099916-.25 .32699586-.25 .33099366-.24700928 .33099366-.2400055Z"/>
<path id="font_3_5" d="M.48599244 .38136292C.48999024 .39537049 .48999024 .39736939 .48999024 .40437318 .48999024 .42237855 .47599793 .43138124 .46099855 .43138124 .45098878 .43138124 .43499757 .42536927 .42599488 .41036988 .42399598 .405365 .41600038 .37435914 .4119873 .35635377 .40499879 .33035279 .397995 .30334474 .3919983 .27633668L.34700013 .09628296C.34298707 .08126831 .2999878 .011245728 .23399353 .011245728 .18299866 .011245728 .17199707 .055267335 .17199707 .0922699 .17199707 .1382904 .18899536 .20030213 .22299195 .28833009 .23899842 .3293457 .24299622 .3403473 .24299622 .36035157 .24299622 .405365 .21099854 .4423828 .16099549 .4423828 .06599426 .4423828 .0289917 .29733277 .0289917 .28833009 .0289917 .27833558 .038986207 .27833558 .040985109 .27833558 .050994874 .27833558 .051986696 .28033448 .056991579 .29634095 .083999637 .3903656 .12399292 .42037965 .1579895 .42037965 .1659851 .42037965 .18299866 .42037965 .18299866 .3883667 .18299866 .36335755 .17298889 .3373413 .1659851 .31834413 .12599182 .21231079 .10798645 .1552887 .10798645 .10827637 .10798645 .019256592 .17098999-.0107421879 .22999573-.0107421879 .2689972-.0107421879 .30299378 .0062561037 .33099366 .03425598 .31799317-.017745972 .30599977-.06674194 .2659912-.11973572 .23999024-.15385437 .20199585-.18309021 .1559906-.18309021 .14199829-.18309021 .09700012-.18005371 .07998657-.14074707 .09599304-.14074707 .10899353-.14074707 .12298584-.1287384 .1329956-.11973572 .14299011-.10673523 .14299011-.08773804 .14299011-.056747438 .115997318-.052734376 .10598755-.052734376 .08299255-.052734376 .049987794-.068740848 .049987794-.11773682 .049987794-.16796875 .09399414-.20507813 .1559906-.20507813 .25898744-.20507813 .3619995-.11373901 .3899994-.00074768069L.48599244 .38136292Z"/>
<path id="font_5_1" d="M.2899933 .4720459C.2979889 .4890442 .29899598 .49705506 .29899598 .5040436 .29899598 .53504946 .2709961 .5590515 .23999024 .5590515 .20199585 .5590515 .18998719 .52804568 .18499756 .51205447L.052993776 .07901001C.051986696 .07701111 .04798889 .06401062 .04798889 .06300354 .04798889 .05101013 .07899475 .041015626 .08699036 .041015626 .09399414 .041015626 .09498596 .043014528 .101989749 .058013917L.2899933 .4720459Z"/>
<path id="font_2_2" d="M.2889862 .25C.2889862 .32798768 .27799989 .44898988 .22299195 .56199648 .16299439 .68499758 .07699585 .75 .066986087 .75 .06098938 .75 .056991579 .74598696 .056991579 .73999026 .056991579 .7369995 .056991579 .73498538 .07598877 .71699526 .17399597 .6179962 .23098755 .45899964 .23098755 .25 .23098755 .07899475 .19400025-.09700012 .069992069-.2230072 .056991579-.23500061 .056991579-.23701477 .056991579-.2400055 .056991579-.2460022 .06098938-.25 .066986087-.25 .07699585-.25 .16699219-.18200684 .22599793-.055007936 .2769928 .054992677 .2889862 .16600037 .2889862 .25Z"/>
<path id="font_3_2" d="M.20298767 .0009918213C.20298767 .066986087 .17799378 .10598755 .13899231 .10598755 .10598755 .10598755 .085998538 .08099365 .085998538 .052993776 .085998538 .025985718 .10598755 0 .13899231 0 .15098572 0 .1639862 .0039978029 .17399597 .0129852299 .1769867 .01499939 .17799378 .015991211 .1789856 .015991211 .17999268 .015991211 .18099976 .01499939 .18099976 .0009918213 .18099976-.07316589 .1459961-.13328552 .11299133-.16635132 .101989749-.17736817 .101989749-.17936707 .101989749-.18237305 .101989749-.18936157 .10699463-.19335938 .11199951-.19335938 .12298584-.19335938 .20298767-.116256717 .20298767 .0009918213Z"/>
<path id="font_2_10" d="M.68699648 .32714845C.70199587 .32714845 .72099307 .32714845 .72099307 .34713746 .72099307 .36714173 .70199587 .36714173 .6879883 .36714173H.08898926C.07499695 .36714173 .055999757 .36714173 .055999757 .34713746 .055999757 .32714845 .07499695 .32714845 .08999634 .32714845H.68699648M.6879883 .13284302C.70199587 .13284302 .72099307 .13284302 .72099307 .15284729 .72099307 .17285156 .70199587 .17285156 .68699648 .17285156H.08999634C.07499695 .17285156 .055999757 .17285156 .055999757 .15284729 .055999757 .13284302 .07499695 .13284302 .08898926 .13284302H.6879883Z"/>
<path id="font_3_3" d="M.43899537 .71199038C.44400025 .72499087 .44400025 .72898867 .44400025 .7299957 .44400025 .7409973 .43499757 .75 .42399598 .75 .4169922 .75 .4099884 .746994 .40699769 .7409973L.05999756-.21200562C.054992677-.2250061 .054992677-.2290039 .054992677-.23001099 .054992677-.24101258 .06399536-.25 .07499695-.25 .08799744-.25 .09098816-.24301148 .09700012-.22601319L.43899537 .71199038Z"/>
<path id="font_2_6" d="M.2899933 .35191346C.37199403 .37893678 .42999269 .4490509 .42999269 .52809146 .42999269 .6100464 .34199525 .6660156 .24598694 .6660156 .14498902 .6660156 .068984989 .60606387 .068984989 .53009036 .068984989 .49710084 .09098816 .47808839 .11999512 .47808839 .15098572 .47808839 .17098999 .50009158 .17098999 .5290985 .17098999 .57910159 .12399292 .57910159 .10899353 .57910159 .13999939 .62802127 .20599365 .64100649 .24198914 .64100649 .2829895 .64100649 .33799745 .6190338 .33799745 .5290985 .33799745 .51708987 .33599855 .45906068 .30999757 .4149933 .27999879 .36691285 .24598694 .36390687 .22099304 .36291505 .21299744 .36190797 .18899536 .35990907 .18199158 .35990907 .17399597 .35890199 .16699219 .35791017 .16699219 .3479004 .16699219 .33691407 .17399597 .33691407 .19099427 .33691407H.23498535C.31698609 .33691407 .35398866 .2686615 .35398866 .17037964 .35398866 .034469606 .2849884 .0055389406 .24099732 .0055389406 .19799805 .0055389406 .12298584 .022491456 .08799744 .08137512 .12298584 .07637024 .1539917 .09837341 .1539917 .1363678 .1539917 .17237854 .1269989 .19238281 .09799194 .19238281 .07398987 .19238281 .041992189 .17837525 .041992189 .1343689 .041992189 .043441774 .1349945-.022460938 .24398804-.022460938 .3659973-.022460938 .45700074 .06838989 .45700074 .17037964 .45700074 .252594 .3939972 .33088685 .2899933 .35191346Z"/>
<path id="font_3_4" d="M.20599365 .3996582H.2999878C.31999208 .3996582 .32998658 .3996582 .32998658 .41966249 .32998658 .43066407 .31999208 .43066407 .3019867 .43066407H.21398926C.25 .5724945 .25498963 .59246829 .25498963 .59846499 .25498963 .61546328 .24299622 .62545779 .22599793 .62545779 .22299195 .62545779 .19499207 .62446597 .18598938 .58947756L.14698792 .43066407H.052993776C.032989503 .43066407 .022994996 .43066407 .022994996 .4116516 .022994996 .3996582 .0309906 .3996582 .050994874 .3996582H.13899231C.066986087 .11608887 .06298828 .099121097 .06298828 .08114624 .06298828 .02722168 .100997928-.0107421879 .15499878-.0107421879 .25698854-.0107421879 .31399537 .13505554 .31399537 .14305115 .31399537 .1530304 .30599977 .1530304 .3019867 .1530304 .29299928 .1530304 .2919922 .15003968 .2869873 .13905335 .24398804 .035217287 .19099427 .011245728 .15699768 .011245728 .13598633 .011245728 .12599182 .024230957 .12599182 .057174684 .12599182 .08114624 .12799073 .088134769 .13198853 .10510254L.20599365 .3996582Z"/>
</defs>
<path transform="matrix(.80002406,0,0,-.80003997,1.2157059,1.9190979)" stroke-width=".19925" stroke-linecap="butt" stroke-miterlimit="10" stroke-linejoin="miter" fill="none" stroke="#7f807f" d="M34.07446-70.71149V-79.21614M79.5071-70.71149V-79.21614M124.93973-70.71149V-79.21614M170.37236-70.71149V-79.21614M215.805-70.71149V-79.21614M261.23765-70.71149V-79.21614"/>
<path transform="matrix(.80002406,0,0,-.80003997,1.2157059,1.9190979)" stroke-width=".19925" stroke-linecap="butt" stroke-miterlimit="10" stroke-linejoin="miter" fill="none" stroke="#7f807f" d="M11.35815-68.58598V-81.34164M56.79079-68.58598V-81.34164M102.22342-68.58598V-81.34164M193.08869-68.58598V-81.34164M238.52132-68.58598V-81.34164M283.95396-68.58598V-81.34164"/>
<path transform="matrix(.80002406,0,0,-.80003997,1.2157059,1.9190979)" stroke-width=".19925" stroke-linecap="butt" stroke-miterlimit="10" stroke-linejoin="miter" fill="none" stroke="#7f807f" d="M146.2386-23.85213H149.07349M146.2386-57.9266H149.07349M146.2386-92.00107H149.07349M146.2386-126.07555H149.07349"/>
<path transform="matrix(.80002406,0,0,-.80003997,1.2157059,1.9190979)" stroke-width=".19925" stroke-linecap="butt" stroke-miterlimit="10" stroke-linejoin="miter" fill="none" stroke="#7f807f" d="M145.53009-6.81488H149.78199M145.53009-40.88936H149.78199M145.53009-109.03831H149.78199M145.53009-143.11278H149.78199"/>
<path transform="matrix(.80002406,0,0,-.80003997,1.2157059,1.9190979)" stroke-width=".79701" stroke-linecap="butt" stroke-miterlimit="10" stroke-linejoin="miter" fill="none" stroke="#000000" d="M0-74.96384H292.72184"/>
<path transform="matrix(.80002406,0,0,-.80003997,235.4002,61.89316)" d="M2.59026 0-1.55415 2.0722 0 0-1.55415-2.0722"/>
<path transform="matrix(.80002406,0,0,-.80003997,1.2157059,1.9190979)" stroke-width=".79701" stroke-linecap="butt" stroke-miterlimit="10" stroke-linejoin="miter" fill="none" stroke="#000000" d="M147.65605 0V-147.33742"/>
<path transform="matrix(0,.80003997,.80002406,0,119.34409,119.794918)" d="M2.59026 0-1.55415 2.0722 0 0-1.55415-2.0722"/>
<use data-text="&#x2212;" xlink:href="#font_1_1" transform="matrix(7.9703195,0,0,-7.9704778,5.210224,75.10755)"/>
<use data-text="6" xlink:href="#font_2_9" transform="matrix(7.9703195,0,0,-7.9704778,11.409611,75.10755)"/>
<use data-text="&#x2212;" xlink:href="#font_1_1" transform="matrix(7.9703195,0,0,-7.9704778,41.557718,75.10755)"/>
<use data-text="4" xlink:href="#font_2_7" transform="matrix(7.9703195,0,0,-7.9704778,47.757104,75.10755)"/>
<use data-text="&#x2212;" xlink:href="#font_1_1" transform="matrix(7.9703195,0,0,-7.9704778,77.90441,75.10755)"/>
<use data-text="2" xlink:href="#font_2_5" transform="matrix(7.9703195,0,0,-7.9704778,84.1038,75.10755)"/>
<use data-text="2" xlink:href="#font_2_5" transform="matrix(7.9703195,0,0,-7.9704778,153.6987,75.10755)"/>
<use data-text="4" xlink:href="#font_2_7" transform="matrix(7.9703195,0,0,-7.9704778,190.04618,75.10755)"/>
<use data-text="6" xlink:href="#font_2_9" transform="matrix(7.9703195,0,0,-7.9704778,226.39289,75.10755)"/>
<use data-text="&#x2212;" xlink:href="#font_1_1" transform="matrix(7.9703195,0,0,-7.9704778,104.483608,9.607483)"/>
<use data-text="1" xlink:href="#font_2_4" transform="matrix(7.9703195,0,0,-7.9704778,110.68299,9.607483)"/>
<use data-text="&#x2212;" xlink:href="#font_1_1" transform="matrix(7.9703195,0,0,-7.9704778,98.284229,36.868043)"/>
<use data-text="0" xlink:href="#font_2_3" transform="matrix(7.9703195,0,0,-7.9704778,104.48361,36.868043)"/>
<use data-text="." xlink:href="#font_3_1" transform="matrix(7.9703195,0,0,-7.9704778,108.46853,36.868043)"/>
<use data-text="5" xlink:href="#font_2_8" transform="matrix(7.9703195,0,0,-7.9704778,110.6822,36.868043)"/>
<use data-text="0" xlink:href="#font_2_3" transform="matrix(7.9703195,0,0,-7.9704778,104.483608,91.722789)"/>
<use data-text="." xlink:href="#font_3_1" transform="matrix(7.9703195,0,0,-7.9704778,108.46852,91.722789)"/>
<use data-text="5" xlink:href="#font_2_8" transform="matrix(7.9703195,0,0,-7.9704778,110.68299,91.722789)"/>
<use data-text="1" xlink:href="#font_2_4" transform="matrix(7.9703195,0,0,-7.9704778,110.683,118.983348)"/>
<g clip-path="url(#clip_4)">
<path transform="matrix(.80002406,0,0,-.80003997,1.2157059,1.9190979)" stroke-width=".79701" stroke-linecap="butt" stroke-miterlimit="10" stroke-linejoin="miter" fill="none" stroke="#0000ff" d="M177.9421-29.53253C177.9421-29.53253 188.86733-30.72891 192.9253-31.32097 196.98326-31.91302 203.36182-33.02133 207.18915-33.79974 211.0165-34.57814 216.97357-35.97874 220.51018-36.93127 224.04679-37.88379 229.48952-39.5536 232.67855-40.66507 235.86757-41.77654 240.70362-43.68903 243.49448-44.94214 246.28533-46.19525 250.44391-48.32208 252.79308-49.69682 255.14226-51.07156 258.5555-53.37595 260.42579-54.85052 262.29606-56.3251 264.91099-58.77364 266.2727-60.32455 267.6344-61.87547 269.40968-64.4259 270.24015-66.02853 271.07063-67.63118 271.97163-70.24626 272.2582-71.87535 272.54484-73.50444 272.56666-76.14029 272.3057-77.76993 272.04475-79.39957 271.182-82.01625 270.37754-83.6209 269.57304-85.22554 267.84324-87.78116 266.50749-89.33517 265.17176-90.8892 262.59718-93.3428 260.75047-94.8214 258.90376-96.29997 255.52523-98.6122 253.1977-99.99196 250.87017-101.37172 246.74599-103.50645 243.97525-104.76585 241.20452-106.02527 236.39867-107.95001 233.22801-109.06914 230.05738-110.18826 224.64402-111.8714 221.12335-112.832 217.60269-113.79259 211.66855-115.20573 207.85352-115.99258 204.03847-116.77942 197.67589-117.90215 193.6271-118.50314 189.57833-119.10413 182.88986-119.9187 178.67266-120.32442 174.45546-120.73012 167.55185-121.22343 163.23242-121.42726 158.913-121.63107 151.8949-121.79492 147.54116-121.79347 143.18741-121.792 136.17238-121.62335 131.85364-121.41649 127.5349-121.20963 120.6303-120.71092 116.41464-120.30238 112.199-119.89384 105.51552-119.07545 101.47018-118.47176 97.42487-117.86807 91.06964-116.74092 87.25876-115.95135 83.44786-115.16177 77.52008-113.74411 74.00392-112.78091 70.48776-111.81772 65.082-110.13048 61.91672-109.00922 58.75145-107.88794 53.9554-105.96046 51.1907-104.69936 48.42601-103.43826 44.31151-101.30118 41.99074-99.91982 39.66998-98.53845 36.30327-96.22327 34.4642-94.74318 32.62512-93.26308 30.06401-90.8073 28.73592-89.25232 27.4078-87.69733 25.68896-85.14084 24.8921-83.5357 24.09525-81.93056 23.2456-79.31314 22.99265-77.68327 22.73969-76.0534 22.77412-73.41753 23.06885-71.78871 23.36356-70.1599 24.27843-67.5458 25.11688-65.94376 25.95534-64.3417 27.74248-61.79207 29.11182-60.24214 30.48114-58.69223 33.10866-56.24602 34.98619-54.77281 36.86372-53.2996 40.28828-50.99747 42.64389-49.62427 44.99948-48.25107 49.16647-46.12675 51.96373-44.87564 54.76099-43.62453 59.60971-41.71634 62.80463-40.60701 65.99953-39.4977 71.44954-37.83038 74.99046-36.88023 78.5314-35.93008 84.49425-34.53464 88.32524-33.75897 92.15622-32.98329 98.54086-31.8789 102.6016-31.28958 106.66234-30.70027 113.36623-29.90454 117.59227-29.51146 121.81831-29.11838 128.7362-28.647 133.05998-28.45636 137.38375-28.26573 144.4016-28.12303 148.75499-28.13744 153.10837-28.15186 160.12168-28.34106 164.43625-28.5603 168.75083-28.77953 175.64455-29.2966 179.85153-29.7175 184.0585-30.1384 190.7248-30.97806 194.75728-31.59401 198.78978-32.20996 205.1211-33.35617 208.91501-34.15706 212.70893-34.95795 218.60564-36.39302 222.10117-37.36635 225.5967-38.33968 230.96636-40.042 234.10843-41.17226 237.25049-42.3025 242.00884-44.24309 244.74701-45.51253 247.48519-46.78197 251.55272-48.93301 253.84334-50.32153 256.13398-51.71005 259.44853-54.03487 261.25624-55.5202 263.06398-57.00554 265.57557-59.46817 266.87214-61.02702 268.16874-62.58588 269.83766-65.14784 270.60108-66.75536 271.36448-68.36288 272.15623-70.98248 272.37437-72.6129 272.5925-74.2433 272.50285-76.8787 272.1733-78.50655 271.84379-80.13441 270.8712-82.74567 269.99916-84.34538 269.12709-85.94511 267.28913-88.49033 265.88807-90.03624 264.487-91.58214 261.80986-94.01978 259.9013-95.48734 257.99275-96.95488 254.51802-99.2474 252.13245-100.61339 249.74689-101.97939 245.5313-104.0898 242.70772-105.3325 239.88413-106.57523 234.999-108.4702 231.7819-109.5702 228.56482-110.67023 223.08199-112.32121 219.52112-113.26097 215.96025-114.20071 209.9653-115.57903 206.11768-116.34334 202.27005-117.10764 195.86334-118.19266 191.79013-118.7696 187.7169-119.34657 180.99492-120.12128 176.76074-120.5019 172.52657-120.88254 165.60062-121.33463 161.27304-121.51295 156.94547-121.69127 149.9234-121.81464 145.57054-121.78735 141.21767-121.76009 134.20989-121.54866 129.9005-121.31625 125.59113-121.08385 118.70891-120.54568 114.51146-120.11226 110.31401-119.67882 103.66766-118.81973 99.64816-118.1922 95.62868-117.56467 89.31926-116.40115 85.54164-115.58937 81.76404-114.77759 75.8966-113.3249 72.42169-112.34119 68.94678-111.35747 63.61446-109.63913 60.49681-108.4992 57.37918-107.35928 52.66338-105.40283 49.95189-104.12523 47.2404-102.84763 43.21628-100.68594 40.95425-99.29091 38.69223-97.89587 35.42542-95.56139 33.64873-94.07071 31.87202-92.58005 29.41193-90.10948 28.14897-88.54701 26.88603-86.98456 25.27528-84.41904 24.54617-82.80934 23.81705-81.19963 23.07835-78.57637 22.894-76.94524 22.70966-75.31409 22.85445-72.6797 23.21744-71.053 23.58043-69.42627 24.60442-66.81775 25.51025-65.22072 26.41609-63.62369 28.31154-61.08412 29.7462-59.54251 31.18088-58.00089 33.91115-55.5716 35.85037-54.1097 37.7896-52.6478 41.30974-50.36517 43.72285-49.00607 46.13597-47.64697 50.39293-45.5486 53.24251-44.31413 56.09209-43.07968 61.01973-41.19902 64.26073-40.10872 67.50174-39.01842 73.02118-37.3849 76.60144-36.45596 80.1817-35.52702 86.20195-34.1665 90.06482-33.41336 93.92767-32.66023 100.35716-31.59296 104.44232-31.0278 108.5275-30.46266 115.2658-29.70802 119.50795-29.34003 123.7501-28.97203 130.686-28.54047 135.01686-28.37532 139.34774-28.21017 146.37004-28.10948 150.72187-28.14961 155.07369-28.18974 162.07685-28.42001 166.3819-28.66473 170.68694-28.90945 177.56075-29.46803 181.74971-29.9137 185.93868-30.35936 192.56725-31.23718 196.57305-31.87685 200.57886-32.51653 206.86128-33.70078 210.62088-34.52419 214.38048-35.3476 220.21555-36.81784 223.66967-37.81169 227.12378-38.80554 232.42108-40.53865 235.51584-41.68742 238.6106-42.83618 243.28978-44.80595 245.97458-46.09135 248.6594-47.37675 252.63439-49.55011 254.8661-50.9519 257.0978-52.35368 260.3144-54.69856 262.05924-56.19458 263.80406-57.69058 266.21104-60.16791 267.4416-61.73415 268.67216-63.30038 270.2319-65.87129 270.92826-67.4831 271.6246-69.0949 272.31086-71.71953 272.46055-73.35098 272.61024-74.98244 272.40556-77.61613 272.00724-79.2418 271.6089-80.86748 270.52867-83.47359 269.58955-85.06796 268.65043-86.66235 266.7049-89.19562 265.2387-90.7331 263.7725-92.27055 260.99186-94.69287 259.02214-96.14902 257.0524-97.60518 253.4843-99.87668 251.04224-101.22829 248.60018-102.57991 244.29718-104.66484 241.42145-105.89073 238.5457-107.11661 233.57915-108.98299 230.3158-110.06381 227.05246-111.14462 221.50109-112.76186 217.90143-113.68054 214.30176-114.59923 208.25099-115.94365 204.37184-116.6852 200.49269-117.42674 194.03975-118.47272 189.94313-119.02533 185.84651-119.57793 179.09574-120.31273 174.84632-120.66814 170.59688-121.02354 163.65048-121.43437 159.31615-121.58696 154.98183-121.73956 147.95856-121.82088 143.6074-121.7682 139.25627-121.71553 132.25597-121.46483 127.95613-121.20715 123.65628-120.9495 116.79611-120.36925 112.61702-119.9109 108.43794-119.45256 101.82863-118.55513 97.83615-117.90373 93.84367-117.25235 87.58463-116.05035 83.84201-115.21614 80.09938-114.38191 74.29524-112.89507 70.86192-111.89114 67.42859-110.88722 62.16673-109.13846 59.09692-107.98035 56.02711-106.82222 51.39423-104.8376 48.7368-103.54407 46.07938-102.25055 42.14691-100.06543 39.94397-98.65726 37.74101-97.24908 34.57346-94.89577 32.85948-93.39493 31.14551-91.89409 28.7877-89.40979 27.59076-87.83989 26.39381-86.27 24.89394-83.69405 24.23274-82.08018 23.57155-80.46632 22.94104-77.84012 22.8253-76.2081 22.70958-74.5761 22.9669-71.94212 23.39851-70.31773 23.83012-68.69334 24.96373-66.09198 25.9361-64.50047 26.90848-62.90895 28.90788-60.3803 30.40683-58.84706 31.90576-57.31384 34.73897-54.90001 36.73953-53.44983 38.7401-51.99965 42.35507-49.73943 44.82555-48.39496 47.29602-47.05049 51.64397-44.97739 54.54501-43.75966 57.44604-42.54193 62.44826-40.68947 65.7343-39.61841 69.02036-38.54736 74.6092-36.94751 78.22862-36.04008 81.84805-35.13266 87.9264-33.80804 91.82065-33.07806 95.71487-32.3481 102.18787-31.3196 106.29556-30.77866 110.40326-30.23773 117.16939-29.5224 121.4261-29.1794 125.6828-28.8364 132.6372-28.4461 136.975-28.3065 141.31279-28.1669 148.34023-28.10707 152.68999-28.17302 157.03975-28.23895 164.03107-28.51141 168.32505-28.7818 172.619-29.0522 179.46802-29.65182 183.63791-30.12212 187.80782-30.5924 194.40023-31.50832 198.37883-32.17142 202.35746-32.83453 208.58824-34.05605 212.31302-34.90163 216.03778-35.74721 221.81223-37.2517 225.22441-38.26598 228.63661-39.28024 233.86038-41.04506 236.90576-42.21188 239.95116-43.37872 244.54306-45.37485 247.17346-46.6758 249.80387-47.97675 253.69112-50.1735 255.86389-51.58833 258.03669-53.00316 261.15174-55.367 262.83348-56.87315 264.51524-58.37929 266.82048-60.87024 267.98484-62.44363 269.1492-64.01704 270.59739-66.59752 271.22547-68.2132 271.85356-69.82889 272.42997-72.45633 272.51173-74.08856 272.5935-75.72081 272.28153-78.35432 271.8149-79.97748 271.34828-81.60065 270.1552-84.19885 269.1487-85.78731 268.1422-87.37576 266.0911-89.89772 264.5606-91.42616 263.0301-92.9546 260.14836-95.3589 258.11799-96.80324 256.08763-98.24759 252.42578-100.49887 249.92707-101.83614 247.42835-103.17339 243.03617-105.23268 240.10897-106.44147 237.18177-107.65025 232.13797-109.48712 228.82973-110.54851 225.5215-111.6099 219.90345-113.1942 216.26549-114.09126 212.62752-114.98833 206.51943-116.29526 202.60979-117.01396 198.70014-117.73267 192.20655-118.7427 188.08742-119.2712 183.96828-119.79967 177.18572-120.4931 172.92189-120.82315 168.65807-121.15321 161.69734-121.52325 157.35677-121.65018 153.01619-121.7771 145.98642-121.81654 141.63805-121.73819 137.28968-121.65985 130.30496-121.36833 126.01672-121.08539 121.72847-120.80246 114.89099-120.18176 110.73132-119.69875 106.57166-119.21573 100.001-118.27904 96.0366-117.60402 92.0722-116.929 85.86555-115.6899 82.15863-114.8335 78.4517-113.97711 72.71086-112.45598 69.31963-111.43176 65.9284-110.40753 60.73793-108.62744 57.71698-107.45158 54.69603-106.27573 50.1485-104.26561 47.54669-102.9568 44.94489-101.64801 41.1079-99.43977 38.9649-98.01851 36.8219-96.59724 33.75253-94.22395 32.10146-92.71307 30.4504-91.2022 28.19646-88.70567 27.06502-87.129 25.93358-85.5523 24.54019-82.96672 23.94676-81.34917 23.35332-79.73161 22.8348-77.10289 22.78784-75.47052 22.7409-73.83815 23.10828-71.20563 23.60834-69.5839 24.10838-67.96214 25.35228-65.36761 26.3919-63.78209 27.43152-62.19655 29.5381-59.68024 31.10117-58.15631 32.66425-56.6324 35.59637-54.23666 37.65741-52.79845 39.71844-51.36021 43.42892-49.12022 45.9557-47.79036 48.4825-46.4605 52.91676-44.4137 55.86874-43.21362 58.82072-42.01355 63.9014-40.19237 67.23164-39.14073 70.56187-38.08911 76.21414-36.52031 79.8708-35.63405 83.52748-34.74779 89.66191-33.45988 93.58646-32.75308 97.511-32.04628 104.02605-31.05635 108.15628-30.53983 112.2865-30.02328 119.08353-29.34796 123.35426-29.03004 127.625-28.71213 134.59389-28.36232 138.93688-28.24844 143.27988-28.13457 150.30863-28.11728 154.65561-28.20909 159.00258-28.30089 165.98476-28.61447 170.26694-28.91014 174.54912-29.20581 181.36934-29.84543 185.51862-30.34035 189.6679-30.83527 196.22191-31.79085 200.1721-32.4772 204.1223-33.16357 210.30052-34.42026 213.9889-35.28754 217.67729-36.15483 223.38625-37.69371 226.75545-38.7282 230.12467-39.76266 235.27579-41.55853 238.27196-42.74342 241.26813-43.92831 245.77452-45.95184 248.34984-47.26817 250.92514-48.5845 254.71945-50.80331 256.83299-52.23083 258.9465-53.65834 261.96446-56.04092 263.5828-57.55687 265.2011-59.07281 267.39918-61.57704 268.49684-63.15688 269.5945-64.73671 270.93397-67.32411 271.49394-68.94325 272.05397-70.56241 272.51945-73.19382 272.53297-74.82661 272.54649-76.4594 272.1259-79.09122 271.59138-80.71132 271.05683-82.33144 269.75434-84.92111 268.6804-86.50333 267.60649-88.08553 265.44606-90.5956 263.85127-92.11504 262.2565-93.63449 259.2772-96.02255 257.1864-97.45468 255.09555-98.8868 251.33623-101.11473 248.7819-102.43698 246.22757-103.75925 241.75394-105.7934 238.77648-106.98473 235.79903-108.17604 230.67519-109.98177 227.32244-111.02336 223.96967-112.06494 218.28711-113.6166 214.61206-114.4921 210.93703-115.3676 204.77469-116.63786 200.83524-117.33334 196.89577-118.02884 190.35999-119.00061 186.2192-119.50487 182.0784-120.00914 175.26857-120.66309 170.99126-120.96786 166.71393-121.27264 159.73639-121.60065 155.39115-121.70166 151.04592-121.80269 144.0184-121.80026 139.67368-121.69606 135.32895-121.59184 128.35326-121.25856 124.07732-120.95053 119.80139-120.64252 112.99379-119.98328 108.85559-119.47581 104.7174-118.96837 98.1877-117.99149 94.25206-117.29303 90.31642-116.59457 84.1611-115.31956 80.49022-114.44151 76.81935-113.56346 71.14207-112.00839 67.79486-110.96439 64.44765-109.92038 59.33664-108.11055 56.36577-106.91681 53.39488-105.72308 48.92987-103.685 46.38281-102.36064 43.83575-101.0363 40.0917-98.80539 38.00832-97.37177 35.92493-95.93814 32.95432-93.54834 31.36716-92.02794 29.78001-90.50752 27.63416-87.99669 26.56923-86.41344 25.50432-84.83018 24.2175-82.23744 23.69199-80.61674 23.16647-78.99603 22.75978-76.36499 22.78162-74.73248 22.80345-73.09996 23.28104-70.4691 23.84935-68.85054 24.41765-67.232 25.77191-64.64609 26.8777-63.06699 27.98349-61.48787 30.19275-58.98398 31.81923-57.46931 33.4457-55.95465 36.47823-53.57616 38.60025-52.15028 40.72227-50.72441 44.53094-48.50697 47.11336-47.19234 49.69576-45.8777 54.21075-43.85753 57.21246-42.67506 60.21419-41.49258 65.37346-39.70142 68.7477-38.66963 72.12195-37.63785 77.8385-36.10292 81.53172-35.23833 85.22496-34.37373 91.41202-33.12144 95.36601-32.4379 99.32002-31.75435 105.87778-30.80379 110.02948-30.3118 114.18118-29.8198 121.00475-29.18437 125.28867-28.89186 129.57259-28.59933 136.55783-28.29169 140.90499-28.20348 145.25215-28.11528 152.27767-28.13858 156.61997-28.25592 160.96228-28.37328 167.93198-28.72823 172.20133-29.04924 176.47069-29.37025 183.26329-30.05038 187.39057-30.5698 191.51786-31.08919 198.02684-32.08318 201.94792-32.79285 205.869-33.50252 211.99872-34.7956 215.65106-35.68463 219.30339-36.57367 224.94716-38.14653 228.27152-39.20071 231.59587-40.2549 236.6651-42.08 239.61069-43.28244 242.55628-44.4849 246.98104-46.53546 249.50124-47.86716 252.02143-49.19885 255.72116-51.44075 257.77458-52.88039 259.828-54.32004 262.74626-56.7184 264.30085-58.24342 265.8554-59.76843 267.9479-62.2858 268.97889-63.87196 270.00984-65.45815 271.2397-68.05344 271.73124-69.67569 272.22279-71.29794 272.57685-73.93155 272.52174-75.5642 272.46665-77.19684 271.9364-79.82579 271.3341-81.44284 270.73185-83.05989 269.32084-85.64319 268.18089-87.21893 267.04096-88.79466 264.77708-91.29016 263.11824-92.79973 261.45936-94.30928 258.3756-96.67938 256.22483-98.09904 254.07402-99.5187 250.2257-101.72462 247.61678-103.03174 245.00786-104.33885 240.44889-106.34637 237.42151-107.51996 234.39415-108.69353 229.19422-110.46878 225.79763-111.49026 222.40103-112.51175 216.65259-114.0287 212.94116-114.8822 209.22974-115.73572 203.01605-116.96982 199.04819-117.64192 195.08032-118.31401 188.50524-119.24657 184.34349-119.72638 180.18173-120.2062 173.3429-120.82083 169.05309-121.1004 164.76329-121.37996 157.77443-121.66618 153.42554-121.74149 149.07665-121.81677 142.04918-121.77304 137.7093-121.64316 133.36943-121.51326 126.40907-121.13861 122.14665-120.80533 117.88423-120.47203 111.10518-119.77254 106.98865-119.24072 102.87212-118.70891 96.38318-117.69391 92.47752-116.97224 88.57185-116.25056 82.47223-114.939 78.8393-114.03928 75.20636-113.13956 69.59648-111.55128 66.2938-110.48763 62.9911-109.42395 57.95639-107.58417 55.03578-106.3731 52.11516-105.16203 47.73552-103.098 45.24391-101.75888 42.7523-100.41975 39.10052-98.16708 37.07796-96.72133 35.05537-95.27557 32.18909-92.86832 30.66658-91.33861 29.14407-89.80888 27.10341-87.28519 26.10468-85.69597 25.10596-84.10674 23.92587-81.50778 23.46844-79.88431 23.01102-78.26082 22.71706-75.62709 22.80785-73.99489 22.89862-72.3627 23.48624-69.73561 24.12283-68.12044 24.75941-66.50526 26.22362-63.92624 27.39595-62.35374 28.56828-60.78125 30.88254-58.29195 32.57225-56.787 34.26196-55.28204 37.39337-52.92012 39.57431-51.50684 41.75525-50.09355 45.65366-47.89977 48.29099-46.60086 50.92833-45.30197 55.53096-43.30948 58.58241-42.14494 61.63387-40.9804 66.8665-39.21909 70.28372-38.20741 73.70094-37.19574 79.4821-35.69608 83.21138-34.85341 86.94066-34.01076 93.17953-32.79408 97.16177-32.13394 101.14403-31.47379 107.74089-30.56267 111.9127-30.09544 116.0845-29.6282 122.93414-29.03355 127.22932-28.76639 131.52449-28.49924 138.5191-28.23248 142.86937-28.16972 147.21965-28.10698 154.24634-28.1711 158.5831-28.31398 162.91985-28.45686 169.87059-28.85336 174.12575-29.19955 178.3809-29.54575 185.14568-30.26518 189.2513-30.80913 193.3569-31.35307 199.82566-32.38722 203.71623-33.12021 207.60681-33.85318 213.67777-35.18182 217.29199-36.09207 220.90622-37.00232 226.48493-38.60706 229.76508-39.68071 233.04524-40.75436 238.0387-42.61044 240.93315-43.83035 243.8276-45.05026 248.16303-47.12675 250.6264-48.47313 253.08979-49.8195 256.69419-52.08261 258.68745-53.53415 260.68074-54.9857 263.5024-57.40099 264.99269-58.93509 266.48298-60.46918 268.4649-62.99847 269.42845-64.59085 270.39198-66.18323 271.514-68.78711 271.9373-70.41187 272.36058-72.03662 272.60316-74.66954 272.47926-76.30127 272.35539-77.93301 271.71424-80.55905 271.0444-82.17244 270.37455-83.78584 268.8575-86.36081 267.65138-87.92978 266.44526-89.49876 264.07377-91.98091 262.35148-93.48062 260.62916-94.98033 257.44847-97.33205 255.23825-98.73875 253.02803-100.14548 249.08533-102.32799 246.42166-103.61946 243.758-104.91093 239.11621-106.89137 236.04033-108.04684 232.96446-109.20232 227.69171-110.94614 224.25284-111.94733 220.81398-112.94852 215.00222-114.4314 211.25527-115.26292 207.5083-116.09447 201.24335-117.2922 197.2474-117.94072 193.25148-118.58925 186.63663-119.48198 182.45529-119.93712 178.27396-120.39227 171.4121-120.96677 167.11119-121.2212 162.81029-121.47565 155.80872-121.7214 151.45742-121.77098 147.1061-121.82056 140.0832-121.73431 135.74993-121.57852 131.41663-121.42274 124.47423-121.00645 120.22601-120.64798 115.97778-120.28952 109.22604-119.5507 105.13168-118.99486 101.03731-118.43901 94.5915-117.38625 90.71669-116.64165 86.84187-115.89703 80.79909-114.54938 77.20462-113.6281 73.61015-112.7068 68.06767-111.08466 64.81021-110.00151 61.55275-108.91837 56.59656-107.04944 53.72705-105.82146 50.85754-104.59346 46.56366-102.50476 44.12871-101.15103 41.69376-99.79732 38.13896-97.5224 36.17755-96.06474 34.21616-94.60709 31.45012-92.1835 29.99223-90.64502 28.53435-89.10655 26.60158-86.57127 25.6701-84.97621 24.73862-83.38113 23.66814-80.77463 23.27863-79.14859 22.88913-77.52255 22.70374-74.88817 22.8628-73.25685 23.02185-71.62553 23.72037-69.00195 24.42505-67.39084 25.12971-65.77971 26.70316-63.21005 27.94167-61.64471 29.18019-60.07938 31.59889-57.60376 33.3515-56.10889 35.10413-54.61401 38.33351-52.27065 40.57336-50.8704 42.8132-49.47017 46.8031-47.30014 49.49484-46.01688 52.18657-44.73363 56.87346-42.76782 59.97357-41.62138 63.0737-40.47495 68.37933-38.74542 71.83847-37.75409 75.29762-36.76276 81.14066-35.2968 84.90475-34.47644 88.66885-33.65608 94.95776-32.47775 98.96756-31.84128 102.97736-31.2048 109.61378-30.33136 113.80464-29.88889 117.99551-29.44643 124.86671-28.89372 129.17247-28.6521 133.47821-28.41048 140.48477-28.18433 144.83748-28.14725 149.19019-28.11017 156.21375-28.21625 160.54373-28.38472 164.87374-28.55318 171.80527-28.99026 176.04517-29.36159 180.28507-29.73293 187.01998-30.49298 191.10202-31.06105 195.18408-31.62912 201.60659-32.70009 205.4658-33.45596 209.32505-34.21184 215.3406-35.57718 218.9167-36.50887 222.4928-37.44055 228.00516-39.07813 231.23993-40.17102 234.4747-41.26392 239.38803-43.14919 242.23067-44.38579 245.07332-45.62239 249.32149-47.72314 251.72785-49.08383 254.13422-50.44453 257.6425-52.7297 259.5741-54.19302 261.5057-55.65634 264.22373-58.08795 265.64955-59.63052 267.07539-61.1731 268.9537-63.71344 269.85054-65.31111 270.74736-66.90878 271.7587-69.5184 272.11338-71.1457 272.46806-72.77303 272.59953-75.40886 272.40687-77.03983 272.21418-78.67078 271.4623-81.29156 270.7247-82.90068 269.9871-84.5098 268.36213-87.07568 267.09068-88.6374 265.81925-90.19914 263.3458-92.6676 261.56095-94.15686 259.7761-95.64613 256.4962-97.97774 254.2267-99.37099 251.95723-100.76425 247.92234-102.92328 245.20409-104.19875 242.48584-105.47421 237.75896-107.42638 234.63544-108.56383 231.5119-109.70128 226.17195-111.41583 222.69185-112.39691 219.21173-113.37799 213.33527-114.82565 209.55315-115.6348 205.77104-116.44394 199.4555-117.60406 195.43289-118.22873 191.41027-118.8534 184.76038-119.70668 180.56085-120.13707 176.36133-120.56744 169.47632-121.10176 165.16555-121.3308 160.85478-121.55983 153.84484-121.7641 149.49179-121.78786 145.13875-121.81161 138.11832-121.68356 133.79178-121.50218 129.46526-121.32082 122.54153-120.86392 118.30908-120.48033 114.07664-120.09674 107.35744-119.31729 103.28717-118.73732 99.2169-118.15735 92.81648-117.06746 88.97337-116.30023 85.13026-115.533 79.14413-114.15001 75.58865-113.20757 72.03317-112.2651 66.55957-110.60999 63.34785-109.50746 60.13612-108.40494 55.25797-106.50613 52.44078-105.26132 49.6236-104.01651 45.42143-101.9034 43.0435-100.53568 40.66556-99.16795 37.20273-96.87256 35.30215-95.4035 33.40157-93.93445 30.73807-91.49466 29.34534-89.94771 27.95262-88.40076 26.12764-85.85449 25.26424-84.25409 24.40083-82.65369 23.44377-80.04105 23.12254-78.41287 22.8013-76.7847 22.72198-74.14949 22.94896-72.51927 23.17593-70.88904 23.9862-68.26979 24.75847-66.6631 25.53073-65.0564 27.21085-62.49681 28.51488-60.93901 29.8189-59.3812 32.34164-56.91962 34.15698-55.43547 35.97232-53.95131 39.3002-51.62865 41.59863-50.24196 43.89705-48.85526 47.97713-46.70822 50.72241-45.44087 53.4677-44.17354 58.23643-42.2356 61.38474-41.10764 64.53304-39.97966 69.91266-38.28175 73.41322-37.31108 76.91377-36.3404 82.81612-34.90988 86.61436-34.11159 90.4126-33.31331 96.75237-32.17033 100.78831-31.55748 104.82428-30.94463 111.49393-30.11214 115.70282-29.69456 119.9117-29.277 126.80782-28.76389 131.1231-28.54767 135.43837-28.33145 142.4508-28.1472 146.80435-28.13603 151.15792-28.12485 158.17752-28.27325 162.5006-28.46713 166.82367-28.661 177.96208-29.53343 177.96208-29.53343"/>
<path transform="matrix(-.7975199,.062643129,.06264188,.79753586,142.51535,98.34028)" d="M2.59026 0-1.55415 2.0722 0 0-1.55415-2.0722" fill="#0000ff"/>
<path transform="matrix(-.07477025,.7964958,.79647997,.07477173,219.32874,61.425989)" d="M2.59026 0-1.55415 2.0722 0 0-1.55415-2.0722" fill="#0000ff"/>
<path transform="matrix(.79668799,.072427619,.07242618,-.79670378,141.57361,25.372567)" d="M2.59026 0-1.55415 2.0722 0 0-1.55415-2.0722" fill="#0000ff"/>
<path transform="matrix(.7605428,-.24818039,-.24817544,-.76055797,51.811548,34.26577)" d="M2.59026 0-1.55415 2.0722 0 0-1.55415-2.0722" fill="#0000ff"/>
<path transform="matrix(-.7546627,-.26545329,-.26544798,.7546777,52.597249,89.76589)" d="M2.59026 0-1.55415 2.0722 0 0-1.55415-2.0722" fill="#0000ff"/>
<path transform="matrix(-.797192,.06675533,.066754009,.79720786,142.39435,98.34414)" d="M2.59026 0-1.55415 2.0722 0 0-1.55415-2.0722" fill="#0000ff"/>
<path transform="matrix(-.11176335,.79217556,.7921598,.11176558,219.41269,61.55004)" d="M2.59026 0-1.55415 2.0722 0 0-1.55415-2.0722" fill="#0000ff"/>
<path transform="matrix(.7961999,.07753987,.07753833,-.7962158,141.68677,25.371062)" d="M2.59026 0-1.55415 2.0722 0 0-1.55415-2.0722" fill="#0000ff"/>
<path transform="matrix(.76070287,-.24768438,-.24767946,-.760718,51.924798,34.246019)" d="M2.59026 0-1.55415 2.0722 0 0-1.55415-2.0722" fill="#0000ff"/>
<path transform="matrix(.80002406,0,0,-.80003997,1.2157059,1.9190979)" stroke-width=".79701" stroke-linecap="butt" stroke-miterlimit="10" stroke-linejoin="miter" fill="none" stroke="#0000ff" d="M177.96132-29.53342"/>
<use data-text="(" xlink:href="#font_2_1" transform="matrix(7.9703195,0,0,-7.9704778,124.137,18.759938)" fill="#ff0000"/>
<use data-text="y" xlink:href="#font_3_5" transform="matrix(7.9703195,0,0,-7.9704778,127.23629,18.759938)" fill="#ff0000"/>
<use data-text="&#x2032;" xlink:href="#font_5_1" transform="matrix(5.579208,0,0,-5.5793187,131.43003,15.867794)" fill="#ff0000"/>
<use data-text="(" xlink:href="#font_2_1" transform="matrix(7.9703195,0,0,-7.9704778,133.66608,18.759938)" fill="#ff0000"/>
<use data-text="0" xlink:href="#font_2_3" transform="matrix(7.9703195,0,0,-7.9704778,136.75856,18.759938)" fill="#ff0000"/>
<use data-text=")" xlink:href="#font_2_2" transform="matrix(7.9703195,0,0,-7.9704778,140.74372,18.759938)" fill="#ff0000"/>
<use data-text="," xlink:href="#font_3_2" transform="matrix(7.9703195,0,0,-7.9704778,143.85037,18.759938)" fill="#ff0000"/>
<use data-text="y" xlink:href="#font_3_5" transform="matrix(7.9703195,0,0,-7.9704778,147.38124,18.759938)" fill="#ff0000"/>
<use data-text="(" xlink:href="#font_2_1" transform="matrix(7.9703195,0,0,-7.9704778,151.58661,18.759938)" fill="#ff0000"/>
<use data-text="0" xlink:href="#font_2_3" transform="matrix(7.9703195,0,0,-7.9704778,154.6791,18.759938)" fill="#ff0000"/>
<use data-text=")" xlink:href="#font_2_2" transform="matrix(7.9703195,0,0,-7.9704778,158.66425,18.759938)" fill="#ff0000"/>
<use data-text=")" xlink:href="#font_2_2" transform="matrix(7.9703195,0,0,-7.9704778,161.75675,18.759938)" fill="#ff0000"/>
<use data-text="=" xlink:href="#font_2_10" transform="matrix(7.9703195,0,0,-7.9704778,167.057,18.759938)" fill="#ff0000"/>
<use data-text="(" xlink:href="#font_2_1" transform="matrix(7.9703195,0,0,-7.9704778,175.4657,18.759938)" fill="#ff0000"/>
<use data-text="4" xlink:href="#font_2_7" transform="matrix(7.9703195,0,0,-7.9704778,178.5582,18.759938)" fill="#ff0000"/>
<use data-text="/" xlink:href="#font_3_3" transform="matrix(7.9703195,0,0,-7.9704778,182.58275,18.759938)" fill="#ff0000"/>
<use data-text="3" xlink:href="#font_2_6" transform="matrix(7.9703195,0,0,-7.9704778,186.56768,18.759938)" fill="#ff0000"/>
<use data-text="," xlink:href="#font_3_2" transform="matrix(7.9703195,0,0,-7.9704778,190.5526,18.759938)" fill="#ff0000"/>
<use data-text="&#x2212;" xlink:href="#font_1_1" transform="matrix(7.9703195,0,0,-7.9704778,194.0951,18.759938)" fill="#ff0000"/>
<use data-text="2" xlink:href="#font_2_5" transform="matrix(7.9703195,0,0,-7.9704778,200.29448,18.759938)" fill="#ff0000"/>
<use data-text="/" xlink:href="#font_3_3" transform="matrix(7.9703195,0,0,-7.9704778,204.27939,18.759938)" fill="#ff0000"/>
<use data-text="3" xlink:href="#font_2_6" transform="matrix(7.9703195,0,0,-7.9704778,208.2651,18.759938)" fill="#ff0000"/>
<use data-text=")" xlink:href="#font_2_2" transform="matrix(7.9703195,0,0,-7.9704778,212.25026,18.759938)" fill="#ff0000"/>
<use data-text="y" xlink:href="#font_3_5" transform="matrix(7.9703195,0,0,-7.9704778,122.31934,118.40731)"/>
<use data-text="(" xlink:href="#font_2_1" transform="matrix(7.9703195,0,0,-7.9704778,126.51306,118.40731)"/>
<use data-text="t" xlink:href="#font_3_4" transform="matrix(7.9703195,0,0,-7.9704778,129.61237,118.40731)"/>
<use data-text=")" xlink:href="#font_2_2" transform="matrix(7.9703195,0,0,-7.9704778,132.49085,118.40731)"/>
</g>
<path transform="matrix(.80002406,0,0,-.80003997,1.2157059,1.9190979)" d="M179.33916-29.53162C179.33916-27.22064 178.71469-25.34727 177.94438-25.34727 177.17406-25.34727 176.54959-27.22064 176.54959-29.53162 176.54959-31.84259 177.17406-33.71596 177.94438-33.71596 178.71469-33.71596 179.33916-31.84259 179.33916-29.53162ZM177.94438-29.53162" fill="#ff0000"/>
<path transform="matrix(.80002406,0,0,-.80003997,1.2157059,1.9190979)" stroke-width=".79701" stroke-linecap="butt" stroke-miterlimit="10" stroke-linejoin="miter" fill="none" stroke="#000000" d="M179.33916-29.53162C179.33916-27.22064 178.71469-25.34727 177.94438-25.34727 177.17406-25.34727 176.54959-27.22064 176.54959-29.53162 176.54959-31.84259 177.17406-33.71596 177.94438-33.71596 178.71469-33.71596 179.33916-31.84259 179.33916-29.53162ZM177.94438-29.53162"/>
<path transform="matrix(.80002406,0,0,-.80003997,1.2157059,1.9190979)" stroke-width=".79701" stroke-linecap="butt" stroke-miterlimit="10" stroke-linejoin="miter" fill="none" stroke="#000000" d=""/>
<path transform="matrix(.80002406,0,0,-.80003997,1.2157059,1.9190979)" stroke-width=".79701" stroke-linecap="butt" stroke-miterlimit="10" stroke-linejoin="miter" fill="none" stroke="#000000" d="M149.05083-120.39601C149.05083-118.08504 148.42636-116.21167 147.65605-116.21167 146.88573-116.21167 146.26126-118.08504 146.26126-120.39601 146.26126-122.70699 146.88573-124.58035 147.65605-124.58035 148.42636-124.58035 149.05083-122.70699 149.05083-120.39601ZM147.65605-120.39601"/>
<path transform="matrix(.80002406,0,0,-.80003997,1.2157059,1.9190979)" stroke-width=".79701" stroke-linecap="butt" stroke-miterlimit="10" stroke-linejoin="miter" fill="none" stroke="#000000" d="M149.05083-29.53162C149.05083-27.22064 148.42636-25.34727 147.65605-25.34727 146.88573-25.34727 146.26126-27.22064 146.26126-29.53162 146.26126-31.84259 146.88573-33.71596 147.65605-33.71596 148.42636-33.71596 149.05083-31.84259 149.05083-29.53162ZM147.65605-29.53162"/>
<path transform="matrix(.80002406,0,0,-.80003997,1.2157059,1.9190979)" stroke-width=".79701" stroke-linecap="butt" stroke-miterlimit="10" stroke-linejoin="miter" fill="none" stroke="#000000" d="M274.51985-74.96384C274.51985-72.65286 273.8954-70.7795 273.1251-70.7795 272.35478-70.7795 271.7303-72.65286 271.7303-74.96384 271.7303-77.27481 272.35478-79.14818 273.1251-79.14818 273.8954-79.14818 274.51985-77.27481 274.51985-74.96384ZM273.1251-74.96384"/>
<path transform="matrix(.80002406,0,0,-.80003997,1.2157059,1.9190979)" stroke-width=".79701" stroke-linecap="butt" stroke-miterlimit="10" stroke-linejoin="miter" fill="none" stroke="#000000" d="M23.58179-74.96384C23.58179-72.65286 22.95732-70.7795 22.18701-70.7795 21.41669-70.7795 20.79222-72.65286 20.79222-74.96384 20.79222-77.27481 21.41669-79.14818 22.18701-79.14818 22.95732-79.14818 23.58179-77.27481 23.58179-74.96384ZM22.18701-74.96384"/>
<path transform="matrix(.80002406,0,0,-.80003997,1.2157059,1.9190979)" stroke-width=".79701" stroke-linecap="butt" stroke-miterlimit="10" stroke-linejoin="miter" fill="none" stroke="#000000" d=""/>
<use data-text="y" xlink:href="#font_3_5" transform="matrix(7.9703195,0,0,-7.9704778,171.76883,12.94685)"/>
<use data-text="&#x2032;" xlink:href="#font_5_1" transform="matrix(5.579208,0,0,-5.5793187,175.96254,10.054707)"/>
<use data-text="(" xlink:href="#font_2_1" transform="matrix(7.9703195,0,0,-7.9704778,178.19861,12.94685)"/>
<use data-text="t" xlink:href="#font_3_4" transform="matrix(7.9703195,0,0,-7.9704778,181.29792,12.94685)"/>
<use data-text=")" xlink:href="#font_2_2" transform="matrix(7.9703195,0,0,-7.9704778,184.17639,12.94685)"/>
</svg>
