<svg xmlns="http://www.w3.org/2000/svg" xmlns:xlink="http://www.w3.org/1999/xlink" xmlns:inkscape="http://www.inkscape.org/namespaces/inkscape" version="1.1" width="140" height="196" viewBox="0 0 140 196">
<defs>
<path id="font_1_66" d="M.24699402 0V.0309906C.18099976 .0309906 .1769867 .035995485 .1769867 .075042728V.4423828L.036987306 .43066407V.3996582C.101989749 .3996582 .11099243 .3936615 .11099243 .3447113V.07595825C.11099243 .0309906 .099990848 .0309906 .032989503 .0309906V0L.14299011 .0029907227C.17799378 .0029907227 .21299744 .0009918213 .24699402 0M.19198609 .603775C.19198609 .6307678 .16899109 .6567688 .13899231 .6567688 .10499573 .6567688 .084991458 .6287689 .084991458 .603775 .084991458 .57676699 .10798645 .55078127 .13798523 .55078127 .17199707 .55078127 .19198609 .5787811 .19198609 .603775Z"/>
<path id="font_1_75" d="M.8129883 0V.0309906C.7609863 .0309906 .73599246 .0309906 .7350006 .061019899V.25221253C.7350006 .3383026 .7350006 .36932374 .70399478 .405365 .6899872 .42237855 .6569977 .4423828 .598999 .4423828 .5149994 .4423828 .47099305 .38233949 .45399476 .34429933 .43998719 .43138124 .3659973 .4423828 .32099916 .4423828 .24798584 .4423828 .20098877 .39935304 .17298889 .33729554V.4423828L.03199768 .43066407V.3996582C.101989749 .3996582 .10998535 .39266969 .10998535 .34370423V.07595825C.10998535 .0309906 .09899902 .0309906 .03199768 .0309906V0L.14498902 .0029907227 .25698854 0V.0309906C.18998719 .0309906 .1789856 .0309906 .1789856 .07595825V.25978089C.1789856 .36431886 .25 .42037965 .31399537 .42037965 .3769989 .42037965 .3880005 .36631776 .3880005 .30926515V.076034549C.3880005 .0309906 .3769989 .0309906 .30999757 .0309906V0L.4229889 .0029907227 .5349884 0V.0309906C.46798707 .0309906 .45700074 .0309906 .45700074 .076034549V.2602234C.45700074 .36431886 .5279999 .42037965 .59199526 .42037965 .6549988 .42037965 .66600039 .36631776 .66600039 .30926515V.076034549C.66600039 .0309906 .6549988 .0309906 .58799746 .0309906V0L.70098879 .0029907227 .8129883 0Z"/>
<path id="font_1_81" d="M.47099305 .21424866C.47099305 .34223939 .37098695 .4482422 .25 .4482422 .125 .4482422 .027999878 .3392334 .027999878 .21424866 .027999878 .085250858 .13198853-.0107421879 .24899292-.0107421879 .36999513-.0107421879 .47099305 .087249759 .47099305 .21424866M.3880005 .22224427C.3880005 .18624878 .3880005 .13224793 .3659973 .08824158 .34399415 .04324341 .2999878 .014251709 .25 .014251709 .20698548 .014251709 .16299439 .035247804 .13598633 .08125305 .11099243 .12524414 .11099243 .18624878 .11099243 .22224427 .11099243 .26124574 .11099243 .31523133 .1349945 .35923768 .1619873 .40522767 .20899964 .426239 .24899292 .426239 .29299928 .426239 .33599855 .40423585 .3619995 .36123658 .3880005 .3182373 .3880005 .26023866 .3880005 .22224427Z"/>
<path id="font_1_112" d="M.5079956 .3996582V.43066407C.4850006 .4286499 .45599366 .42765809 .43299867 .42765809L.34599305 .43066407V.3996582C.3829956 .39865113 .3939972 .37568666 .3939972 .35671998 .3939972 .34773255 .3919983 .34373475 .3880005 .3327484L.28599549 .078125 .17399597 .35671998C.16799927 .3697052 .16799927 .37368775 .16799927 .37368775 .16799927 .3996582 .20698548 .3996582 .22499085 .3996582V.43066407L.115997318 .42765809C.08898926 .42765809 .04899597 .4286499 .018997193 .43066407V.3996582C.08198547 .3996582 .085998538 .3936615 .09899902 .36271668L.24299622 .008224487C.24899292-.0057525637 .25099183-.0107421879 .2639923-.0107421879 .2769928-.0107421879 .2809906-.0017700195 .2849884 .008224487L.41600038 .3327484C.4249878 .3557129 .44198609 .39865113 .5079956 .3996582Z"/>
<path id="font_1_28" d="M.48298646 .08912659V.14511109H.45799256V.08912659C.45799256 .03112793 .43299867 .025131226 .42199708 .025131226 .3889923 .025131226 .3849945 .070129398 .3849945 .07511902V.27508546C.3849945 .31707765 .3849945 .3560791 .34899903 .39312745 .30999757 .43223573 .2599945 .4482422 .21199036 .4482422 .12998963 .4482422 .06098938 .40115357 .06098938 .335083 .06098938 .30508424 .08099365 .28808595 .10699463 .28808595 .1349945 .28808595 .15299988 .30807496 .15299988 .33407594 .15299988 .3460846 .147995 .37908937 .101989749 .38008119 .1289978 .41519166 .17799378 .426239 .20999146 .426239 .25898744 .426239 .31599427 .38710023 .31599427 .29808045V.26107789C.2649994 .25808717 .19499207 .25508119 .13198853 .22509766 .056991579 .19110108 .03199768 .13911438 .03199768 .09512329 .03199768 .014251709 .1289978-.0107421879 .19198609-.0107421879 .2579956-.0107421879 .3039856 .029251099 .32299806 .07624817 .32699586 .036132814 .35398866-.005859375 .40098573-.005859375 .42199708-.005859375 .48298646 .008132935 .48298646 .08912659M.31599427 .14013672C.31599427 .04525757 .24398804 .011245728 .19898987 .011245728 .1499939 .011245728 .10899353 .04624939 .10899353 .09625244 .10899353 .15124512 .15098572 .23425293 .31599427 .24024964V.14013672Z"/>
<path id="font_1_35" d="M.5209961 .2163086C.5209961 .34335328 .4229889 .4423828 .30899049 .4423828 .23098755 .4423828 .18798828 .39537049 .17199707 .3773651V.69433596L.027999878 .68333438V.6523285C.09799194 .6523285 .10598755 .6453247 .10598755 .596344V.00024414063H.1309967L.16699219 .06227112C.18199158 .039260866 .22399903-.0107421879 .2979889-.0107421879 .4169922-.0107421879 .5209961 .08728027 .5209961 .2163086M.43798829 .21731568C.43798829 .18029785 .43598939 .120285037 .40699769 .07527161 .38598634 .044265748 .34799195 .011245728 .2939911 .011245728 .24899292 .011260986 .21299744 .03526306 .18899536 .072265628 .1749878 .09326172 .1749878 .09625244 .1749878 .11425781V.32034303C.1749878 .3393402 .1749878 .3403473 .18598938 .35635377 .22499085 .41236878 .27999879 .42037965 .3039856 .42037965 .34899903 .42037965 .3849945 .3943634 .40899659 .35635377 .43499757 .31533814 .43798829 .25831605 .43798829 .21730042V.21731568Z"/>
<path id="font_1_72" d="M.25498963 0V.0309906C.18798828 .0309906 .1769867 .0309906 .1769867 .07601929V.69433596L.032989503 .6826172V.6516113C.102996829 .6516113 .11099243 .64460757 .11099243 .5956421V.07595825C.11099243 .0309906 .099990848 .0309906 .032989503 .0309906V0L.14399719 .0029907227 .25498963 0Z"/>
<path id="font_1_50" d="M.4149933 .11933899C.4149933 .12934876 .40699769 .13134766 .4019928 .13134766 .3929901 .13134766 .3909912 .12535095 .3889923 .11734009 .35398866 .014251709 .2639923 .014251709 .2539978 .014251709 .20399475 .014251709 .1639862 .044281007 .14099121 .08131409 .11099243 .12934876 .11099243 .19540406 .11099243 .23144531H.3899994C.4119873 .23144531 .4149933 .23144531 .4149933 .2524414 .4149933 .35131837 .36099244 .4482422 .23599243 .4482422 .11999512 .4482422 .027999878 .34532167 .027999878 .22042847 .027999878 .08631897 .1329956-.0107421879 .24798584-.0107421879 .36999513-.0107421879 .4149933 .10032654 .4149933 .11933899M.34899903 .2524414H.11199951C.117996219 .40126039 .20199585 .426239 .23599243 .426239 .33898927 .426239 .34899903 .2913971 .34899903 .2524414Z"/>
<path id="font_1_114" d="M.7029877 .3996582V.43066407C.68099978 .4286499 .6519928 .42765809 .6299896 .42765809L.5369873 .43066407V.3996582C.57299807 .39866639 .59498599 .38075257 .59498599 .35176087 .59498599 .34576417 .59498599 .34376527 .58999636 .33078004L.49899293 .07513428 .3999939 .35375978C.3959961 .36575318 .394989 .36775209 .394989 .37275697 .394989 .3996582 .43399049 .3996582 .45399476 .3996582V.43066407L.34999085 .42765809C.31999208 .42765809 .29100038 .4286499 .26098634 .43066407V.3996582C.2979889 .3996582 .31399537 .39767457 .32398988 .38476563 .32899476 .37875367 .33999635 .34877015 .34700013 .3297882L.26098634 .08811951 .1659851 .3547516C.16099549 .36676026 .16099549 .36875917 .16099549 .37275697 .16099549 .3996582 .19999695 .3996582 .21998596 .3996582V.43066407L.11099243 .42765809 .017990113 .43066407V.3996582C.067993167 .3996582 .07998657 .39668275 .09199524 .36476136L.21798706 .01121521C.22299195-.0027618409 .22599793-.0107421879 .23899842-.0107421879 .2519989-.0107421879 .2539978-.004760742 .25898744 .009216309L.3600006 .2918396 .46199037 .008224487C.46598817-.0027618409 .46899415-.0107421879 .48199464-.0107421879 .49499513-.0107421879 .49798585-.0017547608 .5019989 .008224487L.61898806 .3357849C.6369934 .38575746 .66799929 .39866639 .7029877 .3996582Z"/>
<path id="font_2_2" d="M.08799744 .059265138C.084991458 .044265748 .07899475 .021255494 .07899475 .01625061 .07899475-.0017547608 .09298706-.0107421879 .10798645-.0107421879 .11999512-.0107421879 .13798523-.002746582 .14498902 .01725769 .1459961 .019256592 .1579895 .06626892 .1639862 .091278079L.18598938 .18130493C.19198609 .2033081 .19799805 .22531128 .20298767 .24832154 .20698548 .26531983 .21499634 .29434205 .21598816 .29833985 .23098755 .3293457 .28399659 .42037965 .3789978 .42037965 .42399598 .42037965 .43299867 .38336183 .43299867 .35035707 .43299867 .3253479 .42599488 .29733277 .41799928 .26733399L.3899994 .1512909 .36999513 .07527161C.3659973 .055267335 .35699464 .021255494 .35699464 .01625061 .35699464-.0017547608 .37098695-.0107421879 .38598634-.0107421879 .4169922-.0107421879 .4229889 .014251709 .43099977 .04626465 .44499208 .10227966 .48199464 .24832154 .4909973 .28733827 .49398805 .30033876 .5469971 .42037965 .6559906 .42037965 .69898989 .42037965 .70999148 .3863678 .70999148 .35035707 .70999148 .29333497 .66799929 .17930603 .647995 .12628174 .6389923 .10227966 .6349945 .091278079 .6349945 .0712738 .6349945 .024261475 .66999819-.0107421879 .71699526-.0107421879 .8109894-.0107421879 .84799197 .13528443 .84799197 .14329529 .84799197 .1532898 .83898928 .1532898 .83599856 .1532898 .82598879 .1532898 .82598879 .15029907 .82099917 .13528443 .80599978 .08227539 .7739868 .011245728 .71899417 .011245728 .70199587 .011245728 .69499209 .021255494 .69499209 .044265748 .69499209 .0692749 .70399478 .09327698 .71299746 .11528015 .7319946 .16729737 .7739868 .27833558 .7739868 .3353424 .7739868 .4003601 .73399356 .4423828 .6589966 .4423828 .58399966 .4423828 .5329895 .3983612 .49598695 .34535218 .49499513 .35835267 .49198915 .3923645 .46398927 .41636659 .43899537 .43737794 .40699769 .4423828 .38198854 .4423828 .2919922 .4423828 .24299622 .37835694 .22599793 .35534669 .22099304 .41236878 .1789856 .4423828 .13398743 .4423828 .08799744 .4423828 .068984989 .4033661 .05999756 .38536073 .041992189 .35035707 .0289917 .29133607 .0289917 .28833009 .0289917 .27833558 .038986207 .27833558 .040985109 .27833558 .050994874 .27833558 .051986696 .2793274 .057998659 .30133058 .07499695 .37236024 .09498596 .42037965 .1309967 .42037965 .14698792 .42037965 .1619873 .41236878 .1619873 .37435914 .1619873 .35334779 .15899658 .3423462 .1459961 .29032899L.08799744 .059265138Z"/>
<path id="font_2_1" d="M.2869873 .68333438C.2869873 .6843262 .2869873 .69433596 .27398683 .69433596 .25099183 .69433596 .17799378 .6863251 .1519928 .6843262 .14399719 .68333438 .1329956 .6823273 .1329956 .6643219 .1329956 .6523285 .14199829 .6523285 .15699768 .6523285 .20498657 .6523285 .20698548 .6453247 .20698548 .6353302L.20399475 .6153412 .05899048 .039260866C.054992677 .025253296 .054992677 .023254395 .054992677 .01725769 .054992677-.0057525637 .07499695-.0107421879 .083999637-.0107421879 .09700012-.0107421879 .11199951-.0017547608 .117996219 .010253906 .12298584 .019256592 .16799927 .20431519 .17399597 .22932434 .20799256 .22631836 .2899933 .21031189 .2899933 .14428711 .2899933 .13729859 .2899933 .13328552 .2869873 .123291019 .2849884 .11128235 .2829895 .09927368 .2829895 .088272098 .2829895 .029251099 .32299806-.0107421879 .375-.0107421879 .40499879-.0107421879 .43199159 .0052490236 .45399476 .042266847 .47898866 .08627319 .48999024 .14129639 .48999024 .14329529 .48999024 .1532898 .48098756 .1532898 .47799684 .1532898 .46798707 .1532898 .46699525 .14929199 .46398927 .13528443 .44400025 .06227112 .42099 .011245728 .3769989 .011245728 .35798646 .011245728 .34498597 .022247315 .34498597 .058273317 .34498597 .07527161 .34899903 .09828186 .35299684 .11428833 .35699464 .13128662 .35699464 .13528443 .35699464 .14529419 .35699464 .21031189 .2939911 .23931885 .20899964 .2503357 .23999024 .26834107 .27198792 .30033876 .29499818 .32435609 .34298707 .37734986 .3889923 .42037965 .43798829 .42037965 .44400025 .42037965 .44499208 .42037965 .44699098 .41937257 .45899964 .41737367 .45999146 .41737367 .46798707 .4113617 .46998597 .4103546 .46998597 .40934754 .47200013 .40734864 .42399598 .4043579 .4149933 .36535646 .4149933 .35334779 .4149933 .33735658 .42599488 .31835938 .45298768 .31835938 .47898866 .31835938 .5079956 .3403473 .5079956 .37934876 .5079956 .40934754 .4850006 .4423828 .43998719 .4423828 .4119873 .4423828 .3659973 .43437196 .2939911 .35435487 .2599945 .3163452 .22099304 .27633668 .18299866 .26133729L.2869873 .68333438Z"/>
<path id="font_2_3" d="M.33399964 .30233766C.33999635 .32835389 .36299134 .42037965 .43299867 .42037965 .43798829 .42037965 .46199037 .42037965 .48298646 .40734864 .45498658 .402359 .43499757 .37734986 .43499757 .35334779 .43499757 .33735658 .44599916 .31835938 .47299195 .31835938 .49499513 .31835938 .5269928 .3363495 .5269928 .37635804 .5269928 .42837525 .46798707 .4423828 .43399049 .4423828 .37599183 .4423828 .34098817 .38935853 .32899476 .36634828 .3039856 .43237306 .25 .4423828 .22099304 .4423828 .116989139 .4423828 .05999756 .3133545 .05999756 .28834535 .05999756 .27833558 .069992069 .27833558 .07199097 .27833558 .07998657 .27833558 .08299255 .28033448 .084991458 .28933717 .11898804 .39535523 .18499756 .42037965 .21899414 .42037965 .23799134 .42037965 .272995 .4113617 .272995 .35334779 .272995 .32235719 .2559967 .25532533 .21899414 .11528015 .20298767 .053268434 .16799927 .011245728 .12399292 .011245728 .117996219 .011245728 .09498596 .011245728 .07398987 .024276734 .09899902 .029266358 .12098694 .05027771 .12098694 .07827759 .12098694 .105270389 .09899902 .11328125 .083999637 .11328125 .053985597 .11328125 .0289917 .08728027 .0289917 .055267335 .0289917 .009246826 .07899475-.0107421879 .12298584-.0107421879 .18899536-.0107421879 .22499085 .059280397 .22799683 .0652771 .23999024 .028274537 .27598573-.0107421879 .33599855-.0107421879 .43899537-.0107421879 .49598695 .118270877 .49598695 .14328003 .49598695 .1532898 .4869995 .1532898 .48399354 .1532898 .47499085 .1532898 .47299195 .14929199 .47099305 .14228821 .43798829 .03527832 .36999513 .011245728 .33799745 .011245728 .29899598 .011245728 .2829895 .043273927 .2829895 .07727051 .2829895 .09927368 .2889862 .121276859 .2999878 .16529846L.33399964 .30233766Z"/>
<path id="font_3_1" d="M.33499146 .63612368C.33499146 .6630554 .33299256 .6640625 .30499269 .6640625 .24099732 .6014404 .1499939 .6004486 .10899353 .6004486V.5644531C.1329956 .5644531 .19898987 .5644531 .2539978 .592453V.08203125C.2539978 .04899597 .2539978 .035995485 .1539917 .035995485H.115997318V0C.13398743 .0009918213 .25698854 .0039978029 .2939911 .0039978029 .32499696 .0039978029 .45098878 .0009918213 .47299195 0V.035995485H.43499757C.33499146 .035995485 .33499146 .04899597 .33499146 .08203125V.63612368Z"/>
<path id="font_3_2" d="M.5049896 .18203736H.47099305C.46798707 .16001892 .45799256 .100997928 .44499208 .09098816 .43699647 .084991458 .3600006 .084991458 .34599305 .084991458H.1619873C.2669983 .17803955 .3019867 .20603943 .3619995 .25306703 .43598939 .312088 .5049896 .374115 .5049896 .46914674 .5049896 .5900879 .39898683 .6640625 .2709961 .6640625 .14698792 .6640625 .06298828 .57710269 .06298828 .4851532 .06298828 .43414308 .10598755 .42915345 .115997318 .42915345 .13999939 .42915345 .16899109 .44615174 .16899109 .48214723 .16899109 .5001526 .1619873 .53515627 .10998535 .53515627 .14099121 .6060791 .20899964 .62805178 .2559967 .62805178 .35598756 .62805178 .4079895 .5501404 .4079895 .46914674 .4079895 .38212586 .34599305 .3130951 .31399537 .27708436L.07299805 .038986207C.06298828 .02999878 .06298828 .027999878 .06298828 0H.47499085L.5049896 .18203736Z"/>
</defs>
<path transform="matrix(1.00003,0,0,-1.00003,70.12955,116.68715)" d="M-68.03217 85.04019V102.04825H68.03217V85.04019ZM68.03217 102.04825" fill="#cccccc"/>
<path transform="matrix(1.00003,0,0,-1.00003,70.12955,116.68715)" stroke-width=".3985" stroke-linecap="butt" stroke-miterlimit="10" stroke-linejoin="miter" fill="none" stroke="#000000" d="M-68.03217 85.04019V102.04825H68.03217V85.04019ZM68.03217 102.04825"/>
<use data-text="i" xlink:href="#font_1_66" transform="matrix(9.962899,0,0,-9.962899,36.509538,7.832878)"/>
<use data-text="m" xlink:href="#font_1_75" transform="matrix(9.962899,0,0,-9.962899,39.27922,7.832878)"/>
<use data-text="m" xlink:href="#font_1_75" transform="matrix(9.962899,0,0,-9.962899,47.57831,7.832878)"/>
<use data-text="o" xlink:href="#font_1_81" transform="matrix(9.962899,0,0,-9.962899,55.87741,7.832878)"/>
<use data-text="v" xlink:href="#font_1_112" transform="matrix(9.962899,0,0,-9.962899,60.589845,7.832878)"/>
<use data-text="a" xlink:href="#font_1_28" transform="matrix(9.962899,0,0,-9.962899,65.29233,7.832878)"/>
<use data-text="b" xlink:href="#font_1_35" transform="matrix(9.962899,0,0,-9.962899,70.27377,7.832878)"/>
<use data-text="l" xlink:href="#font_1_72" transform="matrix(9.962899,0,0,-9.962899,75.81314,7.832878)"/>
<use data-text="e" xlink:href="#font_1_50" transform="matrix(9.962899,0,0,-9.962899,78.582828,7.832878)"/>
<use data-text="w" xlink:href="#font_1_114" transform="matrix(9.962899,0,0,-9.962899,86.31406,7.832878)"/>
<use data-text="a" xlink:href="#font_1_28" transform="matrix(9.962899,0,0,-9.962899,93.23825,7.832878)"/>
<use data-text="l" xlink:href="#font_1_72" transform="matrix(9.962899,0,0,-9.962899,98.219699,7.832878)"/>
<use data-text="l" xlink:href="#font_1_72" transform="matrix(9.962899,0,0,-9.962899,100.98938,7.832878)"/>
<path transform="matrix(1.00003,0,0,-1.00003,70.12955,116.68715)" stroke-width=".79701" stroke-linecap="butt" stroke-miterlimit="10" stroke-linejoin="miter" fill="none" stroke="#000000" d="M0 85.04019C2.2117 84.70811 3.9851 83.66672 3.9851 82.44997 3.9851 81.23323 2.2117 80.1918 0 79.85973-2.2117 79.52765-3.9851 79.90494-3.9851 80.45752-3.9851 81.01013-2.2117 81.3874 0 81.05533 2.2117 80.723 3.9851 79.68161 3.9851 78.46486 3.9851 77.24812 2.2117 76.2067 0 75.87462-2.2117 75.54254-3.9851 75.91983-3.9851 76.47241-3.9851 77.02502-2.2117 77.4023 0 77.07022 2.2117 76.7379 3.9851 75.6965 3.9851 74.47975 3.9851 73.26302 2.2117 72.22159 0 71.88951-2.2117 71.55743-3.9851 71.93472-3.9851 72.4873-3.9851 73.03992-2.2117 73.41719 0 73.08511 2.2117 72.75279 3.9851 71.7114 3.9851 70.49464 3.9851 69.27791 2.2117 68.23648 0 67.9044-2.2117 67.57233-3.9851 67.94962-3.9851 68.5022-3.9851 69.05481-2.2117 69.43208 0 69.1 2.2117 68.76768 3.9851 67.72629 3.9851 66.50954 3.9851 65.2928 2.2117 64.25137 0 63.9193-2.2117 63.58722-3.9851 63.96451-3.9851 64.51709-3.9851 65.0697-2.2117 65.44698 0 65.1149 2.2117 64.78258 3.9851 63.74118 3.9851 62.52443 3.9851 61.3077 2.2117 60.26627 0 59.93419-2.2117 59.60211-3.9851 59.9794-3.9851 60.53198-3.9851 61.0846-2.2117 61.46187 0 61.12979 2.2117 60.79747 3.9851 59.75607 3.9851 58.53932 3.9851 57.32259 2.2117 56.28116 0 55.94908-2.2117 55.617-3.9851 55.9943-3.9851 56.54688-3.9851 57.09949-2.2117 57.47676 0 57.14468 2.2117 56.81236 3.9851 55.77097 3.9851 54.55421 3.9851 53.33748 2.2117 52.29605 0 51.96397-2.2117 51.6319-3.9851 52.00919-3.9851 52.56177-3.9851 53.11438-2.2117 53.49165 0 53.15958 2.2117 52.82726 3.9851 51.78586 3.9851 50.5691 3.9851 49.35237 2.2117 48.31094 0 47.97887-2.2117 47.64679-3.9851 48.02408-3.9851 48.57666-3.9851 49.12927-2.2117 49.50655 0 49.17447 2.2117 48.84215 3.9851 47.80075 3.9851 46.584 3.9851 45.36726 2.2117 44.32584 0 43.99376-2.2117 43.66168-3.9851 44.03897-3.9851 44.59155-3.9851 45.14417-2.2117 45.52144 0 45.18936 2.2117 44.85704 3.9851 43.81564 3.9851 42.59889 3.9851 41.38216 2.2117 40.34073 0 40.00865-2.2117 39.67657-3.9851 40.05386-3.9851 40.60645-3.9851 41.15906-2.2117 41.53633 0 41.20425 2.2117 40.87193 3.9851 39.83054 3.9851 38.61378 3.9851 37.39705 2.2117 36.35562 0 36.02354-2.2117 35.69147-3.9851 36.06876-3.9851 36.62134-3.9851 37.17395-2.2117 37.55122 0 37.21915 2.2117 36.88683 3.9851 35.84543 3.9851 34.62868 3.9851 33.41194 2.2117 32.37051 0 32.03844-2.2117 31.70636-3.9851 32.08365-3.9851 32.63623-3.9851 33.18884-2.2117 33.56612 0 33.23404 2.2117 32.90172 3.9851 31.86032 3.9851 30.64357 3.9851 29.42683 2.2117 28.3854 0 28.05333V27.21295"/>
<path transform="matrix(1.00003,0,0,-1.00003,70.12955,116.68715)" d="M-10.20491 10.20491V27.21295H10.20491V10.20491ZM10.20491 27.21295" fill="#d9d9d9"/>
<path transform="matrix(1.00003,0,0,-1.00003,70.12955,116.68715)" stroke-width=".3985" stroke-linecap="butt" stroke-miterlimit="10" stroke-linejoin="miter" fill="none" stroke="#000000" d="M-10.20491 10.20491V27.21295H10.20491V10.20491ZM10.20491 27.21295"/>
<use data-text="m" xlink:href="#font_2_2" transform="matrix(9.962899,0,0,-9.962899,65.75542,115.430118)"/>
<path transform="matrix(1.00003,0,0,-1.00003,70.12955,116.68715)" stroke-width=".79701" stroke-linecap="butt" stroke-miterlimit="10" stroke-linejoin="miter" fill="none" stroke="#000000" d="M0 10.20491C2.2117 9.87285 3.9851 8.83144 3.9851 7.61469 3.9851 6.39795 2.2117 5.35652 0 5.02444-2.2117 4.69237-3.9851 5.06966-3.9851 5.62225-3.9851 6.17485-2.2117 6.55212 0 6.22005 2.2117 5.88774 3.9851 4.84633 3.9851 3.62958 3.9851 2.41284 2.2117 1.37141 0 1.03934-2.2117 .70726-3.9851 1.08455-3.9851 1.63715-3.9851 2.18974-2.2117 2.56702 0 2.23494 2.2117 1.90263 3.9851 .86122 3.9851-.35551 3.9851-1.57225 2.2117-2.61368 0-2.94576-2.2117-3.27783-3.9851-2.90054-3.9851-2.34795-3.9851-1.79535-2.2117-1.41808 0-1.75015 2.2117-2.08246 3.9851-3.12387 3.9851-4.34062 3.9851-5.55736 2.2117-6.59879 0-6.93086-2.2117-7.26294-3.9851-6.88565-3.9851-6.33305-3.9851-5.78046-2.2117-5.40318 0-5.73526 2.2117-6.06757 3.9851-7.10898 3.9851-8.32573 3.9851-9.54247 2.2117-10.5839 0-10.91597-2.2117-11.24805-3.9851-10.87076-3.9851-10.31816-3.9851-9.76556-2.2117-9.38829 0-9.72037 2.2117-10.05267 3.9851-11.09409 3.9851-12.31084 3.9851-13.52757 2.2117-14.569 0-14.90108-2.2117-15.23315-3.9851-14.85587-3.9851-14.30327-3.9851-13.75067-2.2117-13.3734 0-13.70547 2.2117-14.03778 3.9851-15.0792 3.9851-16.29594 3.9851-17.51268 2.2117-18.55411 0-18.88618-2.2117-19.21826-3.9851-18.84097-3.9851-18.28838-3.9851-17.73578-2.2117-17.3585 0-17.69058 2.2117-18.02289 3.9851-19.0643 3.9851-20.28105 3.9851-21.49779 2.2117-22.53922 0-22.87129-2.2117-23.20337-3.9851-22.82608-3.9851-22.27348-3.9851-21.72089-2.2117-21.34361 0-21.67569 2.2117-22.008 3.9851-23.04941 3.9851-24.26616 3.9851-25.4829 2.2117-26.52432 0-26.8564-2.2117-27.18848-3.9851-26.81119-3.9851-26.25859-3.9851-25.706-2.2117-25.32872 0-25.6608 2.2117-25.9931 3.9851-27.03452 3.9851-28.25127 3.9851-29.468 2.2117-30.50943 0-30.8415-2.2117-31.17358-3.9851-30.7963-3.9851-30.2437-3.9851-29.6911-2.2117-29.31383 0-29.6459 2.2117-29.97821 3.9851-31.01962 3.9851-32.23637 3.9851-33.45311 2.2117-34.49454 0-34.82661-2.2117-35.15869-3.9851-34.7814-3.9851-34.2288-3.9851-33.67621-2.2117-33.29893 0-33.63101 2.2117-33.96332 3.9851-35.00473 3.9851-36.22148 3.9851-37.43822 2.2117-38.47964 0-38.81172-2.2117-39.1438-3.9851-38.76651-3.9851-38.21391-3.9851-37.66132-2.2117-37.28404 0-37.61612 2.2117-37.94843 3.9851-38.98984 3.9851-40.20659 3.9851-41.42332 2.2117-42.46475 0-42.79683-2.2117-43.1289-3.9851-42.75162-3.9851-42.19902-3.9851-41.64642-2.2117-41.26915 0-41.60123 2.2117-41.93353 3.9851-42.97495 3.9851-44.1917 3.9851-45.40843 2.2117-46.44986 0-46.78194-2.2117-47.11401-3.9851-46.73672-3.9851-46.18413-3.9851-45.63153-2.2117-45.25426 0-45.58633 2.2117-45.91864 3.9851-46.96005 3.9851-48.1768 3.9851-49.39354 2.2117-50.43497 0-50.76704V-51.02411"/>
<path transform="matrix(1.00003,0,0,-1.00003,70.12955,116.68715)" d="M-10.20491-68.03217V-51.02411H10.20491V-68.03217ZM10.20491-51.02411" fill="#d9d9d9"/>
<path transform="matrix(1.00003,0,0,-1.00003,70.12955,116.68715)" stroke-width=".3985" stroke-linecap="butt" stroke-miterlimit="10" stroke-linejoin="miter" fill="none" stroke="#000000" d="M-10.20491-68.03217V-51.02411H10.20491V-68.03217ZM10.20491-51.02411"/>
<use data-text="m" xlink:href="#font_2_2" transform="matrix(9.962899,0,0,-9.962899,65.75542,193.66947)"/>
<use data-text="k" xlink:href="#font_2_1" transform="matrix(9.962899,0,0,-9.962899,87.79008,62.317518)"/>
<use data-text="k" xlink:href="#font_2_1" transform="matrix(9.962899,0,0,-9.962899,87.79008,140.55687)"/>
<path transform="matrix(1.00003,0,0,-1.00003,70.12955,116.68715)" stroke-width=".3985" stroke-linecap="butt" stroke-miterlimit="10" stroke-linejoin="miter" fill="none" stroke="#000000" d="M51.02411 18.70892V31.91666"/>
<path transform="matrix(0,-1.00003,-1.00003,-0,121.15519,84.57028)" stroke-width=".3985" stroke-linecap="round" stroke-linejoin="round" fill="none" stroke="#000000" d="M-2.07224 2.39104C-1.69365 .95639-.84999 .27895 0 0-.84999-.27895-1.69365-.95639-2.07224-2.39104"/>
<use data-text="x" xlink:href="#font_2_3" transform="matrix(9.962899,0,0,-9.962899,124.675189,92.572429)"/>
<use data-text="1" xlink:href="#font_3_1" transform="matrix(6.9740097,0,0,-6.9740097,130.36936,94.067478)"/>
<path transform="matrix(1.00003,0,0,-1.00003,70.12955,116.68715)" stroke-width=".3985" stroke-linecap="butt" stroke-miterlimit="10" stroke-linejoin="miter" fill="none" stroke="#000000" d="M51.02411-59.52812V-46.3204"/>
<path transform="matrix(0,-1.00003,-1.00003,-0,121.15519,162.8097)" stroke-width=".3985" stroke-linecap="round" stroke-linejoin="round" fill="none" stroke="#000000" d="M-2.07224 2.39104C-1.69365 .95639-.84999 .27895 0 0-.84999-.27895-1.69365-.95639-2.07224-2.39104"/>
<use data-text="x" xlink:href="#font_2_3" transform="matrix(9.962899,0,0,-9.962899,124.675189,170.81177)"/>
<use data-text="2" xlink:href="#font_3_2" transform="matrix(6.9740097,0,0,-6.9740097,130.36936,172.30683)"/>
</svg>
