<svg xmlns="http://www.w3.org/2000/svg" xmlns:xlink="http://www.w3.org/1999/xlink" xmlns:inkscape="http://www.inkscape.org/namespaces/inkscape" version="1.1" width="197" height="165" viewBox="0 0 197 165">
<defs>
<clipPath id="clip_1">
<path transform="matrix(1.00005,0,0,-1.00003,1.0961456,163.19641)" d="M0 0H194.27307V161.39408H0Z"/>
</clipPath>
<path id="font_2_2" d="M.36698915 .3996582H.45298768C.47299195 .3996582 .48298646 .3996582 .48298646 .41966249 .48298646 .43066407 .47299195 .43066407 .45599366 .43066407H.37298585L.3939972 .5449524C.397995 .5660095 .4119873 .6370239 .41799928 .6490326 .4269867 .66804507 .44400025 .68307498 .46499635 .68307498 .46899415 .68307498 .49499513 .68307498 .5139923 .66503909 .46998597 .661026 .45999146 .6260376 .45999146 .6110382 .45999146 .58802798 .47799684 .57603457 .49699403 .57603457 .522995 .57603457 .5519867 .5980377 .5519867 .6360321 .5519867 .6820679 .5059967 .7050781 .46499635 .7050781 .43099977 .7050781 .36799623 .68707278 .33799745 .58802798 .33198548 .56700137 .32899476 .5569763 .30499269 .43066407H.23599243C.21699524 .43066407 .20599365 .43066407 .20599365 .4116516 .20599365 .3996582 .21499634 .3996582 .23399353 .3996582H.2999878L.22499085 .0048828127C.20698548-.09207153 .18998719-.18309021 .13798523-.18309021 .13398743-.18309021 .10899353-.18309021 .08999634-.16506958 .13598633-.1620636 .14498902-.12606812 .14498902-.111068729 .14498902-.08807373 .1269989-.07606506 .10798645-.07606506 .08198547-.07606506 .052993776-.09806824 .052993776-.13606262 .052993776-.18109131 .09700012-.20507813 .13798523-.20507813 .19299317-.20507813 .23298645-.14607239 .25099183-.108062747 .2829895-.04508972 .30599977 .07583618 .30699159 .082839969L.36698915 .3996582Z"/>
<path id="font_3_1" d="M.33099366-.2400055C.33099366-.23701477 .33099366-.23500061 .31399537-.21800232 .18899536-.0920105 .15699768 .09700012 .15699768 .25 .15699768 .42399598 .19499207 .59799197 .31799317 .72299197 .33099366 .73498538 .33099366 .7369995 .33099366 .73999026 .33099366 .746994 .32699586 .75 .32099916 .75 .31098939 .75 .22099304 .6819916 .1619873 .5549927 .11099243 .44499208 .09899902 .33399964 .09899902 .25 .09899902 .17199707 .10998535 .050994874 .16499329-.06201172 .22499085-.18501282 .31098939-.25 .32099916-.25 .32699586-.25 .33099366-.24700928 .33099366-.2400055Z"/>
<path id="font_2_4" d="M.20599365 .3996582H.2999878C.31999208 .3996582 .32998658 .3996582 .32998658 .41966249 .32998658 .43066407 .31999208 .43066407 .3019867 .43066407H.21398926C.25 .5724945 .25498963 .59246829 .25498963 .59846499 .25498963 .61546328 .24299622 .62545779 .22599793 .62545779 .22299195 .62545779 .19499207 .62446597 .18598938 .58947756L.14698792 .43066407H.052993776C.032989503 .43066407 .022994996 .43066407 .022994996 .4116516 .022994996 .3996582 .0309906 .3996582 .050994874 .3996582H.13899231C.066986087 .11608887 .06298828 .099121097 .06298828 .08114624 .06298828 .02722168 .100997928-.0107421879 .15499878-.0107421879 .25698854-.0107421879 .31399537 .13505554 .31399537 .14305115 .31399537 .1530304 .30599977 .1530304 .3019867 .1530304 .29299928 .1530304 .2919922 .15003968 .2869873 .13905335 .24398804 .035217287 .19099427 .011245728 .15699768 .011245728 .13598633 .011245728 .12599182 .024230957 .12599182 .057174684 .12599182 .08114624 .12799073 .088134769 .13198853 .10510254L.20599365 .3996582Z"/>
<path id="font_3_2" d="M.2889862 .25C.2889862 .32798768 .27799989 .44898988 .22299195 .56199648 .16299439 .68499758 .07699585 .75 .066986087 .75 .06098938 .75 .056991579 .74598696 .056991579 .73999026 .056991579 .7369995 .056991579 .73498538 .07598877 .71699526 .17399597 .6179962 .23098755 .45899964 .23098755 .25 .23098755 .07899475 .19400025-.09700012 .069992069-.2230072 .056991579-.23500061 .056991579-.23701477 .056991579-.2400055 .056991579-.2460022 .06098938-.25 .066986087-.25 .07699585-.25 .16699219-.18200684 .22599793-.055007936 .2769928 .054992677 .2889862 .16600037 .2889862 .25Z"/>
<path id="font_2_3" d="M.47099305 .3773346C.47200013 .3833313 .47399903 .38833619 .47399903 .39535523 .47399903 .41236878 .46199037 .42237855 .44499208 .42237855 .43499757 .42237855 .4079895 .41537477 .4039917 .3793335 .38598634 .41636659 .35099793 .4423828 .31098939 .4423828 .19699097 .4423828 .07299805 .30226136 .07299805 .15812683 .07299805 .059020997 .13398743 0 .20599365 0 .2649994 0 .31199647 .04701233 .32199098 .058029176L.32299806 .057022096C.3019867-.031982423 .2899933-.07295227 .2899933-.07495117 .28599549-.08395386 .2519989-.18309021 .1459961-.18309021 .1269989-.18309021 .09399414-.18206787 .06599426-.17297364 .09599304-.16394043 .10699463-.13793946 .10699463-.12094116 .10699463-.10494995 .09599304-.0859375 .068984989-.0859375 .04699707-.0859375 .01499939-.10394287 .01499939-.14395142 .01499939-.18508911 .051986696-.20507813 .147995-.20507813 .272995-.20507813 .34498597-.12693787 .3600006-.06695557L.47099305 .3773346M.34098817 .12809754C.33499146 .10206604 .31199647 .077041629 .2899933 .058029176 .2689972 .040008546 .23799134 .021987915 .20899964 .021987915 .15899658 .021987915 .14399719 .074035648 .14399719 .11407471 .14399719 .16212464 .17298889 .28024293 .19999695 .33128358 .22698975 .38034059 .269989 .42037965 .31199647 .42037965 .37799073 .42037965 .3919983 .33929444 .3919983 .33428956 .3919983 .32928468 .3899994 .3232727 .3889923 .3192749L.34098817 .12809754Z"/>
<path id="font_3_3" d="M.68699648 .32714845C.70199587 .32714845 .72099307 .32714845 .72099307 .34713746 .72099307 .36714173 .70199587 .36714173 .6879883 .36714173H.08898926C.07499695 .36714173 .055999757 .36714173 .055999757 .34713746 .055999757 .32714845 .07499695 .32714845 .08999634 .32714845H.68699648M.6879883 .13284302C.70199587 .13284302 .72099307 .13284302 .72099307 .15284729 .72099307 .17285156 .70199587 .17285156 .68699648 .17285156H.08999634C.07499695 .17285156 .055999757 .17285156 .055999757 .15284729 .055999757 .13284302 .07499695 .13284302 .08898926 .13284302H.6879883Z"/>
<path id="font_4_2" d="M.49299623 .29556275C.46998597 .21156311 .43499757 .08753967 .43499757 .010528564 .43499757-.016464234 .45199586-.0284729 .47599793-.0284729 .5159912-.0284729 .59098818 .014526367 .59098818 .03453064 .59098818 .039535524 .58599856 .041534425 .58099368 .041534425 .56900027 .041534425 .5509949 .03253174 .5399933 .026535035 .5269928 .028533936 .519989 .038528444 .519989 .05253601 .519989 .17454529 .6339874 .52459719 .6629944 .5986023 .6749878 .62661746 .6879883 .66760256 .6879883 .6756134 .6879883 .6826172 .6819916 .6826172 .6779938 .6826172 .6569977 .6826172 .6119995 .65560916 .60398867 .63661196 .59098818 .6016083 .58898928 .5966034 .57699587 .55960085 .5439911 .46458436 .44499208 .29956056 .34599305 .18354798 .31498719 .14854431 .21699524 .03253174 .1459961 .03253174 .09799194 .03253174 .067993167 .073532108 .067993167 .13954163 .067993167 .20954895 .10699463 .29956056 .16699219 .43658448 .20298767 .51860049 .23298645 .58961489 .23298645 .63461306 .23298645 .6816101 .20098877 .6826172 .18299866 .6826172 .10598755 .6826172 .009994507 .62060549 .009994507 .5996094 .009994507 .5936127 .016998291 .5936127 .020996094 .5936127 .032989503 .5936127 .050994874 .6016083 .066986087 .61260989 .07398987 .61761477 .08999634 .62760928 .116989139 .62760928 .13899231 .62760928 .147995 .61361697 .147995 .59161379 .147995 .5476074 .11199951 .46559144 .069992069 .36958314 .0039978029 .21955872-.01701355 .1555481-.01701355 .09753418-.01701355 .03152466 .008987427-.022460938 .07998657-.022460938 .14199829-.022460938 .23298645 .01852417 .33499146 .11354065 .4039917 .17855835 .44898988 .23855591 .49198915 .29656983L.49299623 .29556275Z"/>
<path id="font_4_1" d="M.6589966 .23046875C.6759949 .23046875 .69400027 .23046875 .69400027 .25045777 .69400027 .27046205 .6759949 .27046205 .6589966 .27046205H.117996219C.100997928 .27046205 .08299255 .27046205 .08299255 .25045777 .08299255 .23046875 .100997928 .23046875 .117996219 .23046875H.6589966Z"/>
<path id="font_2_1" d="M.37298585 .37835694C.35499574 .41537477 .32598878 .4423828 .2809906 .4423828 .1639862 .4423828 .039993287 .29533387 .039993287 .14929199 .039993287 .055267335 .09498596-.0107421879 .17298889-.0107421879 .19299317-.0107421879 .24299622-.0067443849 .30299378 .06427002 .31098939 .022247315 .34599305-.0107421879 .3939972-.0107421879 .42900086-.0107421879 .45199586 .012252808 .46798707 .044265748 .4850006 .08027649 .49798585 .14129639 .49798585 .14329529 .49798585 .1532898 .4889984 .1532898 .48599244 .1532898 .47599793 .1532898 .47499085 .14929199 .47200013 .13528443 .45498658 .07026672 .43699647 .011245728 .3959961 .011245728 .36898805 .011245728 .3659973 .037261964 .3659973 .057266237 .3659973 .07926941 .36799623 .08728027 .3789978 .13128662 .3899994 .17329407 .3919983 .18330384 .40098573 .22131348L.43699647 .36135865C.44400025 .38935853 .44400025 .39135743 .44400025 .39537049 .44400025 .41236878 .43199159 .42237855 .4149933 .42237855 .3909912 .42237855 .37599183 .4003601 .37298585 .37835694M.30799867 .119277957C.30299378 .10127258 .30299378 .09927368 .28799439 .08227539 .24398804 .027252198 .20298767 .011245728 .1749878 .011245728 .125 .011245728 .11099243 .06626892 .11099243 .105285648 .11099243 .1552887 .14299011 .27833558 .1659851 .32434083 .19699097 .38336183 .24198914 .42037965 .28199769 .42037965 .34700013 .42037965 .36099244 .3383484 .36099244 .33235169 .36099244 .32633973 .35899354 .32034303 .35798646 .31533814L.30799867 .119277957Z"/>
<path id="font_2_5" d="M.48599244 .38136292C.48999024 .39537049 .48999024 .39736939 .48999024 .40437318 .48999024 .42237855 .47599793 .43138124 .46099855 .43138124 .45098878 .43138124 .43499757 .42536927 .42599488 .41036988 .42399598 .405365 .41600038 .37435914 .4119873 .35635377 .40499879 .33035279 .397995 .30334474 .3919983 .27633668L.34700013 .09628296C.34298707 .08126831 .2999878 .011245728 .23399353 .011245728 .18299866 .011245728 .17199707 .055267335 .17199707 .0922699 .17199707 .1382904 .18899536 .20030213 .22299195 .28833009 .23899842 .3293457 .24299622 .3403473 .24299622 .36035157 .24299622 .405365 .21099854 .4423828 .16099549 .4423828 .06599426 .4423828 .0289917 .29733277 .0289917 .28833009 .0289917 .27833558 .038986207 .27833558 .040985109 .27833558 .050994874 .27833558 .051986696 .28033448 .056991579 .29634095 .083999637 .3903656 .12399292 .42037965 .1579895 .42037965 .1659851 .42037965 .18299866 .42037965 .18299866 .3883667 .18299866 .36335755 .17298889 .3373413 .1659851 .31834413 .12599182 .21231079 .10798645 .1552887 .10798645 .10827637 .10798645 .019256592 .17098999-.0107421879 .22999573-.0107421879 .2689972-.0107421879 .30299378 .0062561037 .33099366 .03425598 .31799317-.017745972 .30599977-.06674194 .2659912-.11973572 .23999024-.15385437 .20199585-.18309021 .1559906-.18309021 .14199829-.18309021 .09700012-.18005371 .07998657-.14074707 .09599304-.14074707 .10899353-.14074707 .12298584-.1287384 .1329956-.11973572 .14299011-.10673523 .14299011-.08773804 .14299011-.056747438 .115997318-.052734376 .10598755-.052734376 .08299255-.052734376 .049987794-.068740848 .049987794-.11773682 .049987794-.16796875 .09399414-.20507813 .1559906-.20507813 .25898744-.20507813 .3619995-.11373901 .3899994-.00074768069L.48599244 .38136292Z"/>
</defs>
<path transform="matrix(1.00005,0,0,-1.00003,1.0961456,163.19641)" stroke-width=".3985" stroke-linecap="butt" stroke-miterlimit="10" stroke-linejoin="miter" fill="none" stroke="#bfbfbf" d=""/>
<path transform="matrix(1.00005,0,0,-1.00003,1.0961456,163.19641)" stroke-width=".3985" stroke-linecap="butt" stroke-miterlimit="10" stroke-linejoin="miter" fill="none" stroke="#bfbfbf" d=""/>
<path transform="matrix(1.00005,0,0,-1.00003,1.0961456,163.19641)" stroke-width=".19925" stroke-linecap="butt" stroke-miterlimit="10" stroke-linejoin="miter" fill="none" stroke="#7f807f" d=""/>
<path transform="matrix(1.00005,0,0,-1.00003,1.0961456,163.19641)" stroke-width=".19925" stroke-linecap="butt" stroke-miterlimit="10" stroke-linejoin="miter" fill="none" stroke="#7f807f" d=""/>
<path transform="matrix(1.00005,0,0,-1.00003,1.0961456,163.19641)" stroke-width=".3985" stroke-linecap="butt" stroke-miterlimit="10" stroke-linejoin="miter" fill="none" stroke="#000000" d="M0 14.67218H192.28055"/>
<path transform="matrix(1.00005,0,0,-1.00003,193.38629,148.52379)" d="M1.99252 0-1.19551 1.59401 0 0-1.19551-1.59401"/>
<path transform="matrix(1.00005,0,0,-1.00003,1.0961456,163.19641)" stroke-width=".3985" stroke-linecap="butt" stroke-miterlimit="10" stroke-linejoin="miter" fill="none" stroke="#000000" d="M10.79294 0V159.40155"/>
<path transform="matrix(0,-1.00003,-1.00005,-0,11.889625,3.7900696)" d="M1.99252 0-1.19551 1.59401 0 0-1.19551-1.59401"/>
<g clip-path="url(#clip_1)">
<path transform="matrix(1.00005,0,0,-1.00003,1.0961456,163.19641)" stroke-width=".79701" stroke-linecap="butt" stroke-miterlimit="10" stroke-linejoin="miter" fill="none" stroke="#0000ff" d="M10.79294 44.01656 11.33528 45.85886 11.87764 47.69736 12.41998 49.52852 12.96231 51.34912 13.50465 53.15416 14.047 54.94131 14.58936 56.70645 15.13171 58.44635 15.67406 60.1569 16.21638 61.83519 16.75873 63.47737 17.30107 65.08083 17.84341 66.64232 18.38579 68.1589 18.92813 69.62825 19.47046 71.04623 20.0128 72.41083 20.55515 73.71878 21.09749 74.96951 21.63986 76.1595 22.1822 77.28699 22.72453 78.34962 23.26688 79.3474 23.80922 80.27623 24.35158 81.13696 24.89392 81.92552 25.43626 82.64336 25.9786 83.28871 26.52095 83.8613 27.0633 84.35963 27.60565 84.78522 28.14798 85.13625 28.69032 85.41302 29.23268 85.61617 29.77502 85.74564 30.31737 85.80177 30.85971 85.78656 31.40205 85.70096 31.9444 85.54463 32.48676 85.32051 33.0291 85.0292 33.57143 84.67184 34.11378 84.25113 34.65613 83.76907 35.19847 83.22687 35.74081 82.62862 36.28316 81.97546 36.8255 81.2701 37.36786 80.51544 37.9102 79.7147 38.45255 78.86937 38.99487 77.98412 39.53722 77.06102 40.07959 76.10388 40.62193 75.11623 41.16428 74.10187 41.7066 73.06313 42.24895 72.00388 42.79129 70.92789 43.33366 69.8393 43.876 68.74101 44.41833 67.63742 44.96068 66.53241 45.50302 65.42824 46.04536 64.33025 46.58772 63.24077 47.13007 62.16449 47.67241 61.10493 48.21475 60.06535 48.7571 59.04951 49.29944 58.0604 49.84178 57.10236 50.38412 56.17809 50.92648 55.2905 51.46883 54.44456 52.01117 53.64178 52.55351 52.88535 53.09586 52.17822 53.6382 51.52304 54.18056 50.92213 54.7229 50.37729 55.26523 49.89317 55.80759 49.47011 56.34993 49.11072 56.89227 48.81705 57.43462 48.58969 57.97696 48.43102 58.5193 48.34277 59.06166 48.32405 59.604 48.37782 60.14635 48.50438 60.68867 48.70515 61.23102 48.97932 61.77338 49.32713 62.31573 49.74974 62.85808 50.24545 63.4004 50.81508 63.94275 51.45752 64.48509 52.17183 65.02747 52.95863 65.56981 53.81674 66.11214 54.7432 66.65448 55.73776 67.19682 56.79774 67.73917 57.92317 68.28152 59.11055 68.82385 60.35803 69.36621 61.6645 69.90855 63.02763 70.4509 64.44359 70.99324 65.90999 71.53558 67.4251 72.07793 68.98512 72.62029 70.5874 73.16263 72.22783 73.70497 73.90523 74.2473 75.61432 74.78966 77.35275 75.332 79.11702 75.87434 80.90326 76.4167 82.70831 76.95903 84.52774 77.50137 86.35861 78.04373 88.1974 78.58607 90.03943 79.12842 91.88115 79.67075 93.72021 80.2131 95.55228 80.75546 97.37288 81.2978 99.1788 81.84015 100.96684 82.38248 102.73343 82.92482 104.47421 83.46718 106.18507 84.00954 107.8648 84.55188 109.50876 85.09421 111.11365 85.63655 112.67722 86.1789 114.19586 86.72124 115.66637 87.26361 117.08643 87.80594 118.45306 88.34828 119.76337 88.89063 121.01614 89.43297 122.20877 89.97531 123.33861 90.51765 124.40446 91.06001 125.4043 91.60236 126.33635 92.1447 127.19887 92.68704 127.99065 93.22939 128.71083 93.77173 129.35912 94.31409 129.93434 94.85643 130.43592 95.39877 130.86441 95.9411 131.21839 96.48346 131.49721 97.0258 131.703 97.56815 131.8357 98.1105 131.89507 98.65283 131.8825 99.19518 131.79953 99.73753 131.64644 100.27988 131.42496 100.82222 131.1354 101.36455 130.78099 101.9069 130.36232 102.44925 129.88292 102.99161 129.34305 103.53395 128.74684 104.07628 128.09633 104.61862 127.39246 105.16098 126.64014 105.70334 125.83998 106.24568 124.997 106.78801 124.11292 107.33035 123.19127 107.8727 122.23561 108.41504 121.24942 108.95741 120.23595 109.49974 119.19751 110.04208 118.13913 110.58443 117.06374 111.12677 115.97572 111.66911 114.87773 112.21146 113.77444 112.75381 112.66911 113.29616 111.56496 113.8385 110.46638 114.38084 109.3772 114.92317 108.30031 115.46553 107.2393 116.00789 106.19882 116.55023 105.18271 117.09258 104.19212 117.6349 103.23291 118.17725 102.30687 118.7196 101.41812"/>
<path transform="matrix(1.00005,0,0,-1.00003,1.0961456,163.19641)" d="M4.15114 0C4.15114 1.10046 3.25905 1.99255 2.15858 1.99255 1.0581 1.99255 .16603 1.10046 .16603 0 .16603-1.10046 1.0581-1.99255 2.15858-1.99255 3.25905-1.99255 4.15114-1.10046 4.15114 0ZM2.15858 0" fill="#ff0000"/>
<path transform="matrix(1.00005,0,0,-1.00003,1.0961456,163.19641)" stroke-width=".79701" stroke-linecap="butt" stroke-miterlimit="10" stroke-linejoin="miter" fill="none" stroke="#ff0000" d="M4.15114 0C4.15114 1.10046 3.25905 1.99255 2.15858 1.99255 1.0581 1.99255 .16603 1.10046 .16603 0 .16603-1.10046 1.0581-1.99255 2.15858-1.99255 3.25905-1.99255 4.15114-1.10046 4.15114 0ZM2.15858 0"/>
<path transform="matrix(1.00005,0,0,-1.00003,1.0961456,163.19641)" d="M3.653 0C3.653 .82533 2.98393 1.49442 2.15858 1.49442 1.33324 1.49442 .66417 .82533 .66417 0 .66417-.82533 1.33324-1.49442 2.15858-1.49442 2.98393-1.49442 3.653-.82533 3.653 0ZM2.15858 0" fill="#ffffff"/>
<path transform="matrix(1.00005,0,0,-1.00003,1.0961456,163.19641)" stroke-width=".3985" stroke-linecap="butt" stroke-miterlimit="10" stroke-linejoin="miter" fill="none" stroke="#ffffff" d="M3.653 0C3.653 .82533 2.98393 1.49442 2.15858 1.49442 1.33324 1.49442 .66417 .82533 .66417 0 .66417-.82533 1.33324-1.49442 2.15858-1.49442 2.98393-1.49442 3.653-.82533 3.653 0ZM2.15858 0"/>
<path transform="matrix(1.00005,0,0,-1.00003,1.0961456,163.19641)" d="M1.99255 .29344C1.99255 1.3939 1.10046 2.286 0 2.286-1.10046 2.286-1.99255 1.3939-1.99255 .29344-1.99255-.80702-1.10046-1.6991 0-1.6991 1.10046-1.6991 1.99255-.80702 1.99255 .29344ZM0 .29344" fill="#0000ff"/>
<path transform="matrix(1.00005,0,0,-1.00003,1.0961456,163.19641)" stroke-width=".79701" stroke-linecap="butt" stroke-miterlimit="10" stroke-linejoin="miter" fill="none" stroke="#0000ff" d="M1.99255 .29344C1.99255 1.3939 1.10046 2.286 0 2.286-1.10046 2.286-1.99255 1.3939-1.99255 .29344-1.99255-.80702-1.10046-1.6991 0-1.6991 1.10046-1.6991 1.99255-.80702 1.99255 .29344ZM0 .29344"/>
<path transform="matrix(1.00005,0,0,-1.00003,1.0961456,163.19641)" d="M4.15114 .29344C4.15114 1.3939 3.25905 2.286 2.15858 2.286 1.0581 2.286 .16603 1.3939 .16603 .29344 .16603-.80702 1.0581-1.6991 2.15858-1.6991 3.25905-1.6991 4.15114-.80702 4.15114 .29344ZM2.15858 .29344" fill="#ff0000"/>
<path transform="matrix(1.00005,0,0,-1.00003,1.0961456,163.19641)" stroke-width=".79701" stroke-linecap="butt" stroke-miterlimit="10" stroke-linejoin="miter" fill="none" stroke="#ff0000" d="M4.15114 .29344C4.15114 1.3939 3.25905 2.286 2.15858 2.286 1.0581 2.286 .16603 1.3939 .16603 .29344 .16603-.80702 1.0581-1.6991 2.15858-1.6991 3.25905-1.6991 4.15114-.80702 4.15114 .29344ZM2.15858 .29344"/>
<path transform="matrix(1.00005,0,0,-1.00003,1.0961456,163.19641)" stroke-width=".79701" stroke-linecap="butt" stroke-miterlimit="10" stroke-linejoin="miter" fill="none" stroke="#ff0000" d="M10.79294 14.67218H10.9014 11.00987 11.11833 11.22682 11.33528 11.44377 11.55222 11.6607 11.76917 11.87766 11.98611 12.09459 12.20305 12.31152 12.42 12.52847 12.63695 12.74542 12.85387 12.96236 13.07082 13.1793 13.28777 13.39626 13.5047 13.61317 13.72165 13.83012 13.9386 14.04707 14.15555 14.264 14.37248 14.48096 14.58942 14.6979 14.80637 14.91484 15.0233 15.13179 15.24025 15.34872 15.4572 15.56567 15.67413 15.78261 15.89108 15.99956 16.10802 16.2165 16.32495 16.43344 16.5419 16.65039 16.75885 16.86732 16.97578 17.08426 17.19273 17.3012 17.40968 17.51814 17.62662 17.73508 17.84355 17.95203 18.0605 18.16898 18.27745 18.38591 18.49438 18.60284 18.71133 18.8198 18.92828 19.03673 19.14522 19.25368 19.36215 19.47063 19.5791 19.68756 19.79604 19.90451 20.01299 20.12146 20.22993 20.33838 20.44687 20.55533 20.66382 20.77228 20.88077 20.98923 21.09769 21.20616 21.31464 21.42311 21.53159 21.64006 21.7485 21.85698 21.96545 22.07393 22.1824 22.29086 22.39934 22.5078 22.61629 22.72475 22.8332 22.9417 23.05014 23.15863 23.26709 23.37556 23.48404 23.5925 23.70097 23.80943 23.91792 24.02638 24.13486 24.24333 24.35178 24.46025 24.56873 24.6772 24.78568 24.89415 25.00261 25.11107 25.21954 25.32802 25.4365 25.54495 25.65343 25.76189 25.87038 25.97884 26.08731 26.19579 26.30423 26.41272 26.52118 26.62965 26.73813 26.84659 26.95506 27.06352 27.17201 27.28047 27.38895 27.49742 27.60587 27.71434 27.82281 27.93129 28.03976 28.14824 28.25668 28.36517 28.47363 28.5821 28.69058 28.79906 28.90752 29.01598 29.12447 29.23293 29.34138 29.44987 29.55832 29.66681 29.77527 29.88376 29.99222 30.10068 30.20915 30.31761 30.42609 30.53456 30.64304 30.75151 30.85997 30.96844 31.0769 31.18538 31.29385 31.40233 31.51077 31.61926 31.72772 31.8362 31.94467 32.05315 32.1616 32.27007 32.37856"/>
<path transform="matrix(1.00005,0,0,-1.00003,1.0961456,163.19641)" stroke-width=".79701" stroke-linecap="butt" stroke-miterlimit="10" stroke-linejoin="miter" fill="none" stroke="#ff0000" d="M32.37885 44.01656 32.81271 45.49052 33.2466 46.96274 33.6805 48.43143 34.11436 49.89426 34.54826 51.34915 34.98216 52.79495 35.41605 54.22932 35.84993 55.65077 36.28381 57.05698 36.7177 58.44672 37.1516 59.81711 37.58546 61.16843 38.01935 62.49715 38.45325 63.8018 38.88715 65.08092 39.32103 66.33452 39.75491 67.5585 40.1888 68.7528 40.6227 69.91603 41.05656 71.04639 41.49045 72.14182 41.92435 73.20291 42.35822 74.22792 42.7921 75.21272 43.22601 76.15997 43.6599 77.0679 44.09378 77.93387 44.52766 78.75697 44.96155 79.53873 45.39545 80.27673 45.82932 80.97014 46.2632 81.61807 46.6971 82.22287 47.13098 82.77866 47.56487 83.28896 47.99876 83.75378 48.43265 84.1696 48.86655 84.53877 49.30042 84.86186 49.7343 85.13623 50.1682 85.36247 50.60207 85.54324 51.03596 85.67706 51.46985 85.76216 51.90373 85.8021 52.33763 85.79652 52.77151 85.74371 53.2054 85.6463 53.6393 85.50514 54.07317 85.31999 54.50706 85.0917 54.94095 84.82175 55.37483 84.51129 55.80872 84.15915 56.2426 83.7686 56.6765 83.34047 57.11038 82.8742 57.54427 82.373 57.97816 81.83806 58.41205 81.26938 58.84592 80.6693 59.27982 80.03957 59.7137 79.38078 60.14758 78.69412 60.58148 77.98285 61.01537 77.24748 61.44926 76.48921 61.88315 75.7113 62.31702 74.91461 62.75092 74.1006 63.1848 73.27106 63.61868 72.42769 64.05257 71.57378 64.48645 70.7093 64.92036 69.8375 65.35423 68.9601 65.78812 68.07744 66.22202 67.1933 66.6559 66.30974 67.08977 65.42679 67.52367 64.54704 67.95755 63.67346 68.39145 62.80692 68.82532 61.94948 69.25922 61.10292 69.69312 60.26926 70.127 59.45084 70.56087 58.64857 70.99477 57.8639 71.42865 57.10097 71.86255 56.35828 72.29642 55.63963 72.7303 54.94623 73.1642 54.27924 73.59807 53.64012 74.03197 53.03065 74.46587 52.45345 74.89975 51.90825 75.33363 51.39677 75.76752 50.9208 76.2014 50.48125 76.6353 50.07864 77.06917 49.71567 77.50305 49.39317 77.93695 49.11 78.37085 48.86998 78.80473 48.67221 79.23862 48.51756 79.6725 48.40694 80.10638 48.34268 80.54027 48.32185 80.97415 48.3474 81.40805 48.42047 81.84192 48.5399 82.27583 48.70601 82.70972 48.91936 83.1436 49.18024 83.57748 49.48805 84.01137 49.84372 84.44525 50.24634 84.87915 50.69676 85.31302 51.1927 85.74692 51.73703 86.1808 52.32657 86.6147 52.96072 87.04858 53.64182 87.48247 54.36691 87.91635 55.13516 88.35023 55.94624 88.78412 56.80104 89.21802 57.69577 89.6519 58.63068 90.08577 59.6061 90.51967 60.61937 90.95357 61.66815 91.38745 62.75418 91.82133 63.87546 92.25522 65.02809 92.68912 66.21332 93.123 67.42966 93.55687 68.67386 93.99077 69.94536 94.42465 71.24356 94.85854 72.56581 95.29243 73.90982 95.72632 75.27522 96.16022 76.65968 96.59409 78.0603 97.02797 79.47792 97.46187 80.90877 97.89575 82.35077 98.32962 83.8042 98.76352 85.26466 99.1974 86.7316 99.63129 88.20294 100.06519 89.67664 100.49907 91.15031 100.93297 92.624 101.36685 94.09357 101.80072 95.55814 102.23462 97.01598 102.6685 98.46442 103.10239 99.90259 103.53627 101.32756 103.97015 102.73875 104.40407 104.1329 104.83794 105.50975 105.27182 106.86694 105.70572 108.20212 106.1396 109.5144 106.57349 110.80145 107.00737 112.06238 107.44125 113.29544 107.87515 114.49855 108.30904 115.67148 108.74292 116.81093 109.17682 117.91722 109.6107 118.98859 110.04459 120.02327 110.47847 121.02069 110.91235 121.97968 111.34624 122.89845 111.78012 123.77673 112.214 124.61334 112.64792 125.40744 113.08179 126.15778 113.51569 126.86469 113.94957 127.5267 114.38345 128.14264 114.81734 128.7131 115.25122 129.23836 115.6851 129.71523 116.119 130.14511 116.55287 130.52924 116.98679 130.86585 117.42067 131.15372 117.85455 131.39524 118.28844 131.5898 118.72232 131.73564"/>
<use data-text="f" xlink:href="#font_2_2" transform="matrix(9.963098,0,0,-9.962899,9.688576,156.3052)"/>
<use data-text="(" xlink:href="#font_3_1" transform="matrix(9.963098,0,0,-9.962899,15.63887,156.3052)"/>
<use data-text="t" xlink:href="#font_2_4" transform="matrix(9.963098,0,0,-9.962899,19.51307,156.3052)"/>
<use data-text=")" xlink:href="#font_3_2" transform="matrix(9.963098,0,0,-9.962899,23.111245,156.3052)"/>
<use data-text="g" xlink:href="#font_2_3" transform="matrix(9.963098,0,0,-9.962899,11.523666,154.83817)"/>
<use data-text="(" xlink:href="#font_3_1" transform="matrix(9.963098,0,0,-9.962899,16.632927,154.83817)"/>
<use data-text="t" xlink:href="#font_2_4" transform="matrix(9.963098,0,0,-9.962899,20.508118,154.83817)"/>
<use data-text=")" xlink:href="#font_3_2" transform="matrix(9.963098,0,0,-9.962899,24.1053,154.83817)"/>
<use data-text="=" xlink:href="#font_3_3" transform="matrix(9.963098,0,0,-9.962899,30.730759,154.83817)"/>
<use data-text="U" xlink:href="#font_4_2" transform="matrix(9.963098,0,0,-9.962899,41.264154,154.83817)"/>
<use data-text="(" xlink:href="#font_3_1" transform="matrix(9.963098,0,0,-9.962899,48.48951,154.83817)"/>
<use data-text="t" xlink:href="#font_2_4" transform="matrix(9.963098,0,0,-9.962899,52.36371,154.83817)"/>
<use data-text="&#x2212;" xlink:href="#font_4_1" transform="matrix(9.963098,0,0,-9.962899,58.174997,154.83817)"/>
<use data-text="a" xlink:href="#font_2_1" transform="matrix(9.963098,0,0,-9.962899,68.1385,154.83817)"/>
<use data-text=")" xlink:href="#font_3_2" transform="matrix(9.963098,0,0,-9.962899,73.40476,154.83817)"/>
<use data-text="f" xlink:href="#font_2_2" transform="matrix(9.963098,0,0,-9.962899,78.94004,154.83817)"/>
<use data-text="(" xlink:href="#font_3_1" transform="matrix(9.963098,0,0,-9.962899,84.89034,154.83817)"/>
<use data-text="t" xlink:href="#font_2_4" transform="matrix(9.963098,0,0,-9.962899,88.76452,154.83817)"/>
<use data-text="&#x2212;" xlink:href="#font_4_1" transform="matrix(9.963098,0,0,-9.962899,94.57682,154.83817)"/>
<use data-text="a" xlink:href="#font_2_1" transform="matrix(9.963098,0,0,-9.962899,104.539318,154.83817)"/>
<use data-text=")" xlink:href="#font_3_2" transform="matrix(9.963098,0,0,-9.962899,109.80657,154.83817)"/>
<use data-text="a" xlink:href="#font_2_1" transform="matrix(9.963098,0,0,-9.962899,6.451416,159.85231)"/>
</g>
<use data-text="t" xlink:href="#font_2_4" transform="matrix(9.963098,0,0,-9.962899,188.2925,145.00186)"/>
<use data-text="y" xlink:href="#font_2_5" transform="matrix(9.963098,0,0,-9.962899,15.411858,9.581802)"/>
</svg>
