<svg xmlns="http://www.w3.org/2000/svg" xmlns:xlink="http://www.w3.org/1999/xlink" xmlns:inkscape="http://www.inkscape.org/namespaces/inkscape" version="1.1" width="215" height="139" viewBox="0 0 215 139">
<defs>
<path id="font_1_3" d="M.45999146 .31976319C.45999146 .39982606 .45498658 .47988893 .41999818 .5539398 .37399293 .65000918 .2919922 .6660156 .25 .6660156 .18998719 .6660156 .116989139 .64001467 .07598877 .54693606 .04399109 .47789 .038986207 .39982606 .038986207 .31976319 .038986207 .24472046 .042999269 .15464783 .083999637 .07859802 .1269989-.0024719239 .19999695-.022460938 .24899292-.022460938 .30299378-.022460938 .3789978-.0014648438 .4229889 .09359741 .45498658 .16265869 .45999146 .2407074 .45999146 .31976319M.24899292-.00047302247C.20999146-.00047302247 .15098572 .024551392 .1329956 .12062073 .12199402 .18066406 .12199402 .2727356 .12199402 .3317871 .12199402 .39582826 .12199402 .46188355 .12998963 .5159149 .14898682 .63500979 .22399903 .64401248 .24899292 .64401248 .28199769 .64401248 .34799195 .6259918 .36698915 .52693179 .3769989 .47088624 .3769989 .39482118 .3769989 .3317871 .3769989 .25672914 .3769989 .18867493 .3659973 .12461853 .35099793 .029556275 .2939911-.00047302247 .24899292-.00047302247Z"/>
<path id="font_2_2" d="M.19198609 .052993776C.19198609 .08198547 .16799927 .10598755 .13899231 .10598755 .10998535 .10598755 .085998538 .08198547 .085998538 .052993776 .085998538 .023986817 .10998535 0 .13899231 0 .16799927 0 .19198609 .023986817 .19198609 .052993776Z"/>
<path id="font_1_4" d="M.2939911 .64004519C.2939911 .66400149 .2939911 .6660156 .2709961 .6660156 .20899964 .60227969 .12098694 .60227969 .08898926 .60227969V.57128909C.10899353 .57128909 .16799927 .57128909 .21998596 .5972748V.07902527C.21998596 .042999269 .21699524 .0309906 .1269989 .0309906H.09498596V0C.12998963 .0029907227 .21699524 .0029907227 .25698854 .0029907227 .29699708 .0029907227 .38398744 .0029907227 .4189911 0V.0309906H.3869934C.29699708 .0309906 .2939911 .041992189 .2939911 .07902527V.64004519Z"/>
<path id="font_1_5" d="M.1269989 .07699585 .23298645 .18003845C.3889923 .31811524 .44898988 .3721466 .44898988 .47216798 .44898988 .5860901 .35899354 .6660156 .23699951 .6660156 .12399292 .6660156 .049987794 .57411196 .049987794 .48516847 .049987794 .4291687 .099990848 .4291687 .102996829 .4291687 .11999512 .4291687 .15499878 .44117738 .15499878 .48217774 .15499878 .5081787 .13699341 .5341797 .101989749 .5341797 .09399414 .5341797 .09199524 .5341797 .08898926 .5331726 .11199951 .59806826 .1659851 .63500979 .22399903 .63500979 .31498719 .63500979 .35798646 .5541382 .35798646 .47216798 .35798646 .39215089 .30799867 .31311036 .25299073 .25108338L.06098938 .036987306C.049987794 .025985718 .049987794 .023986817 .049987794 0H.42099L.44898988 .17404175H.42399598C.4189911 .14402771 .4119873 .1000061 .4019928 .084991458 .394989 .07699585 .32899476 .07699585 .30699159 .07699585H.1269989Z"/>
<path id="font_1_6" d="M.2899933 .35191346C.37199403 .37893678 .42999269 .4490509 .42999269 .52809146 .42999269 .6100464 .34199525 .6660156 .24598694 .6660156 .14498902 .6660156 .068984989 .60606387 .068984989 .53009036 .068984989 .49710084 .09098816 .47808839 .11999512 .47808839 .15098572 .47808839 .17098999 .50009158 .17098999 .5290985 .17098999 .57910159 .12399292 .57910159 .10899353 .57910159 .13999939 .62802127 .20599365 .64100649 .24198914 .64100649 .2829895 .64100649 .33799745 .6190338 .33799745 .5290985 .33799745 .51708987 .33599855 .45906068 .30999757 .4149933 .27999879 .36691285 .24598694 .36390687 .22099304 .36291505 .21299744 .36190797 .18899536 .35990907 .18199158 .35990907 .17399597 .35890199 .16699219 .35791017 .16699219 .3479004 .16699219 .33691407 .17399597 .33691407 .19099427 .33691407H.23498535C.31698609 .33691407 .35398866 .2686615 .35398866 .17037964 .35398866 .034469606 .2849884 .0055389406 .24099732 .0055389406 .19799805 .0055389406 .12298584 .022491456 .08799744 .08137512 .12298584 .07637024 .1539917 .09837341 .1539917 .1363678 .1539917 .17237854 .1269989 .19238281 .09799194 .19238281 .07398987 .19238281 .041992189 .17837525 .041992189 .1343689 .041992189 .043441774 .1349945-.022460938 .24398804-.022460938 .3659973-.022460938 .45700074 .06838989 .45700074 .17037964 .45700074 .252594 .3939972 .33088685 .2899933 .35191346Z"/>
<path id="font_1_7" d="M.2939911 .16503906V.07800293C.2939911 .041992189 .2919922 .0309906 .21798706 .0309906H.19699097V0C.23799134 .0029907227 .2899933 .0029907227 .33198548 .0029907227 .37399293 .0029907227 .4269867 .0029907227 .46798707 0V.0309906H.44699098C.37298585 .0309906 .37098695 .041992189 .37098695 .07800293V.16503906H.47099305V.19602967H.37098695V.65075686C.37098695 .67074587 .37098695 .6767578 .35499574 .6767578 .34599305 .6767578 .34298707 .6767578 .33499146 .66474917L.027999878 .19602967V.16503906H.2939911M.2999878 .19602967H.055999757L.2999878 .5688019V.19602967Z"/>
<path id="font_1_8" d="M.44898988 .20022583C.44898988 .3193512 .36698915 .41944886 .25898744 .41944886 .21099854 .41944886 .16799927 .40345765 .13198853 .36842347V.5637665C.1519928 .5577698 .18499756 .55078127 .21699524 .55078127 .33999635 .55078127 .4099884 .6417694 .4099884 .6547699 .4099884 .6607666 .40699769 .6657715 .3999939 .6657715 .39898683 .6657715 .39698792 .6657715 .3919983 .66278079 .37199403 .6537781 .32299806 .6337738 .2559967 .6337738 .21598816 .6337738 .16999817 .6407776 .12298584 .6617737 .114990238 .66477969 .11299133 .66477969 .11099243 .66477969 .100997928 .66477969 .100997928 .6567688 .100997928 .6407776V.34439088C.100997928 .32637025 .100997928 .31835938 .114990238 .31835938 .12199402 .31835938 .12399292 .32136537 .12799073 .32736207 .13899231 .3433838 .17599488 .39746095 .25698854 .39746095 .30899049 .39746095 .33399964 .35139466 .34199525 .33337403 .35798646 .29632569 .3600006 .25727845 .3600006 .20722962 .3600006 .17222595 .3600006 .11222839 .33599855 .07035828 .31199647 .031463624 .2749939 .0055389406 .22898865 .0055389406 .1559906 .0055389406 .09899902 .058380128 .08198547 .11723328 .084991458 .1162262 .08799744 .115234378 .09899902 .115234378 .13198853 .115234378 .14898682 .14022827 .14898682 .16423035 .14898682 .18823242 .13198853 .21322632 .09899902 .21322632 .084991458 .21322632 .049987794 .20622254 .049987794 .16023255 .049987794 .07434082 .11898804-.022460938 .23098755-.022460938 .34700013-.022460938 .44898988 .073349 .44898988 .20022583Z"/>
<path id="font_1_9" d="M.13198853 .327713V.35173036C.13198853 .6047821 .2559967 .64100649 .30699159 .64100649 .33099366 .64100649 .37298585 .634964 .394989 .6007538 .37998963 .6007538 .33999635 .6007538 .33999635 .5557556 .33999635 .524765 .3639984 .5097656 .38598634 .5097656 .4019928 .5097656 .43199159 .51875308 .43199159 .5577545 .43199159 .6178589 .3880005 .6660156 .30499269 .6660156 .1769867 .6660156 .041992189 .5367584 .041992189 .31570436 .041992189 .048553468 .1579895-.022460938 .25099183-.022460938 .3619995-.022460938 .45700074 .07156372 .45700074 .2036438 .45700074 .33070375 .36799623 .4267578 .25698854 .4267578 .18899536 .4267578 .1519928 .37573243 .13198853 .327713M.25099183 .0055389406C.18798828 .0055389406 .1579895 .06556702 .1519928 .080566409 .13398743 .127594 .13398743 .2076416 .13398743 .22564698 .13398743 .30369569 .1659851 .40374757 .2559967 .40374757 .27198792 .40374757 .31799317 .40374757 .34899903 .34172059 .36698915 .30470277 .36698915 .2536621 .36698915 .20463562 .36698915 .15661621 .36698915 .10658264 .34999085 .0705719 .31999208 .010528564 .27398683 .0055389406 .25099183 .0055389406Z"/>
<path id="font_1_10" d="M.47599793 .609375C.4850006 .6213684 .4850006 .62338259 .4850006 .64437869H.24198914C.11999512 .64437869 .117996219 .65737918 .11399841 .67637637H.08898926L.055999757 .4702301H.08099365C.083999637 .48625184 .09298706 .5493469 .10598755 .56137087 .11299133 .5673828 .19099427 .5673828 .20399475 .5673828H.41099549C.3999939 .5513611 .32099916 .4421997 .29899598 .40914918 .20899964 .27394105 .17599488 .1347351 .17599488 .032577516 .17599488 .022567749 .17599488-.022460938 .22200012-.022460938 .2679901-.022460938 .2679901 .022567749 .2679901 .032577516V.08366394C.2679901 .13873291 .2709961 .19381714 .2789917 .24790955 .2829895 .27093507 .29699708 .35707093 .34098817 .41915895L.47599793 .609375Z"/>
<path id="font_1_11" d="M.16299439 .4569702C.116989139 .486969 .11299133 .52098086 .11299133 .5379791 .11299133 .598999 .17799378 .64100649 .24899292 .64100649 .32199098 .64100649 .38598634 .58898928 .38598634 .51698306 .38598634 .45996095 .34700013 .4119568 .2869873 .37695313L.16299439 .4569702M.30899049 .36193849C.3809967 .3989563 .42999269 .45095826 .42999269 .51698306 .42999269 .6090088 .34098817 .6660156 .25 .6660156 .1499939 .6660156 .068984989 .59199526 .068984989 .49897767 .068984989 .4809723 .070999149 .43595887 .11299133 .38894654 .12399292 .37695313 .16099549 .35194398 .18598938 .33494569 .12799073 .30592347 .041992189 .24984741 .041992189 .15072632 .041992189 .04458618 .14399719-.022460938 .24899292-.022460938 .3619995-.022460938 .45700074 .06060791 .45700074 .16773987 .45700074 .20379639 .44599916 .24885559 .4079895 .2909088 .3889923 .31193543 .37298585 .3219452 .30899049 .36193849M.20899964 .3199463 .33198548 .24183655C.3600006 .2228241 .40699769 .19277954 .40699769 .13169861 .40699769 .05760193 .33198548 .0055389406 .25 .0055389406 .1639862 .0055389406 .09199524 .067611698 .09199524 .15072632 .09199524 .20880127 .12399292 .27288819 .20899964 .3199463Z"/>
<path id="font_1_12" d="M.36698915 .31781007V.28579713C.36698915 .05178833 .2630005 .0055389406 .20498657 .0055389406 .18798828 .0055389406 .13398743 .007537842 .10699463 .041778566 .15098572 .041778566 .15899658 .07078552 .15899658 .08778381 .15899658 .118774417 .1349945 .13378906 .11299133 .13378906 .09700012 .13378906 .066986087 .12478638 .066986087 .08578491 .066986087 .018615723 .12098694-.022460938 .20599365-.022460938 .33499146-.022460938 .45700074 .11378479 .45700074 .32881166 .45700074 .5979767 .34199525 .6660156 .25299073 .6660156 .19799805 .6660156 .14898682 .64801028 .10598755 .60298159 .06498718 .5579529 .041992189 .5159302 .041992189 .44088746 .041992189 .31581117 .12998963 .21777344 .24198914 .21777344 .30299378 .21777344 .34399415 .25978089 .36698915 .31781007M.24299622 .24076844C.22698975 .24076844 .18099976 .24076844 .1499939 .3038025 .13198853 .3408203 .13198853 .39085389 .13198853 .43988038 .13198853 .49391175 .13198853 .54093936 .15299988 .5779724 .17999268 .6279907 .21798706 .64100649 .25299073 .64100649 .29899598 .64100649 .33198548 .60697939 .34899903 .5619507 .36099244 .52993777 .36499024 .4669037 .36499024 .42086793 .36499024 .3378296 .33099366 .24076844 .24299622 .24076844Z"/>
<path id="font_3_1" d="M.6589966 .23046875C.6759949 .23046875 .69400027 .23046875 .69400027 .25045777 .69400027 .27046205 .6759949 .27046205 .6589966 .27046205H.117996219C.100997928 .27046205 .08299255 .27046205 .08299255 .25045777 .08299255 .23046875 .100997928 .23046875 .117996219 .23046875H.6589966Z"/>
<clipPath id="clip_4">
<path transform="matrix(.80001607,0,0,-.800064,21.61193,1.9186707)" d="M0 0H238.63423V-153.59682H0Z"/>
</clipPath>
<path id="font_2_4" d="M.48599244 .38136292C.48999024 .39537049 .48999024 .39736939 .48999024 .40437318 .48999024 .42237855 .47599793 .43138124 .46099855 .43138124 .45098878 .43138124 .43499757 .42536927 .42599488 .41036988 .42399598 .405365 .41600038 .37435914 .4119873 .35635377 .40499879 .33035279 .397995 .30334474 .3919983 .27633668L.34700013 .09628296C.34298707 .08126831 .2999878 .011245728 .23399353 .011245728 .18299866 .011245728 .17199707 .055267335 .17199707 .0922699 .17199707 .1382904 .18899536 .20030213 .22299195 .28833009 .23899842 .3293457 .24299622 .3403473 .24299622 .36035157 .24299622 .405365 .21099854 .4423828 .16099549 .4423828 .06599426 .4423828 .0289917 .29733277 .0289917 .28833009 .0289917 .27833558 .038986207 .27833558 .040985109 .27833558 .050994874 .27833558 .051986696 .28033448 .056991579 .29634095 .083999637 .3903656 .12399292 .42037965 .1579895 .42037965 .1659851 .42037965 .18299866 .42037965 .18299866 .3883667 .18299866 .36335755 .17298889 .3373413 .1659851 .31834413 .12599182 .21231079 .10798645 .1552887 .10798645 .10827637 .10798645 .019256592 .17098999-.0107421879 .22999573-.0107421879 .2689972-.0107421879 .30299378 .0062561037 .33099366 .03425598 .31799317-.017745972 .30599977-.06674194 .2659912-.11973572 .23999024-.15385437 .20199585-.18309021 .1559906-.18309021 .14199829-.18309021 .09700012-.18005371 .07998657-.14074707 .09599304-.14074707 .10899353-.14074707 .12298584-.1287384 .1329956-.11973572 .14299011-.10673523 .14299011-.08773804 .14299011-.056747438 .115997318-.052734376 .10598755-.052734376 .08299255-.052734376 .049987794-.068740848 .049987794-.11773682 .049987794-.16796875 .09399414-.20507813 .1559906-.20507813 .25898744-.20507813 .3619995-.11373901 .3899994-.00074768069L.48599244 .38136292Z"/>
<path id="font_1_1" d="M.33099366-.2400055C.33099366-.23701477 .33099366-.23500061 .31399537-.21800232 .18899536-.0920105 .15699768 .09700012 .15699768 .25 .15699768 .42399598 .19499207 .59799197 .31799317 .72299197 .33099366 .73498538 .33099366 .7369995 .33099366 .73999026 .33099366 .746994 .32699586 .75 .32099916 .75 .31098939 .75 .22099304 .6819916 .1619873 .5549927 .11099243 .44499208 .09899902 .33399964 .09899902 .25 .09899902 .17199707 .10998535 .050994874 .16499329-.06201172 .22499085-.18501282 .31098939-.25 .32099916-.25 .32699586-.25 .33099366-.24700928 .33099366-.2400055Z"/>
<path id="font_2_3" d="M.20599365 .3996582H.2999878C.31999208 .3996582 .32998658 .3996582 .32998658 .41966249 .32998658 .43066407 .31999208 .43066407 .3019867 .43066407H.21398926C.25 .5724945 .25498963 .59246829 .25498963 .59846499 .25498963 .61546328 .24299622 .62545779 .22599793 .62545779 .22299195 .62545779 .19499207 .62446597 .18598938 .58947756L.14698792 .43066407H.052993776C.032989503 .43066407 .022994996 .43066407 .022994996 .4116516 .022994996 .3996582 .0309906 .3996582 .050994874 .3996582H.13899231C.066986087 .11608887 .06298828 .099121097 .06298828 .08114624 .06298828 .02722168 .100997928-.0107421879 .15499878-.0107421879 .25698854-.0107421879 .31399537 .13505554 .31399537 .14305115 .31399537 .1530304 .30599977 .1530304 .3019867 .1530304 .29299928 .1530304 .2919922 .15003968 .2869873 .13905335 .24398804 .035217287 .19099427 .011245728 .15699768 .011245728 .13598633 .011245728 .12599182 .024230957 .12599182 .057174684 .12599182 .08114624 .12799073 .088134769 .13198853 .10510254L.20599365 .3996582Z"/>
<path id="font_1_2" d="M.2889862 .25C.2889862 .32798768 .27799989 .44898988 .22299195 .56199648 .16299439 .68499758 .07699585 .75 .066986087 .75 .06098938 .75 .056991579 .74598696 .056991579 .73999026 .056991579 .7369995 .056991579 .73498538 .07598877 .71699526 .17399597 .6179962 .23098755 .45899964 .23098755 .25 .23098755 .07899475 .19400025-.09700012 .069992069-.2230072 .056991579-.23500061 .056991579-.23701477 .056991579-.2400055 .056991579-.2460022 .06098938-.25 .066986087-.25 .07699585-.25 .16699219-.18200684 .22599793-.055007936 .2769928 .054992677 .2889862 .16600037 .2889862 .25Z"/>
<path id="font_1_13" d="M.68699648 .32714845C.70199587 .32714845 .72099307 .32714845 .72099307 .34713746 .72099307 .36714173 .70199587 .36714173 .6879883 .36714173H.08898926C.07499695 .36714173 .055999757 .36714173 .055999757 .34713746 .055999757 .32714845 .07499695 .32714845 .08999634 .32714845H.68699648M.6879883 .13284302C.70199587 .13284302 .72099307 .13284302 .72099307 .15284729 .72099307 .17285156 .70199587 .17285156 .68699648 .17285156H.08999634C.07499695 .17285156 .055999757 .17285156 .055999757 .15284729 .055999757 .13284302 .07499695 .13284302 .08898926 .13284302H.6879883Z"/>
<path id="font_3_2" d="M.3889923-.8549652 .21299744-.4659729C.20599365-.44996644 .20098877-.44996644 .19799805-.44996644 .19699097-.44996644 .19198609-.44996644 .18099976-.45796205L.085998538-.52996829C.07299805-.53996279 .07299805-.54296877 .07299805-.54597476 .07299805-.55096438 .07598877-.55696108 .08299255-.55696108 .08898926-.55696108 .10598755-.54296877 .116989139-.53497317 .12298584-.52996829 .13798523-.5189667 .14898682-.51097109L.34599305-.9439697C.35299684-.95996096 .35798646-.95996096 .36698915-.95996096 .38198854-.95996096 .3849945-.95396426 .3919983-.9399719L.84599307 .000030517579C.8529968 .014038086 .8529968 .018035889 .8529968 .02003479 .8529968 .030029297 .8450012 .040039064 .83299258 .040039064 .82499697 .040039064 .81799319 .03503418 .80999758 .01902771L.3889923-.8549652Z"/>
<path id="font_1_16" d="M.20799256 .19424439C.22999573 .19024658 .31199647 .17424011 .31199647 .102249149 .31199647 .051254274 .2769928 .011245728 .19898987 .011245728 .114990238 .011245728 .07899475 .06825256 .05999756 .15324402 .056991579 .1662445 .055999757 .17024231 .04598999 .17024231 .032989503 .17024231 .032989503 .16323853 .032989503 .14524842V.013244629C.032989503-.003753662 .032989503-.0107421879 .04399109-.0107421879 .04899597-.0107421879 .049987794-.009750366 .068984989 .009246826 .070999149 .011245728 .070999149 .013244629 .08898926 .03224182 .1329956-.009750366 .17799378-.0107421879 .19898987-.0107421879 .31399537-.0107421879 .3600006 .056243898 .3600006 .12825012 .3600006 .1812439 .32998658 .21124268 .31799317 .22323609 .2849884 .25523377 .24598694 .26324464 .20399475 .27124024 .147995 .28224183 .08099365 .2952423 .08099365 .35324098 .08099365 .38822938 .10699463 .42922975 .19299317 .42922975 .30299378 .42922975 .30799867 .3392334 .30999757 .3082428 .31098939 .2992401 .31999208 .2992401 .32199098 .2992401 .33499146 .2992401 .33499146 .304245 .33499146 .3232422V.4242401C.33499146 .4412384 .33499146 .4482422 .32398988 .4482422 .31900025 .4482422 .31698609 .4482422 .3039856 .43623353 .30099488 .43223573 .29100038 .42323304 .2869873 .42022706 .24899292 .4482422 .20799256 .4482422 .19299317 .4482422 .070999149 .4482422 .032989503 .38124085 .032989503 .3252411 .032989503 .29023744 .04899597 .26223756 .07598877 .24023438 .10798645 .21424866 .13598633 .2082367 .20799256 .19424439Z"/>
<path id="font_1_14" d="M.1769867 .4423828 .036987306 .43138124V.40037538C.101989749 .40037538 .11099243 .3943634 .11099243 .34532167V.076034549C.11099243 .0309906 .099990848 .0309906 .032989503 .0309906V0C.06498718 .0009918213 .11898804 .0029907227 .14299011 .0029907227 .17799378 .0029907227 .21299744 .0009918213 .24699402 0V.0309906C.18099976 .0309906 .1769867 .035995485 .1769867 .075042728V.4423828M.18099976 .6159363C.18099976 .64793398 .1559906 .6689453 .12799073 .6689453 .09700012 .6689453 .07499695 .64193728 .07499695 .6159363 .07499695 .5889435 .09700012 .5629425 .12799073 .5629425 .1559906 .5629425 .18099976 .5839386 .18099976 .6159363Z"/>
<path id="font_1_15" d="M.10998535 .34429933V.076034549C.10998535 .0309906 .09899902 .0309906 .03199768 .0309906V0C.066986087 .0009918213 .117996219 .0029907227 .14498902 .0029907227 .17098999 .0029907227 .22299195 .0009918213 .25698854 0V.0309906C.18998719 .0309906 .1789856 .0309906 .1789856 .076034549V.2602234C.1789856 .36431886 .25 .42037965 .31399537 .42037965 .3769989 .42037965 .3880005 .36631776 .3880005 .30926515V.076034549C.3880005 .0309906 .3769989 .0309906 .30999757 .0309906V0C.34498597 .0009918213 .3959961 .0029907227 .4229889 .0029907227 .44898988 .0029907227 .5009918 .0009918213 .5349884 0V.0309906C.48298646 .0309906 .45799256 .0309906 .45700074 .061019899V.25221253C.45700074 .3383026 .45700074 .36932374 .42599488 .405365 .4119873 .42237855 .3789978 .4423828 .32099916 .4423828 .24798584 .4423828 .20098877 .39935304 .17298889 .33729554V.4423828L.03199768 .43138124V.40037538C.101989749 .4003601 .10998535 .39335633 .10998535 .34429933Z"/>
<path id="font_2_1" d="M.16999817-.16976929C.1659851-.18278504 .16499329-.18478394 .16499329-.18977356 .16499329-.21177674 .18399048-.21777344 .19400025-.21777344 .19898987-.21777344 .22099304-.21478272 .23098755-.19178772 .23399353-.18377686 .23899842-.1507721 .2659912-.008743286 .2749939-.009750366 .28199769-.0107421879 .29899598-.0107421879 .46499635-.0107421879 .61898806 .14628601 .61898806 .3043518 .61898806 .38237 .5799866 .4423828 .5049896 .4423828 .3600006 .4423828 .2999878 .24832154 .23999024 .053253175 .13198853 .07325745 .07598877 .12928772 .07598877 .2013092 .07598877 .22932434 .09899902 .33935548 .15899658 .40837098 .16699219 .41737367 .16699219 .41937257 .16699219 .42137147 .16699219 .42536927 .16499329 .43138124 .15499878 .43138124 .1269989 .43138124 .049987794 .28634645 .049987794 .19030762 .049987794 .0962677 .115997318 .023254395 .22299195-.0017547608L.16999817-.16976929M.30799867 .04725647C.2999878 .04725647 .2979889 .04725647 .2899933 .04824829 .27799989 .04824829 .2769928 .04925537 .2769928 .052246095 .2769928 .054260255 .2939911 .14529419 .29699708 .16029358 .32798768 .28834535 .4059906 .3843689 .49499513 .3843689 .56399539 .3843689 .59098818 .33035279 .59098818 .28233338 .59098818 .16929627 .46199037 .04725647 .30799867 .04725647Z"/>
</defs>
<path transform="matrix(.80001607,0,0,-.800064,21.61193,1.9186707)" stroke-width=".3985" stroke-linecap="butt" stroke-miterlimit="10" stroke-linejoin="miter" fill="none" stroke="#bfbfbf" d="M23.86406 0V-153.59682M47.72812 0V-153.59682M71.5898 0V-153.59682M95.45146 0V-153.59682M119.31316 0V-153.59682M143.17484 0V-153.59682M167.03652 0V-153.59682M190.8982 0V-153.59682M214.75988 0V-153.59682M238.62155 0V-153.59682"/>
<path transform="matrix(.80001607,0,0,-.800064,21.61193,1.9186707)" stroke-width=".3985" stroke-linecap="butt" stroke-miterlimit="10" stroke-linejoin="miter" fill="none" stroke="#bfbfbf" d="M0-48.85907H238.63423M0-104.74155H238.63423"/>
<path transform="matrix(.80001607,0,0,-.800064,21.61193,1.9186707)" stroke-width=".3985" stroke-linecap="butt" stroke-miterlimit="10" stroke-linejoin="miter" fill="none" stroke="#bfbfbf" d="M0-20.91783H238.63423M0-132.68279H238.63423"/>
<path transform="matrix(.80001607,0,0,-.800064,21.61193,1.9186707)" stroke-width=".19925" stroke-linecap="butt" stroke-miterlimit="10" stroke-linejoin="miter" fill="none" stroke="#7f807f" d="M23.86406-74.6743V-78.92633M47.72812-74.6743V-78.92633M71.5898-74.6743V-78.92633M95.45146-74.6743V-78.92633M119.31316-74.6743V-78.92633M143.17484-74.6743V-78.92633M167.03652-74.6743V-78.92633M190.8982-74.6743V-78.92633M214.75988-74.6743V-78.92633M238.62155-74.6743V-78.92633"/>
<path transform="matrix(.80001607,0,0,-.800064,21.61193,1.9186707)" stroke-width=".19925" stroke-linecap="butt" stroke-miterlimit="10" stroke-linejoin="miter" fill="none" stroke="#7f807f" d="M-1.4174-48.85907H1.41742M-1.4174-104.74155H1.41742"/>
<path transform="matrix(.80001607,0,0,-.800064,21.61193,1.9186707)" stroke-width=".19925" stroke-linecap="butt" stroke-miterlimit="10" stroke-linejoin="miter" fill="none" stroke="#7f807f" d="M-2.12593-20.91783H2.12593M-2.12593-132.68279H2.12593"/>
<path transform="matrix(.80001607,0,0,-.800064,21.61193,1.9186707)" stroke-width=".79701" stroke-linecap="butt" stroke-miterlimit="10" stroke-linejoin="miter" fill="none" stroke="#000000" d="M0-76.80031H236.04398"/>
<path transform="matrix(.80001607,0,0,-.800064,210.4509,63.363836)" d="M2.59026 0-1.55415 2.0722 0 0-1.55415-2.0722"/>
<path transform="matrix(.80001607,0,0,-.800064,21.61193,1.9186707)" stroke-width=".79701" stroke-linecap="butt" stroke-miterlimit="10" stroke-linejoin="miter" fill="none" stroke="#000000" d="M0 0V-151.00655"/>
<path transform="matrix(0,.800064,.80001607,0,21.61193,122.733577)" d="M2.59026 0-1.55415 2.0722 0 0-1.55415-2.0722"/>
<use data-text="0" xlink:href="#font_1_3" transform="matrix(7.9702398,0,0,-7.970718,35.611413,73.17717)"/>
<use data-text="." xlink:href="#font_2_2" transform="matrix(7.9702398,0,0,-7.970718,39.59709,73.17717)"/>
<use data-text="1" xlink:href="#font_1_4" transform="matrix(7.9702398,0,0,-7.970718,41.81073,73.17717)"/>
<use data-text="0" xlink:href="#font_1_3" transform="matrix(7.9702398,0,0,-7.970718,54.702997,73.17717)"/>
<use data-text="." xlink:href="#font_2_2" transform="matrix(7.9702398,0,0,-7.970718,58.688676,73.17717)"/>
<use data-text="2" xlink:href="#font_1_5" transform="matrix(7.9702398,0,0,-7.970718,60.902315,73.17717)"/>
<use data-text="0" xlink:href="#font_1_3" transform="matrix(7.9702398,0,0,-7.970718,73.79298,73.17717)"/>
<use data-text="." xlink:href="#font_2_2" transform="matrix(7.9702398,0,0,-7.970718,77.778659,73.17717)"/>
<use data-text="3" xlink:href="#font_1_6" transform="matrix(7.9702398,0,0,-7.970718,79.992298,73.17717)"/>
<use data-text="0" xlink:href="#font_1_3" transform="matrix(7.9702398,0,0,-7.970718,92.88216,73.17717)"/>
<use data-text="." xlink:href="#font_2_2" transform="matrix(7.9702398,0,0,-7.970718,96.867839,73.17717)"/>
<use data-text="4" xlink:href="#font_1_7" transform="matrix(7.9702398,0,0,-7.970718,99.081478,73.17717)"/>
<use data-text="0" xlink:href="#font_1_3" transform="matrix(7.9702398,0,0,-7.970718,111.972148,73.17717)"/>
<use data-text="." xlink:href="#font_2_2" transform="matrix(7.9702398,0,0,-7.970718,115.957828,73.17717)"/>
<use data-text="5" xlink:href="#font_1_8" transform="matrix(7.9702398,0,0,-7.970718,118.17146,73.17717)"/>
<use data-text="0" xlink:href="#font_1_3" transform="matrix(7.9702398,0,0,-7.970718,131.06214,73.17717)"/>
<use data-text="." xlink:href="#font_2_2" transform="matrix(7.9702398,0,0,-7.970718,135.0478,73.17717)"/>
<use data-text="6" xlink:href="#font_1_9" transform="matrix(7.9702398,0,0,-7.970718,137.26145,73.17717)"/>
<use data-text="0" xlink:href="#font_1_3" transform="matrix(7.9702398,0,0,-7.970718,150.1513,73.17717)"/>
<use data-text="." xlink:href="#font_2_2" transform="matrix(7.9702398,0,0,-7.970718,154.137,73.17717)"/>
<use data-text="7" xlink:href="#font_1_10" transform="matrix(7.9702398,0,0,-7.970718,156.35063,73.17717)"/>
<use data-text="0" xlink:href="#font_1_3" transform="matrix(7.9702398,0,0,-7.970718,169.2413,73.17717)"/>
<use data-text="." xlink:href="#font_2_2" transform="matrix(7.9702398,0,0,-7.970718,173.22698,73.17717)"/>
<use data-text="8" xlink:href="#font_1_11" transform="matrix(7.9702398,0,0,-7.970718,175.44062,73.17717)"/>
<use data-text="0" xlink:href="#font_1_3" transform="matrix(7.9702398,0,0,-7.970718,188.33127,73.17717)"/>
<use data-text="." xlink:href="#font_2_2" transform="matrix(7.9702398,0,0,-7.970718,192.31696,73.17717)"/>
<use data-text="9" xlink:href="#font_1_12" transform="matrix(7.9702398,0,0,-7.970718,194.5306,73.17717)"/>
<use data-text="1" xlink:href="#font_1_4" transform="matrix(7.9702398,0,0,-7.970718,210.52051,73.17717)"/>
<use data-text="&#x2212;" xlink:href="#font_3_1" transform="matrix(7.9702398,0,0,-7.970718,.5523071,20.89059)"/>
<use data-text="0" xlink:href="#font_1_3" transform="matrix(7.9702398,0,0,-7.970718,6.751625,20.89059)"/>
<use data-text="." xlink:href="#font_2_2" transform="matrix(7.9702398,0,0,-7.970718,10.736511,20.89059)"/>
<use data-text="5" xlink:href="#font_1_8" transform="matrix(7.9702398,0,0,-7.970718,12.950958,20.89059)"/>
<use data-text="0" xlink:href="#font_1_3" transform="matrix(7.9702398,0,0,-7.970718,6.7516329,110.64177)"/>
<use data-text="." xlink:href="#font_2_2" transform="matrix(7.9702398,0,0,-7.970718,10.737312,110.64177)"/>
<use data-text="5" xlink:href="#font_1_8" transform="matrix(7.9702398,0,0,-7.970718,12.950951,110.64177)"/>
<g clip-path="url(#clip_4)">
<path transform="matrix(.80001607,0,0,-.800064,21.61193,1.9186707)" stroke-width=".79701" stroke-linecap="butt" stroke-miterlimit="10" stroke-linejoin="miter" fill="none" stroke="#0000ff" d="M0-2.29254C0-2.29254 .57663-2.66628 .7981-2.8194 1.01956-2.9725 1.37474-3.22858 1.5962-3.3962 1.81766-3.56381 2.17285-3.84518 2.39432-4.0275 2.61578-4.20981 2.97096-4.51346 3.19243-4.71028 3.41388-4.9071 3.76906-5.23517 3.99052-5.44606 4.21199-5.65694 4.56718-6.0055 4.78865-6.23022 5.0101-6.45496 5.36528-6.82703 5.58675-7.06583 5.80821-7.30463 6.1634-7.69891 6.38487-7.95135 6.60634-8.2038 6.96152-8.61888 7.18297-8.88527 7.40443-9.15167 7.75961-9.5917 7.98108-9.87143 8.20255-10.15114 8.55774-10.60873 8.77919-10.90135 9.00066-11.19395 9.35583-11.6748 9.5773-11.98042 9.79877-12.28604 10.15396-12.78554 10.37541-13.10405 10.59688-13.42256 10.95206-13.94519 11.17352-14.27606 11.39499-14.60693 11.75017-15.14532 11.97163-15.48877 12.19308-15.83221 12.54828-16.3956 12.76974-16.7514 12.99121-17.10721 13.34639-17.6859 13.56786-18.0532 13.7893-18.42052 14.1445-19.02008 14.36597-19.3988 14.58743-19.77751 14.94261-20.39287 15.16408-20.78278 15.38553-21.17267 15.7407-21.8079 15.96217-22.209 16.18364-22.61009 16.53883-23.26187 16.7603-23.67363 16.98175-24.08537 17.33693-24.75468 17.5584-25.17665 17.77986-25.59863 18.13506-26.283 18.35652-26.71501 18.57799-27.147 18.93317-27.84833 19.15462-28.29024 19.37608-28.73215 19.73126-29.44852 19.95273-29.90002 20.1742-30.35152 20.52939-31.08348 20.75084-31.54436 20.9723-32.00523 21.32748-32.75243 21.54895-33.22173 21.77042-33.69102 22.12561-34.44894 22.34706-34.92676 22.56853-35.40457 22.9237-36.17943 23.14517-36.66556 23.36664-37.15169 23.72182-37.93646 23.94328-38.43048 24.16473-38.9245 24.51991-39.72487 24.74138-40.22614 24.96284-40.72739 25.31804-41.5352 25.5395-42.04329 25.76096-42.55136 26.11613-43.37276 26.3376-43.88809 26.55907-44.40343 26.91425-45.23584 27.13571-45.75745 27.35716-46.27905 27.71234-47.12009 27.9338-47.64757 28.15527-48.17505 28.51047-49.02628 28.73193-49.55919 28.95338-50.09209 29.30856-50.95023 29.53003-51.48846 29.7515-52.02672 30.10667-52.89514 30.32814-53.43849 30.5496-53.98184 30.90479-54.85701 31.12624-55.40463 31.3477-55.95226 31.7029-56.8338 31.92436-57.38536 32.14583-57.93692 32.501-58.82466 32.72246-59.37994 32.94392-59.93523 33.2991-60.82907 33.52057-61.38756 33.74203-61.94604 34.09721-62.8438 34.31866-63.40517 34.54013-63.96652 34.89532-64.8697 35.11679-65.43352 35.33826-65.99733 35.69344-66.90297 35.9149-67.46881 36.13635-68.03464 36.49153-68.9442 36.713-69.51173 36.93446-70.07927 37.28964-70.99048 37.51111-71.55931 37.73256-72.12813 38.08775-73.0419 38.30922-73.61147 38.53069-74.18105 38.88586-75.09462 39.10733-75.6644 39.32878-76.23419 39.68396-77.1481 39.90543-77.7181 40.12689-78.2881 40.48207-79.203 40.70354-79.77257 40.92499-80.34215 41.28018-81.25449 41.50165-81.82321 41.72311-82.39194 42.0783-83.30377 42.29976-83.87152 42.52122-84.43927 42.8764-85.34909 43.09785-85.91525 43.31932-86.4814 43.6745-87.38792 43.89597-87.95206 44.11743-88.51619 44.47263-89.4194 44.69408-89.98119 44.91554-90.54297 45.27072-91.44228 45.49219-92.00108 45.71365-92.55989 46.06883-93.45345 46.29028-94.00873 46.51175-94.56401 46.86693-95.4513 47.0884-96.00328 47.30986-96.55527 47.66505-97.43884 47.88652-97.98709 48.10797-98.53535 48.46315-99.41121 48.68462-99.95476 48.90608-100.49832 49.26126-101.36601 49.48273-101.90479 49.70418-102.44356 50.05936-103.30435 50.28082-103.8379 50.50229-104.37148 50.85748-105.22218 51.07895-105.7503 51.3004-106.27843 51.65558-107.12201 51.87704-107.64426 52.09851-108.1665 52.45369-108.99863 52.67516-109.51439 52.8966-110.03015 53.2518-110.85245 53.47325-111.3615 53.69472-111.87053 54.04991-112.68114 54.27138-113.18326 54.49284-113.68538 54.84802-114.48558 55.06947-114.98044 55.29094-115.47531 55.64612-116.2629 55.86758-116.74998 56.08905-117.23708 56.44423-118.01244 56.66568-118.4911 56.88715-118.96976 57.24234-119.72968 57.4638-120.19994 57.68527-120.6702 58.04045-121.41899 58.2619-121.8804 58.48337-122.34181 58.83855-123.07292 59.06001-123.5255 59.28148-123.97806 59.63666-124.6989 59.85812-125.1422 60.07957-125.58548 60.43477-126.28722 60.65623-126.72049 60.8777-127.15376 61.23288-127.84195 61.45435-128.265 61.6758-128.68804 62.03098-129.35684 62.25244-129.76955 62.4739-130.18225 62.82909-130.83731 63.05055-131.23957 63.272-131.64183 63.6272-132.2779 63.84866-132.66886 64.07013-133.05983 64.42531-133.67755 64.64677-134.05744 64.86823-134.43732 65.22342-135.03839 65.44487-135.40688 65.66634-135.77536 66.02151-136.35642 66.24298-136.71329 66.46445-137.07015 66.81964-137.63426 67.04109-137.97899 67.26256-138.3237 67.61774-138.8655 67.8392-139.19785 68.06067-139.53022 68.41585-140.05467 68.6373-140.37447 68.85876-140.69426 69.21394-141.19559 69.43541-141.5027 69.65688-141.80982 70.01207-142.29393 70.23352-142.58792 70.45499-142.88191 70.81017-143.34047 71.03163-143.62168 71.2531-143.90288 71.60828-144.34696 71.82974-144.61475 72.0512-144.88253 72.40637-145.29779 72.62784-145.55173 72.8493-145.80567 73.2045-146.20464 73.42596-146.44493 73.64742-146.68524 74.0026-147.0573 74.22406-147.28363 74.44553-147.50997 74.8007-147.86386 75.02217-148.07624 75.24362-148.2886 75.5988-148.61632 75.82027-148.8143 76.04173-149.0123 76.39693-149.31941 76.6184-149.50322 76.83986-149.68703 77.19504-149.96994 77.41649-150.13916 77.63795-150.30837 77.99313-150.56813 78.2146-150.72286 78.43607-150.87758 78.79124-151.11454 79.0127-151.25434 79.23416-151.39412 79.58936-151.60541 79.81082-151.7305 80.03229-151.85559 80.38747-152.04592 80.60892-152.15599 80.83038-152.26607 81.18556-152.42894 81.40703-152.52388 81.6285-152.6188 81.98367-152.76039 82.20512-152.8403 82.42659-152.92023 82.78178-153.0349 83.00325-153.0999 83.22472-153.16489 83.5799-153.25916 83.80136-153.30879 84.02281-153.35845 84.37799-153.42337 84.59946-153.4578 84.82092-153.4922 85.1761-153.53759 85.39757-153.55687 85.61902-153.57614 85.97421-153.59288 86.19568-153.59682 86.41714-153.60076 86.77232-153.59648 86.99379-153.5853 87.21524-153.5741 87.57042-153.54268 87.79189-153.51616 88.01335-153.48963 88.36853-153.4357 88.59-153.39405 88.81146-153.3524 89.16666-153.27277 89.3881-153.21587 89.60957-153.15897 89.96475-153.05605 90.18622-152.98392 90.40768-152.91179 90.76286-152.78318 90.98431-152.6959 91.20578-152.60866 91.56096-152.45688 91.78242-152.3549 92.00389-152.25293 92.35909-152.07813 92.58054-151.9609 92.802-151.8437 93.15718-151.6421 93.37865-151.51007 93.60011-151.37804 93.95529-151.15639 94.17674-151.00934 94.39821-150.86229 94.75339-150.61142 94.97485-150.4502 95.19632-150.28899 95.55151-150.02303 95.77298-149.8473 95.99443-149.67159 96.34961-149.37447 96.57108-149.18373 96.79254-148.99298 97.14772-148.67746 97.36919-148.47255 97.59064-148.26764 97.94582-147.9259 98.16728-147.7068 98.38875-147.48772 98.74394-147.1264 98.96541-146.89348 99.18686-146.66054 99.54204-146.2748 99.7635-146.02791 99.98497-145.781 100.34015-145.37471 100.56161-145.11396 100.78308-144.85321 101.13826-144.42263 101.35971-144.14855 101.58118-143.87447 101.93637-143.42568 102.15784-143.1386 102.3793-142.85152 102.73448-142.37989 102.95593-142.0795 103.1774-141.7791 103.53258-141.28672 103.75404-140.97353 103.97551-140.66036 104.33069-140.14812 104.55214-139.82225 104.7736-139.4964 105.1288-138.96314 105.35027-138.62491 105.57173-138.28667 105.92691-137.73491 106.14838-137.38452 106.36983-137.03415 106.725-136.46173 106.94647-136.09964 107.16794-135.73755 107.52312-135.14882 107.74458-134.7748 107.96603-134.40076 108.32123-133.78919 108.5427-133.40386 108.76416-133.01854 109.11934-132.39402 109.3408-131.9976 109.56226-131.6012 109.91743-130.95397 110.1389-130.5468 110.36037-130.13964 110.71555-129.4807 110.93701-129.06298 111.15846-128.64527 111.51366-127.9644 111.73512-127.53613 111.95659-127.10786 112.31177-126.41403 112.53323-125.97627 112.7547-125.53853 113.10988-124.82854 113.33133-124.38107 113.5528-123.93362 113.90797-123.20825 114.12944-122.75133 114.3509-122.2944 114.7061-121.55368 114.92755-121.0878 115.14902-120.62192 115.5042-119.8677 115.72566-119.39352 115.94713-118.91933 116.3023-118.15279 116.52376-117.67007 116.74522-117.18735 117.1004-116.40495 117.32187-115.91435 117.54333-115.42375 117.89851-114.63235 118.11998-114.13408 118.34143-113.6358 118.69662-112.8288 118.91809-112.32306 119.13956-111.81732 119.49474-111.00136 119.7162-110.48901 119.93765-109.97668 120.29283-109.14903 120.5143-108.6304 120.73576-108.11177 121.09094-107.27606 121.31241-106.75104 121.53386-106.226 121.88905-105.37721 122.11052-104.84633 122.33199-104.31544 122.68716-103.46063 122.90863-102.92473 123.13008-102.38882 123.48526-101.52505 123.70673-100.98393 123.92819-100.44283 124.28337-99.57051 124.50484-99.02469 124.7263-98.47888 125.0815-97.60016 125.30295-97.0501 125.52441-96.50002 125.8796-95.61394 126.10106-95.06013 126.32253-94.50635 126.6777-93.61577 126.89915-93.05867 127.12062-92.50159 127.4758-91.60509 127.69727-91.0449 127.91873-90.48471 128.27393-89.5841 128.49538-89.02115 128.71685-88.45819 129.07202-87.55261 129.29349-86.98741 129.51496-86.42223 129.87014-85.51433 130.0916-84.94754 130.31305-84.38075 130.66823-83.47058 130.8897-82.90228 131.11116-82.33398 131.46636-81.42091 131.68782-80.85165 131.90927-80.2824 132.26445-79.36906 132.48592-78.7995 132.70738-78.22992 133.06256-77.31645 133.28403-76.74655 133.50548-76.17667 133.86066-75.26198 134.08213-74.6921 134.30359-74.1222 134.65879-73.2084 134.88025-72.63914 135.1017-72.0699 135.4569-71.15747 135.67835-70.58928 135.89981-70.0211 136.25499-69.11102 136.47646-68.54402 136.69792-67.97702 137.0531-67.06781 137.27455-66.50261 137.49602-65.93742 137.85121-65.03316 138.07268-64.47041 138.29415-63.90767 138.64933-63.00664 138.87078-62.44667 139.09224-61.88669 139.44742-60.99132 139.66889-60.43443 139.89035-59.87756 140.24553-58.98643 140.46698-58.43297 140.68845-57.87949 141.04364-56.99506 141.2651-56.4453 141.48657-55.89555 141.84175-55.01617 142.06322-54.4707 142.28467-53.92523 142.63985-53.05469 142.86132-52.51378 143.08278-51.97289 143.43796-51.10822 143.65943-50.57222 143.88088-50.03621 144.23607-49.18106 144.45754-48.6506 144.679-48.12015 145.03418-47.27348 145.25565-46.74898 145.4771-46.22449 145.83228-45.3889 146.05374-44.87038 146.2752-44.35185 146.63039-43.52377 146.85186-43.01175 147.07332-42.49974 147.42852-41.68523 147.64997-41.18002 147.87143-40.67482 148.22661-39.8686 148.44808-39.37054 148.66954-38.87248 149.02472-38.08034 149.24617-37.59027 149.46764-37.1002 149.82282-36.32048 150.04428-35.8384 150.26575-35.35631 150.62094-34.58969 150.84239-34.1157 151.06386-33.64172 151.41904-32.88756 151.6405-32.42221 151.86197-31.95686 152.21715-31.21803 152.4386-30.76175 152.66007-30.30545 153.01525-29.58066 153.23671-29.13353 153.45818-28.68642 153.81337-27.97633 154.03484-27.53911 154.25629-27.10188 154.61147-26.40993 154.83293-25.9823 155.0544-25.55467 155.40958-24.8744 155.63105-24.45702 155.8525-24.03961 156.20767-23.38069 156.42914-22.97395 156.6506-22.56721 157.0058-21.921 157.22727-21.52545 157.44872-21.1299 157.8039-20.5075 158.02536-20.12303 158.24683-19.73856 158.602-19.12791 158.82347-18.75441 159.04494-18.38092 159.40012-17.79279 159.62157-17.4311 159.84304-17.06944 160.19823-16.49747 160.4197-16.14774 160.64116-15.79799 160.99634-15.24802 161.21779-14.91045 161.43926-14.57286 161.79444-14.03963 162.0159-13.71463 162.23737-13.38962 162.59255-12.8803 162.814-12.56796 163.03546-12.25565 163.39066-11.76361 163.61212-11.46355 163.83359-11.16347 164.18877-10.69174 164.41022-10.4052 164.63169-10.11865 164.98686-9.67143 165.20833-9.39833 165.4298-9.12523 165.78498-8.69633 166.00644-8.43675 166.22789-8.17719 166.58309-7.77356 166.80455-7.5274 167.02602-7.28125 167.3812-6.89502 167.60266-6.66261 167.82411-6.4302 168.17929-6.0708 168.40076-5.85234 168.62223-5.6339 168.9774-5.29231 169.19887-5.08815 169.42032-4.88399 169.77552-4.57048 169.99698-4.38081 170.21845-4.19113 170.57363-3.89626 170.79509-3.72107 171.01656-3.54588 171.37174-3.27866 171.59319-3.11818 171.81465-2.9577 172.16983-2.71051 172.3913-2.5644 172.61277-2.41832 172.96796-2.19661 173.1894-2.06522 173.41088-1.93382 173.76605-1.73401 173.98752-1.61743 174.20899-1.50087 174.56417-1.32632 174.78562-1.22498 175.00708-1.12364 175.36226-.97346 175.58373-.88705 175.80519-.80064 176.16039-.67319 176.38184-.60211 176.6033-.53104 176.95848-.43083 177.17995-.37479 177.40142-.31873 177.75659-.23904 177.97806-.19814 178.19951-.15723 178.55469-.10574 178.77616-.07985 178.99762-.05396 179.35282-.02203 179.57428-.0115 179.79573-.00096 180.15091 .00105 180.37238-.00383 180.59384-.00871 180.94902-.0266 181.17049-.04683 181.39194-.06706 181.74712-.11427 181.96858-.14975 182.19005-.18523 182.54524-.2522 182.76671-.30258 182.98818-.35298 183.34336-.44719 183.5648-.51303 183.78627-.57887 184.14145-.69656 184.36292-.77722 184.58438-.85788 184.93956-.99873 185.16101-1.0944 185.38248-1.1901 185.73767-1.35587 185.95914-1.4669 186.1806-1.57794 186.53578-1.76886 186.75724-1.8947 186.9787-2.02055 187.33388-2.2333 187.55535-2.37395 187.77681-2.5146 188.13199-2.75302 188.35346-2.9085 188.5749-3.06396 188.9301-3.32475 189.15157-3.4945 189.37303-3.66425 189.72821-3.94742 189.94968-4.13197 190.17113-4.31651 190.5263-4.62578 190.74777-4.82472 190.96924-5.02367 191.32442-5.35265 191.54589-5.56586 191.76734-5.77908 192.12253-6.13446 192.344-6.36153 192.56546-6.58861 192.92064-6.96149 193.1421-7.20253 193.36356-7.44356 193.71874-7.84424 193.9402-8.09882 194.16167-8.3534 194.51685-8.76915 194.73831-9.03735 194.95978-9.30556 195.31497-9.7499 195.53643-10.03195 195.75789-10.314 196.11307-10.77536 196.33454-11.07031 196.556-11.36526 196.91118-11.84987 197.13263-12.15784 197.3541-12.46579 197.70928-12.96948 197.93074-13.28992 198.1522-13.61034 198.5074-14.1345 198.72885-14.46729 198.95032-14.80008 199.3055-15.3432 199.52696-15.68845 199.74843-16.0337 200.1036-16.59819 200.32508-16.9557 200.54653-17.3132 200.9017-17.89618 201.12317-18.26518 201.34464-18.6342 201.69983-19.23486 201.9213-19.61537 202.14275-19.9959 202.49793-20.61609 202.71939-21.0078 202.94086-21.39952 203.29604-22.03584 203.5175-22.43863 203.73896-22.84142 204.09413-23.49759 204.3156-23.91093 204.53707-24.3243 204.89226-24.99414 205.11373-25.41782 205.33518-25.8415 205.69036-26.53082 205.91182-26.96463 206.13329-27.39842 206.48847-28.10106 206.70993-28.54446 206.9314-28.98785 207.28658-29.70738 207.50803-30.16037 207.72949-30.61336 208.08469-31.34717 208.30615-31.80933 208.52762-32.27148 208.8828-33.0204 209.10425-33.4913 209.32572-33.9622 209.6809-34.72394 209.90236-35.20325 210.12383-35.68254 210.479-36.45859 210.70046-36.94589 210.92192-37.4332 211.2771-38.22034 211.49857-38.71542 211.72003-39.2105 212.07523-40.01158 212.29669-40.51413 212.51815-41.01668 212.87332-41.82819 213.09479-42.33745 213.31626-42.8467 213.67144-43.66837 213.8929-44.18454 214.11435-44.70073 214.46953-45.53519 214.691-46.05775 214.91246-46.58032 215.26766-47.4226 215.48912-47.95094 215.71057-48.47926 216.06575-49.33199 216.28722-49.86563 216.50868-50.39928 216.86386-51.25813 217.08533-51.79723 217.30678-52.33632 217.66197-53.20697 217.88343-53.75107 218.10489-54.29517 218.46009-55.1705 218.68155-55.71875 218.90302-56.26701 219.2582-57.15038 219.47965-57.70256 219.70111-58.25476 220.05629-59.14308 220.27776-59.69868 220.49922-60.25429 220.8544-61.14804 221.07585-61.70706 221.29732-62.26608 221.65251-63.16573 221.87398-63.72774 222.09545-64.28973 222.45063-65.19328 222.67208-65.75763 222.89354-66.32196 223.24872-67.22905 223.47019-67.79521 223.69165-68.36136 224.04683-69.2705 224.2683-69.83815 224.48975-70.4058 224.84494-71.31744 225.0664-71.88649 225.28787-72.45552 225.64305-73.36984 225.86452-73.93942 226.08597-74.50899 226.44115-75.4218 226.66262-75.99158 226.88408-76.56137 227.23926-77.47617 227.46073-78.04605 227.68218-78.61595 228.03737-79.52942 228.25884-80.09898 228.4803-80.66856 228.83548-81.58232 229.05695-82.15115 229.27841-82.71997 229.63359-83.63127 229.85504-84.19872 230.0765-84.76616 230.43169-85.67528 230.65316-86.24089 230.87462-86.80652 231.22982-87.71179 231.45127-88.27539 231.67273-88.83899 232.02791-89.74152 232.24938-90.30298 232.47084-90.86446 232.82602-91.76355 233.04747-92.32214 233.26894-92.88074 233.62412-93.77402 233.84558-94.32898 234.06705-94.88394 234.42224-95.77066 234.64369-96.322 234.86516-96.87335 235.22034-97.75523 235.4418-98.30275 235.66327-98.85027 236.01845-99.72542 236.23992-100.26813 236.46137-100.81084 236.81655-101.6765 237.03801-102.21431 237.25948-102.75212 237.61467-103.61166 237.83614-104.14435 238.05759-104.67705 238.63423-106.05368 238.63423-106.05368"/>
<path transform="matrix(.80001607,0,0,-.800064,21.61193,1.9186707)" stroke-width=".79701" stroke-linecap="butt" stroke-dasharray="2.98883,2.98883" stroke-miterlimit="10" stroke-linejoin="miter" fill="none" stroke="#000000" d="M0-76.80031C0-76.80031 .57663-78.28346 .7981-78.85324 1.01956-79.42303 1.37474-80.33769 1.5962-80.90694 1.81766-81.4762 2.17285-82.38797 2.39432-82.95605 2.61578-83.52412 2.97096-84.4343 3.19243-85.0013 3.41388-85.5683 3.76906-86.47751 3.99052-87.04271 4.21199-87.6079 4.56718-88.51216 4.78865-89.0749 5.0101-89.63765 5.36528-90.53838 5.58675-91.09866 5.80821-91.65897 6.1634-92.5561 6.38487-93.1132 6.60634-93.6703 6.96152-94.56044 7.18297-95.1139 7.40443-95.66737 7.75961-96.55247 7.98108-97.10233 8.20255-97.65218 8.55774-98.53123 8.77919-99.07692 9.00066-99.62262 9.35583-100.49437 9.5773-101.03539 9.79877-101.57639 10.15396-102.44029 10.37541-102.97618 10.59688-103.51208 10.95206-104.36702 11.17352-104.8978 11.39499-105.42857 11.75017-106.27682 11.97163-106.80173 12.19308-107.32664 12.54828-108.16245 12.76974-108.68108 12.99121-109.1997 13.34639-110.02747 13.56786-110.5397 13.7893-111.05194 14.1445-111.86768 14.36597-112.37299 14.58743-112.8783 14.94261-113.68373 15.16408-114.18169 15.38553-114.67964 15.7407-115.47148 15.96217-115.96198 16.18364-116.45247 16.53883-117.23439 16.7603-117.7169 16.98175-118.19942 17.33693-118.96552 17.5584-119.4396 17.77986-119.9137 18.13506-120.6682 18.35652-121.13387 18.57799-121.59953 18.93317-122.33948 19.15462-122.79587 19.37608-123.25227 19.73126-123.97607 19.95273-124.42332 20.1742-124.87056 20.52939-125.58174 20.75084-126.01929 20.9723-126.45683 21.32748-127.149 21.54895-127.57684 21.77042-128.0047 22.12561-128.6853 22.34706-129.10292 22.56853-129.52053 22.9237-130.17967 23.14517-130.58673 23.36664-130.9938 23.72182-131.64069 23.94328-132.03678 24.16473-132.43286 24.51991-133.05648 24.74138-133.44149 24.96284-133.82649 25.31804-134.43805 25.5395-134.81166 25.76096-135.18526 26.11613-135.77242 26.3376-136.1342 26.55907-136.49597 26.91425-137.06906 27.13571-137.4191 27.35716-137.76914 27.71234-138.31934 27.9338-138.65715 28.15527-138.99495 28.51047-139.52822 28.73193-139.85376 28.95338-140.17929 29.30856-140.69063 29.53003-141.00348 29.7515-141.31633 30.10667-141.80849 30.32814-142.10866 30.5496-142.40885 30.90479-142.88036 31.12624-143.167 31.3477-143.45366 31.7029-143.90111 31.92436-144.17465 32.14583-144.4482 32.501-144.87833 32.72246-145.13854 32.94392-145.39876 33.2991-145.8037 33.52057-146.05017 33.74203-146.29665 34.09721-146.68225 34.31866-146.91498 34.54013-147.1477 34.89532-147.5087 35.11679-147.72756 35.33826-147.94643 35.69344-148.28801 35.9149-148.4925 36.13635-148.69698 36.49153-149.01119 36.713-149.20139 36.93446-149.3916 37.28964-149.6878 37.51111-149.86342 37.73256-150.03903 38.08775-150.3061 38.30922-150.4671 38.53069-150.62812 38.88586-150.8774 39.10733-151.02391 39.32878-151.17043 39.68396-151.39144 39.90543-151.52315 40.12689-151.65485 40.48207-151.85631 40.70354-151.97319 40.92499-152.09009 41.28018-152.26412 41.50165-152.36566 41.72311-152.46721 42.0783-152.6184 42.29976-152.70513 42.52122-152.79186 42.8764-152.91924 43.09785-152.99083 43.31932-153.06244 43.6745-153.16478 43.89597-153.22126 44.11743-153.27773 44.47263-153.35666 44.69408-153.39789 44.91554-153.4391 45.27072-153.49225 45.49219-153.51847 45.71365-153.54468 46.06883-153.57596 46.29028-153.58683 46.51175-153.5977 46.86693-153.60129 47.0884-153.59682 47.30986-153.59235 47.66505-153.57437 47.88652-153.55457 48.10797-153.53476 48.46315-153.48879 48.68462-153.45395 48.90608-153.4191 49.26126-153.35349 49.48273-153.30342 49.70418-153.25334 50.05936-153.15839 50.28082-153.09297 50.50229-153.02756 50.85748-152.91219 51.07895-152.83185 51.3004-152.75151 51.65558-152.60915 51.87704-152.51389 52.09851-152.41863 52.45369-152.25563 52.67516-152.14524 52.8966-152.03484 53.2518-151.84374 53.47325-151.71822 53.69472-151.5927 54.04991-151.38072 54.27138-151.2405 54.49284-151.10027 54.84802-150.86263 55.06947-150.70748 55.29094-150.55233 55.64612-150.29167 55.86758-150.12226 56.08905-149.95282 56.44423-149.67046 56.66568-149.48635 56.88715-149.30222 57.24234-148.99352 57.4638-148.7951 57.68527-148.59668 58.04045-148.26908 58.2619-148.05628 58.48337-147.84348 58.83855-147.48812 59.06001-147.26136 59.28148-147.0346 59.63666-146.66252 59.85812-146.4219 60.07957-146.18129 60.43477-145.78151 60.65623-145.52715 60.8777-145.27278 61.23288-144.85662 61.45435-144.58863 61.6758-144.32064 62.03098-143.8772 62.25244-143.59557 62.4739-143.31394 62.82909-142.85315 63.05055-142.55873 63.272-142.26432 63.6272-141.78095 63.84866-141.47351 64.07013-141.16608 64.42531-140.66329 64.64677-140.34297 64.86823-140.02265 65.22342-139.49752 65.44487-139.16483 65.66634-138.83216 66.02151-138.29004 66.24298-137.9452 66.46445-137.60039 66.81964-137.03658 67.04109-136.67949 67.26256-136.32242 67.61774-135.74034 67.8392-135.37154 68.06067-135.00275 68.41585-134.40166 68.6373-134.02135 68.85876-133.64104 69.21394-133.02184 69.43541-132.63045 69.65688-132.23906 70.01207-131.60285 70.23352-131.20038 70.45499-130.79792 70.81017-130.14253 71.03163-129.72962 71.2531-129.3167 71.60828-128.64765 71.82974-128.22429 72.0512-127.80093 72.40637-127.11194 72.62784-126.67824 72.8493-126.24455 73.2045-125.54172 73.42596-125.09842 73.64742-124.65514 74.0026-123.93593 74.22406-123.48326 74.44553-123.0306 74.8007-122.29778 75.02217-121.83583 75.24362-121.3739 75.5988-120.62465 75.82027-120.15385 76.04173-119.68307 76.39693-118.92148 76.6184-118.4427 76.83986-117.96394 77.19504-117.19011 77.41649-116.70314 77.63795-116.21616 77.99313-115.42801 78.2146-114.93282 78.43607-114.43762 78.79124-113.63643 79.0127-113.13411 79.23416-112.63179 79.58936-111.82138 79.81082-111.31235 80.03229-110.8033 80.38747-109.98143 80.60892-109.46524 80.83038-108.94907 81.18556-108.11449 81.40703-107.59203 81.6285-107.06956 81.98367-106.22774 82.20512-105.69962 82.42659-105.17151 82.78178-104.31915 83.00325-103.78569 83.22472-103.25224 83.5799-102.39363 83.80136-101.85486 84.02281-101.31609 84.37799-100.44643 84.59946-99.90254 84.82092-99.35866 85.1761-98.48323 85.39757-97.93486 85.61902-97.38649 85.97421-96.50249 86.19568-95.95029 86.41714-95.39809 86.77232-94.51035 86.99379-93.95496 87.21524-93.39957 87.57042-92.50636 87.79189-91.94734 88.01335-91.3883 88.36853-90.48778 88.59-89.92589 88.81146-89.36398 89.16666-88.46155 89.3881-87.89752 89.60957-87.3335 89.96475-86.42699 90.18622-85.86072 90.40768-85.29446 90.76286-84.38411 90.98431-83.81624 91.20578-83.24837 91.56096-82.33684 91.78242-81.76791 92.00389-81.19897 92.35909-80.28532 92.58054-79.71574 92.802-79.14618 93.15718-78.23248 93.37865-77.66281 93.60011-77.09312 93.95529-76.17966 94.17674-75.60988 94.39821-75.04008 94.75339-74.12595 94.97485-73.55617 95.19632-72.98637 95.55151-72.07196 95.77298-71.50325 95.99443-70.93452 96.34961-70.02454 96.57108-69.45721 96.79254-68.8899 97.14772-67.9801 97.36919-67.41428 97.59064-66.84845 97.94582-65.9429 98.16728-65.37898 98.38875-64.81508 98.74394-63.91135 98.96541-63.34987 99.18686-62.7884 99.54204-61.89044 99.7635-61.33226 99.98497-60.7741 100.34015-59.88193 100.56161-59.32695 100.78308-58.77197 101.13826-57.88403 101.35971-57.33237 101.58118-56.7807 101.93637-55.8985 102.15784-55.35088 102.3793-54.80327 102.73448-53.92863 102.95593-53.3855 103.1774-52.84236 103.53258-51.97427 103.75404-51.43625 103.97551-50.89822 104.33069-50.04031 104.55214-49.50772 104.7736-48.97514 105.1288-48.12502 105.35027-47.59764 105.57173-47.07027 105.92691-46.22806 106.14838-45.70676 106.36983-45.18547 106.725-44.35558 106.94647-43.84045 107.16794-43.32535 107.52312-42.50241 107.74458-41.99413 107.96603-41.48582 108.32123-40.67802 108.5427-40.17699 108.76416-39.67593 109.11934-38.87657 109.3408-38.38287 109.56226-37.88918 109.91743-37.10474 110.1389-36.61871 110.36037-36.13269 110.71555-35.3576 110.93701-34.8799 111.15846-34.40219 111.51366-33.64473 111.73512-33.17564 111.95659-32.70657 112.31177-31.9595 112.53323-31.49905 112.7547-31.0386 113.10988-30.30809 113.33133-29.85701 113.5528-29.40594 113.90797-28.68979 114.12944-28.24799 114.3509-27.80618 114.7061-27.10475 114.92755-26.67276 115.14902-26.24077 115.5042-25.55608 115.72566-25.13441 115.94713-24.71275 116.3023-24.0449 116.52376-23.63368 116.74522-23.22247 117.1004-22.57146 117.32187-22.1706 117.54333-21.76971 117.89851-21.13396 118.11998-20.74437 118.34143-20.35478 118.69662-19.74109 118.91809-19.36269 119.13956-18.9843 119.49474-18.38411 119.7162-18.01712 119.93765-17.65013 120.29283-17.07309 120.5143-16.7176 120.73576-16.36212 121.09094-15.7981 121.31241-15.45497 121.53386-15.11185 121.88905-14.57512 122.11052-14.24457 122.33199-13.91402 122.68716-13.39075 122.90863-13.07256 123.13008-12.75436 123.48526-12.25642 123.70673-11.95123 123.92819-11.64606 124.28337-11.16544 124.50484-10.87294 124.7263-10.58043 125.0815-10.12218 125.30295-9.843 125.52441-9.56381 125.8796-9.12634 126.10106-8.86069 126.32253-8.59503 126.6777-8.18045 126.89915-7.92833 127.12062-7.67621 127.4758-7.28212 127.69727-7.04353 127.91873-6.80496 128.27393-6.43333 128.49538-6.20871 128.71685-5.98409 129.07202-5.63521 129.29349-5.42455 129.51496-5.21388 129.87014-4.88649 130.0916-4.69032 130.31305-4.49416 130.66823-4.19241 130.8897-4.01062 131.11116-3.82884 131.46636-3.54727 131.68782-3.38008 131.90927-3.21289 132.26445-2.95839 132.48592-2.80557 132.70738-2.65277 133.06256-2.4166 133.28403-2.2787 133.50548-2.14082 133.86066-1.93462 134.08213-1.81175 134.30359-1.68889 134.65879-1.50133 134.88025-1.39317 135.1017-1.28503 135.4569-1.12512 135.67835-1.03221 135.89981-.93929 136.25499-.80168 136.47646-.72346 136.69792-.64525 137.0531-.53123 137.27455-.46849 137.49602-.40573 137.85121-.3185 138.07268-.27109 138.29415-.22368 138.64933-.15929 138.87078-.1267 139.09224-.0941 139.44742-.05365 139.66889-.03609 139.89035-.01851 140.24553-.0019 140.46698 0 140.68845 .0019 141.04364-.00893 141.2651-.02225 141.48657-.03557 141.84175-.06744 142.06322-.096 142.28467-.12454 142.63985-.18451 142.86132-.22809 143.08278-.27165 143.43796-.35118 143.65943-.41011 143.88088-.46904 144.23607-.57864 144.45754-.6528 144.679-.72694 145.03418-.85558 145.25565-.94466 145.4771-1.03374 145.83228-1.19066 146.05374-1.29486 146.2752-1.39908 146.63039-1.57655 146.85186-1.69579 147.07332-1.81502 147.42852-2.02036 147.64997-2.1543 147.87143-2.28824 148.22661-2.51233 148.44808-2.6612 148.66954-2.81004 149.02472-3.06366 149.24617-3.22723 149.46764-3.39081 149.82282-3.66217 150.04428-3.84012 150.26575-4.01807 150.62094-4.31728 150.84239-4.50983 151.06386-4.70238 151.41904-5.02133 151.6405-5.22794 151.86197-5.43456 152.21715-5.77802 152.4386-5.99902 152.66007-6.22003 153.01525-6.58606 153.23671-6.82082 153.45818-7.05557 153.81337-7.4424 154.03484-7.691 154.25629-7.93959 154.61147-8.35048 154.83293-8.61263 155.0544-8.87477 155.40958-9.30446 155.63105-9.58034 155.8525-9.85623 156.20767-10.31206 156.42914-10.60104 156.6506-10.89003 157.0058-11.36113 157.22727-11.66322 157.44872-11.96532 157.8039-12.46353 158.02536-12.77841 158.24683-13.09329 158.602-13.6054 158.82347-13.93274 159.04494-14.26009 159.40012-14.79773 159.62157-15.13777 159.84304-15.47781 160.19823-16.03156 160.4197-16.38353 160.64116-16.7355 160.99634-17.31067 161.21779-17.67458 161.43926-18.03848 161.79444-18.63081 162.0159-19.00633 162.23737-19.38185 162.59255-19.99428 162.814-20.38109 163.03546-20.7679 163.39066-21.39647 163.61212-21.79427 163.83359-22.19205 164.18877-22.83937 164.41022-23.24814 164.63169-23.6569 164.98686-24.32132 165.20833-24.74042 165.4298-25.15953 165.78498-25.83955 166.00644-26.26878 166.22789-26.69801 166.58309-27.39488 166.80455-27.83403 167.02602-28.27316 167.3812-28.98499 167.60266-29.43382 167.82411-29.88266 168.17929-30.61095 168.40076-31.06894 168.62223-31.52695 168.9774-32.26787 169.19887-32.7348 169.42032-33.20175 169.77552-33.95876 169.99698-34.43443 170.21845-34.91013 170.57363-35.6796 170.79509-36.16328 171.01656-36.64696 171.37174-37.42905 171.59319-37.9205 171.81465-38.41197 172.16983-39.20607 172.3913-39.70541 172.61277-40.20476 172.96796-41.013 173.1894-41.51949 173.41088-42.02597 173.76605-42.84274 173.98752-43.35583 174.20899-43.86893 174.56417-44.69763 174.78562-45.21753 175.00708-45.73744 175.36226-46.57704 175.58373-47.10303 175.80519-47.62903 176.16039-48.4771 176.38184-49.00851 176.6033-49.53993 176.95848-50.39665 177.17995-50.93318 177.40142-51.46973 177.75659-52.33377 177.97806-52.87553 178.19951-53.41728 178.55469-54.29129 178.77616-54.83783 178.99762-55.38437 179.35282-56.26424 179.57428-56.81473 179.79573-57.36522 180.15091-58.25134 180.37238-58.80545 180.59384-59.35957 180.94902-60.25093 181.17049-60.80847 181.39194-61.366 181.74712-62.26315 181.96858-62.82376 182.19005-63.38438 182.54524-64.28577 182.76671-64.84904 182.98818-65.41232 183.34336-66.31804 183.5648-66.88356 183.78627-67.44907 184.14145-68.35786 184.36292-68.92497 184.58438-69.49208 184.93956-70.40259 185.16101-70.971 185.38248-71.5394 185.73767-72.45238 185.95914-73.02164 186.1806-73.59088 186.53578-74.50412 186.75724-75.07379 186.9787-75.64348 187.33388-76.5576 187.55535-77.12749 187.77681-77.69737 188.13199-78.61131 188.35346-79.1812 188.5749-79.7511 188.9301-80.66554 189.15157-81.2349 189.37303-81.80426 189.72821-82.71678 189.94968-83.28476 190.17113-83.85274 190.5263-84.76201 190.74777-85.32849 190.96924-85.89496 191.32442-86.8027 191.54589-87.36758 191.76734-87.93246 192.12253-88.83725 192.344-89.39978 192.56546-89.96233 192.92064-90.86255 193.1421-91.422 193.36356-91.98145 193.71874-92.87547 193.9402-93.43193 194.16167-93.98839 194.51685-94.87947 194.73831-95.43263 194.95978-95.98578 195.31497-96.86952 195.53643-97.41873 195.75789-97.96796 196.11307-98.84608 196.33454-99.39104 196.556-99.936 196.91118-100.80629 197.13263-101.34645 197.3541-101.8866 197.70928-102.74913 197.93074-103.28416 198.1522-103.8192 198.5074-104.6731 198.72885-105.2027 198.95032-105.7323 199.3055-106.57718 199.52696-107.10126 199.74843-107.62534 200.1036-108.46208 200.32508-108.97986 200.54653-109.49763 200.9017-110.32204 201.12317-110.8331 201.34464-111.34416 201.69983-112.15916 201.9213-112.66331 202.14275-113.16745 202.49793-113.96974 202.71939-114.46663 202.94086-114.96353 203.29604-115.75551 203.5175-116.24461 203.73896-116.73372 204.09413-117.51053 204.3156-117.99187 204.53707-118.4732 204.89226-119.24098 205.11373-119.71379 205.33518-120.1866 205.69036-120.93555 205.91182-121.39961 206.13329-121.8637 206.48847-122.60341 206.70993-123.05853 206.9314-123.51366 207.28658-124.23422 207.50803-124.67986 207.72949-125.12549 208.08469-125.83429 208.30615-126.27043 208.52762-126.70659 208.8828-127.39725 209.10425-127.82338 209.32572-128.24951 209.6809-128.92586 209.90236-129.34177 210.12383-129.75768 210.479-130.41594 210.70046-130.82099 210.92192-131.22603 211.2771-131.86676 211.49857-132.26103 211.72003-132.65532 212.07523-133.27939 212.29669-133.66269 212.51815-134.04599 212.87332-134.65175 213.09479-135.02364 213.31626-135.39553 213.67144-135.98293 213.8929-136.34308 214.11435-136.70325 214.46953-137.2713 214.691-137.61956 214.91246-137.9678 215.26766-138.51714 215.48912-138.85301 215.71057-139.18888 216.06575-139.71675 216.28722-140.04038 216.50868-140.364 216.86386-140.87479 217.08533-141.1855 217.30678-141.49623 217.66197-141.9821 217.88343-142.27994 218.10489-142.57779 218.46009-143.04732 218.68155-143.33214 218.90302-143.61696 219.2582-144.06147 219.47965-144.33287 219.70111-144.60427 220.05629-145.03043 220.27776-145.2883 220.49922-145.54618 220.8544-145.94748 221.07585-146.1915 221.29732-146.43553 221.65251-146.8166 221.87398-147.04709 222.09545-147.27756 222.45063-147.63632 222.67208-147.85274 222.89354-148.06916 223.24872-148.40457 223.47019-148.60694 223.69165-148.80928 224.04683-149.12325 224.2683-149.31122 224.48975-149.49919 224.84494-149.78838 225.0664-149.96173 225.28787-150.1351 225.64305-150.40213 225.86452-150.56079 226.08597-150.71947 226.44115-150.96137 226.66262-151.10533 226.88408-151.2493 227.23926-151.46916 227.46073-151.5984 227.68218-151.72766 228.03737-151.92229 228.25884-152.03694 228.4803-152.1516 228.83548-152.32538 229.05695-152.4248 229.27841-152.52423 229.63359-152.66913 229.85504-152.75351 230.0765-152.8379 230.43169-152.9638 230.65316-153.03307 230.87462-153.10233 231.22982-153.19892 231.45127-153.25273 231.67273-153.30655 232.02791-153.38193 232.24938-153.42093 232.47084-153.45992 232.82602-153.51007 233.04747-153.53383 233.26894-153.55759 233.62412-153.58368 233.84558-153.5922 234.06705-153.60071 234.42224-153.6023 234.64369-153.59528 234.86516-153.58826 235.22034-153.56389 235.4418-153.5415 235.66327-153.51914 236.01845-153.4715 236.23992-153.43399 236.46137-153.39649 236.81655-153.32347 237.03801-153.27117 237.25948-153.21884 237.61467-153.12454 237.83614-153.05689 238.05759-152.98923 238.63423-152.78347 238.63423-152.78347"/>
<use data-text="y" xlink:href="#font_2_4" transform="matrix(7.9702398,0,0,-7.970718,95.226207,111.65144)" fill="#0000ff"/>
<use data-text="(" xlink:href="#font_1_1" transform="matrix(7.9702398,0,0,-7.970718,99.41989,111.65144)" fill="#0000ff"/>
<use data-text="t" xlink:href="#font_2_3" transform="matrix(7.9702398,0,0,-7.970718,102.51996,111.65144)" fill="#0000ff"/>
<use data-text=")" xlink:href="#font_1_2" transform="matrix(7.9702398,0,0,-7.970718,105.39761,111.65144)" fill="#0000ff"/>
<use data-text="=" xlink:href="#font_1_13" transform="matrix(7.9702398,0,0,-7.970718,110.69783,111.65144)" fill="#0000ff"/>
<use data-text="&#x221a;" xlink:href="#font_3_2" transform="matrix(7.9702398,0,0,-7.970718,120.081119,99.66568)" fill="#0000ff"/>
<path transform="matrix(.80001607,0,0,-.800064,-13.780777,163.5468)" stroke-width=".3985" stroke-linecap="butt" stroke-miterlimit="10" stroke-linejoin="miter" fill="none" stroke="#0000ff" d="M175.626 80.044H185.589"/>
<use data-text="1" xlink:href="#font_1_4" transform="matrix(7.9702398,0,0,-7.970718,126.72284,106.25902)" fill="#0000ff"/>
<use data-text="7" xlink:href="#font_1_10" transform="matrix(7.9702398,0,0,-7.970718,130.70796,106.25902)" fill="#0000ff"/>
<path transform="matrix(.80001607,0,0,-.800064,-13.780777,163.5468)" stroke-width=".3985" stroke-linecap="butt" stroke-miterlimit="10" stroke-linejoin="miter" fill="none" stroke="#0000ff" d="M167.324 67.354H185.589"/>
<use data-text="6" xlink:href="#font_1_9" transform="matrix(7.9702398,0,0,-7.970718,125.39401,117.11908)" fill="#0000ff"/>
<use data-text="s" xlink:href="#font_1_16" transform="matrix(7.9702398,0,0,-7.970718,136.97745,111.65144)" fill="#0000ff"/>
<use data-text="i" xlink:href="#font_1_14" transform="matrix(7.9702398,0,0,-7.970718,140.11772,111.65144)" fill="#0000ff"/>
<use data-text="n" xlink:href="#font_1_15" transform="matrix(7.9702398,0,0,-7.970718,142.32549,111.65144)" fill="#0000ff"/>
<use data-text="(" xlink:href="#font_1_1" transform="matrix(7.9702398,0,0,-7.970718,146.74897,111.65144)" fill="#0000ff"/>
<use data-text="8" xlink:href="#font_1_11" transform="matrix(7.9702398,0,0,-7.970718,149.84142,111.65144)" fill="#0000ff"/>
<use data-text="t" xlink:href="#font_2_3" transform="matrix(7.9702398,0,0,-7.970718,153.84819,111.65144)" fill="#0000ff"/>
<use data-text="&#x2212;" xlink:href="#font_3_1" transform="matrix(7.9702398,0,0,-7.970718,158.49788,111.65144)" fill="#0000ff"/>
<use data-text="&#x03c6;" xlink:href="#font_2_1" transform="matrix(7.9702398,0,0,-7.970718,166.46764,111.65144)" fill="#0000ff"/>
<use data-text=")" xlink:href="#font_1_2" transform="matrix(7.9702398,0,0,-7.970718,171.68134,111.65144)" fill="#0000ff"/>
<use data-text="y" xlink:href="#font_2_4" transform="matrix(7.9702398,0,0,-7.970718,53.224565,40.116125)"/>
<use data-text="(" xlink:href="#font_1_1" transform="matrix(7.9702398,0,0,-7.970718,57.41825,40.116125)"/>
<use data-text="t" xlink:href="#font_2_3" transform="matrix(7.9702398,0,0,-7.970718,60.51832,40.116125)"/>
<use data-text=")" xlink:href="#font_1_2" transform="matrix(7.9702398,0,0,-7.970718,63.395975,40.116125)"/>
<use data-text="=" xlink:href="#font_1_13" transform="matrix(7.9702398,0,0,-7.970718,68.69619,40.116125)"/>
<use data-text="&#x221a;" xlink:href="#font_3_2" transform="matrix(7.9702398,0,0,-7.970718,78.079479,28.13036)"/>
<path transform="matrix(.80001607,0,0,-.800064,-55.782419,92.011478)" stroke-width=".3985" stroke-linecap="butt" stroke-miterlimit="10" stroke-linejoin="miter" fill="none" stroke="#000000" d="M175.626 80.044H185.589"/>
<use data-text="1" xlink:href="#font_1_4" transform="matrix(7.9702398,0,0,-7.970718,84.7212,34.723695)"/>
<use data-text="7" xlink:href="#font_1_10" transform="matrix(7.9702398,0,0,-7.970718,88.70632,34.723695)"/>
<path transform="matrix(.80001607,0,0,-.800064,-55.782419,92.011478)" stroke-width=".3985" stroke-linecap="butt" stroke-miterlimit="10" stroke-linejoin="miter" fill="none" stroke="#000000" d="M167.324 67.354H185.589"/>
<use data-text="6" xlink:href="#font_1_9" transform="matrix(7.9702398,0,0,-7.970718,83.39237,45.58376)"/>
<use data-text="s" xlink:href="#font_1_16" transform="matrix(7.9702398,0,0,-7.970718,94.97581,40.116125)"/>
<use data-text="i" xlink:href="#font_1_14" transform="matrix(7.9702398,0,0,-7.970718,98.11608,40.116125)"/>
<use data-text="n" xlink:href="#font_1_15" transform="matrix(7.9702398,0,0,-7.970718,100.323848,40.116125)"/>
<use data-text="(" xlink:href="#font_1_1" transform="matrix(7.9702398,0,0,-7.970718,104.74732,40.116125)"/>
<use data-text="8" xlink:href="#font_1_11" transform="matrix(7.9702398,0,0,-7.970718,107.839778,40.116125)"/>
<use data-text="t" xlink:href="#font_2_3" transform="matrix(7.9702398,0,0,-7.970718,111.84655,40.116125)"/>
<use data-text=")" xlink:href="#font_1_2" transform="matrix(7.9702398,0,0,-7.970718,114.72501,40.116125)"/>
</g>
<use data-text="t" xlink:href="#font_2_3" transform="matrix(7.9702398,0,0,-7.970718,168.52048,48.10957)"/>
<use data-text="y" xlink:href="#font_2_4" transform="matrix(7.9702398,0,0,-7.970718,14.976601,136.21822)"/>
<use data-text="(" xlink:href="#font_1_1" transform="matrix(7.9702398,0,0,-7.970718,19.170289,136.21822)"/>
<use data-text="t" xlink:href="#font_2_3" transform="matrix(7.9702398,0,0,-7.970718,22.270356,136.21822)"/>
<use data-text=")" xlink:href="#font_1_2" transform="matrix(7.9702398,0,0,-7.970718,25.14801,136.21822)"/>
</svg>
