<svg xmlns="http://www.w3.org/2000/svg" xmlns:xlink="http://www.w3.org/1999/xlink" xmlns:inkscape="http://www.inkscape.org/namespaces/inkscape" version="1.1" width="250" height="143" viewBox="0 0 250 143">
<defs>
<path id="font_1_1" d="M.20599365 .3996582H.2999878C.31999208 .3996582 .32998658 .3996582 .32998658 .41966249 .32998658 .43066407 .31999208 .43066407 .3019867 .43066407H.21398926C.25 .5724945 .25498963 .59246829 .25498963 .59846499 .25498963 .61546328 .24299622 .62545779 .22599793 .62545779 .22299195 .62545779 .19499207 .62446597 .18598938 .58947756L.14698792 .43066407H.052993776C.032989503 .43066407 .022994996 .43066407 .022994996 .4116516 .022994996 .3996582 .0309906 .3996582 .050994874 .3996582H.13899231C.066986087 .11608887 .06298828 .099121097 .06298828 .08114624 .06298828 .02722168 .100997928-.0107421879 .15499878-.0107421879 .25698854-.0107421879 .31399537 .13505554 .31399537 .14305115 .31399537 .1530304 .30599977 .1530304 .3019867 .1530304 .29299928 .1530304 .2919922 .15003968 .2869873 .13905335 .24398804 .035217287 .19099427 .011245728 .15699768 .011245728 .13598633 .011245728 .12599182 .024230957 .12599182 .057174684 .12599182 .08114624 .12799073 .088134769 .13198853 .10510254L.20599365 .3996582Z"/>
<path id="font_1_2" d="M.48599244 .38136292C.48999024 .39537049 .48999024 .39736939 .48999024 .40437318 .48999024 .42237855 .47599793 .43138124 .46099855 .43138124 .45098878 .43138124 .43499757 .42536927 .42599488 .41036988 .42399598 .405365 .41600038 .37435914 .4119873 .35635377 .40499879 .33035279 .397995 .30334474 .3919983 .27633668L.34700013 .09628296C.34298707 .08126831 .2999878 .011245728 .23399353 .011245728 .18299866 .011245728 .17199707 .055267335 .17199707 .0922699 .17199707 .1382904 .18899536 .20030213 .22299195 .28833009 .23899842 .3293457 .24299622 .3403473 .24299622 .36035157 .24299622 .405365 .21099854 .4423828 .16099549 .4423828 .06599426 .4423828 .0289917 .29733277 .0289917 .28833009 .0289917 .27833558 .038986207 .27833558 .040985109 .27833558 .050994874 .27833558 .051986696 .28033448 .056991579 .29634095 .083999637 .3903656 .12399292 .42037965 .1579895 .42037965 .1659851 .42037965 .18299866 .42037965 .18299866 .3883667 .18299866 .36335755 .17298889 .3373413 .1659851 .31834413 .12599182 .21231079 .10798645 .1552887 .10798645 .10827637 .10798645 .019256592 .17098999-.0107421879 .22999573-.0107421879 .2689972-.0107421879 .30299378 .0062561037 .33099366 .03425598 .31799317-.017745972 .30599977-.06674194 .2659912-.11973572 .23999024-.15385437 .20199585-.18309021 .1559906-.18309021 .14199829-.18309021 .09700012-.18005371 .07998657-.14074707 .09599304-.14074707 .10899353-.14074707 .12298584-.1287384 .1329956-.11973572 .14299011-.10673523 .14299011-.08773804 .14299011-.056747438 .115997318-.052734376 .10598755-.052734376 .08299255-.052734376 .049987794-.068740848 .049987794-.11773682 .049987794-.16796875 .09399414-.20507813 .1559906-.20507813 .25898744-.20507813 .3619995-.11373901 .3899994-.00074768069L.48599244 .38136292Z"/>
</defs>
<path transform="matrix(1.00009,0,0,-1.00006,3.8389893,106.917629)" stroke-width=".3985" stroke-linecap="butt" stroke-miterlimit="10" stroke-linejoin="miter" fill="none" stroke="#000000" d="M0 0H237.71558"/>
<path transform="matrix(1.00009,0,0,-1.00006,241.77523,106.917629)" stroke-width=".3985" stroke-linecap="round" stroke-linejoin="round" fill="none" stroke="#000000" d="M-2.07224 2.39104C-1.69365 .95639-.84999 .27895 0 0-.84999-.27895-1.69365-.95639-2.07224-2.39104"/>
<use data-text="t" xlink:href="#font_1_1" transform="matrix(9.963496,0,0,-9.963197,245.49474,109.98181)"/>
<path transform="matrix(1.00009,0,0,-1.00006,3.8389893,106.917629)" stroke-width=".3985" stroke-linecap="butt" stroke-miterlimit="10" stroke-linejoin="miter" fill="none" stroke="#000000" d="M0-34.01628V94.84705"/>
<path transform="matrix(0,-1.00006,-1.00009,-0,3.8389893,11.865616)" stroke-width=".3985" stroke-linecap="round" stroke-linejoin="round" fill="none" stroke="#000000" d="M-2.07224 2.39104C-1.69365 .95639-.84999 .27895 0 0-.84999-.27895-1.69365-.95639-2.07224-2.39104"/>
<use data-text="y" xlink:href="#font_1_2" transform="matrix(9.963496,0,0,-9.963197,1.2177506,6.2085878)"/>
<path transform="matrix(1.00009,0,0,-1.00006,3.8389893,106.917629)" stroke-width=".79701" stroke-linecap="butt" stroke-miterlimit="10" stroke-linejoin="miter" fill="none" stroke="#0000ff" d="M0 0 45.35506 45.35506"/>
<path transform="matrix(1.00009,0,0,-1.00006,3.8389893,106.917629)" d="M1.59404 0C1.59404 .88037 .88037 1.59404 0 1.59404-.88037 1.59404-1.59404 .88037-1.59404 0-1.59404-.88037-.88037-1.59404 0-1.59404 .88037-1.59404 1.59404-.88037 1.59404 0ZM0 0" fill="#0000ff"/>
<path transform="matrix(1.00009,0,0,-1.00006,3.8389893,106.917629)" d="M46.9491 45.35506C46.9491 46.23543 46.23543 46.9491 45.35506 46.9491 44.47467 46.9491 43.761 46.23543 43.761 45.35506 43.761 44.47467 44.47467 43.761 45.35506 43.761 46.23543 43.761 46.9491 44.47467 46.9491 45.35506ZM45.35506 45.35506" fill="#ffffff"/>
<path transform="matrix(1.00009,0,0,-1.00006,3.8389893,106.917629)" stroke-width=".79701" stroke-linecap="butt" stroke-miterlimit="10" stroke-linejoin="miter" fill="none" stroke="#0000ff" d="M46.9491 45.35506C46.9491 46.23543 46.23543 46.9491 45.35506 46.9491 44.47467 46.9491 43.761 46.23543 43.761 45.35506 43.761 44.47467 44.47467 43.761 45.35506 43.761 46.23543 43.761 46.9491 44.47467 46.9491 45.35506ZM45.35506 45.35506"/>
<path transform="matrix(1.00009,0,0,-1.00006,3.8389893,106.917629)" stroke-width=".79701" stroke-linecap="butt" stroke-miterlimit="10" stroke-linejoin="miter" fill="none" stroke="#0000ff" d="M45.35506 68.0326H90.71013"/>
<path transform="matrix(1.00009,0,0,-1.00006,3.8389893,106.917629)" d="M46.9491 68.0326C46.9491 68.91296 46.23543 69.62663 45.35506 69.62663 44.47467 69.62663 43.761 68.91296 43.761 68.0326 43.761 67.1522 44.47467 66.43854 45.35506 66.43854 46.23543 66.43854 46.9491 67.1522 46.9491 68.0326ZM45.35506 68.0326" fill="#0000ff"/>
<path transform="matrix(1.00009,0,0,-1.00006,3.8389893,106.917629)" d="M92.30417 68.0326C92.30417 68.91296 91.5905 69.62663 90.71013 69.62663 89.82974 69.62663 89.11607 68.91296 89.11607 68.0326 89.11607 67.1522 89.82974 66.43854 90.71013 66.43854 91.5905 66.43854 92.30417 67.1522 92.30417 68.0326ZM90.71013 68.0326" fill="#ffffff"/>
<path transform="matrix(1.00009,0,0,-1.00006,3.8389893,106.917629)" stroke-width=".79701" stroke-linecap="butt" stroke-miterlimit="10" stroke-linejoin="miter" fill="none" stroke="#0000ff" d="M92.30417 68.0326C92.30417 68.91296 91.5905 69.62663 90.71013 69.62663 89.82974 69.62663 89.11607 68.91296 89.11607 68.0326 89.11607 67.1522 89.82974 66.43854 90.71013 66.43854 91.5905 66.43854 92.30417 67.1522 92.30417 68.0326ZM90.71013 68.0326"/>
<path transform="matrix(1.00009,0,0,-1.00006,3.8389893,106.917629)" stroke-width=".79701" stroke-linecap="butt" stroke-miterlimit="10" stroke-linejoin="miter" fill="none" stroke="#0000ff" d="M90.71013-25.74266C90.71013-25.74266 91.0409-26.06378 91.16791-26.18523 91.29494-26.3067 91.49867-26.49944 91.6257-26.61812 91.75273-26.73679 91.95648-26.92496 92.08351-27.04062 92.21054-27.1563 92.41428-27.33914 92.5413-27.4517 92.66833-27.5643 92.87209-27.74261 92.99911-27.85207 93.12614-27.96152 93.32988-28.13452 93.45691-28.24066 93.58394-28.3468 93.78769-28.51431 93.91472-28.61716 94.04175-28.72 94.24548-28.8822 94.37251-28.98186 94.49953-29.08153 94.7033-29.23901 94.8303-29.33551 94.95734-29.432 95.16107-29.58415 95.2881-29.67738 95.41513-29.77061 95.61888-29.91768 95.74591-30.00749 95.87294-30.09732 96.07668-30.23859 96.2037-30.32481 96.33073-30.41103 96.53448-30.54626 96.66151-30.62897 96.78854-30.71169 96.99228-30.84167 97.11931-30.92104 97.24635-31.00038 97.45009-31.12506 97.57712-31.20096 97.70415-31.27686 97.90788-31.39575 98.03493-31.46811 98.16194-31.54045 98.36569-31.6535 98.4927-31.72243 98.61974-31.79137 98.82347-31.89977 98.95052-31.96501 99.07755-32.03024 99.28128-32.13133 99.40831-32.19269 99.53534-32.25404 99.73909-32.34949 99.86612-32.40724 99.99315-32.46498 100.19688-32.55476 100.32391-32.60896 100.45094-32.66318 100.6547-32.74725 100.78172-32.79791 100.90875-32.84854 101.11249-32.92712 101.23952-32.97403 101.36655-33.02092 101.5703-33.09291 101.69733-33.13597 101.82436-33.17905 102.02809-33.2452 102.15512-33.28442 102.28214-33.32364 102.48589-33.38336 102.61292-33.41869 102.73994-33.45401 102.94368-33.50748 103.07071-33.53911 103.19774-33.57074 103.40149-33.61868 103.52852-33.64671 103.65555-33.67474 103.85928-33.71695 103.98631-33.74118 104.11334-33.76543 104.3171-33.80116 104.44412-33.82146 104.57115-33.84175 104.77489-33.87114 104.90192-33.88756 105.02895-33.90398 105.2327-33.92728 105.35973-33.9398 105.48676-33.95233 105.69049-33.96915 105.81752-33.97787 105.94453-33.9866 106.1483-33.99774 106.27531-34.00278 106.40234-34.00783 106.60608-34.013 106.73311-34.0142 106.86014-34.0154 107.06389-34.01413 107.19092-34.01144 107.31795-34.00874 107.52168-34.00134 107.64871-33.99483 107.77574-33.9883 107.97949-33.97493 108.10652-33.96437 108.23355-33.95383 108.43729-33.93309 108.56432-33.91869 108.69135-33.9043 108.8951-33.87856 109.02213-33.86057 109.14915-33.84256 109.35289-33.81079 109.47992-33.78894 109.60693-33.7671 109.8107-33.72876 109.93771-33.70311 110.06474-33.67747 110.26848-33.63358 110.39551-33.60416 110.52254-33.57475 110.72629-33.52441 110.85332-33.49101 110.98035-33.4576 111.18408-33.40057 111.31111-33.36331 111.43814-33.32608 111.64189-33.26338 111.76892-33.22247 111.89595-33.18158 112.09969-33.11314 112.22672-33.06851 112.35374-33.02386 112.5575-32.94902 112.68452-32.90068 112.81155-32.85234 113.01529-32.77203 113.14232-32.72005 113.26935-32.66806 113.47308-32.58167 113.6001-32.52592 113.72713-32.47018 113.93088-32.37778 114.0579-32.3183 114.18494-32.25882 114.38867-32.16026 114.5157-32.0972 114.64273-32.0341 114.84648-31.93028 114.97351-31.86362 115.10054-31.79692 115.30428-31.68683 115.4313-31.61655 115.55833-31.54626 115.76208-31.43077 115.88911-31.35704 116.01614-31.2833 116.21988-31.1623 116.34691-31.08504 116.47394-31.0078 116.67769-30.8812 116.80472-30.80026 116.93175-30.71931 117.13548-30.58614 117.26251-30.50163 117.38953-30.41713 117.59329-30.279 117.7203-30.19124 117.84734-30.10349 118.05107-29.96016 118.1781-29.8691 118.30513-29.77803 118.50888-29.62927 118.63591-29.53484 118.76294-29.44038 118.96667-29.28618 119.0937-29.18845 119.22073-29.0907 119.42448-28.93146 119.55151-28.8303 119.67854-28.72916 119.88228-28.56383 120.00931-28.45935 120.13634-28.35489 120.34009-28.18494 120.46712-28.07735 120.59415-27.96976 120.79788-27.79451 120.92491-27.6839 121.05193-27.57329 121.25569-27.39386 121.3827-27.28008 121.50974-27.16629 121.71347-26.9806 121.8405-26.8638 121.96754-26.74701 122.17128-26.5581 122.29831-26.43819 122.42534-26.31827 122.62907-26.12242 122.75612-25.99942 122.88315-25.87642 123.08688-25.67744 123.21391-25.55167 123.34094-25.42586 123.5447-25.22144 123.67172-25.09282 123.79875-24.96419 124.00249-24.75598 124.12952-24.62463 124.25655-24.49327 124.4603-24.28026 124.58733-24.14607 124.71434-24.0119 124.91809-23.79431 125.0451-23.65749 125.17213-23.52065 125.37589-23.29945 125.50291-23.15988 125.62994-23.02032 125.83368-22.79372 125.96071-22.65157 126.08774-22.50941 126.29149-22.28003 126.41852-22.13527 126.54555-21.99054 126.74928-21.75546 126.87631-21.60828 127.00334-21.46107 127.20709-21.22375 127.33412-21.07434 127.46115-20.92494 127.66489-20.68323 127.79192-20.53143 127.91895-20.37962 128.1227-20.13445 128.24973-19.9802 128.37676-19.82593 128.58049-19.57613 128.70752-19.41962 128.83454-19.26312 129.03829-19.01071 129.16532-18.85213 129.29235-18.69354 129.49608-18.43742 129.62311-18.27669 129.75014-18.11595 129.95389-17.85632 130.08092-17.69362 130.20795-17.53091 130.41168-17.2686 130.53871-17.10399 130.66574-16.93936 130.86949-16.6737 130.99652-16.50708 131.12355-16.34044 131.32729-16.07132 131.45432-15.90291 131.58135-15.7345 131.7851-15.46342 131.91213-15.2932 132.03916-15.12296 132.24289-14.8478 132.36992-14.67587 132.49694-14.50395 132.7007-14.22752 132.82772-14.05405 132.95475-13.8806 133.15848-13.60071 133.2855-13.42564 133.41254-13.25061 133.61629-12.96895 133.74332-12.79242 133.87035-12.6159 134.07408-12.33118 134.20111-12.1533 134.32814-11.97543 134.53189-11.6896 134.65892-11.51038 134.78595-11.33116 134.98969-11.04218 135.11672-10.86157 135.24375-10.68097 135.4475-10.39047 135.57453-10.2086 135.70156-10.02673 136.03232-9.5508 136.03232-9.5508"/>
<path transform="matrix(1.00009,0,0,-1.00006,3.8389893,106.917629)" d="M92.30417-25.74266C92.30417-24.86227 91.5905-24.1486 90.71013-24.1486 89.82974-24.1486 89.11607-24.86227 89.11607-25.74266 89.11607-26.62303 89.82974-27.3367 90.71013-27.3367 91.5905-27.3367 92.30417-26.62303 92.30417-25.74266ZM90.71013-25.74266" fill="#0000ff"/>
<path transform="matrix(1.00009,0,0,-1.00006,3.8389893,106.917629)" d="M137.65924-9.50374C137.65924-8.62337 136.94557-7.90968 136.0652-7.90968 135.18482-7.90968 134.47115-8.62337 134.47115-9.50374 134.47115-10.38411 135.18482-11.0978 136.0652-11.0978 136.94557-11.0978 137.65924-10.38411 137.65924-9.50374ZM136.0652-9.50374" fill="#ffffff"/>
<path transform="matrix(1.00009,0,0,-1.00006,3.8389893,106.917629)" stroke-width=".79701" stroke-linecap="butt" stroke-miterlimit="10" stroke-linejoin="miter" fill="none" stroke="#0000ff" d="M137.65924-9.50374C137.65924-8.62337 136.94557-7.90968 136.0652-7.90968 135.18482-7.90968 134.47115-8.62337 134.47115-9.50374 134.47115-10.38411 135.18482-11.0978 136.0652-11.0978 136.94557-11.0978 137.65924-10.38411 137.65924-9.50374ZM136.0652-9.50374"/>
<path transform="matrix(1.00009,0,0,-1.00006,3.8389893,106.917629)" stroke-width=".79701" stroke-linecap="butt" stroke-miterlimit="10" stroke-linejoin="miter" fill="none" stroke="#0000ff" d="M136.0652 22.67752 181.42028-22.67752"/>
<path transform="matrix(1.00009,0,0,-1.00006,3.8389893,106.917629)" d="M137.65924 22.67752C137.65924 23.55789 136.94557 24.27156 136.0652 24.27156 135.18482 24.27156 134.47115 23.55789 134.47115 22.67752 134.47115 21.79713 135.18482 21.08347 136.0652 21.08347 136.94557 21.08347 137.65924 21.79713 137.65924 22.67752ZM136.0652 22.67752" fill="#0000ff"/>
<path transform="matrix(1.00009,0,0,-1.00006,3.8389893,106.917629)" d="M183.01432-22.67752C183.01432-21.79713 182.30065-21.08347 181.42028-21.08347 180.53989-21.08347 179.82622-21.79713 179.82622-22.67752 179.82622-23.55789 180.53989-24.27156 181.42028-24.27156 182.30065-24.27156 183.01432-23.55789 183.01432-22.67752ZM181.42028-22.67752" fill="#ffffff"/>
<path transform="matrix(1.00009,0,0,-1.00006,3.8389893,106.917629)" stroke-width=".79701" stroke-linecap="butt" stroke-miterlimit="10" stroke-linejoin="miter" fill="none" stroke="#0000ff" d="M183.01432-22.67752C183.01432-21.79713 182.30065-21.08347 181.42028-21.08347 180.53989-21.08347 179.82622-21.79713 179.82622-22.67752 179.82622-23.55789 180.53989-24.27156 181.42028-24.27156 182.30065-24.27156 183.01432-23.55789 183.01432-22.67752ZM181.42028-22.67752"/>
<path transform="matrix(1.00009,0,0,-1.00006,3.8389893,106.917629)" d="M183.01432 45.35506C183.01432 46.23543 182.30065 46.9491 181.42028 46.9491 180.53989 46.9491 179.82622 46.23543 179.82622 45.35506 179.82622 44.47467 180.53989 43.761 181.42028 43.761 182.30065 43.761 183.01432 44.47467 183.01432 45.35506ZM181.42028 45.35506" fill="#ffffff"/>
<path transform="matrix(1.00009,0,0,-1.00006,3.8389893,106.917629)" d="M183.01432 68.0326C183.01432 68.91296 182.30065 69.62663 181.42028 69.62663 180.53989 69.62663 179.82622 68.91296 179.82622 68.0326 179.82622 67.1522 180.53989 66.43854 181.42028 66.43854 182.30065 66.43854 183.01432 67.1522 183.01432 68.0326ZM181.42028 68.0326" fill="#0000ff"/>
<path transform="matrix(1.00009,0,0,-1.00006,3.8389893,106.917629)" stroke-width=".79701" stroke-linecap="butt" stroke-miterlimit="10" stroke-linejoin="miter" fill="none" stroke="#0000ff" d="M181.42028 45.35506 226.13776 78.89316"/>
<path transform="matrix(.800042,-.600026,-.600044,-.80001798,230.31592,27.780632)" stroke-width=".79701" stroke-linecap="round" stroke-linejoin="round" fill="none" stroke="#0000ff" d="M-2.55046 3.11095C-2.0845 1.24435-1.04614 .36295 0 0-1.04614-.36295-2.0845-1.24435-2.55046-3.11095"/>
<path transform="matrix(1.00009,0,0,-1.00006,3.8389893,106.917629)" d="M183.01432 45.35506C183.01432 46.23543 182.30065 46.9491 181.42028 46.9491 180.53989 46.9491 179.82622 46.23543 179.82622 45.35506 179.82622 44.47467 180.53989 43.761 181.42028 43.761 182.30065 43.761 183.01432 44.47467 183.01432 45.35506ZM181.42028 45.35506" fill="#ffffff"/>
<path transform="matrix(1.00009,0,0,-1.00006,3.8389893,106.917629)" stroke-width=".79701" stroke-linecap="butt" stroke-miterlimit="10" stroke-linejoin="miter" fill="none" stroke="#0000ff" d="M183.01432 45.35506C183.01432 46.23543 182.30065 46.9491 181.42028 46.9491 180.53989 46.9491 179.82622 46.23543 179.82622 45.35506 179.82622 44.47467 180.53989 43.761 181.42028 43.761 182.30065 43.761 183.01432 44.47467 183.01432 45.35506ZM181.42028 45.35506"/>
</svg>
