<svg xmlns="http://www.w3.org/2000/svg" xmlns:xlink="http://www.w3.org/1999/xlink" xmlns:inkscape="http://www.inkscape.org/namespaces/inkscape" version="1.1" width="148" height="124" viewBox="0 0 148 124">
<defs>
<clipPath id="clip_1">
<path transform="matrix(.750015,0,0,-.75,1.045414,122.7935)" d="M0 0H194.27307V161.39408H0Z"/>
</clipPath>
<path id="font_2_2" d="M.36698915 .3996582H.45298768C.47299195 .3996582 .48298646 .3996582 .48298646 .41966249 .48298646 .43066407 .47299195 .43066407 .45599366 .43066407H.37298585L.3939972 .5449524C.397995 .5660095 .4119873 .6370239 .41799928 .6490326 .4269867 .66804507 .44400025 .68307498 .46499635 .68307498 .46899415 .68307498 .49499513 .68307498 .5139923 .66503909 .46998597 .661026 .45999146 .6260376 .45999146 .6110382 .45999146 .58802798 .47799684 .57603457 .49699403 .57603457 .522995 .57603457 .5519867 .5980377 .5519867 .6360321 .5519867 .6820679 .5059967 .7050781 .46499635 .7050781 .43099977 .7050781 .36799623 .68707278 .33799745 .58802798 .33198548 .56700137 .32899476 .5569763 .30499269 .43066407H.23599243C.21699524 .43066407 .20599365 .43066407 .20599365 .4116516 .20599365 .3996582 .21499634 .3996582 .23399353 .3996582H.2999878L.22499085 .0048828127C.20698548-.09207153 .18998719-.18309021 .13798523-.18309021 .13398743-.18309021 .10899353-.18309021 .08999634-.16506958 .13598633-.1620636 .14498902-.12606812 .14498902-.111068729 .14498902-.08807373 .1269989-.07606506 .10798645-.07606506 .08198547-.07606506 .052993776-.09806824 .052993776-.13606262 .052993776-.18109131 .09700012-.20507813 .13798523-.20507813 .19299317-.20507813 .23298645-.14607239 .25099183-.108062747 .2829895-.04508972 .30599977 .07583618 .30699159 .082839969L.36698915 .3996582Z"/>
<path id="font_3_1" d="M.33099366-.2400055C.33099366-.23701477 .33099366-.23500061 .31399537-.21800232 .18899536-.0920105 .15699768 .09700012 .15699768 .25 .15699768 .42399598 .19499207 .59799197 .31799317 .72299197 .33099366 .73498538 .33099366 .7369995 .33099366 .73999026 .33099366 .746994 .32699586 .75 .32099916 .75 .31098939 .75 .22099304 .6819916 .1619873 .5549927 .11099243 .44499208 .09899902 .33399964 .09899902 .25 .09899902 .17199707 .10998535 .050994874 .16499329-.06201172 .22499085-.18501282 .31098939-.25 .32099916-.25 .32699586-.25 .33099366-.24700928 .33099366-.2400055Z"/>
<path id="font_2_4" d="M.20599365 .3996582H.2999878C.31999208 .3996582 .32998658 .3996582 .32998658 .41966249 .32998658 .43066407 .31999208 .43066407 .3019867 .43066407H.21398926C.25 .5724945 .25498963 .59246829 .25498963 .59846499 .25498963 .61546328 .24299622 .62545779 .22599793 .62545779 .22299195 .62545779 .19499207 .62446597 .18598938 .58947756L.14698792 .43066407H.052993776C.032989503 .43066407 .022994996 .43066407 .022994996 .4116516 .022994996 .3996582 .0309906 .3996582 .050994874 .3996582H.13899231C.066986087 .11608887 .06298828 .099121097 .06298828 .08114624 .06298828 .02722168 .100997928-.0107421879 .15499878-.0107421879 .25698854-.0107421879 .31399537 .13505554 .31399537 .14305115 .31399537 .1530304 .30599977 .1530304 .3019867 .1530304 .29299928 .1530304 .2919922 .15003968 .2869873 .13905335 .24398804 .035217287 .19099427 .011245728 .15699768 .011245728 .13598633 .011245728 .12599182 .024230957 .12599182 .057174684 .12599182 .08114624 .12799073 .088134769 .13198853 .10510254L.20599365 .3996582Z"/>
<path id="font_3_2" d="M.2889862 .25C.2889862 .32798768 .27799989 .44898988 .22299195 .56199648 .16299439 .68499758 .07699585 .75 .066986087 .75 .06098938 .75 .056991579 .74598696 .056991579 .73999026 .056991579 .7369995 .056991579 .73498538 .07598877 .71699526 .17399597 .6179962 .23098755 .45899964 .23098755 .25 .23098755 .07899475 .19400025-.09700012 .069992069-.2230072 .056991579-.23500061 .056991579-.23701477 .056991579-.2400055 .056991579-.2460022 .06098938-.25 .066986087-.25 .07699585-.25 .16699219-.18200684 .22599793-.055007936 .2769928 .054992677 .2889862 .16600037 .2889862 .25Z"/>
<path id="font_2_3" d="M.47099305 .3773346C.47200013 .3833313 .47399903 .38833619 .47399903 .39535523 .47399903 .41236878 .46199037 .42237855 .44499208 .42237855 .43499757 .42237855 .4079895 .41537477 .4039917 .3793335 .38598634 .41636659 .35099793 .4423828 .31098939 .4423828 .19699097 .4423828 .07299805 .30226136 .07299805 .15812683 .07299805 .059020997 .13398743 0 .20599365 0 .2649994 0 .31199647 .04701233 .32199098 .058029176L.32299806 .057022096C.3019867-.031982423 .2899933-.07295227 .2899933-.07495117 .28599549-.08395386 .2519989-.18309021 .1459961-.18309021 .1269989-.18309021 .09399414-.18206787 .06599426-.17297364 .09599304-.16394043 .10699463-.13793946 .10699463-.12094116 .10699463-.10494995 .09599304-.0859375 .068984989-.0859375 .04699707-.0859375 .01499939-.10394287 .01499939-.14395142 .01499939-.18508911 .051986696-.20507813 .147995-.20507813 .272995-.20507813 .34498597-.12693787 .3600006-.06695557L.47099305 .3773346M.34098817 .12809754C.33499146 .10206604 .31199647 .077041629 .2899933 .058029176 .2689972 .040008546 .23799134 .021987915 .20899964 .021987915 .15899658 .021987915 .14399719 .074035648 .14399719 .11407471 .14399719 .16212464 .17298889 .28024293 .19999695 .33128358 .22698975 .38034059 .269989 .42037965 .31199647 .42037965 .37799073 .42037965 .3919983 .33929444 .3919983 .33428956 .3919983 .32928468 .3899994 .3232727 .3889923 .3192749L.34098817 .12809754Z"/>
<path id="font_3_3" d="M.68699648 .32714845C.70199587 .32714845 .72099307 .32714845 .72099307 .34713746 .72099307 .36714173 .70199587 .36714173 .6879883 .36714173H.08898926C.07499695 .36714173 .055999757 .36714173 .055999757 .34713746 .055999757 .32714845 .07499695 .32714845 .08999634 .32714845H.68699648M.6879883 .13284302C.70199587 .13284302 .72099307 .13284302 .72099307 .15284729 .72099307 .17285156 .70199587 .17285156 .68699648 .17285156H.08999634C.07499695 .17285156 .055999757 .17285156 .055999757 .15284729 .055999757 .13284302 .07499695 .13284302 .08898926 .13284302H.6879883Z"/>
<path id="font_4_2" d="M.49299623 .29556275C.46998597 .21156311 .43499757 .08753967 .43499757 .010528564 .43499757-.016464234 .45199586-.0284729 .47599793-.0284729 .5159912-.0284729 .59098818 .014526367 .59098818 .03453064 .59098818 .039535524 .58599856 .041534425 .58099368 .041534425 .56900027 .041534425 .5509949 .03253174 .5399933 .026535035 .5269928 .028533936 .519989 .038528444 .519989 .05253601 .519989 .17454529 .6339874 .52459719 .6629944 .5986023 .6749878 .62661746 .6879883 .66760256 .6879883 .6756134 .6879883 .6826172 .6819916 .6826172 .6779938 .6826172 .6569977 .6826172 .6119995 .65560916 .60398867 .63661196 .59098818 .6016083 .58898928 .5966034 .57699587 .55960085 .5439911 .46458436 .44499208 .29956056 .34599305 .18354798 .31498719 .14854431 .21699524 .03253174 .1459961 .03253174 .09799194 .03253174 .067993167 .073532108 .067993167 .13954163 .067993167 .20954895 .10699463 .29956056 .16699219 .43658448 .20298767 .51860049 .23298645 .58961489 .23298645 .63461306 .23298645 .6816101 .20098877 .6826172 .18299866 .6826172 .10598755 .6826172 .009994507 .62060549 .009994507 .5996094 .009994507 .5936127 .016998291 .5936127 .020996094 .5936127 .032989503 .5936127 .050994874 .6016083 .066986087 .61260989 .07398987 .61761477 .08999634 .62760928 .116989139 .62760928 .13899231 .62760928 .147995 .61361697 .147995 .59161379 .147995 .5476074 .11199951 .46559144 .069992069 .36958314 .0039978029 .21955872-.01701355 .1555481-.01701355 .09753418-.01701355 .03152466 .008987427-.022460938 .07998657-.022460938 .14199829-.022460938 .23298645 .01852417 .33499146 .11354065 .4039917 .17855835 .44898988 .23855591 .49198915 .29656983L.49299623 .29556275Z"/>
<path id="font_4_1" d="M.6589966 .23046875C.6759949 .23046875 .69400027 .23046875 .69400027 .25045777 .69400027 .27046205 .6759949 .27046205 .6589966 .27046205H.117996219C.100997928 .27046205 .08299255 .27046205 .08299255 .25045777 .08299255 .23046875 .100997928 .23046875 .117996219 .23046875H.6589966Z"/>
<path id="font_2_1" d="M.37298585 .37835694C.35499574 .41537477 .32598878 .4423828 .2809906 .4423828 .1639862 .4423828 .039993287 .29533387 .039993287 .14929199 .039993287 .055267335 .09498596-.0107421879 .17298889-.0107421879 .19299317-.0107421879 .24299622-.0067443849 .30299378 .06427002 .31098939 .022247315 .34599305-.0107421879 .3939972-.0107421879 .42900086-.0107421879 .45199586 .012252808 .46798707 .044265748 .4850006 .08027649 .49798585 .14129639 .49798585 .14329529 .49798585 .1532898 .4889984 .1532898 .48599244 .1532898 .47599793 .1532898 .47499085 .14929199 .47200013 .13528443 .45498658 .07026672 .43699647 .011245728 .3959961 .011245728 .36898805 .011245728 .3659973 .037261964 .3659973 .057266237 .3659973 .07926941 .36799623 .08728027 .3789978 .13128662 .3899994 .17329407 .3919983 .18330384 .40098573 .22131348L.43699647 .36135865C.44400025 .38935853 .44400025 .39135743 .44400025 .39537049 .44400025 .41236878 .43199159 .42237855 .4149933 .42237855 .3909912 .42237855 .37599183 .4003601 .37298585 .37835694M.30799867 .119277957C.30299378 .10127258 .30299378 .09927368 .28799439 .08227539 .24398804 .027252198 .20298767 .011245728 .1749878 .011245728 .125 .011245728 .11099243 .06626892 .11099243 .105285648 .11099243 .1552887 .14299011 .27833558 .1659851 .32434083 .19699097 .38336183 .24198914 .42037965 .28199769 .42037965 .34700013 .42037965 .36099244 .3383484 .36099244 .33235169 .36099244 .32633973 .35899354 .32034303 .35798646 .31533814L.30799867 .119277957Z"/>
<path id="font_2_5" d="M.48599244 .38136292C.48999024 .39537049 .48999024 .39736939 .48999024 .40437318 .48999024 .42237855 .47599793 .43138124 .46099855 .43138124 .45098878 .43138124 .43499757 .42536927 .42599488 .41036988 .42399598 .405365 .41600038 .37435914 .4119873 .35635377 .40499879 .33035279 .397995 .30334474 .3919983 .27633668L.34700013 .09628296C.34298707 .08126831 .2999878 .011245728 .23399353 .011245728 .18299866 .011245728 .17199707 .055267335 .17199707 .0922699 .17199707 .1382904 .18899536 .20030213 .22299195 .28833009 .23899842 .3293457 .24299622 .3403473 .24299622 .36035157 .24299622 .405365 .21099854 .4423828 .16099549 .4423828 .06599426 .4423828 .0289917 .29733277 .0289917 .28833009 .0289917 .27833558 .038986207 .27833558 .040985109 .27833558 .050994874 .27833558 .051986696 .28033448 .056991579 .29634095 .083999637 .3903656 .12399292 .42037965 .1579895 .42037965 .1659851 .42037965 .18299866 .42037965 .18299866 .3883667 .18299866 .36335755 .17298889 .3373413 .1659851 .31834413 .12599182 .21231079 .10798645 .1552887 .10798645 .10827637 .10798645 .019256592 .17098999-.0107421879 .22999573-.0107421879 .2689972-.0107421879 .30299378 .0062561037 .33099366 .03425598 .31799317-.017745972 .30599977-.06674194 .2659912-.11973572 .23999024-.15385437 .20199585-.18309021 .1559906-.18309021 .14199829-.18309021 .09700012-.18005371 .07998657-.14074707 .09599304-.14074707 .10899353-.14074707 .12298584-.1287384 .1329956-.11973572 .14299011-.10673523 .14299011-.08773804 .14299011-.056747438 .115997318-.052734376 .10598755-.052734376 .08299255-.052734376 .049987794-.068740848 .049987794-.11773682 .049987794-.16796875 .09399414-.20507813 .1559906-.20507813 .25898744-.20507813 .3619995-.11373901 .3899994-.00074768069L.48599244 .38136292Z"/>
</defs>
<path transform="matrix(.750015,0,0,-.75,1.045414,122.7935)" stroke-width=".3985" stroke-linecap="butt" stroke-miterlimit="10" stroke-linejoin="miter" fill="none" stroke="#bfbfbf" d=""/>
<path transform="matrix(.750015,0,0,-.75,1.045414,122.7935)" stroke-width=".3985" stroke-linecap="butt" stroke-miterlimit="10" stroke-linejoin="miter" fill="none" stroke="#bfbfbf" d=""/>
<path transform="matrix(.750015,0,0,-.75,1.045414,122.7935)" stroke-width=".19925" stroke-linecap="butt" stroke-miterlimit="10" stroke-linejoin="miter" fill="none" stroke="#7f807f" d=""/>
<path transform="matrix(.750015,0,0,-.75,1.045414,122.7935)" stroke-width=".19925" stroke-linecap="butt" stroke-miterlimit="10" stroke-linejoin="miter" fill="none" stroke="#7f807f" d=""/>
<path transform="matrix(.750015,0,0,-.75,1.045414,122.7935)" stroke-width=".3985" stroke-linecap="butt" stroke-miterlimit="10" stroke-linejoin="miter" fill="none" stroke="#000000" d="M0 14.67218H192.28055"/>
<path transform="matrix(.750015,0,0,-.75,145.25872,111.78937)" d="M1.99252 0-1.19551 1.59401 0 0-1.19551-1.59401"/>
<path transform="matrix(.750015,0,0,-.75,1.045414,122.7935)" stroke-width=".3985" stroke-linecap="butt" stroke-miterlimit="10" stroke-linejoin="miter" fill="none" stroke="#000000" d="M10.79294 0V159.40155"/>
<path transform="matrix(0,-.75,-.750015,-0,9.140281,3.24234)" d="M1.99252 0-1.19551 1.59401 0 0-1.19551-1.59401"/>
<g clip-path="url(#clip_1)">
<path transform="matrix(.750015,0,0,-.75,1.045414,122.7935)" stroke-width=".79701" stroke-linecap="butt" stroke-miterlimit="10" stroke-linejoin="miter" fill="none" stroke="#0000ff" d="M10.79294 44.01656 11.33528 45.85886 11.87764 47.69736 12.41998 49.52852 12.96231 51.34912 13.50465 53.15416 14.047 54.94131 14.58936 56.70645 15.13171 58.44635 15.67406 60.1569 16.21638 61.83519 16.75873 63.47737 17.30107 65.08083 17.84341 66.64232 18.38579 68.1589 18.92813 69.62825 19.47046 71.04623 20.0128 72.41083 20.55515 73.71878 21.09749 74.96951 21.63986 76.1595 22.1822 77.28699 22.72453 78.34962 23.26688 79.3474 23.80922 80.27623 24.35158 81.13696 24.89392 81.92552 25.43628 82.64307 25.97862 83.28873 26.52095 83.8613 27.0633 84.35963 27.60565 84.78522 28.148 85.13625 28.69035 85.41304 29.2327 85.61617 29.77502 85.74564 30.31737 85.80177 30.85973 85.78658 31.40207 85.70097 31.94441 85.54465 32.48677 85.32053 33.0291 85.0292 33.57144 84.67186 34.1138 84.25113 34.65614 83.76907 35.19849 83.22746 35.74084 82.62863 36.28317 81.97548 36.82552 81.27011 37.36787 80.51546 37.91022 79.71472 38.45256 78.86967 38.9949 77.98413 39.53726 77.06104 40.0796 76.10448 40.62195 75.11624 41.16429 74.10187 41.70663 73.06316 42.24898 72.0039 42.79134 70.92792 43.33368 69.8396 43.87602 68.74132 44.41837 67.63745 44.96071 66.53242 45.50305 65.42827 46.0454 64.33028 46.58775 63.24078 47.1301 62.16452 47.67244 61.10495 48.21478 60.06477 48.75713 59.04955 49.29947 58.06042 49.84181 57.10237 50.38417 56.17812 50.92651 55.29051 51.46886 54.4446 52.0112 53.6418 52.55356 52.88538 53.0959 52.17825 53.63824 51.52306 54.18059 50.92186 54.72293 50.3773 55.26527 49.8932 55.80763 49.47014 56.34998 49.11075 56.8923 48.81708 57.43466 48.58972 57.977 48.43105 58.51935 48.3425 59.0617 48.32379 59.60405 48.37785 60.14638 48.5044 60.68874 48.7052 61.23108 48.97935 61.77342 49.32716 62.31578 49.74979 62.85812 50.2455 63.40045 50.81453 63.9428 51.45755 64.48515 52.17216 65.0275 52.95924 65.56989 53.81679 66.11218 54.74353 66.65456 55.73781 67.19684 56.79807 67.73921 57.92322 68.28162 59.1106 68.82391 60.35864 69.36629 61.66487 69.90858 63.02765 70.45094 64.4439 70.99333 65.91063 71.53563 67.42514 72.07802 68.98576 72.62032 70.58684 73.16269 72.22787 73.70505 73.90529 74.24734 75.61435 74.78975 77.3531 75.33203 79.11703 75.87442 80.90361 76.4168 82.70839 76.95908 84.52777 77.50145 86.35925 78.04376 88.19742 78.58615 90.04007 79.12852 91.8818 79.67082 93.72026 80.2132 95.55264 80.7555 97.37349 81.29787 99.17943 81.84026 100.96748 82.38255 102.73347 82.92493 104.47429 83.46722 106.18567 84.0096 107.86485 84.55197 109.50882 85.09427 111.11371 85.63666 112.67728 86.17896 114.19589 86.72133 115.66672 87.2637 117.08679 87.806 118.45311 88.34837 119.76372 88.89067 121.01617 89.43306 122.20883 89.97543 123.33868 90.51773 124.40451 91.0601 125.40436 91.6024 126.3358 92.14478 127.19833 92.68716 127.99014 93.22946 128.71088 93.77185 129.3589 94.31413 129.93437 94.8565 130.43596 95.39888 130.86449 95.94118 131.21843 96.48358 131.49729 97.02588 131.70363 97.56824 131.83547 98.11061 131.89514 98.65291 131.88257 99.19528 131.7996 99.7376 131.64618 100.27998 131.42502 100.82234 131.13578 101.36464 130.78046 101.90701 130.3624 102.44931 129.88266 102.9917 129.34311 103.53409 128.74634 104.07637 128.09581 104.61874 127.39253 105.16104 126.63959 105.70341 125.84006 106.24582 124.99678 106.7881 124.11298 107.33049 123.19109 107.87277 122.23624 108.41515 121.24948 108.95753 120.23544 109.49983 119.19699 110.04222 118.13864 110.5845 117.06378 111.12688 115.9755 111.66925 114.87782 112.21156 113.77364 112.75394 112.66862 113.29623 111.56473 113.83862 110.46646 114.38098 109.37671 114.92328 108.30011 115.46567 107.2394 116.00797 106.19858 116.55034 105.1822 117.09273 104.19193 117.635 103.23239 118.17738 102.30667 118.7197 101.41817"/>
<path transform="matrix(.750015,0,0,-.75,1.045414,122.7935)" d="M34.3714 14.67218C34.3714 15.77266 33.47931 16.66473 32.37885 16.66473 31.27837 16.66473 30.38629 15.77266 30.38629 14.67218 30.38629 13.57172 31.27837 12.67963 32.37885 12.67963 33.47931 12.67963 34.3714 13.57172 34.3714 14.67218ZM32.37885 14.67218" fill="#ff0000"/>
<path transform="matrix(.750015,0,0,-.75,1.045414,122.7935)" stroke-width=".79701" stroke-linecap="butt" stroke-miterlimit="10" stroke-linejoin="miter" fill="none" stroke="#ff0000" d="M34.3714 14.67218C34.3714 15.77266 33.47931 16.66473 32.37885 16.66473 31.27837 16.66473 30.38629 15.77266 30.38629 14.67218 30.38629 13.57172 31.27837 12.67963 32.37885 12.67963 33.47931 12.67963 34.3714 13.57172 34.3714 14.67218ZM32.37885 14.67218"/>
<path transform="matrix(.750015,0,0,-.75,1.045414,122.7935)" d="M33.87326 14.67218C33.87326 15.49753 33.20418 16.1666 32.37885 16.1666 31.5535 16.1666 30.88443 15.49753 30.88443 14.67218 30.88443 13.84683 31.5535 13.17776 32.37885 13.17776 33.20418 13.17776 33.87326 13.84683 33.87326 14.67218ZM32.37885 14.67218" fill="#ffffff"/>
<path transform="matrix(.750015,0,0,-.75,1.045414,122.7935)" stroke-width=".3985" stroke-linecap="butt" stroke-miterlimit="10" stroke-linejoin="miter" fill="none" stroke="#ffffff" d="M33.87326 14.67218C33.87326 15.49753 33.20418 16.1666 32.37885 16.1666 31.5535 16.1666 30.88443 15.49753 30.88443 14.67218 30.88443 13.84683 31.5535 13.17776 32.37885 13.17776 33.20418 13.17776 33.87326 13.84683 33.87326 14.67218ZM32.37885 14.67218"/>
<path transform="matrix(.750015,0,0,-.75,1.045414,122.7935)" d="M12.78549 44.01656C12.78549 45.11703 11.89342 46.00911 10.79294 46.00911 9.69247 46.00911 8.80038 45.11703 8.80038 44.01656 8.80038 42.91609 9.69247 42.024 10.79294 42.024 11.89342 42.024 12.78549 42.91609 12.78549 44.01656ZM10.79294 44.01656" fill="#0000ff"/>
<path transform="matrix(.750015,0,0,-.75,1.045414,122.7935)" stroke-width=".79701" stroke-linecap="butt" stroke-miterlimit="10" stroke-linejoin="miter" fill="none" stroke="#0000ff" d="M12.78549 44.01656C12.78549 45.11703 11.89342 46.00911 10.79294 46.00911 9.69247 46.00911 8.80038 45.11703 8.80038 44.01656 8.80038 42.91609 9.69247 42.024 10.79294 42.024 11.89342 42.024 12.78549 42.91609 12.78549 44.01656ZM10.79294 44.01656"/>
<path transform="matrix(.750015,0,0,-.75,1.045414,122.7935)" d="M34.3714 44.01656C34.3714 45.11703 33.47931 46.00911 32.37885 46.00911 31.27837 46.00911 30.38629 45.11703 30.38629 44.01656 30.38629 42.91609 31.27837 42.024 32.37885 42.024 33.47931 42.024 34.3714 42.91609 34.3714 44.01656ZM32.37885 44.01656" fill="#ff0000"/>
<path transform="matrix(.750015,0,0,-.75,1.045414,122.7935)" stroke-width=".79701" stroke-linecap="butt" stroke-miterlimit="10" stroke-linejoin="miter" fill="none" stroke="#ff0000" d="M34.3714 44.01656C34.3714 45.11703 33.47931 46.00911 32.37885 46.00911 31.27837 46.00911 30.38629 45.11703 30.38629 44.01656 30.38629 42.91609 31.27837 42.024 32.37885 42.024 33.47931 42.024 34.3714 42.91609 34.3714 44.01656ZM32.37885 44.01656"/>
<path transform="matrix(.750015,0,0,-.75,1.045414,122.7935)" stroke-width=".79701" stroke-linecap="butt" stroke-miterlimit="10" stroke-linejoin="miter" fill="none" stroke="#ff0000" d="M10.79294 14.67218H10.9014 11.00987 11.11833 11.22682 11.33528 11.44377 11.55223 11.6607 11.76918 11.87766 11.98613 12.09459 12.20306 12.31152 12.42 12.52847 12.63695 12.74542 12.8539 12.96236 13.07083 13.1793 13.28777 13.39626 13.50473 13.61317 13.72166 13.83012 13.9386 14.04707 14.15555 14.264 14.3725 14.48096 14.58943 14.6979 14.80637 14.91484 15.02332 15.13179 15.24026 15.34872 15.4572 15.56567 15.67413 15.78261 15.8911 15.99956 16.10803 16.2165 16.32495 16.43344 16.54192 16.65039 16.75887 16.86732 16.97578 17.08426 17.19273 17.30121 17.4097 17.51816 17.62665 17.73509 17.84355 17.95204 18.06052 18.16899 18.27747 18.38593 18.49438 18.60286 18.71133 18.81981 18.92828 19.03674 19.14523 19.2537 19.36215 19.47064 19.5791 19.68759 19.79605 19.90453 20.01299 20.12148 20.22993 20.33841 20.44688 20.55534 20.66383 20.7723 20.88077 20.98924 21.09769 21.20618 21.31465 21.42313 21.53159 21.64008 21.74855 21.857 21.96548 22.07394 22.18242 22.2909 22.39935 22.50783 22.61629 22.72478 22.83325 22.94173 23.0502 23.15866 23.26714 23.37561 23.48407 23.59254 23.70102 23.80948 23.91797 24.02643 24.13492 24.24336 24.35185 24.46033 24.56877 24.67726 24.78572 24.89421 25.00269 25.11115 25.21962 25.32806 25.43657 25.54503 25.6535 25.76198 25.87044 25.97891 26.08739 26.19586 26.30434 26.4128 26.52126 26.62975 26.7382 26.84668 26.95515 27.06363 27.17212 27.28056 27.38905 27.49751 27.60597 27.71446 27.82292 27.9314 28.03986 28.14835 28.25682 28.3653 28.47377 28.58223 28.69069 28.79916 28.90764 29.01611 29.12459 29.23306 29.34152 29.45 29.55847 29.66695 29.7754 29.8839 29.99234 30.10081 30.20929 30.31776 30.42625 30.53471 30.6432 30.75165 30.86012 30.9686 31.07706 31.18555 31.294 31.40248 31.51096 31.61943 31.7279 31.83635 31.94485 32.0533 32.16177 32.27025 32.37872"/>
<path transform="matrix(.750015,0,0,-.75,1.045414,122.7935)" stroke-width=".79701" stroke-linecap="butt" stroke-miterlimit="10" stroke-linejoin="miter" fill="none" stroke="#ff0000" d="M32.37885 44.01656 32.81271 45.49052 33.2466 46.96274 33.6805 48.43143 34.11438 49.89426 34.54826 51.34975 34.98216 52.79495 35.41605 54.22992 35.84993 55.65077 36.28381 57.05698 36.7177 58.44672 37.1516 59.81769 37.58548 61.16843 38.01936 62.49715 38.45326 63.8018 38.88715 65.08151 39.32103 66.33453 39.75491 67.5585 40.1888 68.75282 40.6227 69.91603 41.05658 71.04697 41.49046 72.14182 41.92436 73.20262 42.35823 74.22792 42.79213 75.21274 43.22601 76.15997 43.6599 77.0679 44.0938 77.93329 44.52768 78.75758 44.96156 79.53902 45.39546 80.27733 45.82933 80.97015 46.26323 81.61867 46.69711 82.22289 47.131 82.77867 47.56488 83.28897 47.99878 83.7538 48.43266 84.16962 48.86656 84.53877 49.30043 84.86186 49.73433 85.13625 50.16821 85.36249 50.60208 85.54326 51.036 85.67708 51.46988 85.76248 51.90376 85.80211 52.33765 85.79625 52.77153 85.74402 53.20543 85.64632 53.63931 85.50546 54.07318 85.32031 54.5071 85.09143 54.94098 84.82176 55.37486 84.5113 55.80875 84.15918 56.24263 83.76862 56.67653 83.34047 57.1104 82.8742 57.5443 82.37302 57.9782 81.83807 58.41208 81.2694 58.84595 80.66931 59.27985 80.039 59.71373 79.38022 60.14763 78.69415 60.5815 77.98286 61.0154 77.2475 61.4493 76.48924 61.88318 75.71133 62.31706 74.91434 62.75095 74.10062 63.18483 73.27078 63.61873 72.42772 64.0526 71.57379 64.4865 70.70934 64.9204 69.8378 65.35426 68.95982 65.78816 68.07745 66.22205 67.19331 66.65593 66.30975 67.08981 65.4268 67.52371 64.54707 67.9576 63.6735 68.3915 62.80696 68.82536 61.94951 69.25926 61.10295 69.69315 60.26898 70.12703 59.45087 70.56091 58.6486 70.99481 57.86395 71.4287 57.101 71.86258 56.3583 72.29646 55.63966 72.73036 54.94568 73.16425 54.27927 73.59811 53.64015 74.03201 53.03127 74.46591 52.45349 74.8998 51.90828 75.33368 51.39651 75.76756 50.92084 76.20149 50.481 76.63533 50.07867 77.06923 49.71571 77.5031 49.3929 77.93701 49.11005 78.37093 48.87003 78.80476 48.67223 79.23868 48.51761 79.67253 48.40637 80.10643 48.34242 80.54034 48.32251 80.97421 48.34773 81.40811 48.42052 81.84195 48.53992 82.27588 48.70604 82.7098 48.91942 83.14363 49.18025 83.57755 49.4881 84.0114 49.84373 84.44533 50.24695 84.87923 50.69711 85.31306 51.19214 85.747 51.73709 86.18083 52.3266 86.61476 52.96075 87.04866 53.64188 87.48251 54.36694 87.91643 55.13521 88.35027 55.94684 88.78418 56.80109 89.21811 57.69583 89.65195 58.63072 90.08586 59.60616 90.51971 60.6188 90.95363 61.66878 91.38754 62.75482 91.82138 63.87549 92.25531 65.02873 92.68915 66.21364 93.12306 67.4297 93.55698 68.67421 93.99083 69.9454 94.42473 71.24362 94.8586 72.56586 95.2925 73.90985 95.72641 75.27528 96.16026 76.65973 96.59416 78.06094 97.02803 79.47739 97.46193 80.90881 97.89586 82.35143 98.3297 83.80424 98.76361 85.26503 99.19745 86.73164 99.63138 88.20299 100.06528 89.6767 100.49915 91.15065 100.93304 92.62404 101.3669 94.0936 101.80081 95.5582 102.23471 97.01604 102.66856 98.46506 103.10248 99.90295 103.53633 101.32849 103.97025 102.73909 104.40416 104.13356 104.838 105.5101 105.27193 106.867 105.70576 108.20273 106.1397 109.51445 106.5736 110.80153 107.00745 112.06244 107.44136 113.2955 107.87521 114.49919 108.30911 115.67152 108.74303 116.81099 109.17688 117.91725 109.61081 118.98924 110.04465 120.02332 110.47855 121.02075 110.91248 121.98004 111.34631 122.8985 111.78021 123.77681 112.21408 124.61339 112.648 125.40808 113.08191 126.15785 113.51575 126.86473 113.94966 127.52736 114.38353 128.14269 114.81743 128.71346 115.25134 129.23903 115.6852 129.71529 116.11911 130.14579 116.55296 130.5293 116.98686 130.8659 117.42078 131.1538 117.85464 131.39528 118.28854 131.58988 118.72238 131.73569"/>
<use data-text="f" xlink:href="#font_2_2" transform="matrix(7.4720995,0,0,-7.4719498,49.826395,41.2565)"/>
<use data-text="(" xlink:href="#font_3_1" transform="matrix(7.4720995,0,0,-7.4719498,54.288984,41.2565)"/>
<use data-text="t" xlink:href="#font_2_4" transform="matrix(7.4720995,0,0,-7.4719498,57.195287,41.2565)"/>
<use data-text=")" xlink:href="#font_3_2" transform="matrix(7.4720995,0,0,-7.4719498,59.893095,41.2565)"/>
<use data-text="g" xlink:href="#font_2_3" transform="matrix(7.4720995,0,0,-7.4719498,63.587667,89.675)"/>
<use data-text="(" xlink:href="#font_3_1" transform="matrix(7.4720995,0,0,-7.4719498,67.42024,89.675)"/>
<use data-text="t" xlink:href="#font_2_4" transform="matrix(7.4720995,0,0,-7.4719498,70.325809,89.675)"/>
<use data-text=")" xlink:href="#font_3_2" transform="matrix(7.4720995,0,0,-7.4719498,73.02435,89.675)"/>
<use data-text="=" xlink:href="#font_3_3" transform="matrix(7.4720995,0,0,-7.4719498,77.9933,89.675)"/>
<use data-text="U" xlink:href="#font_4_2" transform="matrix(7.4720995,0,0,-7.4719498,85.892368,89.675)"/>
<use data-text="(" xlink:href="#font_3_1" transform="matrix(7.4720995,0,0,-7.4719498,91.31122,89.675)"/>
<use data-text="t" xlink:href="#font_2_4" transform="matrix(7.4720995,0,0,-7.4719498,94.21678,89.675)"/>
<use data-text="&#x2212;" xlink:href="#font_4_1" transform="matrix(7.4720995,0,0,-7.4719498,98.57587,89.675)"/>
<use data-text="a" xlink:href="#font_2_1" transform="matrix(7.4720995,0,0,-7.4719498,106.04752,89.675)"/>
<use data-text=")" xlink:href="#font_3_2" transform="matrix(7.4720995,0,0,-7.4719498,109.99711,89.675)"/>
<use data-text="f" xlink:href="#font_2_2" transform="matrix(7.4720995,0,0,-7.4719498,114.148448,89.675)"/>
<use data-text="(" xlink:href="#font_3_1" transform="matrix(7.4720995,0,0,-7.4719498,118.61103,89.675)"/>
<use data-text="t" xlink:href="#font_2_4" transform="matrix(7.4720995,0,0,-7.4719498,121.51658,89.675)"/>
<use data-text="&#x2212;" xlink:href="#font_4_1" transform="matrix(7.4720995,0,0,-7.4719498,125.87566,89.675)"/>
<use data-text="a" xlink:href="#font_2_1" transform="matrix(7.4720995,0,0,-7.4719498,133.34807,89.675)"/>
<use data-text=")" xlink:href="#font_3_2" transform="matrix(7.4720995,0,0,-7.4719498,137.29766,89.675)"/>
<use data-text="a" xlink:href="#font_2_1" transform="matrix(7.4720995,0,0,-7.4719498,25.541653,122.35475)"/>
</g>
<use data-text="t" xlink:href="#font_2_4" transform="matrix(7.4720995,0,0,-7.4719498,141.41522,109.149509)"/>
<use data-text="y" xlink:href="#font_2_5" transform="matrix(7.4720995,0,0,-7.4719498,11.780376,7.6047518)"/>
</svg>
