<svg xmlns="http://www.w3.org/2000/svg" id="kronecker-figure" width="310" height="310" viewBox="0 0 310 310">
  <defs>
    <clipPath id="kronecker-clipPath-0">
      <rect x="5.0" y="5.0" width="300.0" height="300.0"/>
    </clipPath>
    <clipPath id="kronecker-clipPath-1">
      <rect x="5.0" y="5.0" width="300.0" height="300.0"/>
    </clipPath>
    <marker id="kronecker-arrow-head-end-1_None_24_60-black" markerWidth="4.5" markerHeight="4.0" markerUnits="userSpaceOnUse" orient="auto-start-reverse" refX="3.3" refY="2.0">
      <path d="M 4.5 2.0L 0.0 4.0L 0.9 2.5L 0.9 1.5L 0.0 0.0Z" fill="black" stroke="none"/>
    </marker>
    <marker id="kronecker-arrow-head-end-1_None_24_60-black-outline" markerWidth="8.5" markerHeight="8.0" markerUnits="userSpaceOnUse" orient="auto-start-reverse" refX="5.3" refY="4.0">
      <path d="M 7.3 5.8 L 2.8 7.8 A 2 2 0 0 1 0.0 6.0 L 0.0 2.0 A 2 2 0 0 1 2.8 0.2 L 7.3 2.2 A 2 2 0 0 1 7.3 5.8 Z" fill="white" stroke="none"/>
    </marker>
    <marker id="kronecker-arrow-head-end-1_None_24_60-red" markerWidth="4.5" markerHeight="4.0" markerUnits="userSpaceOnUse" orient="auto-start-reverse" refX="3.3" refY="2.0">
      <path d="M 4.5 2.0L 0.0 4.0L 0.9 2.5L 0.9 1.5L 0.0 0.0Z" fill="red" stroke="none"/>
    </marker>
    <marker id="kronecker-arrow-head-end-1_None_24_60-red-outline" markerWidth="8.5" markerHeight="8.0" markerUnits="userSpaceOnUse" orient="auto-start-reverse" refX="5.3" refY="4.0">
      <path d="M 7.3 5.8 L 2.8 7.8 A 2 2 0 0 1 0.0 6.0 L 0.0 2.0 A 2 2 0 0 1 2.8 0.2 L 7.3 2.2 A 2 2 0 0 1 7.3 5.8 Z" fill="white" stroke="none"/>
    </marker>
    <marker id="kronecker-arrow-head-end-1_None_24_60-orange" markerWidth="4.5" markerHeight="4.0" markerUnits="userSpaceOnUse" orient="auto-start-reverse" refX="3.3" refY="2.0">
      <path d="M 4.5 2.0L 0.0 4.0L 0.9 2.5L 0.9 1.5L 0.0 0.0Z" fill="orange" stroke="none"/>
    </marker>
    <marker id="kronecker-arrow-head-end-1_None_24_60-orange-outline" markerWidth="8.5" markerHeight="8.0" markerUnits="userSpaceOnUse" orient="auto-start-reverse" refX="5.3" refY="4.0">
      <path d="M 7.3 5.8 L 2.8 7.8 A 2 2 0 0 1 0.0 6.0 L 0.0 2.0 A 2 2 0 0 1 2.8 0.2 L 7.3 2.2 A 2 2 0 0 1 7.3 5.8 Z" fill="white" stroke="none"/>
    </marker>
    <marker id="kronecker-arrow-head-end-1_None_24_60-blue" markerWidth="4.5" markerHeight="4.0" markerUnits="userSpaceOnUse" orient="auto-start-reverse" refX="3.3" refY="2.0">
      <path d="M 4.5 2.0L 0.0 4.0L 0.9 2.5L 0.9 1.5L 0.0 0.0Z" fill="blue" stroke="none"/>
    </marker>
    <marker id="kronecker-arrow-head-end-1_None_24_60-blue-outline" markerWidth="8.5" markerHeight="8.0" markerUnits="userSpaceOnUse" orient="auto-start-reverse" refX="5.3" refY="4.0">
      <path d="M 7.3 5.8 L 2.8 7.8 A 2 2 0 0 1 0.0 6.0 L 0.0 2.0 A 2 2 0 0 1 2.8 0.2 L 7.3 2.2 A 2 2 0 0 1 7.3 5.8 Z" fill="white" stroke="none"/>
    </marker>
  </defs>
  <g id="kronecker-label-0" transform="translate(61.2,39.3) translate(2.2,0.0)">
    <g id="kronecker-g-0">
      <text font-family="sans-serif" font-size="14">Derivative</text>
    </g>
  </g>
  <g id="kronecker-label-1" transform="translate(177.5,39.3) translate(2.2,0.0)">
    <g id="kronecker-g-1">
      <text font-family="sans-serif" font-size="14">Integral</text>
    </g>
  </g>
  <line id="kronecker-line-0" x1="23.8" y1="26.4" x2="211.2" y2="26.4" stroke="black" stroke-width="2" fill="none"/>
  <line id="kronecker-line-1" x1="23.8" y1="47.9" x2="211.2" y2="47.9" stroke="black" stroke-width="1" fill="none"/>
  <g id="kronecker-label-2" transform="translate(42.5,69.3) translate(-13.7,-7.6)">
    <g id="kronecker-g-2">
      <svg xmlns:xlink="http://www.w3.org/1999/xlink" style="vertical-align: -0.200px" width="27.304px" height="15.296px" role="img" focusable="false" viewBox="0 -833.9 1508.6 844.9" x="0.0" y="0.0">
        <defs>
          <path id="kronecker-MJX-2-TEX-N-34" d="M462 0Q444 3 333 3Q217 3 199 0H190V46H221Q241 46 248 46T265 48T279 53T286 61Q287 63 287 115V165H28V211L179 442Q332 674 334 675Q336 677 355 677H373L379 671V211H471V165H379V114Q379 73 379 66T385 54Q393 47 442 46H471V0H462ZM293 211V545L74 212L183 211H293Z"/>
          <path id="kronecker-MJX-2-TEX-N-2062" d=""/>
          <path id="kronecker-MJX-2-TEX-I-1D465" d="M52 289Q59 331 106 386T222 442Q257 442 286 424T329 379Q371 442 430 442Q467 442 494 420T522 361Q522 332 508 314T481 292T458 288Q439 288 427 299T415 328Q415 374 465 391Q454 404 425 404Q412 404 406 402Q368 386 350 336Q290 115 290 78Q290 50 306 38T341 26Q378 26 414 59T463 140Q466 150 469 151T485 153H489Q504 153 504 145Q504 144 502 134Q486 77 440 33T333 -11Q263 -11 227 52Q186 -10 133 -10H127Q78 -10 57 16T35 71Q35 103 54 123T99 143Q142 143 142 101Q142 81 130 66T107 46T94 41L91 40Q91 39 97 36T113 29T132 26Q168 26 194 71Q203 87 217 139T245 247T261 313Q266 340 266 352Q266 380 251 392T217 404Q177 404 142 372T93 290Q91 281 88 280T72 278H58Q52 284 52 289Z"/>
          <path id="kronecker-MJX-2-TEX-N-32" d="M109 429Q82 429 66 447T50 491Q50 562 103 614T235 666Q326 666 387 610T449 465Q449 422 429 383T381 315T301 241Q265 210 201 149L142 93L218 92Q375 92 385 97Q392 99 409 186V189H449V186Q448 183 436 95T421 3V0H50V19V31Q50 38 56 46T86 81Q115 113 136 137Q145 147 170 174T204 211T233 244T261 278T284 308T305 340T320 369T333 401T340 431T343 464Q343 527 309 573T212 619Q179 619 154 602T119 569T109 550Q109 549 114 549Q132 549 151 535T170 489Q170 464 154 447T109 429Z"/>
        </defs>
        <g stroke="currentColor" fill="currentColor" stroke-width="0" transform="scale(1,-1)">
          <g data-mml-node="math" data-semantic-type="infixop" data-semantic-role="implicit" data-semantic-annotation="clearspeak:unit" data-semantic-id="5" data-semantic-children="0,3" data-semantic-content="4" data-semantic-speech="4 x squared">
            <g data-mml-node="mn" data-semantic-type="number" data-semantic-role="integer" data-semantic-font="normal" data-semantic-annotation="clearspeak:simple" data-semantic-id="0" data-semantic-parent="5" data-semantic-speech="4">
              <use data-c="34" xlink:href="#kronecker-MJX-2-TEX-N-34"/>
            </g>
            <g data-mml-node="mo" data-semantic-type="operator" data-semantic-role="multiplication" data-semantic-id="4" data-semantic-parent="5" data-semantic-added="true" data-semantic-operator="infixop,⁢" data-semantic-speech="times" transform="translate(500,0)">
              <use data-c="2062" xlink:href="#kronecker-MJX-2-TEX-N-2062"/>
            </g>
            <g data-mml-node="msup" data-semantic-type="superscript" data-semantic-role="latinletter" data-semantic-id="3" data-semantic-children="1,2" data-semantic-parent="5" data-semantic-speech="x squared" transform="translate(500,0)">
              <g data-mml-node="mi" data-semantic-type="identifier" data-semantic-role="latinletter" data-semantic-font="italic" data-semantic-annotation="clearspeak:simple" data-semantic-id="1" data-semantic-parent="3" data-semantic-speech="x" data-semantic-prefix="Base">
                <use data-c="1D465" xlink:href="#kronecker-MJX-2-TEX-I-1D465"/>
              </g>
              <g data-mml-node="mn" transform="translate(605,363) scale(0.707)" data-semantic-type="number" data-semantic-role="integer" data-semantic-font="normal" data-semantic-annotation="clearspeak:simple" data-semantic-id="2" data-semantic-parent="3" data-semantic-speech="2" data-semantic-prefix="Exponent">
                <use data-c="32" xlink:href="#kronecker-MJX-2-TEX-N-32"/>
              </g>
            </g>
          </g>
        </g>
      </svg>
    </g>
  </g>
  <g id="kronecker-label-3" transform="translate(42.5,120.7) translate(-9.7,-6.2)">
    <g id="kronecker-g-3">
      <svg xmlns:xlink="http://www.w3.org/1999/xlink" style="vertical-align: -0.400px" width="19.400px" height="12.456px" role="img" focusable="false" viewBox="0 -666 1072 688" x="0.0" y="0.0">
        <defs>
          <path id="kronecker-MJX-3-TEX-N-38" d="M70 417T70 494T124 618T248 666Q319 666 374 624T429 515Q429 485 418 459T392 417T361 389T335 371T324 363L338 354Q352 344 366 334T382 323Q457 264 457 174Q457 95 399 37T249 -22Q159 -22 101 29T43 155Q43 263 172 335L154 348Q133 361 127 368Q70 417 70 494ZM286 386L292 390Q298 394 301 396T311 403T323 413T334 425T345 438T355 454T364 471T369 491T371 513Q371 556 342 586T275 624Q268 625 242 625Q201 625 165 599T128 534Q128 511 141 492T167 463T217 431Q224 426 228 424L286 386ZM250 21Q308 21 350 55T392 137Q392 154 387 169T375 194T353 216T330 234T301 253T274 270Q260 279 244 289T218 306L210 311Q204 311 181 294T133 239T107 157Q107 98 150 60T250 21Z"/>
          <path id="kronecker-MJX-3-TEX-N-2062" d=""/>
          <path id="kronecker-MJX-3-TEX-I-1D465" d="M52 289Q59 331 106 386T222 442Q257 442 286 424T329 379Q371 442 430 442Q467 442 494 420T522 361Q522 332 508 314T481 292T458 288Q439 288 427 299T415 328Q415 374 465 391Q454 404 425 404Q412 404 406 402Q368 386 350 336Q290 115 290 78Q290 50 306 38T341 26Q378 26 414 59T463 140Q466 150 469 151T485 153H489Q504 153 504 145Q504 144 502 134Q486 77 440 33T333 -11Q263 -11 227 52Q186 -10 133 -10H127Q78 -10 57 16T35 71Q35 103 54 123T99 143Q142 143 142 101Q142 81 130 66T107 46T94 41L91 40Q91 39 97 36T113 29T132 26Q168 26 194 71Q203 87 217 139T245 247T261 313Q266 340 266 352Q266 380 251 392T217 404Q177 404 142 372T93 290Q91 281 88 280T72 278H58Q52 284 52 289Z"/>
        </defs>
        <g stroke="currentColor" fill="currentColor" stroke-width="0" transform="scale(1,-1)">
          <g data-mml-node="math" data-semantic-type="infixop" data-semantic-role="implicit" data-semantic-annotation="clearspeak:simple;clearspeak:unit" data-semantic-id="3" data-semantic-children="0,1" data-semantic-content="2" data-semantic-speech="8 x">
            <g data-mml-node="mn" data-semantic-type="number" data-semantic-role="integer" data-semantic-font="normal" data-semantic-annotation="clearspeak:simple" data-semantic-id="0" data-semantic-parent="3" data-semantic-speech="8">
              <use data-c="38" xlink:href="#kronecker-MJX-3-TEX-N-38"/>
            </g>
            <g data-mml-node="mo" data-semantic-type="operator" data-semantic-role="multiplication" data-semantic-id="2" data-semantic-parent="3" data-semantic-added="true" data-semantic-operator="infixop,⁢" data-semantic-speech="times" transform="translate(500,0)">
              <use data-c="2062" xlink:href="#kronecker-MJX-3-TEX-N-2062"/>
            </g>
            <g data-mml-node="mi" data-semantic-type="identifier" data-semantic-role="latinletter" data-semantic-font="italic" data-semantic-annotation="clearspeak:simple" data-semantic-id="1" data-semantic-parent="3" data-semantic-speech="x" transform="translate(500,0)">
              <use data-c="1D465" xlink:href="#kronecker-MJX-3-TEX-I-1D465"/>
            </g>
          </g>
        </g>
      </svg>
    </g>
  </g>
  <g id="kronecker-label-4" transform="translate(42.5,172.1) translate(-4.5,-6.2)">
    <g id="kronecker-g-4">
      <svg xmlns:xlink="http://www.w3.org/1999/xlink" style="vertical-align: -0.400px" width="9.048px" height="12.456px" role="img" focusable="false" viewBox="0 -666 500 688" x="0.0" y="0.0">
        <defs>
          <path id="kronecker-MJX-4-TEX-N-38" d="M70 417T70 494T124 618T248 666Q319 666 374 624T429 515Q429 485 418 459T392 417T361 389T335 371T324 363L338 354Q352 344 366 334T382 323Q457 264 457 174Q457 95 399 37T249 -22Q159 -22 101 29T43 155Q43 263 172 335L154 348Q133 361 127 368Q70 417 70 494ZM286 386L292 390Q298 394 301 396T311 403T323 413T334 425T345 438T355 454T364 471T369 491T371 513Q371 556 342 586T275 624Q268 625 242 625Q201 625 165 599T128 534Q128 511 141 492T167 463T217 431Q224 426 228 424L286 386ZM250 21Q308 21 350 55T392 137Q392 154 387 169T375 194T353 216T330 234T301 253T274 270Q260 279 244 289T218 306L210 311Q204 311 181 294T133 239T107 157Q107 98 150 60T250 21Z"/>
        </defs>
        <g stroke="currentColor" fill="currentColor" stroke-width="0" transform="scale(1,-1)">
          <g data-mml-node="math">
            <g data-mml-node="mn" data-semantic-type="number" data-semantic-role="integer" data-semantic-font="normal" data-semantic-annotation="clearspeak:simple" data-semantic-id="0" data-semantic-speech="8">
              <use data-c="38" xlink:href="#kronecker-MJX-4-TEX-N-38"/>
            </g>
          </g>
        </g>
      </svg>
    </g>
  </g>
  <g id="kronecker-label-5" transform="translate(42.5,223.6) translate(-4.5,-6.2)">
    <g id="kronecker-g-5">
      <svg xmlns:xlink="http://www.w3.org/1999/xlink" style="vertical-align: -0.400px" width="9.048px" height="12.456px" role="img" focusable="false" viewBox="0 -666 500 688" x="0.0" y="0.0">
        <defs>
          <path id="kronecker-MJX-5-TEX-N-30" d="M96 585Q152 666 249 666Q297 666 345 640T423 548Q460 465 460 320Q460 165 417 83Q397 41 362 16T301 -15T250 -22Q224 -22 198 -16T137 16T82 83Q39 165 39 320Q39 494 96 585ZM321 597Q291 629 250 629Q208 629 178 597Q153 571 145 525T137 333Q137 175 145 125T181 46Q209 16 250 16Q290 16 318 46Q347 76 354 130T362 333Q362 478 354 524T321 597Z"/>
        </defs>
        <g stroke="currentColor" fill="currentColor" stroke-width="0" transform="scale(1,-1)">
          <g data-mml-node="math">
            <g data-mml-node="mn" data-semantic-type="number" data-semantic-role="integer" data-semantic-font="normal" data-semantic-annotation="clearspeak:simple" data-semantic-id="0" data-semantic-speech="0">
              <use data-c="30" xlink:href="#kronecker-MJX-5-TEX-N-30"/>
            </g>
          </g>
        </g>
      </svg>
    </g>
  </g>
  <g id="kronecker-label-6" transform="translate(192.5,69.3) translate(-11.8,-7.7)">
    <g id="kronecker-g-6">
      <svg xmlns:xlink="http://www.w3.org/1999/xlink" style="vertical-align: -0.200px" width="23.656px" height="15.432px" role="img" focusable="false" viewBox="0 -841.7 1307 852.7" x="0.0" y="0.0">
        <defs>
          <path id="kronecker-MJX-6-TEX-I-1D452" d="M39 168Q39 225 58 272T107 350T174 402T244 433T307 442H310Q355 442 388 420T421 355Q421 265 310 237Q261 224 176 223Q139 223 138 221Q138 219 132 186T125 128Q125 81 146 54T209 26T302 45T394 111Q403 121 406 121Q410 121 419 112T429 98T420 82T390 55T344 24T281 -1T205 -11Q126 -11 83 42T39 168ZM373 353Q367 405 305 405Q272 405 244 391T199 357T170 316T154 280T149 261Q149 260 169 260Q282 260 327 284T373 353Z"/>
          <path id="kronecker-MJX-6-TEX-N-34" d="M462 0Q444 3 333 3Q217 3 199 0H190V46H221Q241 46 248 46T265 48T279 53T286 61Q287 63 287 115V165H28V211L179 442Q332 674 334 675Q336 677 355 677H373L379 671V211H471V165H379V114Q379 73 379 66T385 54Q393 47 442 46H471V0H462ZM293 211V545L74 212L183 211H293Z"/>
          <path id="kronecker-MJX-6-TEX-N-2062" d=""/>
          <path id="kronecker-MJX-6-TEX-I-1D465" d="M52 289Q59 331 106 386T222 442Q257 442 286 424T329 379Q371 442 430 442Q467 442 494 420T522 361Q522 332 508 314T481 292T458 288Q439 288 427 299T415 328Q415 374 465 391Q454 404 425 404Q412 404 406 402Q368 386 350 336Q290 115 290 78Q290 50 306 38T341 26Q378 26 414 59T463 140Q466 150 469 151T485 153H489Q504 153 504 145Q504 144 502 134Q486 77 440 33T333 -11Q263 -11 227 52Q186 -10 133 -10H127Q78 -10 57 16T35 71Q35 103 54 123T99 143Q142 143 142 101Q142 81 130 66T107 46T94 41L91 40Q91 39 97 36T113 29T132 26Q168 26 194 71Q203 87 217 139T245 247T261 313Q266 340 266 352Q266 380 251 392T217 404Q177 404 142 372T93 290Q91 281 88 280T72 278H58Q52 284 52 289Z"/>
        </defs>
        <g stroke="currentColor" fill="currentColor" stroke-width="0" transform="scale(1,-1)">
          <g data-mml-node="math">
            <g data-mml-node="msup" data-semantic-type="superscript" data-semantic-role="latinletter" data-semantic-id="5" data-semantic-children="0,4" data-semantic-speech="e Superscript 4 x">
              <g data-mml-node="mi" data-semantic-type="identifier" data-semantic-role="latinletter" data-semantic-font="italic" data-semantic-annotation="clearspeak:simple" data-semantic-id="0" data-semantic-parent="5" data-semantic-speech="e" data-semantic-prefix="Base">
                <use data-c="1D452" xlink:href="#kronecker-MJX-6-TEX-I-1D452"/>
              </g>
              <g data-mml-node="TeXAtom" transform="translate(499,363) scale(0.707)" data-semantic-type="infixop" data-semantic-role="implicit" data-semantic-annotation="clearspeak:simple;clearspeak:unit" data-semantic-id="4" data-semantic-children="1,2" data-semantic-content="3" data-semantic-parent="5" data-semantic-attributes="texclass:ORD" data-semantic-speech="4 x" data-semantic-prefix="Exponent" data-mjx-texclass="ORD">
                <g data-mml-node="mn" data-semantic-type="number" data-semantic-role="integer" data-semantic-font="normal" data-semantic-annotation="clearspeak:simple" data-semantic-id="1" data-semantic-parent="4" data-semantic-speech="4">
                  <use data-c="34" xlink:href="#kronecker-MJX-6-TEX-N-34"/>
                </g>
                <g data-mml-node="mo" data-semantic-type="operator" data-semantic-role="multiplication" data-semantic-id="3" data-semantic-parent="4" data-semantic-added="true" data-semantic-operator="infixop,⁢" data-semantic-speech="times" transform="translate(500,0)">
                  <use data-c="2062" xlink:href="#kronecker-MJX-6-TEX-N-2062"/>
                </g>
                <g data-mml-node="mi" data-semantic-type="identifier" data-semantic-role="latinletter" data-semantic-font="italic" data-semantic-annotation="clearspeak:simple" data-semantic-id="2" data-semantic-parent="4" data-semantic-speech="x" transform="translate(500,0)">
                  <use data-c="1D465" xlink:href="#kronecker-MJX-6-TEX-I-1D465"/>
                </g>
              </g>
            </g>
          </g>
        </g>
      </svg>
    </g>
  </g>
  <g id="kronecker-label-7" transform="translate(192.5,120.7) translate(-19.0,-10.9)">
    <g id="kronecker-g-7">
      <svg xmlns:xlink="http://www.w3.org/1999/xlink" style="vertical-align: -6.248px" width="38.016px" height="21.896px" role="img" focusable="false" viewBox="0 -864.9 2100.6 1209.9" x="0.0" y="0.0">
        <defs>
          <path id="kronecker-MJX-7-TEX-N-31" d="M213 578L200 573Q186 568 160 563T102 556H83V602H102Q149 604 189 617T245 641T273 663Q275 666 285 666Q294 666 302 660V361L303 61Q310 54 315 52T339 48T401 46H427V0H416Q395 3 257 3Q121 3 100 0H88V46H114Q136 46 152 46T177 47T193 50T201 52T207 57T213 61V578Z"/>
          <path id="kronecker-MJX-7-TEX-N-34" d="M462 0Q444 3 333 3Q217 3 199 0H190V46H221Q241 46 248 46T265 48T279 53T286 61Q287 63 287 115V165H28V211L179 442Q332 674 334 675Q336 677 355 677H373L379 671V211H471V165H379V114Q379 73 379 66T385 54Q393 47 442 46H471V0H462ZM293 211V545L74 212L183 211H293Z"/>
          <path id="kronecker-MJX-7-TEX-N-2062" d=""/>
          <path id="kronecker-MJX-7-TEX-I-1D452" d="M39 168Q39 225 58 272T107 350T174 402T244 433T307 442H310Q355 442 388 420T421 355Q421 265 310 237Q261 224 176 223Q139 223 138 221Q138 219 132 186T125 128Q125 81 146 54T209 26T302 45T394 111Q403 121 406 121Q410 121 419 112T429 98T420 82T390 55T344 24T281 -1T205 -11Q126 -11 83 42T39 168ZM373 353Q367 405 305 405Q272 405 244 391T199 357T170 316T154 280T149 261Q149 260 169 260Q282 260 327 284T373 353Z"/>
          <path id="kronecker-MJX-7-TEX-I-1D465" d="M52 289Q59 331 106 386T222 442Q257 442 286 424T329 379Q371 442 430 442Q467 442 494 420T522 361Q522 332 508 314T481 292T458 288Q439 288 427 299T415 328Q415 374 465 391Q454 404 425 404Q412 404 406 402Q368 386 350 336Q290 115 290 78Q290 50 306 38T341 26Q378 26 414 59T463 140Q466 150 469 151T485 153H489Q504 153 504 145Q504 144 502 134Q486 77 440 33T333 -11Q263 -11 227 52Q186 -10 133 -10H127Q78 -10 57 16T35 71Q35 103 54 123T99 143Q142 143 142 101Q142 81 130 66T107 46T94 41L91 40Q91 39 97 36T113 29T132 26Q168 26 194 71Q203 87 217 139T245 247T261 313Q266 340 266 352Q266 380 251 392T217 404Q177 404 142 372T93 290Q91 281 88 280T72 278H58Q52 284 52 289Z"/>
        </defs>
        <g stroke="currentColor" fill="currentColor" stroke-width="0" transform="scale(1,-1)">
          <g data-mml-node="math" data-semantic-type="infixop" data-semantic-role="implicit" data-semantic-annotation="clearspeak:unit" data-semantic-id="10" data-semantic-children="2,8" data-semantic-content="9" data-semantic-speech="one fourth e Superscript 4 x">
            <g data-mml-node="mfrac" data-semantic-type="fraction" data-semantic-role="vulgar" data-semantic-annotation="clearspeak:simple" data-semantic-id="2" data-semantic-children="0,1" data-semantic-parent="10" data-semantic-speech="one fourth">
              <g data-mml-node="mn" transform="translate(220,394) scale(0.707)" data-semantic-type="number" data-semantic-role="integer" data-semantic-font="normal" data-semantic-annotation="clearspeak:simple" data-semantic-id="0" data-semantic-parent="2" data-semantic-speech="1" data-semantic-prefix="Numerator">
                <use data-c="31" xlink:href="#kronecker-MJX-7-TEX-N-31"/>
              </g>
              <g data-mml-node="mn" transform="translate(220,-345) scale(0.707)" data-semantic-type="number" data-semantic-role="integer" data-semantic-font="normal" data-semantic-annotation="clearspeak:simple" data-semantic-id="1" data-semantic-parent="2" data-semantic-speech="4" data-semantic-prefix="Denominator">
                <use data-c="34" xlink:href="#kronecker-MJX-7-TEX-N-34"/>
              </g>
              <rect width="553.6" height="60" x="120" y="220"/>
            </g>
            <g data-mml-node="mo" data-semantic-type="operator" data-semantic-role="multiplication" data-semantic-id="9" data-semantic-parent="10" data-semantic-added="true" data-semantic-operator="infixop,⁢" data-semantic-speech="times" transform="translate(793.6,0)">
              <use data-c="2062" xlink:href="#kronecker-MJX-7-TEX-N-2062"/>
            </g>
            <g data-mml-node="msup" data-semantic-type="superscript" data-semantic-role="latinletter" data-semantic-id="8" data-semantic-children="3,7" data-semantic-parent="10" data-semantic-speech="e Superscript 4 x" transform="translate(793.6,0)">
              <g data-mml-node="mi" data-semantic-type="identifier" data-semantic-role="latinletter" data-semantic-font="italic" data-semantic-annotation="clearspeak:simple" data-semantic-id="3" data-semantic-parent="8" data-semantic-speech="e" data-semantic-prefix="Base">
                <use data-c="1D452" xlink:href="#kronecker-MJX-7-TEX-I-1D452"/>
              </g>
              <g data-mml-node="TeXAtom" transform="translate(499,363) scale(0.707)" data-semantic-type="infixop" data-semantic-role="implicit" data-semantic-annotation="clearspeak:simple;clearspeak:unit" data-semantic-id="7" data-semantic-children="4,5" data-semantic-content="6" data-semantic-parent="8" data-semantic-attributes="texclass:ORD" data-semantic-speech="4 x" data-semantic-prefix="Exponent" data-mjx-texclass="ORD">
                <g data-mml-node="mn" data-semantic-type="number" data-semantic-role="integer" data-semantic-font="normal" data-semantic-annotation="clearspeak:simple" data-semantic-id="4" data-semantic-parent="7" data-semantic-speech="4">
                  <use data-c="34" xlink:href="#kronecker-MJX-7-TEX-N-34"/>
                </g>
                <g data-mml-node="mo" data-semantic-type="operator" data-semantic-role="multiplication" data-semantic-id="6" data-semantic-parent="7" data-semantic-added="true" data-semantic-operator="infixop,⁢" data-semantic-speech="times" transform="translate(500,0)">
                  <use data-c="2062" xlink:href="#kronecker-MJX-7-TEX-N-2062"/>
                </g>
                <g data-mml-node="mi" data-semantic-type="identifier" data-semantic-role="latinletter" data-semantic-font="italic" data-semantic-annotation="clearspeak:simple" data-semantic-id="5" data-semantic-parent="7" data-semantic-speech="x" transform="translate(500,0)">
                  <use data-c="1D465" xlink:href="#kronecker-MJX-7-TEX-I-1D465"/>
                </g>
              </g>
            </g>
          </g>
        </g>
      </svg>
    </g>
  </g>
  <g id="kronecker-label-8" transform="translate(192.5,172.1) translate(-22.2,-11.1)">
    <g id="kronecker-g-8">
      <svg xmlns:xlink="http://www.w3.org/1999/xlink" style="vertical-align: -6.528px" width="44.416px" height="22.184px" role="img" focusable="false" viewBox="0 -864.9 2454.1 1225.5" x="0.0" y="0.0">
        <defs>
          <path id="kronecker-MJX-8-TEX-N-31" d="M213 578L200 573Q186 568 160 563T102 556H83V602H102Q149 604 189 617T245 641T273 663Q275 666 285 666Q294 666 302 660V361L303 61Q310 54 315 52T339 48T401 46H427V0H416Q395 3 257 3Q121 3 100 0H88V46H114Q136 46 152 46T177 47T193 50T201 52T207 57T213 61V578Z"/>
          <path id="kronecker-MJX-8-TEX-N-36" d="M42 313Q42 476 123 571T303 666Q372 666 402 630T432 550Q432 525 418 510T379 495Q356 495 341 509T326 548Q326 592 373 601Q351 623 311 626Q240 626 194 566Q147 500 147 364L148 360Q153 366 156 373Q197 433 263 433H267Q313 433 348 414Q372 400 396 374T435 317Q456 268 456 210V192Q456 169 451 149Q440 90 387 34T253 -22Q225 -22 199 -14T143 16T92 75T56 172T42 313ZM257 397Q227 397 205 380T171 335T154 278T148 216Q148 133 160 97T198 39Q222 21 251 21Q302 21 329 59Q342 77 347 104T352 209Q352 289 347 316T329 361Q302 397 257 397Z"/>
          <path id="kronecker-MJX-8-TEX-N-2062" d=""/>
          <path id="kronecker-MJX-8-TEX-I-1D452" d="M39 168Q39 225 58 272T107 350T174 402T244 433T307 442H310Q355 442 388 420T421 355Q421 265 310 237Q261 224 176 223Q139 223 138 221Q138 219 132 186T125 128Q125 81 146 54T209 26T302 45T394 111Q403 121 406 121Q410 121 419 112T429 98T420 82T390 55T344 24T281 -1T205 -11Q126 -11 83 42T39 168ZM373 353Q367 405 305 405Q272 405 244 391T199 357T170 316T154 280T149 261Q149 260 169 260Q282 260 327 284T373 353Z"/>
          <path id="kronecker-MJX-8-TEX-N-34" d="M462 0Q444 3 333 3Q217 3 199 0H190V46H221Q241 46 248 46T265 48T279 53T286 61Q287 63 287 115V165H28V211L179 442Q332 674 334 675Q336 677 355 677H373L379 671V211H471V165H379V114Q379 73 379 66T385 54Q393 47 442 46H471V0H462ZM293 211V545L74 212L183 211H293Z"/>
          <path id="kronecker-MJX-8-TEX-I-1D465" d="M52 289Q59 331 106 386T222 442Q257 442 286 424T329 379Q371 442 430 442Q467 442 494 420T522 361Q522 332 508 314T481 292T458 288Q439 288 427 299T415 328Q415 374 465 391Q454 404 425 404Q412 404 406 402Q368 386 350 336Q290 115 290 78Q290 50 306 38T341 26Q378 26 414 59T463 140Q466 150 469 151T485 153H489Q504 153 504 145Q504 144 502 134Q486 77 440 33T333 -11Q263 -11 227 52Q186 -10 133 -10H127Q78 -10 57 16T35 71Q35 103 54 123T99 143Q142 143 142 101Q142 81 130 66T107 46T94 41L91 40Q91 39 97 36T113 29T132 26Q168 26 194 71Q203 87 217 139T245 247T261 313Q266 340 266 352Q266 380 251 392T217 404Q177 404 142 372T93 290Q91 281 88 280T72 278H58Q52 284 52 289Z"/>
        </defs>
        <g stroke="currentColor" fill="currentColor" stroke-width="0" transform="scale(1,-1)">
          <g data-mml-node="math" data-semantic-type="infixop" data-semantic-role="implicit" data-semantic-annotation="clearspeak:unit" data-semantic-id="10" data-semantic-children="2,8" data-semantic-content="9" data-semantic-speech="one sixteenth e Superscript 4 x">
            <g data-mml-node="mfrac" data-semantic-type="fraction" data-semantic-role="vulgar" data-semantic-id="2" data-semantic-children="0,1" data-semantic-parent="10" data-semantic-speech="one sixteenth">
              <g data-mml-node="mn" transform="translate(396.8,394) scale(0.707)" data-semantic-type="number" data-semantic-role="integer" data-semantic-font="normal" data-semantic-annotation="clearspeak:simple" data-semantic-id="0" data-semantic-parent="2" data-semantic-speech="1" data-semantic-prefix="Numerator">
                <use data-c="31" xlink:href="#kronecker-MJX-8-TEX-N-31"/>
              </g>
              <g data-mml-node="mn" transform="translate(220,-345) scale(0.707)" data-semantic-type="number" data-semantic-role="integer" data-semantic-font="normal" data-semantic-annotation="clearspeak:simple" data-semantic-id="1" data-semantic-parent="2" data-semantic-speech="16" data-semantic-prefix="Denominator">
                <use data-c="31" xlink:href="#kronecker-MJX-8-TEX-N-31"/>
                <use data-c="36" xlink:href="#kronecker-MJX-8-TEX-N-36" transform="translate(500,0)"/>
              </g>
              <rect width="907.1" height="60" x="120" y="220"/>
            </g>
            <g data-mml-node="mo" data-semantic-type="operator" data-semantic-role="multiplication" data-semantic-id="9" data-semantic-parent="10" data-semantic-added="true" data-semantic-operator="infixop,⁢" data-semantic-speech="times" transform="translate(1147.1,0)">
              <use data-c="2062" xlink:href="#kronecker-MJX-8-TEX-N-2062"/>
            </g>
            <g data-mml-node="msup" data-semantic-type="superscript" data-semantic-role="latinletter" data-semantic-id="8" data-semantic-children="3,7" data-semantic-parent="10" data-semantic-speech="e Superscript 4 x" transform="translate(1147.1,0)">
              <g data-mml-node="mi" data-semantic-type="identifier" data-semantic-role="latinletter" data-semantic-font="italic" data-semantic-annotation="clearspeak:simple" data-semantic-id="3" data-semantic-parent="8" data-semantic-speech="e" data-semantic-prefix="Base">
                <use data-c="1D452" xlink:href="#kronecker-MJX-8-TEX-I-1D452"/>
              </g>
              <g data-mml-node="TeXAtom" transform="translate(499,363) scale(0.707)" data-semantic-type="infixop" data-semantic-role="implicit" data-semantic-annotation="clearspeak:simple;clearspeak:unit" data-semantic-id="7" data-semantic-children="4,5" data-semantic-content="6" data-semantic-parent="8" data-semantic-attributes="texclass:ORD" data-semantic-speech="4 x" data-semantic-prefix="Exponent" data-mjx-texclass="ORD">
                <g data-mml-node="mn" data-semantic-type="number" data-semantic-role="integer" data-semantic-font="normal" data-semantic-annotation="clearspeak:simple" data-semantic-id="4" data-semantic-parent="7" data-semantic-speech="4">
                  <use data-c="34" xlink:href="#kronecker-MJX-8-TEX-N-34"/>
                </g>
                <g data-mml-node="mo" data-semantic-type="operator" data-semantic-role="multiplication" data-semantic-id="6" data-semantic-parent="7" data-semantic-added="true" data-semantic-operator="infixop,⁢" data-semantic-speech="times" transform="translate(500,0)">
                  <use data-c="2062" xlink:href="#kronecker-MJX-8-TEX-N-2062"/>
                </g>
                <g data-mml-node="mi" data-semantic-type="identifier" data-semantic-role="latinletter" data-semantic-font="italic" data-semantic-annotation="clearspeak:simple" data-semantic-id="5" data-semantic-parent="7" data-semantic-speech="x" transform="translate(500,0)">
                  <use data-c="1D465" xlink:href="#kronecker-MJX-8-TEX-I-1D465"/>
                </g>
              </g>
            </g>
          </g>
        </g>
      </svg>
    </g>
  </g>
  <g id="kronecker-label-9" transform="translate(192.5,223.6) translate(-22.2,-11.1)">
    <g id="kronecker-g-9">
      <svg xmlns:xlink="http://www.w3.org/1999/xlink" style="vertical-align: -6.528px" width="44.416px" height="22.184px" role="img" focusable="false" viewBox="0 -864.9 2454.1 1225.5" x="0.0" y="0.0">
        <defs>
          <path id="kronecker-MJX-9-TEX-N-31" d="M213 578L200 573Q186 568 160 563T102 556H83V602H102Q149 604 189 617T245 641T273 663Q275 666 285 666Q294 666 302 660V361L303 61Q310 54 315 52T339 48T401 46H427V0H416Q395 3 257 3Q121 3 100 0H88V46H114Q136 46 152 46T177 47T193 50T201 52T207 57T213 61V578Z"/>
          <path id="kronecker-MJX-9-TEX-N-36" d="M42 313Q42 476 123 571T303 666Q372 666 402 630T432 550Q432 525 418 510T379 495Q356 495 341 509T326 548Q326 592 373 601Q351 623 311 626Q240 626 194 566Q147 500 147 364L148 360Q153 366 156 373Q197 433 263 433H267Q313 433 348 414Q372 400 396 374T435 317Q456 268 456 210V192Q456 169 451 149Q440 90 387 34T253 -22Q225 -22 199 -14T143 16T92 75T56 172T42 313ZM257 397Q227 397 205 380T171 335T154 278T148 216Q148 133 160 97T198 39Q222 21 251 21Q302 21 329 59Q342 77 347 104T352 209Q352 289 347 316T329 361Q302 397 257 397Z"/>
          <path id="kronecker-MJX-9-TEX-N-34" d="M462 0Q444 3 333 3Q217 3 199 0H190V46H221Q241 46 248 46T265 48T279 53T286 61Q287 63 287 115V165H28V211L179 442Q332 674 334 675Q336 677 355 677H373L379 671V211H471V165H379V114Q379 73 379 66T385 54Q393 47 442 46H471V0H462ZM293 211V545L74 212L183 211H293Z"/>
          <path id="kronecker-MJX-9-TEX-N-2062" d=""/>
          <path id="kronecker-MJX-9-TEX-I-1D452" d="M39 168Q39 225 58 272T107 350T174 402T244 433T307 442H310Q355 442 388 420T421 355Q421 265 310 237Q261 224 176 223Q139 223 138 221Q138 219 132 186T125 128Q125 81 146 54T209 26T302 45T394 111Q403 121 406 121Q410 121 419 112T429 98T420 82T390 55T344 24T281 -1T205 -11Q126 -11 83 42T39 168ZM373 353Q367 405 305 405Q272 405 244 391T199 357T170 316T154 280T149 261Q149 260 169 260Q282 260 327 284T373 353Z"/>
          <path id="kronecker-MJX-9-TEX-I-1D465" d="M52 289Q59 331 106 386T222 442Q257 442 286 424T329 379Q371 442 430 442Q467 442 494 420T522 361Q522 332 508 314T481 292T458 288Q439 288 427 299T415 328Q415 374 465 391Q454 404 425 404Q412 404 406 402Q368 386 350 336Q290 115 290 78Q290 50 306 38T341 26Q378 26 414 59T463 140Q466 150 469 151T485 153H489Q504 153 504 145Q504 144 502 134Q486 77 440 33T333 -11Q263 -11 227 52Q186 -10 133 -10H127Q78 -10 57 16T35 71Q35 103 54 123T99 143Q142 143 142 101Q142 81 130 66T107 46T94 41L91 40Q91 39 97 36T113 29T132 26Q168 26 194 71Q203 87 217 139T245 247T261 313Q266 340 266 352Q266 380 251 392T217 404Q177 404 142 372T93 290Q91 281 88 280T72 278H58Q52 284 52 289Z"/>
        </defs>
        <g stroke="currentColor" fill="currentColor" stroke-width="0" transform="scale(1,-1)">
          <g data-mml-node="math" data-semantic-type="infixop" data-semantic-role="implicit" data-semantic-annotation="clearspeak:unit" data-semantic-id="10" data-semantic-children="2,8" data-semantic-content="9" data-semantic-speech="one sixty fourth e Superscript 4 x">
            <g data-mml-node="mfrac" data-semantic-type="fraction" data-semantic-role="vulgar" data-semantic-id="2" data-semantic-children="0,1" data-semantic-parent="10" data-semantic-speech="one sixty fourth">
              <g data-mml-node="mn" transform="translate(396.8,394) scale(0.707)" data-semantic-type="number" data-semantic-role="integer" data-semantic-font="normal" data-semantic-annotation="clearspeak:simple" data-semantic-id="0" data-semantic-parent="2" data-semantic-speech="1" data-semantic-prefix="Numerator">
                <use data-c="31" xlink:href="#kronecker-MJX-9-TEX-N-31"/>
              </g>
              <g data-mml-node="mn" transform="translate(220,-345) scale(0.707)" data-semantic-type="number" data-semantic-role="integer" data-semantic-font="normal" data-semantic-annotation="clearspeak:simple" data-semantic-id="1" data-semantic-parent="2" data-semantic-speech="64" data-semantic-prefix="Denominator">
                <use data-c="36" xlink:href="#kronecker-MJX-9-TEX-N-36"/>
                <use data-c="34" xlink:href="#kronecker-MJX-9-TEX-N-34" transform="translate(500,0)"/>
              </g>
              <rect width="907.1" height="60" x="120" y="220"/>
            </g>
            <g data-mml-node="mo" data-semantic-type="operator" data-semantic-role="multiplication" data-semantic-id="9" data-semantic-parent="10" data-semantic-added="true" data-semantic-operator="infixop,⁢" data-semantic-speech="times" transform="translate(1147.1,0)">
              <use data-c="2062" xlink:href="#kronecker-MJX-9-TEX-N-2062"/>
            </g>
            <g data-mml-node="msup" data-semantic-type="superscript" data-semantic-role="latinletter" data-semantic-id="8" data-semantic-children="3,7" data-semantic-parent="10" data-semantic-speech="e Superscript 4 x" transform="translate(1147.1,0)">
              <g data-mml-node="mi" data-semantic-type="identifier" data-semantic-role="latinletter" data-semantic-font="italic" data-semantic-annotation="clearspeak:simple" data-semantic-id="3" data-semantic-parent="8" data-semantic-speech="e" data-semantic-prefix="Base">
                <use data-c="1D452" xlink:href="#kronecker-MJX-9-TEX-I-1D452"/>
              </g>
              <g data-mml-node="TeXAtom" transform="translate(499,363) scale(0.707)" data-semantic-type="infixop" data-semantic-role="implicit" data-semantic-annotation="clearspeak:simple;clearspeak:unit" data-semantic-id="7" data-semantic-children="4,5" data-semantic-content="6" data-semantic-parent="8" data-semantic-attributes="texclass:ORD" data-semantic-speech="4 x" data-semantic-prefix="Exponent" data-mjx-texclass="ORD">
                <g data-mml-node="mn" data-semantic-type="number" data-semantic-role="integer" data-semantic-font="normal" data-semantic-annotation="clearspeak:simple" data-semantic-id="4" data-semantic-parent="7" data-semantic-speech="4">
                  <use data-c="34" xlink:href="#kronecker-MJX-9-TEX-N-34"/>
                </g>
                <g data-mml-node="mo" data-semantic-type="operator" data-semantic-role="multiplication" data-semantic-id="6" data-semantic-parent="7" data-semantic-added="true" data-semantic-operator="infixop,⁢" data-semantic-speech="times" transform="translate(500,0)">
                  <use data-c="2062" xlink:href="#kronecker-MJX-9-TEX-N-2062"/>
                </g>
                <g data-mml-node="mi" data-semantic-type="identifier" data-semantic-role="latinletter" data-semantic-font="italic" data-semantic-annotation="clearspeak:simple" data-semantic-id="5" data-semantic-parent="7" data-semantic-speech="x" transform="translate(500,0)">
                  <use data-c="1D465" xlink:href="#kronecker-MJX-9-TEX-I-1D465"/>
                </g>
              </g>
            </g>
          </g>
        </g>
      </svg>
    </g>
  </g>
  <line id="kronecker-line-2" x1="42.5" y1="77.9" x2="42.5" y2="110.9" stroke="black" stroke-width="1" stroke-dasharray="2" fill="none" marker-end="url(#kronecker-arrow-head-end-1_None_24_60-black)"/>
  <line id="kronecker-line-3" x1="42.5" y1="129.3" x2="42.5" y2="162.4" stroke="black" stroke-width="1" stroke-dasharray="2" fill="none" marker-end="url(#kronecker-arrow-head-end-1_None_24_60-black)"/>
  <line id="kronecker-line-4" x1="42.5" y1="180.7" x2="42.5" y2="213.8" stroke="black" stroke-width="1" stroke-dasharray="2" fill="none" marker-end="url(#kronecker-arrow-head-end-1_None_24_60-black)"/>
  <line id="kronecker-line-5" x1="192.5" y1="77.9" x2="192.5" y2="110.9" stroke="black" stroke-width="1" stroke-dasharray="2" fill="none" marker-end="url(#kronecker-arrow-head-end-1_None_24_60-black)"/>
  <line id="kronecker-line-6" x1="192.5" y1="129.3" x2="192.5" y2="162.4" stroke="black" stroke-width="1" stroke-dasharray="2" fill="none" marker-end="url(#kronecker-arrow-head-end-1_None_24_60-black)"/>
  <line id="kronecker-line-7" x1="192.5" y1="180.7" x2="192.5" y2="213.8" stroke="black" stroke-width="1" stroke-dasharray="2" fill="none" marker-end="url(#kronecker-arrow-head-end-1_None_24_60-black)"/>
  <line id="kronecker-line-8" x1="55.6" y1="71.4" x2="176.3" y2="111.7" stroke="red" stroke-width="1" fill="none" marker-end="url(#kronecker-arrow-head-end-1_None_24_60-red)"/>
  <line id="kronecker-line-9" x1="55.6" y1="122.9" x2="176.3" y2="163.2" stroke="orange" stroke-width="1" fill="none" marker-end="url(#kronecker-arrow-head-end-1_None_24_60-orange)"/>
  <line id="kronecker-line-10" x1="55.6" y1="174.3" x2="178.2" y2="214.6" stroke="blue" stroke-width="1" fill="none" marker-end="url(#kronecker-arrow-head-end-1_None_24_60-blue)"/>
  <g id="kronecker-label-10" transform="translate(117.5,120.7) translate(-7.0,-6.0)">
    <g id="kronecker-g-10">
      <svg xmlns:xlink="http://www.w3.org/1999/xlink" style="vertical-align: -1.488px" width="14.080px" height="12.040px" role="img" focusable="false" viewBox="0 -583 778 665" x="0.0" y="0.0">
        <defs>
          <path id="kronecker-MJX-10-TEX-N-2B" d="M56 237T56 250T70 270H369V420L370 570Q380 583 389 583Q402 583 409 568V270H707Q722 262 722 250T707 230H409V-68Q401 -82 391 -82H389H387Q375 -82 369 -68V230H70Q56 237 56 250Z"/>
        </defs>
        <g stroke="currentColor" fill="currentColor" stroke-width="0" transform="scale(1,-1)">
          <g data-mml-node="math">
            <g data-mml-node="mo" data-semantic-type="operator" data-semantic-role="addition" data-semantic-id="0" data-semantic-speech="plus">
              <use data-c="2B" xlink:href="#kronecker-MJX-10-TEX-N-2B"/>
            </g>
          </g>
        </g>
      </svg>
    </g>
  </g>
  <g id="kronecker-label-11" transform="translate(117.5,172.1) translate(-7.0,-6.0)">
    <g id="kronecker-g-11">
      <svg xmlns:xlink="http://www.w3.org/1999/xlink" style="vertical-align: -1.488px" width="14.080px" height="12.040px" role="img" focusable="false" viewBox="0 -583 778 665" x="0.0" y="0.0">
        <defs>
          <path id="kronecker-MJX-11-TEX-N-2212" d="M84 237T84 250T98 270H679Q694 262 694 250T679 230H98Q84 237 84 250Z"/>
        </defs>
        <g stroke="currentColor" fill="currentColor" stroke-width="0" transform="scale(1,-1)">
          <g data-mml-node="math">
            <g data-mml-node="mo" data-semantic-type="operator" data-semantic-role="subtraction" data-semantic-id="0" data-semantic-speech="minus">
              <use data-c="2212" xlink:href="#kronecker-MJX-11-TEX-N-2212"/>
            </g>
          </g>
        </g>
      </svg>
    </g>
  </g>
  <g id="kronecker-label-12" transform="translate(117.5,223.6) translate(-7.0,-6.0)">
    <g id="kronecker-g-12">
      <svg xmlns:xlink="http://www.w3.org/1999/xlink" style="vertical-align: -1.488px" width="14.080px" height="12.040px" role="img" focusable="false" viewBox="0 -583 778 665" x="0.0" y="0.0">
        <defs>
          <path id="kronecker-MJX-12-TEX-N-2B" d="M56 237T56 250T70 270H369V420L370 570Q380 583 389 583Q402 583 409 568V270H707Q722 262 722 250T707 230H409V-68Q401 -82 391 -82H389H387Q375 -82 369 -68V230H70Q56 237 56 250Z"/>
        </defs>
        <g stroke="currentColor" fill="currentColor" stroke-width="0" transform="scale(1,-1)">
          <g data-mml-node="math">
            <g data-mml-node="mo" data-semantic-type="operator" data-semantic-role="addition" data-semantic-id="0" data-semantic-speech="plus">
              <use data-c="2B" xlink:href="#kronecker-MJX-12-TEX-N-2B"/>
            </g>
          </g>
        </g>
      </svg>
    </g>
  </g>
</svg>
